<svg width="1440" height="1024" viewBox="0 0 1440 1024" fill="none" xmlns="http://www.w3.org/2000/svg">
<rect width="1440" height="1024" fill="#F7F7F7"/>
<path d="M247.74 286L235 239.525H246.635L251.315 259.025C252.355 263.51 253.46 270.53 253.46 270.53H253.59C253.59 270.53 254.825 264.16 255.865 259.48L260.22 239.525H270.88L275.235 259.35C276.275 264.095 277.445 270.53 277.445 270.53H277.575C277.575 270.53 278.875 263.51 279.915 258.895L284.53 239.525H296.1L283.36 286H272.115L267.24 263.705C266.395 260 265.615 255.06 265.615 255.06H265.485C265.485 255.06 264.705 260 263.925 263.705L259.05 286H247.74ZM298.663 286V239.525H309.258V256.815H309.453C311.858 253.63 314.718 251.745 319.333 251.745C326.613 251.745 330.903 256.945 330.903 264.355V286H320.308V266.5C320.308 262.99 318.553 260.585 315.108 260.585C311.598 260.585 309.258 263.51 309.258 267.605V286H298.663ZM351.983 286.975C340.998 286.975 334.238 279.37 334.238 269.295C334.238 259.35 341.193 251.745 351.333 251.745C356.078 251.745 359.848 253.305 362.708 255.905C366.673 259.545 368.623 265.33 368.558 272.09H344.638C345.288 276.575 347.758 279.37 352.113 279.37C354.908 279.37 356.728 278.135 357.638 276.055H367.973C367.258 279.045 365.308 281.905 362.383 283.92C359.588 285.87 356.208 286.975 351.983 286.975ZM344.703 265.785H357.833C357.443 261.82 354.973 259.285 351.528 259.285C347.498 259.285 345.418 261.82 344.703 265.785ZM372.105 286V252.72H382.245V257.92H382.44C384.78 253.955 387.51 252.2 391.54 252.2C392.515 252.2 393.165 252.265 393.62 252.46V261.56H393.36C386.86 260.65 382.7 263.835 382.7 271.05V286H372.105ZM412.603 286.975C401.618 286.975 394.858 279.37 394.858 269.295C394.858 259.35 401.813 251.745 411.953 251.745C416.698 251.745 420.468 253.305 423.328 255.905C427.293 259.545 429.243 265.33 429.178 272.09H405.258C405.908 276.575 408.378 279.37 412.733 279.37C415.528 279.37 417.348 278.135 418.258 276.055H428.593C427.878 279.045 425.928 281.905 423.003 283.92C420.208 285.87 416.828 286.975 412.603 286.975ZM405.323 265.785H418.453C418.063 261.82 415.593 259.285 412.148 259.285C408.118 259.285 406.038 261.82 405.323 265.785ZM443.468 286V239.525H455.038L468.818 262.86C469.533 264.16 472.003 268.775 472.003 268.775H472.133C472.133 268.775 472.003 263.185 472.003 261.56V239.525H483.248V286H471.678L458.028 262.99C457.248 261.755 454.713 256.75 454.713 256.75H454.583C454.583 256.75 454.713 262.73 454.713 264.355V286H443.468ZM505.216 286.975C494.231 286.975 487.471 279.37 487.471 269.295C487.471 259.35 494.426 251.745 504.566 251.745C509.311 251.745 513.081 253.305 515.941 255.905C519.906 259.545 521.856 265.33 521.791 272.09H497.871C498.521 276.575 500.991 279.37 505.346 279.37C508.141 279.37 509.961 278.135 510.871 276.055H521.206C520.491 279.045 518.541 281.905 515.616 283.92C512.821 285.87 509.441 286.975 505.216 286.975ZM497.936 265.785H511.066C510.676 261.82 508.206 259.285 504.761 259.285C500.731 259.285 498.651 261.82 497.936 265.785ZM520.973 286L532.543 268.515L522.078 252.72H534.168L539.108 261.3H539.238L543.918 252.72H555.033L545.153 268.385L556.463 286H544.178L538.718 276.055H538.588L532.543 286H520.973ZM571.35 286.39C565.175 286.39 560.755 284.375 560.755 277.225V259.35H556.335V252.72H560.755V242.19H571.09V252.72H577.135V259.35H571.09V274.95C571.09 277.55 572.52 278.2 574.795 278.2C575.705 278.2 576.745 278.135 577.135 278.135V285.87C576.225 286.13 574.21 286.39 571.35 286.39ZM591.141 270.79C591.141 264.16 592.506 262.535 595.626 259.935C598.486 257.27 602.191 256.295 602.191 252.33C602.191 249.275 599.786 247.455 596.666 247.455C592.766 247.455 590.101 249.99 590.101 254.15H579.636C579.831 244.985 586.266 238.68 597.121 238.68C606.806 238.68 613.306 244.075 613.306 251.94C613.306 258.05 610.056 260.585 607.196 262.47C604.466 264.225 602.776 265.135 601.736 266.37C600.826 267.54 600.501 268.71 600.501 270.79H591.141ZM590.101 286V275.08H601.216V286H590.101Z" fill="black"/>
<path d="M236.8 363V337.26H243.172V363H236.8ZM246.353 363V344.568H252.005V347.088H252.113C253.481 345.108 255.245 344.028 257.801 344.028C261.833 344.028 264.209 346.908 264.209 351.012V363H258.341V352.2C258.341 350.256 257.369 348.924 255.461 348.924C253.517 348.924 252.221 350.544 252.221 352.812V363H246.353ZM266.884 363V344.568H272.752V363H266.884ZM266.884 342.012V337.26H272.752V342.012H266.884ZM282.876 363.216C279.456 363.216 277.008 362.1 277.008 358.14V348.24H274.56V344.568H277.008V338.736H282.732V344.568H286.08V348.24H282.732V356.88C282.732 358.32 283.524 358.68 284.784 358.68C285.288 358.68 285.864 358.644 286.08 358.644V362.928C285.576 363.072 284.46 363.216 282.876 363.216ZM288.189 363V344.568H294.057V363H288.189ZM288.189 342.012V337.26H294.057V342.012H288.189ZM302.309 363.468C298.637 363.468 296.009 361.488 296.009 357.852C296.009 353.784 299.249 352.56 303.065 352.056C306.521 351.624 307.745 351.264 307.745 350.004C307.745 348.816 306.989 348.024 305.225 348.024C303.353 348.024 302.417 348.852 302.237 350.4H296.837C296.981 346.98 299.609 344.064 305.189 344.064C307.961 344.064 309.833 344.568 311.165 345.576C312.749 346.728 313.505 348.528 313.505 350.832V360.12C313.505 361.596 313.649 362.424 314.153 362.748V363H308.465C308.177 362.604 307.997 361.884 307.853 360.948H307.781C306.701 362.496 305.081 363.468 302.309 363.468ZM304.181 359.724C306.377 359.724 307.889 358.392 307.889 356.412V354.216C307.133 354.612 306.053 354.9 304.865 355.188C302.597 355.692 301.661 356.268 301.661 357.672C301.661 359.148 302.741 359.724 304.181 359.724ZM323.306 363.216C319.886 363.216 317.438 362.1 317.438 358.14V348.24H314.99V344.568H317.438V338.736H323.162V344.568H326.51V348.24H323.162V356.88C323.162 358.32 323.954 358.68 325.214 358.68C325.718 358.68 326.294 358.644 326.51 358.644V362.928C326.006 363.072 324.89 363.216 323.306 363.216ZM328.619 363V344.568H334.487V363H328.619ZM328.619 342.012V337.26H334.487V342.012H328.619ZM342.162 363L335.79 344.568H341.838L344.358 352.884C344.898 354.72 345.366 356.592 345.366 356.592H345.438C345.438 356.592 345.906 354.72 346.446 352.884L349.002 344.568H354.87L348.498 363H342.162ZM364.478 363.54C358.394 363.54 354.65 359.328 354.65 353.748C354.65 348.24 358.502 344.028 364.118 344.028C366.746 344.028 368.834 344.892 370.418 346.332C372.614 348.348 373.694 351.552 373.658 355.296H360.41C360.77 357.78 362.138 359.328 364.55 359.328C366.098 359.328 367.106 358.644 367.61 357.492H373.334C372.938 359.148 371.858 360.732 370.238 361.848C368.69 362.928 366.818 363.54 364.478 363.54ZM360.446 351.804H367.718C367.502 349.608 366.134 348.204 364.226 348.204C361.994 348.204 360.842 349.608 360.446 351.804ZM375.479 363V356.952H381.635V363H375.479ZM375.479 351.84V345.792H381.635V351.84H375.479ZM401.164 363.576C398.716 363.576 396.736 362.568 395.584 360.66H395.512V363H389.896V337.26H395.764V346.656H395.872C397.024 345.072 398.608 344.028 401.128 344.028C405.916 344.028 409.012 348.24 409.012 353.784C409.012 359.904 405.916 363.576 401.164 363.576ZM399.508 358.932C401.812 358.932 403.072 356.952 403.072 353.748C403.072 350.58 401.812 348.492 399.436 348.492C396.844 348.492 395.584 350.76 395.584 353.784C395.584 356.844 397.096 358.932 399.508 358.932ZM419.99 363.54C413.906 363.54 410.162 359.328 410.162 353.748C410.162 348.24 414.014 344.028 419.63 344.028C422.258 344.028 424.346 344.892 425.93 346.332C428.126 348.348 429.206 351.552 429.17 355.296H415.922C416.282 357.78 417.65 359.328 420.062 359.328C421.61 359.328 422.618 358.644 423.122 357.492H428.846C428.45 359.148 427.37 360.732 425.75 361.848C424.202 362.928 422.33 363.54 419.99 363.54ZM415.958 351.804H423.23C423.014 349.608 421.646 348.204 419.738 348.204C417.506 348.204 416.354 349.608 415.958 351.804ZM438.091 363.216C434.671 363.216 432.223 362.1 432.223 358.14V348.24H429.775V344.568H432.223V338.736H437.947V344.568H441.295V348.24H437.947V356.88C437.947 358.32 438.739 358.68 439.999 358.68C440.503 358.68 441.079 358.644 441.295 358.644V362.928C440.791 363.072 439.675 363.216 438.091 363.216ZM450.536 363.216C447.116 363.216 444.668 362.1 444.668 358.14V348.24H442.22V344.568H444.668V338.736H450.392V344.568H453.74V348.24H450.392V356.88C450.392 358.32 451.184 358.68 452.444 358.68C452.948 358.68 453.524 358.644 453.74 358.644V362.928C453.236 363.072 452.12 363.216 450.536 363.216ZM464.674 363.54C458.59 363.54 454.846 359.328 454.846 353.748C454.846 348.24 458.698 344.028 464.314 344.028C466.942 344.028 469.03 344.892 470.614 346.332C472.81 348.348 473.89 351.552 473.854 355.296H460.606C460.966 357.78 462.334 359.328 464.746 359.328C466.294 359.328 467.302 358.644 467.806 357.492H473.53C473.134 359.148 472.054 360.732 470.434 361.848C468.886 362.928 467.014 363.54 464.674 363.54ZM460.642 351.804H467.914C467.698 349.608 466.33 348.204 464.422 348.204C462.19 348.204 461.038 349.608 460.642 351.804ZM475.818 363V344.568H481.434V347.448H481.542C482.838 345.252 484.35 344.28 486.582 344.28C487.122 344.28 487.482 344.316 487.734 344.424V349.464H487.59C483.99 348.96 481.686 350.724 481.686 354.72V363H475.818ZM503.037 363.576C497.637 363.576 494.253 361.092 494.073 357.024H499.617C499.833 358.86 501.057 359.76 503.001 359.76C504.765 359.76 505.881 359.112 505.881 357.924C505.881 356.268 503.649 356.088 501.201 355.656C497.997 355.116 494.577 354.252 494.577 349.932C494.577 346.044 498.177 344.028 502.533 344.028C507.753 344.028 510.561 346.296 510.849 349.932H505.449C505.233 348.276 504.117 347.772 502.497 347.772C501.057 347.772 499.941 348.312 499.941 349.464C499.941 350.76 502.029 350.94 504.369 351.372C507.609 351.912 511.425 352.74 511.425 357.456C511.425 361.488 507.861 363.576 503.037 363.576ZM519.666 363.54C515.418 363.54 513.186 360.768 513.186 356.664V344.568H519.018V355.44C519.018 357.456 519.918 358.572 521.79 358.572C523.806 358.572 525.03 357.06 525.03 354.864V344.568H530.898V363H525.282V360.732H525.174C523.842 362.532 522.222 363.54 519.666 363.54ZM533.72 369.084V344.568H539.336V346.8H539.444C540.704 345.144 542.504 344.028 545.024 344.028C549.92 344.028 552.908 348.24 552.908 353.784C552.908 359.76 549.704 363.576 544.88 363.576C542.504 363.576 540.812 362.64 539.66 361.092H539.588V369.084H533.72ZM543.368 359.04C545.6 359.04 546.968 357.132 546.968 354C546.968 350.832 545.78 348.744 543.26 348.744C540.704 348.744 539.408 351.012 539.408 354C539.408 356.988 540.848 359.04 543.368 359.04ZM554.884 369.084V344.568H560.5V346.8H560.608C561.868 345.144 563.668 344.028 566.188 344.028C571.084 344.028 574.072 348.24 574.072 353.784C574.072 359.76 570.868 363.576 566.044 363.576C563.668 363.576 561.976 362.64 560.824 361.092H560.752V369.084H554.884ZM564.532 359.04C566.764 359.04 568.132 357.132 568.132 354C568.132 350.832 566.944 348.744 564.424 348.744C561.868 348.744 560.572 351.012 560.572 354C560.572 356.988 562.012 359.04 564.532 359.04ZM585.049 359.4C587.605 359.4 588.973 357.168 588.973 353.82C588.973 350.472 587.605 348.204 585.049 348.204C582.493 348.204 581.161 350.472 581.161 353.82C581.161 357.168 582.493 359.4 585.049 359.4ZM585.085 363.576C579.181 363.576 575.221 359.364 575.221 353.82C575.221 348.276 579.181 344.064 585.085 344.064C591.025 344.064 594.913 348.276 594.913 353.82C594.913 359.364 591.025 363.576 585.085 363.576ZM596.896 363V344.568H602.512V347.448H602.62C603.916 345.252 605.428 344.28 607.66 344.28C608.2 344.28 608.56 344.316 608.812 344.424V349.464H608.668C605.068 348.96 602.764 350.724 602.764 354.72V363H596.896ZM618.337 363.216C614.917 363.216 612.469 362.1 612.469 358.14V348.24H610.021V344.568H612.469V338.736H618.193V344.568H621.541V348.24H618.193V356.88C618.193 358.32 618.985 358.68 620.245 358.68C620.749 358.68 621.325 358.644 621.541 358.644V362.928C621.037 363.072 619.921 363.216 618.337 363.216ZM637.088 363.576C631.688 363.576 628.304 361.092 628.124 357.024H633.668C633.884 358.86 635.108 359.76 637.052 359.76C638.816 359.76 639.932 359.112 639.932 357.924C639.932 356.268 637.7 356.088 635.252 355.656C632.048 355.116 628.628 354.252 628.628 349.932C628.628 346.044 632.228 344.028 636.584 344.028C641.804 344.028 644.612 346.296 644.9 349.932H639.5C639.284 348.276 638.168 347.772 636.548 347.772C635.108 347.772 633.992 348.312 633.992 349.464C633.992 350.76 636.08 350.94 638.42 351.372C641.66 351.912 645.476 352.74 645.476 357.456C645.476 361.488 641.912 363.576 637.088 363.576ZM656.556 363.54C650.472 363.54 646.728 359.328 646.728 353.748C646.728 348.24 650.58 344.028 656.196 344.028C658.824 344.028 660.912 344.892 662.496 346.332C664.692 348.348 665.772 351.552 665.736 355.296H652.488C652.848 357.78 654.216 359.328 656.628 359.328C658.176 359.328 659.184 358.644 659.688 357.492H665.412C665.016 359.148 663.936 360.732 662.316 361.848C660.768 362.928 658.896 363.54 656.556 363.54ZM652.524 351.804H659.796C659.58 349.608 658.212 348.204 656.304 348.204C654.072 348.204 652.92 349.608 652.524 351.804ZM667.737 363V337.26H673.677V363H667.737ZM677.893 363V348.312H675.517V344.568H677.893V343.236C677.893 341.328 678.433 339.924 679.405 338.952C680.989 337.404 684.049 337.044 687.217 337.368V341.508C684.985 341.436 683.761 341.616 683.761 343.668V344.568H687.217V348.312H683.761V363H677.893ZM688.648 356.484V351.444H698.44V356.484H688.648ZM708.807 363.576C703.407 363.576 700.023 361.092 699.843 357.024H705.387C705.603 358.86 706.827 359.76 708.771 359.76C710.535 359.76 711.651 359.112 711.651 357.924C711.651 356.268 709.419 356.088 706.971 355.656C703.767 355.116 700.347 354.252 700.347 349.932C700.347 346.044 703.947 344.028 708.303 344.028C713.523 344.028 716.331 346.296 716.619 349.932H711.219C711.003 348.276 709.887 347.772 708.267 347.772C706.827 347.772 705.711 348.312 705.711 349.464C705.711 350.76 707.799 350.94 710.139 351.372C713.379 351.912 717.195 352.74 717.195 357.456C717.195 361.488 713.631 363.576 708.807 363.576ZM728.275 363.54C722.191 363.54 718.447 359.328 718.447 353.748C718.447 348.24 722.299 344.028 727.915 344.028C730.543 344.028 732.631 344.892 734.215 346.332C736.411 348.348 737.491 351.552 737.455 355.296H724.207C724.567 357.78 725.935 359.328 728.347 359.328C729.895 359.328 730.903 358.644 731.407 357.492H737.131C736.735 359.148 735.655 360.732 734.035 361.848C732.487 362.928 730.615 363.54 728.275 363.54ZM724.243 351.804H731.515C731.299 349.608 729.931 348.204 728.023 348.204C725.791 348.204 724.639 349.608 724.243 351.804ZM739.42 363V344.568H745.036V347.448H745.144C746.44 345.252 747.952 344.28 750.184 344.28C750.724 344.28 751.084 344.316 751.336 344.424V349.464H751.192C747.592 348.96 745.288 350.724 745.288 354.72V363H739.42ZM758.588 363L752.216 344.568H758.264L760.784 352.884C761.324 354.72 761.792 356.592 761.792 356.592H761.864C761.864 356.592 762.332 354.72 762.872 352.884L765.428 344.568H771.296L764.924 363H758.588ZM780.904 363.54C774.82 363.54 771.076 359.328 771.076 353.748C771.076 348.24 774.928 344.028 780.544 344.028C783.172 344.028 785.26 344.892 786.844 346.332C789.04 348.348 790.12 351.552 790.084 355.296H776.836C777.196 357.78 778.564 359.328 780.976 359.328C782.524 359.328 783.532 358.644 784.036 357.492H789.76C789.364 359.148 788.284 360.732 786.664 361.848C785.116 362.928 783.244 363.54 780.904 363.54ZM776.872 351.804H784.144C783.928 349.608 782.56 348.204 780.652 348.204C778.42 348.204 777.268 349.608 776.872 351.804Z" fill="black"/>
<path d="M237.412 417V391.26H241.552L249.904 412.644H249.976L258.256 391.26H262.468V417H259.372V395.832H259.3C259.3 395.832 258.616 397.848 258.148 399.072L251.092 417H248.608L241.552 399.072C241.048 397.776 240.4 395.832 240.4 395.832H240.328V417H237.412ZM281.479 417.18C279.571 417.18 278.563 416.316 278.275 414.408H278.239C277.123 415.848 275.215 417.36 272.047 417.36C268.519 417.36 265.747 415.704 265.747 412.176C265.747 407.784 269.203 406.884 273.847 406.164C276.475 405.768 278.311 405.516 278.311 403.5C278.311 401.412 276.799 400.224 274.135 400.224C271.111 400.224 269.599 401.52 269.491 404.328H266.683C266.791 400.728 269.167 398.028 274.099 398.028C278.059 398.028 280.975 399.504 280.975 403.932V412.788C280.975 414.3 281.335 415.128 282.955 414.768H283.063V416.892C282.703 417.036 282.235 417.18 281.479 417.18ZM272.695 415.128C276.583 415.128 278.347 412.284 278.347 410.124V406.956C277.375 407.568 275.683 408.036 274.099 408.324C271.183 408.864 268.843 409.368 268.843 412.104C268.843 414.588 270.787 415.128 272.695 415.128ZM288.13 398.388V400.836H288.202C289.534 399.072 291.406 397.956 294.106 397.956C297.994 397.956 300.37 400.08 300.37 403.932V417H297.454V404.184C297.454 401.772 295.87 400.404 293.242 400.404C290.29 400.404 288.13 402.492 288.13 405.552V417H285.214V398.388H288.13ZM306.258 423.156C305.142 423.156 304.422 423.084 303.63 422.76V420.168H303.774C304.17 420.384 304.782 420.564 305.754 420.564C306.978 420.564 307.806 420.096 308.526 418.296L309.246 416.46L301.974 398.388H305.142L309.534 409.98C310.11 411.528 310.794 413.616 310.794 413.616H310.866C310.866 413.616 311.514 411.528 312.09 409.98L316.338 398.388H319.434L311.478 418.512C309.966 422.364 308.526 423.156 306.258 423.156ZM341.986 417H339.07V414.444H338.998C337.666 416.244 336.082 417.432 333.382 417.432C329.566 417.432 327.118 415.128 327.118 411.276V398.388H330.034V411.204C330.034 413.616 331.582 415.02 334.21 415.02C337.162 415.02 339.07 412.788 339.07 409.836V398.388H341.986V417ZM352.985 417.54C347.873 417.54 345.029 415.128 344.741 410.952H347.729C348.125 414.192 350.285 415.092 353.057 415.092C356.117 415.092 357.377 413.76 357.377 412.032C357.377 409.944 355.937 409.404 352.517 408.684C348.845 407.928 345.569 407.172 345.569 403.104C345.569 400.008 347.945 397.992 352.265 397.992C356.873 397.992 359.141 400.188 359.573 403.824H356.585C356.297 401.376 354.965 400.296 352.193 400.296C349.529 400.296 348.449 401.484 348.449 402.96C348.449 404.976 350.249 405.372 353.453 406.02C357.197 406.776 360.329 407.604 360.329 411.888C360.329 415.632 357.269 417.54 352.985 417.54ZM371.428 417.504C365.74 417.504 362.428 413.112 362.428 407.712C362.428 402.312 365.956 397.92 371.248 397.92C376.828 397.92 379.816 402.24 379.816 408.396H365.416C365.632 412.176 367.684 415.056 371.428 415.056C374.128 415.056 375.928 413.76 376.576 411.24H379.42C378.556 415.236 375.64 417.504 371.428 417.504ZM371.248 400.224C367.792 400.224 365.92 402.816 365.488 406.2H376.684C376.504 402.492 374.596 400.224 371.248 400.224ZM385.584 398.388V401.484H385.656C386.772 399.684 388.716 398.172 391.2 398.172C391.74 398.172 392.028 398.244 392.388 398.388V401.196H392.28C391.848 401.052 391.56 401.016 390.984 401.016C388.104 401.016 385.584 403.176 385.584 406.668V417H382.668V398.388H385.584ZM402.063 417.54C396.951 417.54 394.107 415.128 393.819 410.952H396.807C397.203 414.192 399.363 415.092 402.135 415.092C405.195 415.092 406.455 413.76 406.455 412.032C406.455 409.944 405.015 409.404 401.595 408.684C397.923 407.928 394.647 407.172 394.647 403.104C394.647 400.008 397.023 397.992 401.343 397.992C405.951 397.992 408.219 400.188 408.651 403.824H405.663C405.375 401.376 404.043 400.296 401.271 400.296C398.607 400.296 397.527 401.484 397.527 402.96C397.527 404.976 399.327 405.372 402.531 406.02C406.275 406.776 409.407 407.604 409.407 411.888C409.407 415.632 406.347 417.54 402.063 417.54ZM425.885 417.504C420.341 417.504 416.885 413.112 416.885 407.712C416.885 402.312 420.341 397.92 425.885 397.92C430.277 397.92 433.193 400.44 433.841 404.4H430.889C430.457 401.88 428.693 400.332 425.885 400.332C421.925 400.332 419.873 403.608 419.873 407.712C419.873 411.816 421.925 415.056 425.885 415.056C428.909 415.056 430.709 413.328 430.961 410.448H433.841C433.445 414.912 430.529 417.504 425.885 417.504ZM439.513 398.388V401.484H439.585C440.701 399.684 442.645 398.172 445.129 398.172C445.669 398.172 445.957 398.244 446.317 398.388V401.196H446.209C445.777 401.052 445.489 401.016 444.913 401.016C442.033 401.016 439.513 403.176 439.513 406.668V417H436.597V398.388H439.513ZM456.19 417.504C450.502 417.504 447.19 413.112 447.19 407.712C447.19 402.312 450.718 397.92 456.01 397.92C461.59 397.92 464.578 402.24 464.578 408.396H450.178C450.394 412.176 452.446 415.056 456.19 415.056C458.89 415.056 460.69 413.76 461.338 411.24H464.182C463.318 415.236 460.402 417.504 456.19 417.504ZM456.01 400.224C452.554 400.224 450.682 402.816 450.25 406.2H461.446C461.266 402.492 459.358 400.224 456.01 400.224ZM482.045 417.18C480.137 417.18 479.129 416.316 478.841 414.408H478.805C477.689 415.848 475.781 417.36 472.613 417.36C469.085 417.36 466.313 415.704 466.313 412.176C466.313 407.784 469.769 406.884 474.413 406.164C477.041 405.768 478.877 405.516 478.877 403.5C478.877 401.412 477.365 400.224 474.701 400.224C471.677 400.224 470.165 401.52 470.057 404.328H467.249C467.357 400.728 469.733 398.028 474.665 398.028C478.625 398.028 481.541 399.504 481.541 403.932V412.788C481.541 414.3 481.901 415.128 483.521 414.768H483.629V416.892C483.269 417.036 482.801 417.18 482.045 417.18ZM473.261 415.128C477.149 415.128 478.913 412.284 478.913 410.124V406.956C477.941 407.568 476.249 408.036 474.665 408.324C471.749 408.864 469.409 409.368 469.409 412.104C469.409 414.588 471.353 415.128 473.261 415.128ZM484.241 400.764V398.388H486.941V392.52H489.857V398.388H493.457V400.764H489.857V412.86C489.857 414.156 490.541 414.588 491.729 414.588C492.305 414.588 492.953 414.444 493.277 414.336H493.385V416.856C492.701 417 491.909 417.108 491.045 417.108C488.669 417.108 486.941 416.136 486.941 413.508V400.764H484.241ZM504.249 417.504C498.561 417.504 495.249 413.112 495.249 407.712C495.249 402.312 498.777 397.92 504.069 397.92C509.649 397.92 512.637 402.24 512.637 408.396H498.237C498.453 412.176 500.505 415.056 504.249 415.056C506.949 415.056 508.749 413.76 509.397 411.24H512.241C511.377 415.236 508.461 417.504 504.249 417.504ZM504.069 400.224C500.613 400.224 498.741 402.816 498.309 406.2H509.505C509.325 402.492 507.417 400.224 504.069 400.224ZM534.214 422.976V414.732H534.142C532.738 416.532 531.046 417.54 528.382 417.54C523.342 417.54 520.282 413.724 520.282 407.748C520.282 401.556 523.738 397.956 528.274 397.956C530.974 397.956 532.846 399.036 534.142 400.872H534.214V398.388H537.13V422.976H534.214ZM528.526 415.092C532.81 415.092 534.394 411.996 534.394 407.784C534.394 403.464 532.558 400.44 528.49 400.44C524.962 400.44 523.27 403.608 523.27 407.784C523.27 411.996 524.962 415.092 528.526 415.092ZM555.842 417H552.926V414.444H552.854C551.522 416.244 549.938 417.432 547.238 417.432C543.422 417.432 540.974 415.128 540.974 411.276V398.388H543.89V411.204C543.89 413.616 545.438 415.02 548.066 415.02C551.018 415.02 552.926 412.788 552.926 409.836V398.388H555.842V417ZM567.741 417.504C562.053 417.504 558.741 413.112 558.741 407.712C558.741 402.312 562.269 397.92 567.561 397.92C573.141 397.92 576.129 402.24 576.129 408.396H561.729C561.945 412.176 563.997 415.056 567.741 415.056C570.441 415.056 572.241 413.76 572.889 411.24H575.733C574.869 415.236 571.953 417.504 567.741 417.504ZM567.561 400.224C564.105 400.224 562.233 402.816 561.801 406.2H572.997C572.817 402.492 570.909 400.224 567.561 400.224ZM593.74 417H590.824V414.444H590.752C589.42 416.244 587.836 417.432 585.136 417.432C581.32 417.432 578.872 415.128 578.872 411.276V398.388H581.788V411.204C581.788 413.616 583.336 415.02 585.964 415.02C588.916 415.02 590.824 412.788 590.824 409.836V398.388H593.74V417ZM605.639 417.504C599.951 417.504 596.639 413.112 596.639 407.712C596.639 402.312 600.167 397.92 605.459 397.92C611.039 397.92 614.027 402.24 614.027 408.396H599.627C599.843 412.176 601.895 415.056 605.639 415.056C608.339 415.056 610.139 413.76 610.787 411.24H613.631C612.767 415.236 609.851 417.504 605.639 417.504ZM605.459 400.224C602.003 400.224 600.131 402.816 599.699 406.2H610.895C610.715 402.492 608.807 400.224 605.459 400.224ZM623.934 417.54C618.822 417.54 615.978 415.128 615.69 410.952H618.678C619.074 414.192 621.234 415.092 624.006 415.092C627.066 415.092 628.326 413.76 628.326 412.032C628.326 409.944 626.886 409.404 623.466 408.684C619.794 407.928 616.518 407.172 616.518 403.104C616.518 400.008 618.894 397.992 623.214 397.992C627.822 397.992 630.09 400.188 630.522 403.824H627.534C627.246 401.376 625.914 400.296 623.142 400.296C620.478 400.296 619.398 401.484 619.398 402.96C619.398 404.976 621.198 405.372 624.402 406.02C628.146 406.776 631.278 407.604 631.278 411.888C631.278 415.632 628.218 417.54 623.934 417.54ZM647.756 417.504C642.212 417.504 638.756 413.112 638.756 407.712C638.756 402.312 642.212 397.92 647.756 397.92C653.336 397.92 656.72 402.312 656.72 407.712C656.72 413.112 653.336 417.504 647.756 417.504ZM647.756 415.056C651.716 415.056 653.732 411.816 653.732 407.712C653.732 403.608 651.716 400.332 647.756 400.332C643.796 400.332 641.744 403.608 641.744 407.712C641.744 411.816 643.796 415.056 647.756 415.056ZM662.544 398.388V400.836H662.616C663.948 399.072 665.82 397.956 668.52 397.956C672.408 397.956 674.784 400.08 674.784 403.932V417H671.868V404.184C671.868 401.772 670.284 400.404 667.656 400.404C664.704 400.404 662.544 402.492 662.544 405.552V417H659.628V398.388H662.544ZM683.91 398.748V395.148C683.91 392.556 685.242 391.44 686.934 391.188V392.556C686.106 392.88 685.566 393.6 685.566 395.148H686.97V398.748H683.91ZM689.346 398.748V395.148C689.346 392.556 690.678 391.44 692.37 391.188V392.556C691.542 392.88 691.002 393.6 691.002 395.148H692.406V398.748H689.346ZM710.67 417H707.754V414.444H707.682C706.35 416.244 704.766 417.432 702.066 417.432C698.25 417.432 695.802 415.128 695.802 411.276V398.388H698.718V411.204C698.718 413.616 700.266 415.02 702.894 415.02C705.846 415.02 707.754 412.788 707.754 409.836V398.388H710.67V417ZM717.529 398.388V400.836H717.601C718.933 399.072 720.805 397.956 723.505 397.956C727.393 397.956 729.769 400.08 729.769 403.932V417H726.853V404.184C726.853 401.772 725.269 400.404 722.641 400.404C719.689 400.404 717.529 402.492 717.529 405.552V417H714.613V398.388H717.529ZM746.628 422.976V414.732H746.556C745.152 416.532 743.46 417.54 740.796 417.54C735.756 417.54 732.696 413.724 732.696 407.748C732.696 401.556 736.152 397.956 740.688 397.956C743.388 397.956 745.26 399.036 746.556 400.872H746.628V398.388H749.544V422.976H746.628ZM740.94 415.092C745.224 415.092 746.808 411.996 746.808 407.784C746.808 403.464 744.972 400.44 740.904 400.44C737.376 400.44 735.684 403.608 735.684 407.784C735.684 411.996 737.376 415.092 740.94 415.092ZM768.256 417H765.34V414.444H765.268C763.936 416.244 762.352 417.432 759.652 417.432C755.836 417.432 753.388 415.128 753.388 411.276V398.388H756.304V411.204C756.304 413.616 757.852 415.02 760.48 415.02C763.432 415.02 765.34 412.788 765.34 409.836V398.388H768.256V417ZM786.815 417.18C784.907 417.18 783.899 416.316 783.611 414.408H783.575C782.459 415.848 780.551 417.36 777.383 417.36C773.855 417.36 771.083 415.704 771.083 412.176C771.083 407.784 774.539 406.884 779.183 406.164C781.811 405.768 783.647 405.516 783.647 403.5C783.647 401.412 782.135 400.224 779.471 400.224C776.447 400.224 774.935 401.52 774.827 404.328H772.019C772.127 400.728 774.503 398.028 779.435 398.028C783.395 398.028 786.311 399.504 786.311 403.932V412.788C786.311 414.3 786.671 415.128 788.291 414.768H788.399V416.892C788.039 417.036 787.571 417.18 786.815 417.18ZM778.031 415.128C781.919 415.128 783.683 412.284 783.683 410.124V406.956C782.711 407.568 781.019 408.036 779.435 408.324C776.519 408.864 774.179 409.368 774.179 412.104C774.179 414.588 776.123 415.128 778.031 415.128ZM790.658 417V391.26H793.574V417H790.658ZM797.652 417V398.388H800.568V417H797.652ZM797.652 394.86V391.26H800.568V394.86H797.652ZM803.355 400.764V398.388H805.911V395.4C805.911 392.196 807.747 391.044 810.843 391.044C811.455 391.044 811.923 391.08 812.319 391.116V393.6C811.814 393.564 811.671 393.564 811.383 393.564C809.511 393.564 808.827 394.032 808.827 395.544V398.388H812.283V400.764H808.827V417H805.911V400.764H803.355ZM815.125 417V398.388H818.041V417H815.125ZM815.125 394.86V391.26H818.041V394.86H815.125ZM829.971 417.504C824.283 417.504 820.971 413.112 820.971 407.712C820.971 402.312 824.499 397.92 829.791 397.92C835.371 397.92 838.359 402.24 838.359 408.396H823.959C824.175 412.176 826.227 415.056 829.971 415.056C832.671 415.056 834.471 413.76 835.119 411.24H837.963C837.099 415.236 834.183 417.504 829.971 417.504ZM829.791 400.224C826.335 400.224 824.463 402.816 824.031 406.2H835.227C835.047 402.492 833.139 400.224 829.791 400.224ZM848.41 417.54C843.334 417.54 840.166 413.724 840.166 407.748C840.166 401.556 843.73 397.956 848.338 397.956C850.966 397.956 852.982 399.252 854.17 401.016H854.242V391.26H857.158V417H854.242V414.732H854.17C852.766 416.532 851.038 417.54 848.41 417.54ZM848.518 415.092C852.658 415.092 854.422 411.996 854.422 407.784C854.422 403.464 852.334 400.44 848.482 400.44C844.954 400.44 843.154 403.608 843.154 407.784C843.154 411.996 844.954 415.092 848.518 415.092ZM869.137 391.26V394.86C869.137 397.452 867.805 398.568 866.113 398.82V397.452C866.941 397.128 867.481 396.408 867.481 394.86H866.077V391.26H869.137ZM863.701 391.26V394.86C863.701 397.452 862.369 398.568 860.677 398.82V397.452C861.505 397.128 862.045 396.408 862.045 394.86H860.641V391.26H863.701ZM881.287 398.388V401.484H881.359C882.475 399.684 884.419 398.172 886.903 398.172C887.443 398.172 887.731 398.244 888.091 398.388V401.196H887.983C887.551 401.052 887.263 401.016 886.687 401.016C883.807 401.016 881.287 403.176 881.287 406.668V417H878.371V398.388H881.287ZM897.963 417.504C892.275 417.504 888.963 413.112 888.963 407.712C888.963 402.312 892.491 397.92 897.783 397.92C903.363 397.92 906.351 402.24 906.351 408.396H891.951C892.167 412.176 894.219 415.056 897.963 415.056C900.663 415.056 902.463 413.76 903.111 411.24H905.955C905.091 415.236 902.175 417.504 897.963 417.504ZM897.783 400.224C894.327 400.224 892.455 402.816 892.023 406.2H903.219C903.039 402.492 901.131 400.224 897.783 400.224ZM909.203 422.976V398.388H912.119V401.016H912.191C913.595 399.108 915.467 397.956 918.167 397.956C922.883 397.956 926.159 401.556 926.159 407.748C926.159 413.724 923.099 417.54 918.059 417.54C915.539 417.54 913.739 416.784 912.191 414.804H912.119V422.976H909.203ZM917.843 415.092C921.407 415.092 923.171 411.996 923.171 407.784C923.171 403.608 921.407 400.44 917.879 400.44C913.811 400.44 911.939 403.752 911.939 407.784C911.939 411.816 913.559 415.092 917.843 415.092ZM937.022 417.504C931.478 417.504 928.022 413.112 928.022 407.712C928.022 402.312 931.478 397.92 937.022 397.92C942.602 397.92 945.986 402.312 945.986 407.712C945.986 413.112 942.602 417.504 937.022 417.504ZM937.022 415.056C940.982 415.056 942.998 411.816 942.998 407.712C942.998 403.608 940.982 400.332 937.022 400.332C933.062 400.332 931.01 403.608 931.01 407.712C931.01 411.816 933.062 415.056 937.022 415.056ZM955.95 417.54C950.838 417.54 947.994 415.128 947.706 410.952H950.694C951.09 414.192 953.25 415.092 956.022 415.092C959.082 415.092 960.342 413.76 960.342 412.032C960.342 409.944 958.902 409.404 955.482 408.684C951.81 407.928 948.534 407.172 948.534 403.104C948.534 400.008 950.91 397.992 955.23 397.992C959.838 397.992 962.106 400.188 962.538 403.824H959.55C959.262 401.376 957.93 400.296 955.158 400.296C952.494 400.296 951.414 401.484 951.414 402.96C951.414 404.976 953.214 405.372 956.418 406.02C960.162 406.776 963.294 407.604 963.294 411.888C963.294 415.632 960.234 417.54 955.95 417.54Z" fill="black"/>
<path d="M237.412 471V445.26H255.592V448.104H240.652V456.24H254.224V458.976H240.652V468.012H256.024V471H237.412ZM263.279 471L256.763 452.388H259.895L263.747 464.196C264.287 465.852 264.971 468.12 264.971 468.12H265.043C265.043 468.12 265.727 465.816 266.267 464.196L270.191 452.388H273.215L266.519 471H263.279ZM282.87 471.504C277.182 471.504 273.87 467.112 273.87 461.712C273.87 456.312 277.398 451.92 282.69 451.92C288.27 451.92 291.258 456.24 291.258 462.396H276.858C277.074 466.176 279.126 469.056 282.87 469.056C285.57 469.056 287.37 467.76 288.018 465.24H290.862C289.998 469.236 287.082 471.504 282.87 471.504ZM282.69 454.224C279.234 454.224 277.362 456.816 276.93 460.2H288.126C287.946 456.492 286.038 454.224 282.69 454.224ZM297.025 452.388V454.836H297.097C298.429 453.072 300.301 451.956 303.001 451.956C306.889 451.956 309.265 454.08 309.265 457.932V471H306.349V458.184C306.349 455.772 304.765 454.404 302.137 454.404C299.185 454.404 297.025 456.492 297.025 459.552V471H294.109V452.388H297.025ZM317.671 454.764V452.388H320.227V449.4C320.227 446.196 322.063 445.044 325.159 445.044C325.771 445.044 326.239 445.08 326.635 445.116V447.6C326.131 447.564 325.987 447.564 325.699 447.564C323.827 447.564 323.143 448.032 323.143 449.544V452.388H326.599V454.764H323.143V471H320.227V454.764H317.671ZM336.87 471.504C331.326 471.504 327.87 467.112 327.87 461.712C327.87 456.312 331.326 451.92 336.87 451.92C342.45 451.92 345.834 456.312 345.834 461.712C345.834 467.112 342.45 471.504 336.87 471.504ZM336.87 469.056C340.83 469.056 342.846 465.816 342.846 461.712C342.846 457.608 340.83 454.332 336.87 454.332C332.91 454.332 330.858 457.608 330.858 461.712C330.858 465.816 332.91 469.056 336.87 469.056ZM351.658 452.388V455.484H351.73C352.846 453.684 354.79 452.172 357.274 452.172C357.814 452.172 358.102 452.244 358.462 452.388V455.196H358.354C357.922 455.052 357.634 455.016 357.058 455.016C354.178 455.016 351.658 457.176 351.658 460.668V471H348.742V452.388H351.658ZM379.808 476.976V468.732H379.736C378.332 470.532 376.64 471.54 373.976 471.54C368.936 471.54 365.876 467.724 365.876 461.748C365.876 455.556 369.332 451.956 373.868 451.956C376.568 451.956 378.44 453.036 379.736 454.872H379.808V452.388H382.724V476.976H379.808ZM374.12 469.092C378.404 469.092 379.988 465.996 379.988 461.784C379.988 457.464 378.152 454.44 374.084 454.44C370.556 454.44 368.864 457.608 368.864 461.784C368.864 465.996 370.556 469.092 374.12 469.092ZM401.435 471H398.519V468.444H398.447C397.115 470.244 395.531 471.432 392.831 471.432C389.015 471.432 386.567 469.128 386.567 465.276V452.388H389.483V465.204C389.483 467.616 391.031 469.02 393.659 469.02C396.611 469.02 398.519 466.788 398.519 463.836V452.388H401.435V471ZM419.994 471.18C418.086 471.18 417.078 470.316 416.79 468.408H416.754C415.638 469.848 413.73 471.36 410.562 471.36C407.034 471.36 404.262 469.704 404.262 466.176C404.262 461.784 407.718 460.884 412.362 460.164C414.99 459.768 416.826 459.516 416.826 457.5C416.826 455.412 415.314 454.224 412.65 454.224C409.626 454.224 408.114 455.52 408.006 458.328H405.198C405.306 454.728 407.682 452.028 412.614 452.028C416.574 452.028 419.49 453.504 419.49 457.932V466.788C419.49 468.3 419.85 469.128 421.47 468.768H421.578V470.892C421.218 471.036 420.75 471.18 419.994 471.18ZM411.21 469.128C415.098 469.128 416.862 466.284 416.862 464.124V460.956C415.89 461.568 414.198 462.036 412.614 462.324C409.698 462.864 407.358 463.368 407.358 466.104C407.358 468.588 409.302 469.128 411.21 469.128ZM423.838 471V445.26H426.754V471H423.838ZM430.832 471V452.388H433.748V471H430.832ZM430.832 448.86V445.26H433.748V448.86H430.832ZM436.534 454.764V452.388H439.09V449.4C439.09 446.196 440.926 445.044 444.022 445.044C444.634 445.044 445.102 445.08 445.498 445.116V447.6C444.994 447.564 444.85 447.564 444.562 447.564C442.69 447.564 442.006 448.032 442.006 449.544V452.388H445.462V454.764H442.006V471H439.09V454.764H436.534ZM448.304 471V452.388H451.22V471H448.304ZM448.304 448.86V445.26H451.22V448.86H448.304ZM463.151 471.504C457.463 471.504 454.151 467.112 454.151 461.712C454.151 456.312 457.679 451.92 462.971 451.92C468.551 451.92 471.539 456.24 471.539 462.396H457.139C457.355 466.176 459.407 469.056 463.151 469.056C465.851 469.056 467.651 467.76 468.299 465.24H471.143C470.279 469.236 467.363 471.504 463.151 471.504ZM462.971 454.224C459.515 454.224 457.643 456.816 457.211 460.2H468.407C468.227 456.492 466.319 454.224 462.971 454.224ZM481.59 471.54C476.514 471.54 473.346 467.724 473.346 461.748C473.346 455.556 476.91 451.956 481.518 451.956C484.146 451.956 486.162 453.252 487.35 455.016H487.422V445.26H490.338V471H487.422V468.732H487.35C485.946 470.532 484.218 471.54 481.59 471.54ZM481.698 469.092C485.838 469.092 487.602 465.996 487.602 461.784C487.602 457.464 485.514 454.44 481.662 454.44C478.134 454.44 476.334 457.608 476.334 461.784C476.334 465.996 478.134 469.092 481.698 469.092ZM502.935 452.388V455.484H503.007C504.123 453.684 506.067 452.172 508.551 452.172C509.091 452.172 509.379 452.244 509.739 452.388V455.196H509.631C509.199 455.052 508.911 455.016 508.335 455.016C505.455 455.016 502.935 457.176 502.935 460.668V471H500.019V452.388H502.935ZM519.612 471.504C513.924 471.504 510.612 467.112 510.612 461.712C510.612 456.312 514.14 451.92 519.432 451.92C525.012 451.92 528 456.24 528 462.396H513.6C513.816 466.176 515.868 469.056 519.612 469.056C522.312 469.056 524.112 467.76 524.76 465.24H527.604C526.74 469.236 523.824 471.504 519.612 471.504ZM519.432 454.224C515.976 454.224 514.104 456.816 513.672 460.2H524.868C524.688 456.492 522.78 454.224 519.432 454.224ZM530.851 476.976V452.388H533.767V455.016H533.839C535.243 453.108 537.115 451.956 539.815 451.956C544.531 451.956 547.807 455.556 547.807 461.748C547.807 467.724 544.747 471.54 539.707 471.54C537.187 471.54 535.387 470.784 533.839 468.804H533.767V476.976H530.851ZM539.491 469.092C543.055 469.092 544.819 465.996 544.819 461.784C544.819 457.608 543.055 454.44 539.527 454.44C535.459 454.44 533.587 457.752 533.587 461.784C533.587 465.816 535.207 469.092 539.491 469.092ZM558.67 471.504C553.126 471.504 549.67 467.112 549.67 461.712C549.67 456.312 553.126 451.92 558.67 451.92C564.25 451.92 567.634 456.312 567.634 461.712C567.634 467.112 564.25 471.504 558.67 471.504ZM558.67 469.056C562.63 469.056 564.646 465.816 564.646 461.712C564.646 457.608 562.63 454.332 558.67 454.332C554.71 454.332 552.658 457.608 552.658 461.712C552.658 465.816 554.71 469.056 558.67 469.056ZM577.599 471.54C572.487 471.54 569.643 469.128 569.355 464.952H572.343C572.739 468.192 574.899 469.092 577.671 469.092C580.731 469.092 581.991 467.76 581.991 466.032C581.991 463.944 580.551 463.404 577.131 462.684C573.459 461.928 570.183 461.172 570.183 457.104C570.183 454.008 572.559 451.992 576.879 451.992C581.487 451.992 583.755 454.188 584.187 457.824H581.199C580.911 455.376 579.579 454.296 576.807 454.296C574.143 454.296 573.062 455.484 573.062 456.96C573.062 458.976 574.863 459.372 578.066 460.02C581.811 460.776 584.943 461.604 584.943 465.888C584.943 469.632 581.883 471.54 577.599 471.54ZM587.374 475.608V473.988C588.166 473.7 588.994 473.016 588.994 471H587.338V467.436H590.83V471.108C590.83 473.736 589.426 475.212 587.374 475.608ZM598.921 454.764V452.388H601.621V446.52H604.537V452.388H608.137V454.764H604.537V466.86C604.537 468.156 605.221 468.588 606.409 468.588C606.985 468.588 607.633 468.444 607.957 468.336H608.065V470.856C607.381 471 606.589 471.108 605.725 471.108C603.349 471.108 601.621 470.136 601.621 467.508V454.764H598.921ZM614.064 452.388V455.484H614.136C615.252 453.684 617.196 452.172 619.68 452.172C620.22 452.172 620.508 452.244 620.868 452.388V455.196H620.76C620.328 455.052 620.04 455.016 619.464 455.016C616.584 455.016 614.064 457.176 614.064 460.668V471H611.148V452.388H614.064ZM638.248 471H635.332V468.444H635.26C633.928 470.244 632.344 471.432 629.644 471.432C625.828 471.432 623.38 469.128 623.38 465.276V452.388H626.296V465.204C626.296 467.616 627.844 469.02 630.472 469.02C633.424 469.02 635.332 466.788 635.332 463.836V452.388H638.248V471ZM650.147 471.504C644.459 471.504 641.147 467.112 641.147 461.712C641.147 456.312 644.675 451.92 649.967 451.92C655.547 451.92 658.535 456.24 658.535 462.396H644.135C644.351 466.176 646.403 469.056 650.147 469.056C652.847 469.056 654.647 467.76 655.295 465.24H658.139C657.275 469.236 654.359 471.504 650.147 471.504ZM649.967 454.224C646.511 454.224 644.639 456.816 644.207 460.2H655.403C655.223 456.492 653.315 454.224 649.967 454.224ZM675.073 471.504C669.529 471.504 666.073 467.112 666.073 461.712C666.073 456.312 669.529 451.92 675.073 451.92C679.465 451.92 682.381 454.44 683.029 458.4H680.077C679.645 455.88 677.881 454.332 675.073 454.332C671.113 454.332 669.061 457.608 669.061 461.712C669.061 465.816 671.113 469.056 675.073 469.056C678.097 469.056 679.897 467.328 680.149 464.448H683.029C682.633 468.912 679.717 471.504 675.073 471.504ZM693.741 471.504C688.197 471.504 684.741 467.112 684.741 461.712C684.741 456.312 688.197 451.92 693.741 451.92C699.321 451.92 702.705 456.312 702.705 461.712C702.705 467.112 699.321 471.504 693.741 471.504ZM693.741 469.056C697.701 469.056 699.717 465.816 699.717 461.712C699.717 457.608 697.701 454.332 693.741 454.332C689.781 454.332 687.729 457.608 687.729 461.712C687.729 465.816 689.781 469.056 693.741 469.056ZM708.529 452.388V454.836H708.601C709.933 453.072 711.805 451.956 714.505 451.956C718.393 451.956 720.769 454.08 720.769 457.932V471H717.853V458.184C717.853 455.772 716.269 454.404 713.641 454.404C710.689 454.404 708.529 456.492 708.529 459.552V471H705.613V452.388H708.529ZM728.889 471L722.373 452.388H725.505L729.357 464.196C729.897 465.852 730.581 468.12 730.581 468.12H730.653C730.653 468.12 731.337 465.816 731.877 464.196L735.801 452.388H738.825L732.129 471H728.889ZM748.479 471.504C742.791 471.504 739.479 467.112 739.479 461.712C739.479 456.312 743.007 451.92 748.299 451.92C753.879 451.92 756.867 456.24 756.867 462.396H742.467C742.683 466.176 744.735 469.056 748.479 469.056C751.179 469.056 752.979 467.76 753.627 465.24H756.471C755.607 469.236 752.691 471.504 748.479 471.504ZM748.299 454.224C744.843 454.224 742.971 456.816 742.539 460.2H753.735C753.555 456.492 751.647 454.224 748.299 454.224ZM762.634 452.388V455.484H762.706C763.822 453.684 765.766 452.172 768.25 452.172C768.79 452.172 769.078 452.244 769.438 452.388V455.196H769.33C768.898 455.052 768.61 455.016 768.034 455.016C765.154 455.016 762.634 457.176 762.634 460.668V471H759.718V452.388H762.634ZM779.114 471.54C774.002 471.54 771.158 469.128 770.87 464.952H773.858C774.254 468.192 776.414 469.092 779.186 469.092C782.246 469.092 783.506 467.76 783.506 466.032C783.506 463.944 782.066 463.404 778.646 462.684C774.974 461.928 771.698 461.172 771.698 457.104C771.698 454.008 774.074 451.992 778.394 451.992C783.002 451.992 785.27 454.188 785.702 457.824H782.714C782.426 455.376 781.094 454.296 778.322 454.296C775.658 454.296 774.578 455.484 774.578 456.96C774.578 458.976 776.378 459.372 779.582 460.02C783.326 460.776 786.458 461.604 786.458 465.888C786.458 469.632 783.398 471.54 779.114 471.54ZM789.25 471V452.388H792.166V471H789.25ZM789.25 448.86V445.26H792.166V448.86H789.25ZM804.096 471.504C798.552 471.504 795.096 467.112 795.096 461.712C795.096 456.312 798.552 451.92 804.096 451.92C809.676 451.92 813.06 456.312 813.06 461.712C813.06 467.112 809.676 471.504 804.096 471.504ZM804.096 469.056C808.056 469.056 810.072 465.816 810.072 461.712C810.072 457.608 808.056 454.332 804.096 454.332C800.136 454.332 798.084 457.608 798.084 461.712C798.084 465.816 800.136 469.056 804.096 469.056ZM818.884 452.388V454.836H818.956C820.288 453.072 822.16 451.956 824.86 451.956C828.748 451.956 831.124 454.08 831.124 457.932V471H828.208V458.184C828.208 455.772 826.624 454.404 823.996 454.404C821.044 454.404 818.884 456.492 818.884 459.552V471H815.968V452.388H818.884ZM840.718 471V452.388H843.634V471H840.718ZM840.718 448.86V445.26H843.634V448.86H840.718ZM854.665 471.54C849.553 471.54 846.709 469.128 846.421 464.952H849.409C849.805 468.192 851.965 469.092 854.737 469.092C857.797 469.092 859.057 467.76 859.057 466.032C859.057 463.944 857.617 463.404 854.197 462.684C850.525 461.928 847.249 461.172 847.249 457.104C847.249 454.008 849.625 451.992 853.945 451.992C858.553 451.992 860.821 454.188 861.253 457.824H858.265C857.977 455.376 856.645 454.296 853.873 454.296C851.209 454.296 850.129 455.484 850.129 456.96C850.129 458.976 851.929 459.372 855.133 460.02C858.877 460.776 862.009 461.604 862.009 465.888C862.009 469.632 858.949 471.54 854.665 471.54ZM870.531 476.976V452.388H873.447V455.016H873.519C874.923 453.108 876.795 451.956 879.495 451.956C884.211 451.956 887.487 455.556 887.487 461.748C887.487 467.724 884.427 471.54 879.387 471.54C876.867 471.54 875.067 470.784 873.519 468.804H873.447V476.976H870.531ZM879.171 469.092C882.735 469.092 884.499 465.996 884.499 461.784C884.499 457.608 882.735 454.44 879.207 454.44C875.139 454.44 873.267 457.752 873.267 461.784C873.267 465.816 874.887 469.092 879.171 469.092ZM898.35 471.504C892.806 471.504 889.35 467.112 889.35 461.712C889.35 456.312 892.806 451.92 898.35 451.92C903.93 451.92 907.314 456.312 907.314 461.712C907.314 467.112 903.93 471.504 898.35 471.504ZM898.35 469.056C902.31 469.056 904.326 465.816 904.326 461.712C904.326 457.608 902.31 454.332 898.35 454.332C894.39 454.332 892.338 457.608 892.338 461.712C892.338 465.816 894.39 469.056 898.35 469.056ZM918.178 471.504C912.634 471.504 909.178 467.112 909.178 461.712C909.178 456.312 912.634 451.92 918.178 451.92C923.758 451.92 927.142 456.312 927.142 461.712C927.142 467.112 923.758 471.504 918.178 471.504ZM918.178 469.056C922.138 469.056 924.154 465.816 924.154 461.712C924.154 457.608 922.138 454.332 918.178 454.332C914.218 454.332 912.166 457.608 912.166 461.712C912.166 465.816 914.218 469.056 918.178 469.056ZM932.966 452.388V455.484H933.038C934.154 453.684 936.098 452.172 938.582 452.172C939.122 452.172 939.41 452.244 939.77 452.388V455.196H939.662C939.23 455.052 938.942 455.016 938.366 455.016C935.486 455.016 932.966 457.176 932.966 460.668V471H930.05V452.388H932.966Z" fill="black"/>
</svg>
