<svg width="1440" height="1024" viewBox="0 0 1440 1024" fill="none" xmlns="http://www.w3.org/2000/svg">
<rect width="1440" height="1024" fill="#F7F7F7"/>
<path d="M254.89 287.04C243.84 287.04 236.235 281.71 236.235 273.26C236.235 268.19 239.16 264.225 243.97 262.145V261.95C240.07 260.065 238.055 257.075 238.055 252.98C238.055 245.57 244.555 240.565 254.825 240.565C265.16 240.565 271.53 245.245 271.53 252.785C271.53 256.685 269.32 259.74 265.68 261.69V261.885C270.62 263.77 273.415 267.865 273.415 273C273.415 281.71 265.875 287.04 254.89 287.04ZM254.825 278.915C259.375 278.915 262.495 276.38 262.495 272.545C262.495 268.58 259.57 265.915 254.89 265.915C250.275 265.915 247.09 268.58 247.09 272.545C247.09 276.445 250.21 278.915 254.825 278.915ZM254.76 258.96C258.855 258.96 261.39 256.685 261.39 253.5C261.39 250.315 258.855 248.105 254.76 248.105C250.665 248.105 248.195 250.315 248.195 253.5C248.195 256.685 250.665 258.96 254.76 258.96ZM295.547 278.46C301.592 278.46 303.932 272.545 303.932 263.77C303.932 255.125 301.527 249.015 295.547 249.015C289.567 249.015 287.097 255.06 287.097 263.77C287.097 272.48 289.567 278.46 295.547 278.46ZM295.482 287.04C283.912 287.04 275.852 277.94 275.852 263.77C275.852 249.6 283.847 240.5 295.547 240.5C307.507 240.5 315.242 249.6 315.242 263.77C315.242 277.94 307.312 287.04 295.482 287.04ZM329.953 260.91C332.683 260.91 333.853 257.92 333.853 253.565C333.853 249.21 332.683 246.025 329.953 246.025C327.223 246.025 326.053 249.21 326.053 253.565C326.053 257.855 327.223 260.91 329.953 260.91ZM329.953 266.565C323.128 266.565 318.058 261.43 318.058 253.565C318.058 245.635 323.063 240.5 329.953 240.5C336.973 240.5 341.848 245.635 341.848 253.565C341.848 261.43 336.843 266.565 329.953 266.565ZM329.953 286L353.938 241.41H360.048L335.998 286H329.953ZM360.048 281.45C362.778 281.45 363.948 278.395 363.948 274.04C363.948 269.75 362.713 266.565 360.048 266.565C357.253 266.565 356.148 269.685 356.148 274.04C356.148 278.395 357.253 281.45 360.048 281.45ZM359.983 287.105C353.158 287.105 348.088 281.97 348.088 274.04C348.088 266.175 353.158 261.04 359.983 261.04C367.068 261.04 371.943 266.11 371.943 274.04C371.943 281.97 366.938 287.105 359.983 287.105ZM397.971 276.315H404.731C412.271 276.315 416.171 271.57 416.171 263.055C416.171 254.605 412.076 249.145 404.861 249.145H397.971V276.315ZM386.466 286V239.525H406.291C419.161 239.525 427.806 248.82 427.806 263.055C427.806 271.245 424.946 277.81 419.746 281.775C416.106 284.505 411.426 286 405.576 286H386.466ZM447.896 286.975C436.911 286.975 430.151 279.37 430.151 269.295C430.151 259.35 437.106 251.745 447.246 251.745C451.991 251.745 455.761 253.305 458.621 255.905C462.586 259.545 464.536 265.33 464.471 272.09H440.551C441.201 276.575 443.671 279.37 448.026 279.37C450.821 279.37 452.641 278.135 453.551 276.055H463.886C463.171 279.045 461.221 281.905 458.296 283.92C455.501 285.87 452.121 286.975 447.896 286.975ZM440.616 265.785H453.746C453.356 261.82 450.886 259.285 447.441 259.285C443.411 259.285 441.331 261.82 440.616 265.785ZM482.188 287.04C472.438 287.04 466.328 282.555 466.003 275.21H476.013C476.403 278.525 478.613 280.15 482.123 280.15C485.308 280.15 487.323 278.98 487.323 276.835C487.323 273.845 483.293 273.52 478.873 272.74C473.088 271.765 466.913 270.205 466.913 262.405C466.913 255.385 473.413 251.745 481.278 251.745C490.703 251.745 495.773 255.84 496.293 262.405H486.543C486.153 259.415 484.138 258.505 481.213 258.505C478.613 258.505 476.598 259.48 476.598 261.56C476.598 263.9 480.368 264.225 484.593 265.005C490.443 265.98 497.333 267.475 497.333 275.99C497.333 283.27 490.898 287.04 482.188 287.04ZM500.772 286V252.72H511.367V286H500.772ZM500.772 248.105V239.525H511.367V248.105H500.772ZM531.921 297.505C522.756 297.505 516.711 293.735 515.671 286.78H525.941C526.526 288.535 528.281 290.03 531.791 290.03C536.276 290.03 538.161 287.69 538.161 283.66V280.345H537.901C535.951 282.555 533.416 284.18 529.386 284.18C521.911 284.18 514.956 278.59 514.956 268.385C514.956 258.635 520.676 251.745 528.931 251.745C533.351 251.745 536.341 253.5 538.291 256.295H538.421V252.72H548.561V282.75C548.561 287.755 546.806 291.395 544.141 293.8C541.216 296.4 536.861 297.505 531.921 297.505ZM531.856 276.315C536.471 276.315 538.616 272.675 538.616 267.995C538.616 263.51 536.276 259.74 531.856 259.74C527.891 259.74 525.291 262.99 525.291 268.06C525.291 273.065 527.891 276.315 531.856 276.315ZM553.648 286V252.72H563.853V257.27H564.048C566.518 253.695 569.703 251.745 574.318 251.745C581.598 251.745 585.888 256.945 585.888 264.355V286H575.293V266.5C575.293 262.99 573.538 260.585 570.093 260.585C566.583 260.585 564.243 263.51 564.243 267.605V286H553.648ZM604.889 287.04C595.139 287.04 589.029 282.555 588.704 275.21H598.714C599.104 278.525 601.314 280.15 604.824 280.15C608.009 280.15 610.024 278.98 610.024 276.835C610.024 273.845 605.994 273.52 601.574 272.74C595.789 271.765 589.614 270.205 589.614 262.405C589.614 255.385 596.114 251.745 603.979 251.745C613.404 251.745 618.474 255.84 618.994 262.405H609.244C608.854 259.415 606.839 258.505 603.914 258.505C601.314 258.505 599.299 259.48 599.299 261.56C599.299 263.9 603.069 264.225 607.294 265.005C613.144 265.98 620.034 267.475 620.034 275.99C620.034 283.27 613.599 287.04 604.889 287.04Z" fill="black"/>
</svg>
