<svg width="1440" height="1024" viewBox="0 0 1440 1024" fill="none" xmlns="http://www.w3.org/2000/svg">
<rect width="1440" height="1024" fill="#F7F7F7"/>
<path d="M247.74 286L235 239.525H246.635L251.315 259.025C252.355 263.51 253.46 270.53 253.46 270.53H253.59C253.59 270.53 254.825 264.16 255.865 259.48L260.22 239.525H270.88L275.235 259.35C276.275 264.095 277.445 270.53 277.445 270.53H277.575C277.575 270.53 278.875 263.51 279.915 258.895L284.53 239.525H296.1L283.36 286H272.115L267.24 263.705C266.395 260 265.615 255.06 265.615 255.06H265.485C265.485 255.06 264.705 260 263.925 263.705L259.05 286H247.74ZM298.663 286V239.525H309.258V256.815H309.453C311.858 253.63 314.718 251.745 319.333 251.745C326.613 251.745 330.903 256.945 330.903 264.355V286H320.308V266.5C320.308 262.99 318.553 260.585 315.108 260.585C311.598 260.585 309.258 263.51 309.258 267.605V286H298.663ZM345.548 286.845C338.918 286.845 334.173 283.27 334.173 276.705C334.173 269.36 340.023 267.15 346.913 266.24C353.153 265.46 355.363 264.81 355.363 262.535C355.363 260.39 353.998 258.96 350.813 258.96C347.433 258.96 345.743 260.455 345.418 263.25H335.668C335.928 257.075 340.673 251.81 350.748 251.81C355.753 251.81 359.133 252.72 361.538 254.54C364.398 256.62 365.763 259.87 365.763 264.03V280.8C365.763 283.465 366.023 284.96 366.933 285.545V286H356.663C356.143 285.285 355.818 283.985 355.558 282.295H355.428C353.478 285.09 350.553 286.845 345.548 286.845ZM348.928 280.085C352.893 280.085 355.623 277.68 355.623 274.105V270.14C354.258 270.855 352.308 271.375 350.163 271.895C346.068 272.805 344.378 273.845 344.378 276.38C344.378 279.045 346.328 280.085 348.928 280.085ZM383.459 286.39C377.284 286.39 372.864 284.375 372.864 277.225V259.35H368.444V252.72H372.864V242.19H383.199V252.72H389.244V259.35H383.199V274.95C383.199 277.55 384.629 278.2 386.904 278.2C387.814 278.2 388.854 278.135 389.244 278.135V285.87C388.334 286.13 386.319 286.39 383.459 286.39ZM403.86 286V239.525H415.365V286H403.86ZM435.279 287.04C425.529 287.04 419.419 282.555 419.094 275.21H429.104C429.494 278.525 431.704 280.15 435.214 280.15C438.399 280.15 440.414 278.98 440.414 276.835C440.414 273.845 436.384 273.52 431.964 272.74C426.179 271.765 420.004 270.205 420.004 262.405C420.004 255.385 426.504 251.745 434.369 251.745C443.794 251.745 448.864 255.84 449.384 262.405H439.634C439.244 259.415 437.229 258.505 434.304 258.505C431.704 258.505 429.689 259.48 429.689 261.56C429.689 263.9 433.459 264.225 437.684 265.005C443.534 265.98 450.424 267.475 450.424 275.99C450.424 283.27 443.989 287.04 435.279 287.04ZM473.771 286.845C467.141 286.845 462.396 283.27 462.396 276.705C462.396 269.36 468.246 267.15 475.136 266.24C481.376 265.46 483.586 264.81 483.586 262.535C483.586 260.39 482.221 258.96 479.036 258.96C475.656 258.96 473.966 260.455 473.641 263.25H463.891C464.151 257.075 468.896 251.81 478.971 251.81C483.976 251.81 487.356 252.72 489.761 254.54C492.621 256.62 493.986 259.87 493.986 264.03V280.8C493.986 283.465 494.246 284.96 495.156 285.545V286H484.886C484.366 285.285 484.041 283.985 483.781 282.295H483.651C481.701 285.09 478.776 286.845 473.771 286.845ZM477.151 280.085C481.116 280.085 483.846 277.68 483.846 274.105V270.14C482.481 270.855 480.531 271.375 478.386 271.895C474.291 272.805 472.601 273.845 472.601 276.38C472.601 279.045 474.551 280.085 477.151 280.085ZM509.865 286V239.525H525.335L530.99 259.87C531.835 262.795 533.655 270.465 533.655 270.465H533.785C533.785 270.465 535.605 262.795 536.385 259.87L542.105 239.525H557.705V286H547.175V262.6C547.175 260.715 547.37 253.305 547.37 253.305H547.24C547.24 253.305 545.615 260.26 545.095 261.95L538.4 286H528.91L522.28 262.015C521.76 260.325 520.135 253.305 520.135 253.305H520.005C520.005 253.305 520.2 260.78 520.2 262.665V286H509.865ZM579.674 286.975C568.689 286.975 561.929 279.37 561.929 269.295C561.929 259.35 568.884 251.745 579.024 251.745C583.769 251.745 587.539 253.305 590.399 255.905C594.364 259.545 596.314 265.33 596.249 272.09H572.329C572.979 276.575 575.449 279.37 579.804 279.37C582.599 279.37 584.419 278.135 585.329 276.055H595.664C594.949 279.045 592.999 281.905 590.074 283.92C587.279 285.87 583.899 286.975 579.674 286.975ZM572.394 265.785H585.524C585.134 261.82 582.664 259.285 579.219 259.285C575.189 259.285 573.109 261.82 572.394 265.785ZM599.796 286V252.72H609.936V257.92H610.131C612.471 253.955 615.201 252.2 619.231 252.2C620.206 252.2 620.856 252.265 621.311 252.46V261.56H621.051C614.551 260.65 610.391 263.835 610.391 271.05V286H599.796ZM639.514 297.505C630.349 297.505 624.304 293.735 623.264 286.78H633.534C634.119 288.535 635.874 290.03 639.384 290.03C643.869 290.03 645.754 287.69 645.754 283.66V280.345H645.494C643.544 282.555 641.009 284.18 636.979 284.18C629.504 284.18 622.549 278.59 622.549 268.385C622.549 258.635 628.269 251.745 636.524 251.745C640.944 251.745 643.934 253.5 645.884 256.295H646.014V252.72H656.154V282.75C656.154 287.755 654.399 291.395 651.734 293.8C648.809 296.4 644.454 297.505 639.514 297.505ZM639.449 276.315C644.064 276.315 646.209 272.675 646.209 267.995C646.209 263.51 643.869 259.74 639.449 259.74C635.484 259.74 632.884 262.99 632.884 268.06C632.884 273.065 635.484 276.315 639.449 276.315ZM677.491 286.975C666.506 286.975 659.746 279.37 659.746 269.295C659.746 259.35 666.701 251.745 676.841 251.745C681.586 251.745 685.356 253.305 688.216 255.905C692.181 259.545 694.131 265.33 694.066 272.09H670.146C670.796 276.575 673.266 279.37 677.621 279.37C680.416 279.37 682.236 278.135 683.146 276.055H693.481C692.766 279.045 690.816 281.905 687.891 283.92C685.096 285.87 681.716 286.975 677.491 286.975ZM670.211 265.785H683.341C682.951 261.82 680.481 259.285 677.036 259.285C673.006 259.285 670.926 261.82 670.211 265.785ZM729.416 277.745C730.976 277.745 732.341 277.485 733.576 276.965L729.351 272.87L734.681 267.345L738.971 271.44C740.076 269.035 740.596 266.11 740.596 262.86C740.596 254.41 736.956 247.91 729.416 247.91C721.941 247.91 718.171 254.41 718.171 262.86C718.171 271.31 721.941 277.745 729.416 277.745ZM746.901 289.77L741.051 284.18C737.736 286.065 733.836 287.105 729.351 287.105C715.311 287.105 706.471 276.77 706.471 262.86C706.471 248.95 715.311 238.615 729.351 238.615C743.456 238.615 752.296 248.95 752.296 262.86C752.296 269.295 750.411 274.95 746.966 279.175L752.231 284.115L746.901 289.77ZM767.579 286.975C759.909 286.975 755.879 281.97 755.879 274.56V252.72H766.409V272.35C766.409 275.99 768.034 278.005 771.414 278.005C775.054 278.005 777.264 275.275 777.264 271.31V252.72H787.859V286H777.719V281.905H777.524C775.119 285.155 772.194 286.975 767.579 286.975ZM809.205 286.975C798.22 286.975 791.46 279.37 791.46 269.295C791.46 259.35 798.415 251.745 808.555 251.745C813.3 251.745 817.07 253.305 819.93 255.905C823.895 259.545 825.845 265.33 825.78 272.09H801.86C802.51 276.575 804.98 279.37 809.335 279.37C812.13 279.37 813.95 278.135 814.86 276.055H825.195C824.48 279.045 822.53 281.905 819.605 283.92C816.81 285.87 813.43 286.975 809.205 286.975ZM801.925 265.785H815.055C814.665 261.82 812.195 259.285 808.75 259.285C804.72 259.285 802.64 261.82 801.925 265.785ZM840.767 286.975C833.097 286.975 829.067 281.97 829.067 274.56V252.72H839.597V272.35C839.597 275.99 841.222 278.005 844.602 278.005C848.242 278.005 850.452 275.275 850.452 271.31V252.72H861.047V286H850.907V281.905H850.712C848.307 285.155 845.382 286.975 840.767 286.975ZM882.393 286.975C871.408 286.975 864.648 279.37 864.648 269.295C864.648 259.35 871.603 251.745 881.743 251.745C886.488 251.745 890.258 253.305 893.118 255.905C897.083 259.545 899.033 265.33 898.968 272.09H875.048C875.698 276.575 878.168 279.37 882.523 279.37C885.318 279.37 887.138 278.135 888.048 276.055H898.383C897.668 279.045 895.718 281.905 892.793 283.92C889.998 285.87 886.618 286.975 882.393 286.975ZM875.113 265.785H888.243C887.853 261.82 885.383 259.285 881.938 259.285C877.908 259.285 875.828 261.82 875.113 265.785ZM910.11 270.79C910.11 264.16 911.475 262.535 914.595 259.935C917.455 257.27 921.16 256.295 921.16 252.33C921.16 249.275 918.755 247.455 915.635 247.455C911.735 247.455 909.07 249.99 909.07 254.15H898.605C898.8 244.985 905.235 238.68 916.09 238.68C925.775 238.68 932.275 244.075 932.275 251.94C932.275 258.05 929.025 260.585 926.165 262.47C923.435 264.225 921.745 265.135 920.705 266.37C919.795 267.54 919.47 268.71 919.47 270.79H910.11ZM909.07 286V275.08H920.185V286H909.07Z" fill="black"/>
<path d="M235.36 367L244.828 341.26H248.464L257.968 367H254.44L251.704 359.152H241.444L238.672 367H235.36ZM245.44 347.884L242.38 356.524H250.804L247.852 347.884C247.348 346.444 246.7 344.248 246.7 344.248H246.628C246.628 344.248 245.944 346.408 245.44 347.884ZM266.054 367V348.388H268.97V351.052H269.042C270.194 349.252 272.174 347.956 274.514 347.956C276.782 347.956 278.582 349.108 279.374 351.268H279.446C280.634 349.144 282.866 347.956 285.134 347.956C288.446 347.956 290.786 350.08 290.786 353.932V367H287.87V354.076C287.87 351.772 286.322 350.404 284.45 350.404C282.038 350.404 279.878 352.492 279.878 355.408V367H276.962V354.076C276.962 351.772 275.666 350.404 273.758 350.404C271.49 350.404 268.97 352.492 268.97 355.408V367H266.054ZM302.592 367.504C296.904 367.504 293.592 363.112 293.592 357.712C293.592 352.312 297.12 347.92 302.412 347.92C307.992 347.92 310.98 352.24 310.98 358.396H296.58C296.796 362.176 298.848 365.056 302.592 365.056C305.292 365.056 307.092 363.76 307.74 361.24H310.584C309.72 365.236 306.804 367.504 302.592 367.504ZM302.412 350.224C298.956 350.224 297.084 352.816 296.652 356.2H307.848C307.668 352.492 305.76 350.224 302.412 350.224ZM316.748 348.388V351.484H316.82C317.936 349.684 319.88 348.172 322.364 348.172C322.904 348.172 323.192 348.244 323.552 348.388V351.196H323.444C323.012 351.052 322.724 351.016 322.148 351.016C319.268 351.016 316.748 353.176 316.748 356.668V367H313.832V348.388H316.748ZM332.884 373.192C328.06 373.192 325.324 371.248 325 368.044H327.7C327.988 370.096 329.932 370.888 332.812 370.888C336.232 370.888 338.14 369.34 338.14 366.1V363.472H338.068C336.7 365.236 335.224 366.352 332.56 366.352C327.736 366.352 324.424 362.5 324.424 357.136C324.424 351.34 328.06 347.956 332.38 347.956C335.08 347.956 336.808 349 338.068 350.764H338.14V348.388H341.056V365.992C341.056 370.888 337.816 373.192 332.884 373.192ZM332.704 363.904C336.988 363.904 338.356 360.916 338.356 356.992C338.356 352.924 336.628 350.404 332.668 350.404C329.176 350.404 327.412 353.14 327.412 357.172C327.412 361.24 329.248 363.904 332.704 363.904ZM352.971 367.504C347.283 367.504 343.971 363.112 343.971 357.712C343.971 352.312 347.499 347.92 352.791 347.92C358.371 347.92 361.359 352.24 361.359 358.396H346.959C347.175 362.176 349.227 365.056 352.971 365.056C355.671 365.056 357.471 363.76 358.119 361.24H360.963C360.099 365.236 357.183 367.504 352.971 367.504ZM352.791 350.224C349.335 350.224 347.463 352.816 347.031 356.2H358.227C358.047 352.492 356.139 350.224 352.791 350.224ZM382.937 372.976V364.732H382.865C381.461 366.532 379.769 367.54 377.105 367.54C372.065 367.54 369.005 363.724 369.005 357.748C369.005 351.556 372.461 347.956 376.997 347.956C379.697 347.956 381.569 349.036 382.865 350.872H382.937V348.388H385.853V372.976H382.937ZM377.249 365.092C381.533 365.092 383.117 361.996 383.117 357.784C383.117 353.464 381.281 350.44 377.213 350.44C373.685 350.44 371.993 353.608 371.993 357.784C371.993 361.996 373.685 365.092 377.249 365.092ZM404.564 367H401.648V364.444H401.576C400.244 366.244 398.66 367.432 395.96 367.432C392.144 367.432 389.696 365.128 389.696 361.276V348.388H392.612V361.204C392.612 363.616 394.16 365.02 396.788 365.02C399.74 365.02 401.648 362.788 401.648 359.836V348.388H404.564V367ZM416.463 367.504C410.775 367.504 407.463 363.112 407.463 357.712C407.463 352.312 410.991 347.92 416.283 347.92C421.863 347.92 424.851 352.24 424.851 358.396H410.451C410.667 362.176 412.719 365.056 416.463 365.056C419.163 365.056 420.963 363.76 421.611 361.24H424.455C423.591 365.236 420.675 367.504 416.463 367.504ZM416.283 350.224C412.827 350.224 410.955 352.816 410.523 356.2H421.719C421.539 352.492 419.631 350.224 416.283 350.224ZM442.463 367H439.547V364.444H439.475C438.143 366.244 436.559 367.432 433.859 367.432C430.043 367.432 427.595 365.128 427.595 361.276V348.388H430.511V361.204C430.511 363.616 432.059 365.02 434.687 365.02C437.639 365.02 439.547 362.788 439.547 359.836V348.388H442.463V367ZM454.362 367.504C448.674 367.504 445.362 363.112 445.362 357.712C445.362 352.312 448.89 347.92 454.182 347.92C459.762 347.92 462.75 352.24 462.75 358.396H448.35C448.566 362.176 450.618 365.056 454.362 365.056C457.062 365.056 458.862 363.76 459.51 361.24H462.354C461.49 365.236 458.574 367.504 454.362 367.504ZM454.182 350.224C450.726 350.224 448.854 352.816 448.422 356.2H459.618C459.438 352.492 457.53 350.224 454.182 350.224ZM471.332 367V348.388H474.248V367H471.332ZM471.332 344.86V341.26H474.248V344.86H471.332ZM485.278 367.54C480.166 367.54 477.322 365.128 477.034 360.952H480.022C480.418 364.192 482.578 365.092 485.35 365.092C488.41 365.092 489.67 363.76 489.67 362.032C489.67 359.944 488.23 359.404 484.81 358.684C481.138 357.928 477.862 357.172 477.862 353.104C477.862 350.008 480.238 347.992 484.558 347.992C489.166 347.992 491.434 350.188 491.866 353.824H488.878C488.59 351.376 487.258 350.296 484.486 350.296C481.822 350.296 480.742 351.484 480.742 352.96C480.742 354.976 482.542 355.372 485.746 356.02C489.49 356.776 492.622 357.604 492.622 361.888C492.622 365.632 489.562 367.54 485.278 367.54ZM515.76 367.18C513.852 367.18 512.844 366.316 512.556 364.408H512.52C511.404 365.848 509.496 367.36 506.328 367.36C502.8 367.36 500.028 365.704 500.028 362.176C500.028 357.784 503.484 356.884 508.128 356.164C510.756 355.768 512.592 355.516 512.592 353.5C512.592 351.412 511.08 350.224 508.416 350.224C505.392 350.224 503.88 351.52 503.772 354.328H500.964C501.072 350.728 503.448 348.028 508.38 348.028C512.34 348.028 515.256 349.504 515.256 353.932V362.788C515.256 364.3 515.616 365.128 517.236 364.768H517.344V366.892C516.984 367.036 516.516 367.18 515.76 367.18ZM506.976 365.128C510.864 365.128 512.628 362.284 512.628 360.124V356.956C511.656 357.568 509.964 358.036 508.38 358.324C505.464 358.864 503.124 359.368 503.124 362.104C503.124 364.588 505.068 365.128 506.976 365.128ZM524.038 350.764V348.388H526.738V342.52H529.654V348.388H533.254V350.764H529.654V362.86C529.654 364.156 530.338 364.588 531.526 364.588C532.102 364.588 532.75 364.444 533.074 364.336H533.182V366.856C532.498 367 531.706 367.108 530.842 367.108C528.466 367.108 526.738 366.136 526.738 363.508V350.764H524.038ZM544.045 367.504C538.501 367.504 535.045 363.112 535.045 357.712C535.045 352.312 538.501 347.92 544.045 347.92C549.625 347.92 553.009 352.312 553.009 357.712C553.009 363.112 549.625 367.504 544.045 367.504ZM544.045 365.056C548.005 365.056 550.021 361.816 550.021 357.712C550.021 353.608 548.005 350.332 544.045 350.332C540.085 350.332 538.033 353.608 538.033 357.712C538.033 361.816 540.085 365.056 544.045 365.056ZM563.874 367.504C558.33 367.504 554.874 363.112 554.874 357.712C554.874 352.312 558.33 347.92 563.874 347.92C569.454 347.92 572.838 352.312 572.838 357.712C572.838 363.112 569.454 367.504 563.874 367.504ZM563.874 365.056C567.834 365.056 569.85 361.816 569.85 357.712C569.85 353.608 567.834 350.332 563.874 350.332C559.914 350.332 557.862 353.608 557.862 357.712C557.862 361.816 559.914 365.056 563.874 365.056ZM575.854 367V341.26H578.77V367H575.854ZM587.39 350.764V348.388H590.09V342.52H593.006V348.388H596.606V350.764H593.006V362.86C593.006 364.156 593.69 364.588 594.878 364.588C595.454 364.588 596.102 364.444 596.426 364.336H596.534V366.856C595.85 367 595.058 367.108 594.194 367.108C591.818 367.108 590.09 366.136 590.09 363.508V350.764H587.39ZM602.533 341.26V350.836H602.605C603.937 349.072 605.809 347.956 608.509 347.956C612.397 347.956 614.773 350.08 614.773 353.932V367H611.857V354.184C611.857 351.772 610.273 350.404 607.645 350.404C604.693 350.404 602.533 352.492 602.533 355.552V367H599.617V341.26H602.533ZM633.252 367.18C631.344 367.18 630.336 366.316 630.048 364.408H630.012C628.896 365.848 626.988 367.36 623.82 367.36C620.292 367.36 617.52 365.704 617.52 362.176C617.52 357.784 620.976 356.884 625.62 356.164C628.248 355.768 630.084 355.516 630.084 353.5C630.084 351.412 628.572 350.224 625.908 350.224C622.884 350.224 621.372 351.52 621.264 354.328H618.456C618.564 350.728 620.94 348.028 625.872 348.028C629.832 348.028 632.748 349.504 632.748 353.932V362.788C632.748 364.3 633.108 365.128 634.728 364.768H634.836V366.892C634.476 367.036 634.008 367.18 633.252 367.18ZM624.468 365.128C628.356 365.128 630.12 362.284 630.12 360.124V356.956C629.148 357.568 627.456 358.036 625.872 358.324C622.956 358.864 620.616 359.368 620.616 362.104C620.616 364.588 622.56 365.128 624.468 365.128ZM635.448 350.764V348.388H638.148V342.52H641.064V348.388H644.664V350.764H641.064V362.86C641.064 364.156 641.748 364.588 642.936 364.588C643.512 364.588 644.16 364.444 644.484 364.336H644.592V366.856C643.908 367 643.116 367.108 642.252 367.108C639.876 367.108 638.148 366.136 638.148 363.508V350.764H635.448ZM668.022 367.18C666.114 367.18 665.106 366.316 664.818 364.408H664.782C663.666 365.848 661.758 367.36 658.59 367.36C655.062 367.36 652.29 365.704 652.29 362.176C652.29 357.784 655.746 356.884 660.39 356.164C663.018 355.768 664.854 355.516 664.854 353.5C664.854 351.412 663.342 350.224 660.678 350.224C657.654 350.224 656.142 351.52 656.034 354.328H653.226C653.334 350.728 655.71 348.028 660.642 348.028C664.602 348.028 667.518 349.504 667.518 353.932V362.788C667.518 364.3 667.878 365.128 669.498 364.768H669.606V366.892C669.246 367.036 668.778 367.18 668.022 367.18ZM659.238 365.128C663.126 365.128 664.89 362.284 664.89 360.124V356.956C663.918 357.568 662.226 358.036 660.642 358.324C657.726 358.864 655.386 359.368 655.386 362.104C655.386 364.588 657.33 365.128 659.238 365.128ZM686.517 367H683.601V364.444H683.529C682.197 366.244 680.613 367.432 677.913 367.432C674.097 367.432 671.649 365.128 671.649 361.276V348.388H674.565V361.204C674.565 363.616 676.113 365.02 678.741 365.02C681.693 365.02 683.601 362.788 683.601 359.836V348.388H686.517V367ZM689.272 350.764V348.388H691.972V342.52H694.888V348.388H698.488V350.764H694.888V362.86C694.888 364.156 695.572 364.588 696.76 364.588C697.336 364.588 697.984 364.444 698.308 364.336H698.416V366.856C697.732 367 696.94 367.108 696.076 367.108C693.7 367.108 691.972 366.136 691.972 363.508V350.764H689.272ZM709.28 367.504C703.736 367.504 700.28 363.112 700.28 357.712C700.28 352.312 703.736 347.92 709.28 347.92C714.86 347.92 718.244 352.312 718.244 357.712C718.244 363.112 714.86 367.504 709.28 367.504ZM709.28 365.056C713.24 365.056 715.256 361.816 715.256 357.712C715.256 353.608 713.24 350.332 709.28 350.332C705.32 350.332 703.268 353.608 703.268 357.712C703.268 361.816 705.32 365.056 709.28 365.056ZM721.152 367V348.388H724.068V351.052H724.14C725.292 349.252 727.272 347.956 729.612 347.956C731.88 347.956 733.68 349.108 734.472 351.268H734.544C735.732 349.144 737.964 347.956 740.232 347.956C743.544 347.956 745.884 350.08 745.884 353.932V367H742.968V354.076C742.968 351.772 741.42 350.404 739.548 350.404C737.136 350.404 734.976 352.492 734.976 355.408V367H732.06V354.076C732.06 351.772 730.764 350.404 728.856 350.404C726.588 350.404 724.068 352.492 724.068 355.408V367H721.152ZM764.35 367.18C762.442 367.18 761.434 366.316 761.146 364.408H761.11C759.994 365.848 758.086 367.36 754.918 367.36C751.39 367.36 748.618 365.704 748.618 362.176C748.618 357.784 752.074 356.884 756.718 356.164C759.346 355.768 761.182 355.516 761.182 353.5C761.182 351.412 759.67 350.224 757.006 350.224C753.982 350.224 752.47 351.52 752.362 354.328H749.554C749.662 350.728 752.038 348.028 756.97 348.028C760.93 348.028 763.846 349.504 763.846 353.932V362.788C763.846 364.3 764.206 365.128 765.826 364.768H765.934V366.892C765.574 367.036 765.106 367.18 764.35 367.18ZM755.566 365.128C759.454 365.128 761.218 362.284 761.218 360.124V356.956C760.246 357.568 758.554 358.036 756.97 358.324C754.054 358.864 751.714 359.368 751.714 362.104C751.714 364.588 753.658 365.128 755.566 365.128ZM766.546 350.764V348.388H769.246V342.52H772.162V348.388H775.762V350.764H772.162V362.86C772.162 364.156 772.846 364.588 774.034 364.588C774.61 364.588 775.258 364.444 775.582 364.336H775.69V366.856C775.006 367 774.214 367.108 773.35 367.108C770.974 367.108 769.246 366.136 769.246 363.508V350.764H766.546ZM786.553 367.504C780.865 367.504 777.553 363.112 777.553 357.712C777.553 352.312 781.081 347.92 786.373 347.92C791.953 347.92 794.941 352.24 794.941 358.396H780.541C780.757 362.176 782.809 365.056 786.553 365.056C789.253 365.056 791.053 363.76 791.701 361.24H794.545C793.681 365.236 790.765 367.504 786.553 367.504ZM786.373 350.224C782.917 350.224 781.045 352.816 780.613 356.2H791.809C791.629 352.492 789.721 350.224 786.373 350.224ZM804.849 367.54C799.737 367.54 796.893 365.128 796.605 360.952H799.593C799.989 364.192 802.149 365.092 804.921 365.092C807.981 365.092 809.241 363.76 809.241 362.032C809.241 359.944 807.801 359.404 804.381 358.684C800.709 357.928 797.433 357.172 797.433 353.104C797.433 350.008 799.809 347.992 804.129 347.992C808.737 347.992 811.005 350.188 811.437 353.824H808.449C808.161 351.376 806.829 350.296 804.057 350.296C801.393 350.296 800.312 351.484 800.312 352.96C800.312 354.976 802.113 355.372 805.316 356.02C809.061 356.776 812.193 357.604 812.193 361.888C812.193 365.632 809.133 367.54 804.849 367.54ZM821.146 367V341.26H831.874C834.574 341.26 836.662 342.16 837.994 343.744C839.074 345.004 839.722 346.696 839.722 348.64C839.722 353.356 837.022 356.2 831.406 356.2H824.386V367H821.146ZM824.386 344.068V353.572H831.154C834.79 353.572 836.518 351.736 836.518 348.784C836.518 345.688 834.61 344.068 831.334 344.068H824.386ZM842.838 367V341.26H854.862C859.398 341.26 862.458 344.104 862.458 348.316C862.458 351.448 861.09 353.68 857.994 354.688V354.796C860.622 355.732 861.45 357.532 861.702 361.348C861.99 365.488 862.422 366.532 862.89 366.856V367H859.398C858.858 366.532 858.75 365.56 858.462 361.24C858.21 357.46 856.698 356.128 853.242 356.128H846.078V367H842.838ZM846.078 344.068V353.5H853.71C857.31 353.5 859.11 351.7 859.11 348.784C859.11 345.652 857.67 344.068 853.89 344.068H846.078ZM871.691 367V348.388H874.607V351.052H874.679C875.831 349.252 877.811 347.956 880.151 347.956C882.419 347.956 884.219 349.108 885.011 351.268H885.083C886.271 349.144 888.503 347.956 890.771 347.956C894.083 347.956 896.423 350.08 896.423 353.932V367H893.507V354.076C893.507 351.772 891.959 350.404 890.087 350.404C887.675 350.404 885.515 352.492 885.515 355.408V367H882.599V354.076C882.599 351.772 881.303 350.404 879.395 350.404C877.127 350.404 874.607 352.492 874.607 355.408V367H871.691ZM908.229 367.504C902.541 367.504 899.229 363.112 899.229 357.712C899.229 352.312 902.757 347.92 908.049 347.92C913.629 347.92 916.617 352.24 916.617 358.396H902.217C902.433 362.176 904.485 365.056 908.229 365.056C910.929 365.056 912.729 363.76 913.377 361.24H916.221C915.357 365.236 912.441 367.504 908.229 367.504ZM908.049 350.224C904.593 350.224 902.721 352.816 902.289 356.2H913.485C913.305 352.492 911.397 350.224 908.049 350.224ZM922.384 348.388V351.484H922.456C923.572 349.684 925.516 348.172 928 348.172C928.54 348.172 928.828 348.244 929.188 348.388V351.196H929.08C928.648 351.052 928.36 351.016 927.784 351.016C924.904 351.016 922.384 353.176 922.384 356.668V367H919.468V348.388H922.384ZM938.521 373.192C933.697 373.192 930.961 371.248 930.637 368.044H933.337C933.625 370.096 935.569 370.888 938.449 370.888C941.869 370.888 943.777 369.34 943.777 366.1V363.472H943.705C942.337 365.236 940.861 366.352 938.197 366.352C933.373 366.352 930.061 362.5 930.061 357.136C930.061 351.34 933.697 347.956 938.017 347.956C940.717 347.956 942.445 349 943.705 350.764H943.777V348.388H946.693V365.992C946.693 370.888 943.453 373.192 938.521 373.192ZM938.341 363.904C942.625 363.904 943.993 360.916 943.993 356.992C943.993 352.924 942.265 350.404 938.305 350.404C934.813 350.404 933.049 353.14 933.049 357.172C933.049 361.24 934.885 363.904 938.341 363.904ZM958.608 367.504C952.92 367.504 949.608 363.112 949.608 357.712C949.608 352.312 953.136 347.92 958.428 347.92C964.008 347.92 966.996 352.24 966.996 358.396H952.596C952.812 362.176 954.864 365.056 958.608 365.056C961.308 365.056 963.108 363.76 963.756 361.24H966.6C965.736 365.236 962.82 367.504 958.608 367.504ZM958.428 350.224C954.972 350.224 953.1 352.816 952.668 356.2H963.864C963.684 352.492 961.776 350.224 958.428 350.224ZM976.903 367.54C971.791 367.54 968.947 365.128 968.659 360.952H971.647C972.043 364.192 974.203 365.092 976.975 365.092C980.035 365.092 981.295 363.76 981.295 362.032C981.295 359.944 979.855 359.404 976.435 358.684C972.763 357.928 969.487 357.172 969.487 353.104C969.487 350.008 971.863 347.992 976.183 347.992C980.791 347.992 983.059 350.188 983.491 353.824H980.503C980.215 351.376 978.883 350.296 976.111 350.296C973.447 350.296 972.367 351.484 972.367 352.96C972.367 354.976 974.167 355.372 977.371 356.02C981.115 356.776 984.247 357.604 984.247 361.888C984.247 365.632 981.187 367.54 976.903 367.54ZM992.769 367V348.388H995.685V367H992.769ZM992.769 344.86V341.26H995.685V344.86H992.769ZM1002.58 348.388V350.836H1002.65C1003.98 349.072 1005.85 347.956 1008.55 347.956C1012.44 347.956 1014.82 350.08 1014.82 353.932V367H1011.9V354.184C1011.9 351.772 1010.32 350.404 1007.69 350.404C1004.74 350.404 1002.58 352.492 1002.58 355.552V367H999.66V348.388H1002.58ZM1017.14 350.764V348.388H1019.84V342.52H1022.76V348.388H1026.36V350.764H1022.76V362.86C1022.76 364.156 1023.44 364.588 1024.63 364.588C1025.2 364.588 1025.85 364.444 1026.18 364.336H1026.28V366.856C1025.6 367 1024.81 367.108 1023.94 367.108C1021.57 367.108 1019.84 366.136 1019.84 363.508V350.764H1017.14ZM1037.15 367.504C1031.6 367.504 1028.15 363.112 1028.15 357.712C1028.15 352.312 1031.6 347.92 1037.15 347.92C1042.73 347.92 1046.11 352.312 1046.11 357.712C1046.11 363.112 1042.73 367.504 1037.15 367.504ZM1037.15 365.056C1041.11 365.056 1043.12 361.816 1043.12 357.712C1043.12 353.608 1041.11 350.332 1037.15 350.332C1033.19 350.332 1031.13 353.608 1031.13 357.712C1031.13 361.816 1033.19 365.056 1037.15 365.056ZM1057.13 373.156C1056.01 373.156 1055.29 373.084 1054.5 372.76V370.168H1054.64C1055.04 370.384 1055.65 370.564 1056.62 370.564C1057.85 370.564 1058.67 370.096 1059.39 368.296L1060.11 366.46L1052.84 348.388H1056.01L1060.4 359.98C1060.98 361.528 1061.66 363.616 1061.66 363.616H1061.73C1061.73 363.616 1062.38 361.528 1062.96 359.98L1067.21 348.388H1070.3L1062.35 368.512C1060.83 372.364 1059.39 373.156 1057.13 373.156ZM1079.97 367.504C1074.42 367.504 1070.97 363.112 1070.97 357.712C1070.97 352.312 1074.42 347.92 1079.97 347.92C1085.55 347.92 1088.93 352.312 1088.93 357.712C1088.93 363.112 1085.55 367.504 1079.97 367.504ZM1079.97 365.056C1083.93 365.056 1085.94 361.816 1085.94 357.712C1085.94 353.608 1083.93 350.332 1079.97 350.332C1076.01 350.332 1073.96 353.608 1073.96 357.712C1073.96 361.816 1076.01 365.056 1079.97 365.056ZM1106.6 367H1103.68V364.444H1103.61C1102.28 366.244 1100.7 367.432 1098 367.432C1094.18 367.432 1091.73 365.128 1091.73 361.276V348.388H1094.65V361.204C1094.65 363.616 1096.2 365.02 1098.82 365.02C1101.78 365.02 1103.68 362.788 1103.68 359.836V348.388H1106.6V367ZM1113.46 348.388V351.484H1113.53C1114.65 349.684 1116.59 348.172 1119.07 348.172C1119.61 348.172 1119.9 348.244 1120.26 348.388V351.196H1120.15C1119.72 351.052 1119.43 351.016 1118.86 351.016C1115.98 351.016 1113.46 353.176 1113.46 356.668V367H1110.54V348.388H1113.46ZM239.896 398.388V401.484H239.968C241.084 399.684 243.028 398.172 245.512 398.172C246.052 398.172 246.34 398.244 246.7 398.388V401.196H246.592C246.16 401.052 245.872 401.016 245.296 401.016C242.416 401.016 239.896 403.176 239.896 406.668V417H236.98V398.388H239.896ZM256.573 417.504C250.885 417.504 247.573 413.112 247.573 407.712C247.573 402.312 251.101 397.92 256.393 397.92C261.973 397.92 264.961 402.24 264.961 408.396H250.561C250.777 412.176 252.829 415.056 256.573 415.056C259.273 415.056 261.073 413.76 261.721 411.24H264.565C263.701 415.236 260.785 417.504 256.573 417.504ZM256.393 400.224C252.937 400.224 251.065 402.816 250.633 406.2H261.829C261.649 402.492 259.741 400.224 256.393 400.224ZM267.812 422.976V398.388H270.728V401.016H270.8C272.204 399.108 274.076 397.956 276.776 397.956C281.492 397.956 284.768 401.556 284.768 407.748C284.768 413.724 281.708 417.54 276.668 417.54C274.148 417.54 272.348 416.784 270.8 414.804H270.728V422.976H267.812ZM276.452 415.092C280.016 415.092 281.78 411.996 281.78 407.784C281.78 403.608 280.016 400.44 276.488 400.44C272.42 400.44 270.548 403.752 270.548 407.784C270.548 411.816 272.168 415.092 276.452 415.092ZM295.631 417.504C290.087 417.504 286.631 413.112 286.631 407.712C286.631 402.312 290.087 397.92 295.631 397.92C301.211 397.92 304.595 402.312 304.595 407.712C304.595 413.112 301.211 417.504 295.631 417.504ZM295.631 415.056C299.591 415.056 301.607 411.816 301.607 407.712C301.607 403.608 299.591 400.332 295.631 400.332C291.671 400.332 289.619 403.608 289.619 407.712C289.619 411.816 291.671 415.056 295.631 415.056ZM305.594 398.964V391.26H308.258V398.964H305.594ZM318.813 417.54C313.701 417.54 310.857 415.128 310.569 410.952H313.557C313.953 414.192 316.113 415.092 318.885 415.092C321.945 415.092 323.205 413.76 323.205 412.032C323.205 409.944 321.765 409.404 318.345 408.684C314.673 407.928 311.397 407.172 311.397 403.104C311.397 400.008 313.773 397.992 318.093 397.992C322.701 397.992 324.969 400.188 325.401 403.824H322.413C322.125 401.376 320.793 400.296 318.021 400.296C315.357 400.296 314.277 401.484 314.277 402.96C314.277 404.976 316.077 405.372 319.281 406.02C323.025 406.776 326.157 407.604 326.157 411.888C326.157 415.632 323.097 417.54 318.813 417.54ZM334.679 417V398.388H337.595V401.052H337.667C338.819 399.252 340.799 397.956 343.139 397.956C345.407 397.956 347.207 399.108 347.999 401.268H348.071C349.259 399.144 351.491 397.956 353.759 397.956C357.071 397.956 359.411 400.08 359.411 403.932V417H356.495V404.076C356.495 401.772 354.947 400.404 353.075 400.404C350.663 400.404 348.503 402.492 348.503 405.408V417H345.587V404.076C345.587 401.772 344.291 400.404 342.383 400.404C340.115 400.404 337.595 402.492 337.595 405.408V417H334.679ZM377.877 417.18C375.969 417.18 374.961 416.316 374.673 414.408H374.637C373.521 415.848 371.613 417.36 368.445 417.36C364.917 417.36 362.145 415.704 362.145 412.176C362.145 407.784 365.601 406.884 370.245 406.164C372.873 405.768 374.709 405.516 374.709 403.5C374.709 401.412 373.197 400.224 370.533 400.224C367.509 400.224 365.997 401.52 365.889 404.328H363.081C363.189 400.728 365.565 398.028 370.497 398.028C374.457 398.028 377.373 399.504 377.373 403.932V412.788C377.373 414.3 377.733 415.128 379.353 414.768H379.461V416.892C379.101 417.036 378.633 417.18 377.877 417.18ZM369.093 415.128C372.981 415.128 374.745 412.284 374.745 410.124V406.956C373.773 407.568 372.081 408.036 370.497 408.324C367.581 408.864 365.241 409.368 365.241 412.104C365.241 414.588 367.185 415.128 369.093 415.128ZM381.613 417V398.388H384.529V417H381.613ZM381.613 394.86V391.26H384.529V394.86H381.613ZM391.419 398.388V400.836H391.491C392.823 399.072 394.695 397.956 397.395 397.956C401.283 397.956 403.659 400.08 403.659 403.932V417H400.743V404.184C400.743 401.772 399.159 400.404 396.531 400.404C393.579 400.404 391.419 402.492 391.419 405.552V417H388.503V398.388H391.419ZM422.109 417.54C419.589 417.54 417.753 416.64 416.241 414.552H416.169V417H413.253V391.26H416.169V401.052H416.241C417.645 399.144 419.517 397.956 422.217 397.956C426.933 397.956 430.137 401.556 430.137 407.748C430.137 413.724 427.149 417.54 422.109 417.54ZM421.893 415.092C425.457 415.092 427.149 411.996 427.149 407.784C427.149 403.608 425.457 400.44 421.929 400.44C417.861 400.44 415.989 403.752 415.989 407.784C415.989 411.96 417.933 415.092 421.893 415.092ZM435.962 398.388V401.484H436.034C437.15 399.684 439.094 398.172 441.578 398.172C442.118 398.172 442.406 398.244 442.766 398.388V401.196H442.658C442.226 401.052 441.938 401.016 441.362 401.016C438.482 401.016 435.962 403.176 435.962 406.668V417H433.046V398.388H435.962ZM459.299 417.18C457.391 417.18 456.383 416.316 456.095 414.408H456.059C454.943 415.848 453.035 417.36 449.867 417.36C446.339 417.36 443.567 415.704 443.567 412.176C443.567 407.784 447.023 406.884 451.667 406.164C454.295 405.768 456.131 405.516 456.131 403.5C456.131 401.412 454.619 400.224 451.955 400.224C448.931 400.224 447.419 401.52 447.311 404.328H444.503C444.611 400.728 446.987 398.028 451.919 398.028C455.879 398.028 458.795 399.504 458.795 403.932V412.788C458.795 414.3 459.155 415.128 460.775 414.768H460.883V416.892C460.523 417.036 460.055 417.18 459.299 417.18ZM450.515 415.128C454.403 415.128 456.167 412.284 456.167 410.124V406.956C455.195 407.568 453.503 408.036 451.919 408.324C449.003 408.864 446.663 409.368 446.663 412.104C446.663 414.588 448.607 415.128 450.515 415.128ZM465.951 398.388V400.836H466.023C467.355 399.072 469.227 397.956 471.927 397.956C475.815 397.956 478.191 400.08 478.191 403.932V417H475.275V404.184C475.275 401.772 473.691 400.404 471.063 400.404C468.111 400.404 465.951 402.492 465.951 405.552V417H463.035V398.388H465.951ZM490.01 417.504C484.466 417.504 481.01 413.112 481.01 407.712C481.01 402.312 484.466 397.92 490.01 397.92C494.402 397.92 497.318 400.44 497.966 404.4H495.014C494.582 401.88 492.818 400.332 490.01 400.332C486.05 400.332 483.998 403.608 483.998 407.712C483.998 411.816 486.05 415.056 490.01 415.056C493.034 415.056 494.834 413.328 495.086 410.448H497.966C497.57 414.912 494.654 417.504 490.01 417.504ZM503.638 391.26V400.836H503.71C505.042 399.072 506.914 397.956 509.614 397.956C513.502 397.956 515.878 400.08 515.878 403.932V417H512.962V404.184C512.962 401.772 511.378 400.404 508.75 400.404C505.798 400.404 503.638 402.492 503.638 405.552V417H500.722V391.26H503.638ZM519.346 417V413.436H522.838V417H519.346ZM246.772 517.504C239.536 517.504 236.08 513.472 235.792 508.288H238.96C239.392 512.644 242.056 514.912 246.916 514.912C250.48 514.912 253.036 513.292 253.036 510.088C253.036 506.56 249.94 505.732 245.332 504.724C240.796 503.716 236.908 502.42 236.908 497.56C236.908 493.312 240.436 490.756 245.656 490.756C252.1 490.756 254.764 494.032 255.412 498.784H252.352C251.884 495.112 249.508 493.276 245.728 493.276C242.236 493.276 239.932 494.752 239.932 497.416C239.932 500.332 242.812 501.196 246.664 501.952C251.668 502.96 256.24 504.184 256.24 509.98C256.24 514.804 252.316 517.504 246.772 517.504ZM259.515 522.976V498.388H262.431V501.016H262.503C263.907 499.108 265.779 497.956 268.479 497.956C273.195 497.956 276.471 501.556 276.471 507.748C276.471 513.724 273.411 517.54 268.371 517.54C265.851 517.54 264.051 516.784 262.503 514.804H262.431V522.976H259.515ZM268.155 515.092C271.719 515.092 273.483 511.996 273.483 507.784C273.483 503.608 271.719 500.44 268.191 500.44C264.123 500.44 262.251 503.752 262.251 507.784C262.251 511.816 263.871 515.092 268.155 515.092ZM287.334 517.504C281.646 517.504 278.334 513.112 278.334 507.712C278.334 502.312 281.862 497.92 287.154 497.92C292.734 497.92 295.722 502.24 295.722 508.396H281.322C281.538 512.176 283.59 515.056 287.334 515.056C290.034 515.056 291.834 513.76 292.482 511.24H295.326C294.462 515.236 291.546 517.504 287.334 517.504ZM287.154 500.224C283.698 500.224 281.826 502.816 281.394 506.2H292.59C292.41 502.492 290.502 500.224 287.154 500.224ZM306.53 517.504C300.986 517.504 297.53 513.112 297.53 507.712C297.53 502.312 300.986 497.92 306.53 497.92C310.922 497.92 313.838 500.44 314.486 504.4H311.534C311.102 501.88 309.338 500.332 306.53 500.332C302.57 500.332 300.518 503.608 300.518 507.712C300.518 511.816 302.57 515.056 306.53 515.056C309.554 515.056 311.354 513.328 311.606 510.448H314.486C314.09 514.912 311.174 517.504 306.53 517.504ZM317.242 517V498.388H320.158V517H317.242ZM317.242 494.86V491.26H320.158V494.86H317.242ZM322.944 500.764V498.388H325.5V495.4C325.5 492.196 327.336 491.044 330.432 491.044C331.044 491.044 331.512 491.08 331.908 491.116V493.6C331.404 493.564 331.26 493.564 330.972 493.564C329.1 493.564 328.416 494.032 328.416 495.544V498.388H331.872V500.764H328.416V517H325.5V500.764H322.944ZM334.714 517V498.388H337.63V517H334.714ZM334.714 494.86V491.26H337.63V494.86H334.714ZM349.561 517.504C344.017 517.504 340.561 513.112 340.561 507.712C340.561 502.312 344.017 497.92 349.561 497.92C353.953 497.92 356.869 500.44 357.517 504.4H354.565C354.133 501.88 352.369 500.332 349.561 500.332C345.601 500.332 343.549 503.608 343.549 507.712C343.549 511.816 345.601 515.056 349.561 515.056C352.585 515.056 354.385 513.328 354.637 510.448H357.517C357.121 514.912 354.205 517.504 349.561 517.504ZM375.241 517.18C373.333 517.18 372.325 516.316 372.037 514.408H372.001C370.885 515.848 368.977 517.36 365.809 517.36C362.281 517.36 359.509 515.704 359.509 512.176C359.509 507.784 362.965 506.884 367.609 506.164C370.237 505.768 372.073 505.516 372.073 503.5C372.073 501.412 370.561 500.224 367.897 500.224C364.873 500.224 363.361 501.52 363.253 504.328H360.445C360.553 500.728 362.929 498.028 367.861 498.028C371.821 498.028 374.737 499.504 374.737 503.932V512.788C374.737 514.3 375.097 515.128 376.717 514.768H376.825V516.892C376.465 517.036 375.997 517.18 375.241 517.18ZM366.457 515.128C370.345 515.128 372.109 512.284 372.109 510.124V506.956C371.137 507.568 369.445 508.036 367.861 508.324C364.945 508.864 362.605 509.368 362.605 512.104C362.605 514.588 364.549 515.128 366.457 515.128ZM379.084 517V491.26H382V517H379.084ZM386.186 517V491.26H389.102V517H386.186ZM395.555 523.156C394.439 523.156 393.719 523.084 392.927 522.76V520.168H393.071C393.467 520.384 394.079 520.564 395.051 520.564C396.275 520.564 397.103 520.096 397.823 518.296L398.543 516.46L391.271 498.388H394.439L398.831 509.98C399.407 511.528 400.091 513.616 400.091 513.616H400.163C400.163 513.616 400.811 511.528 401.387 509.98L405.635 498.388H408.731L400.775 518.512C399.263 522.364 397.823 523.156 395.555 523.156ZM408.288 521.608V519.988C409.08 519.7 409.908 519.016 409.908 517H408.252V513.436H411.744V517.108C411.744 519.736 410.34 521.212 408.288 521.608ZM421.023 517V498.388H423.939V517H421.023ZM421.023 494.86V491.26H423.939V494.86H421.023ZM426.726 500.764V498.388H429.426V492.52H432.342V498.388H435.942V500.764H432.342V512.86C432.342 514.156 433.026 514.588 434.214 514.588C434.79 514.588 435.438 514.444 435.762 514.336H435.87V516.856C435.186 517 434.394 517.108 433.53 517.108C431.154 517.108 429.426 516.136 429.426 513.508V500.764H426.726ZM447.599 498.388V501.484H447.671C448.787 499.684 450.731 498.172 453.215 498.172C453.755 498.172 454.043 498.244 454.403 498.388V501.196H454.295C453.863 501.052 453.575 501.016 452.999 501.016C450.119 501.016 447.599 503.176 447.599 506.668V517H444.683V498.388H447.599ZM464.276 517.504C458.588 517.504 455.276 513.112 455.276 507.712C455.276 502.312 458.804 497.92 464.096 497.92C469.676 497.92 472.664 502.24 472.664 508.396H458.264C458.48 512.176 460.532 515.056 464.276 515.056C466.976 515.056 468.776 513.76 469.424 511.24H472.268C471.404 515.236 468.488 517.504 464.276 517.504ZM464.096 500.224C460.64 500.224 458.768 502.816 458.336 506.2H469.532C469.352 502.492 467.444 500.224 464.096 500.224ZM482.571 517.54C477.459 517.54 474.615 515.128 474.327 510.952H477.315C477.711 514.192 479.871 515.092 482.643 515.092C485.703 515.092 486.963 513.76 486.963 512.032C486.963 509.944 485.523 509.404 482.103 508.684C478.431 507.928 475.155 507.172 475.155 503.104C475.155 500.008 477.531 497.992 481.851 497.992C486.459 497.992 488.727 500.188 489.159 503.824H486.171C485.883 501.376 484.551 500.296 481.779 500.296C479.115 500.296 478.035 501.484 478.035 502.96C478.035 504.976 479.835 505.372 483.039 506.02C486.783 506.776 489.915 507.604 489.915 511.888C489.915 515.632 486.855 517.54 482.571 517.54ZM501.014 517.504C495.47 517.504 492.014 513.112 492.014 507.712C492.014 502.312 495.47 497.92 501.014 497.92C506.594 497.92 509.978 502.312 509.978 507.712C509.978 513.112 506.594 517.504 501.014 517.504ZM501.014 515.056C504.974 515.056 506.99 511.816 506.99 507.712C506.99 503.608 504.974 500.332 501.014 500.332C497.054 500.332 495.002 503.608 495.002 507.712C495.002 511.816 497.054 515.056 501.014 515.056ZM512.994 517V491.26H515.91V517H512.994ZM524.596 517L518.08 498.388H521.212L525.064 510.196C525.604 511.852 526.288 514.12 526.288 514.12H526.36C526.36 514.12 527.044 511.816 527.584 510.196L531.508 498.388H534.532L527.836 517H524.596ZM544.186 517.504C538.498 517.504 535.186 513.112 535.186 507.712C535.186 502.312 538.714 497.92 544.006 497.92C549.586 497.92 552.574 502.24 552.574 508.396H538.174C538.39 512.176 540.442 515.056 544.186 515.056C546.886 515.056 548.686 513.76 549.334 511.24H552.178C551.314 515.236 548.398 517.504 544.186 517.504ZM544.006 500.224C540.55 500.224 538.678 502.816 538.246 506.2H549.442C549.262 502.492 547.354 500.224 544.006 500.224ZM562.481 517.54C557.369 517.54 554.525 515.128 554.237 510.952H557.225C557.621 514.192 559.781 515.092 562.553 515.092C565.613 515.092 566.873 513.76 566.873 512.032C566.873 509.944 565.433 509.404 562.013 508.684C558.341 507.928 555.065 507.172 555.065 503.104C555.065 500.008 557.441 497.992 561.761 497.992C566.369 497.992 568.637 500.188 569.069 503.824H566.081C565.793 501.376 564.461 500.296 561.689 500.296C559.025 500.296 557.945 501.484 557.945 502.96C557.945 504.976 559.745 505.372 562.949 506.02C566.693 506.776 569.825 507.604 569.825 511.888C569.825 515.632 566.765 517.54 562.481 517.54ZM577.159 500.764V498.388H579.859V492.52H582.775V498.388H586.375V500.764H582.775V512.86C582.775 514.156 583.459 514.588 584.647 514.588C585.223 514.588 585.871 514.444 586.195 514.336H586.303V516.856C585.619 517 584.827 517.108 583.963 517.108C581.587 517.108 579.859 516.136 579.859 513.508V500.764H577.159ZM593.806 517L587.902 498.388H591.034L594.31 509.872C594.742 511.42 595.318 513.868 595.318 513.868H595.39C595.39 513.868 595.93 511.42 596.326 509.944L599.458 498.388H602.518L605.542 509.944C605.938 511.456 606.442 513.868 606.442 513.868H606.514C606.514 513.868 607.09 511.42 607.558 509.872L611.014 498.388H614.038L607.954 517H604.966L601.87 505.732C601.438 504.184 600.97 501.844 600.97 501.844H600.898C600.898 501.844 600.394 504.184 599.962 505.732L596.83 517H593.806ZM623.78 517.504C618.236 517.504 614.78 513.112 614.78 507.712C614.78 502.312 618.236 497.92 623.78 497.92C629.36 497.92 632.744 502.312 632.744 507.712C632.744 513.112 629.36 517.504 623.78 517.504ZM623.78 515.056C627.74 515.056 629.756 511.816 629.756 507.712C629.756 503.608 627.74 500.332 623.78 500.332C619.82 500.332 617.768 503.608 617.768 507.712C617.768 511.816 619.82 515.056 623.78 515.056ZM649.338 517.504C643.794 517.504 640.338 513.112 640.338 507.712C640.338 502.312 643.794 497.92 649.338 497.92C653.73 497.92 656.646 500.44 657.294 504.4H654.342C653.91 501.88 652.146 500.332 649.338 500.332C645.378 500.332 643.326 503.608 643.326 507.712C643.326 511.816 645.378 515.056 649.338 515.056C652.362 515.056 654.162 513.328 654.414 510.448H657.294C656.898 514.912 653.982 517.504 649.338 517.504ZM668.006 517.504C662.462 517.504 659.006 513.112 659.006 507.712C659.006 502.312 662.462 497.92 668.006 497.92C673.586 497.92 676.97 502.312 676.97 507.712C676.97 513.112 673.586 517.504 668.006 517.504ZM668.006 515.056C671.966 515.056 673.982 511.816 673.982 507.712C673.982 503.608 671.966 500.332 668.006 500.332C664.046 500.332 661.994 503.608 661.994 507.712C661.994 511.816 664.046 515.056 668.006 515.056ZM679.878 517V498.388H682.794V501.052H682.866C684.018 499.252 685.998 497.956 688.338 497.956C690.606 497.956 692.406 499.108 693.198 501.268H693.27C694.458 499.144 696.69 497.956 698.958 497.956C702.27 497.956 704.61 500.08 704.61 503.932V517H701.694V504.076C701.694 501.772 700.146 500.404 698.274 500.404C695.862 500.404 693.702 502.492 693.702 505.408V517H690.786V504.076C690.786 501.772 689.49 500.404 687.582 500.404C685.314 500.404 682.794 502.492 682.794 505.408V517H679.878ZM708.46 517V498.388H711.376V501.052H711.448C712.6 499.252 714.58 497.956 716.92 497.956C719.188 497.956 720.988 499.108 721.78 501.268H721.852C723.04 499.144 725.272 497.956 727.54 497.956C730.852 497.956 733.192 500.08 733.192 503.932V517H730.276V504.076C730.276 501.772 728.728 500.404 726.856 500.404C724.444 500.404 722.284 502.492 722.284 505.408V517H719.368V504.076C719.368 501.772 718.072 500.404 716.164 500.404C713.896 500.404 711.376 502.492 711.376 505.408V517H708.46ZM744.999 517.504C739.455 517.504 735.999 513.112 735.999 507.712C735.999 502.312 739.455 497.92 744.999 497.92C750.579 497.92 753.963 502.312 753.963 507.712C753.963 513.112 750.579 517.504 744.999 517.504ZM744.999 515.056C748.959 515.056 750.975 511.816 750.975 507.712C750.975 503.608 748.959 500.332 744.999 500.332C741.039 500.332 738.987 503.608 738.987 507.712C738.987 511.816 741.039 515.056 744.999 515.056ZM759.787 498.388V500.836H759.859C761.191 499.072 763.063 497.956 765.763 497.956C769.651 497.956 772.027 500.08 772.027 503.932V517H769.111V504.184C769.111 501.772 767.527 500.404 764.899 500.404C761.947 500.404 759.787 502.492 759.787 505.552V517H756.871V498.388H759.787ZM781.621 522.976V498.388H784.537V501.016H784.609C786.013 499.108 787.885 497.956 790.585 497.956C795.301 497.956 798.577 501.556 798.577 507.748C798.577 513.724 795.517 517.54 790.477 517.54C787.957 517.54 786.157 516.784 784.609 514.804H784.537V522.976H781.621ZM790.261 515.092C793.825 515.092 795.589 511.996 795.589 507.784C795.589 503.608 793.825 500.44 790.297 500.44C786.229 500.44 784.357 503.752 784.357 507.784C784.357 511.816 785.977 515.092 790.261 515.092ZM804.4 498.388V501.484H804.472C805.588 499.684 807.532 498.172 810.016 498.172C810.556 498.172 810.844 498.244 811.204 498.388V501.196H811.096C810.664 501.052 810.376 501.016 809.8 501.016C806.92 501.016 804.4 503.176 804.4 506.668V517H801.484V498.388H804.4ZM821.077 517.504C815.533 517.504 812.077 513.112 812.077 507.712C812.077 502.312 815.533 497.92 821.077 497.92C826.657 497.92 830.041 502.312 830.041 507.712C830.041 513.112 826.657 517.504 821.077 517.504ZM821.077 515.056C825.037 515.056 827.053 511.816 827.053 507.712C827.053 503.608 825.037 500.332 821.077 500.332C817.117 500.332 815.065 503.608 815.065 507.712C815.065 511.816 817.117 515.056 821.077 515.056ZM841.805 517.54C839.285 517.54 837.449 516.64 835.937 514.552H835.865V517H832.949V491.26H835.865V501.052H835.937C837.341 499.144 839.213 497.956 841.913 497.956C846.629 497.956 849.833 501.556 849.833 507.748C849.833 513.724 846.845 517.54 841.805 517.54ZM841.589 515.092C845.153 515.092 846.845 511.996 846.845 507.784C846.845 503.608 845.153 500.44 841.625 500.44C837.557 500.44 835.685 503.752 835.685 507.784C835.685 511.96 837.629 515.092 841.589 515.092ZM852.85 517V491.26H855.766V517H852.85ZM867.799 517.504C862.111 517.504 858.799 513.112 858.799 507.712C858.799 502.312 862.327 497.92 867.619 497.92C873.199 497.92 876.187 502.24 876.187 508.396H861.787C862.003 512.176 864.055 515.056 867.799 515.056C870.499 515.056 872.299 513.76 872.947 511.24H875.791C874.927 515.236 872.011 517.504 867.799 517.504ZM867.619 500.224C864.163 500.224 862.291 502.816 861.859 506.2H873.055C872.875 502.492 870.967 500.224 867.619 500.224ZM879.039 517V498.388H881.955V501.052H882.027C883.179 499.252 885.159 497.956 887.499 497.956C889.767 497.956 891.567 499.108 892.359 501.268H892.431C893.619 499.144 895.851 497.956 898.119 497.956C901.431 497.956 903.771 500.08 903.771 503.932V517H900.855V504.076C900.855 501.772 899.307 500.404 897.435 500.404C895.023 500.404 892.863 502.492 892.863 505.408V517H889.947V504.076C889.947 501.772 888.651 500.404 886.743 500.404C884.475 500.404 881.955 502.492 881.955 505.408V517H879.039ZM914.677 517.54C909.565 517.54 906.721 515.128 906.433 510.952H909.421C909.817 514.192 911.977 515.092 914.749 515.092C917.809 515.092 919.069 513.76 919.069 512.032C919.069 509.944 917.629 509.404 914.209 508.684C910.537 507.928 907.261 507.172 907.261 503.104C907.261 500.008 909.637 497.992 913.957 497.992C918.565 497.992 920.833 500.188 921.265 503.824H918.277C917.989 501.376 916.657 500.296 913.885 500.296C911.221 500.296 910.141 501.484 910.141 502.96C910.141 504.976 911.941 505.372 915.145 506.02C918.889 506.776 922.021 507.604 922.021 511.888C922.021 515.632 918.961 517.54 914.677 517.54ZM924.524 506.092V502.528H928.016V506.092H924.524ZM924.524 517V513.436H928.016V517H924.524ZM262.024 559.548C259.648 559.548 257.74 557.64 257.74 555.3C257.74 552.96 259.648 551.016 262.024 551.016C264.364 551.016 266.272 552.96 266.272 555.3C266.272 557.64 264.364 559.548 262.024 559.548ZM289.36 567L298.828 541.26H302.464L311.968 567H308.44L305.704 559.152H295.444L292.672 567H289.36ZM299.44 547.884L296.38 556.524H304.804L301.852 547.884C301.348 546.444 300.7 544.248 300.7 544.248H300.628C300.628 544.248 299.944 546.408 299.44 547.884ZM320.486 567V541.26H331.214C333.914 541.26 336.002 542.16 337.334 543.744C338.414 545.004 339.062 546.696 339.062 548.64C339.062 553.356 336.362 556.2 330.746 556.2H323.726V567H320.486ZM323.726 544.068V553.572H330.494C334.13 553.572 335.858 551.736 335.858 548.784C335.858 545.688 333.95 544.068 330.674 544.068H323.726ZM342.178 567V541.26H354.202C358.738 541.26 361.798 544.104 361.798 548.316C361.798 551.448 360.43 553.68 357.334 554.688V554.796C359.962 555.732 360.79 557.532 361.042 561.348C361.33 565.488 361.762 566.532 362.23 566.856V567H358.738C358.198 566.532 358.09 565.56 357.802 561.24C357.55 557.46 356.038 556.128 352.582 556.128H345.418V567H342.178ZM345.418 544.068V553.5H353.05C356.65 553.5 358.45 551.7 358.45 548.784C358.45 545.652 357.01 544.068 353.23 544.068H345.418ZM371.031 567V548.388H373.947V567H371.031ZM371.031 544.86V541.26H373.947V544.86H371.031ZM384.977 567.54C379.865 567.54 377.021 565.128 376.733 560.952H379.721C380.117 564.192 382.277 565.092 385.049 565.092C388.109 565.092 389.369 563.76 389.369 562.032C389.369 559.944 387.929 559.404 384.509 558.684C380.837 557.928 377.561 557.172 377.561 553.104C377.561 550.008 379.937 547.992 384.257 547.992C388.865 547.992 391.133 550.188 391.565 553.824H388.577C388.289 551.376 386.957 550.296 384.185 550.296C381.521 550.296 380.441 551.484 380.441 552.96C380.441 554.976 382.241 555.372 385.445 556.02C389.189 556.776 392.321 557.604 392.321 561.888C392.321 565.632 389.261 567.54 384.977 567.54ZM409.699 567.54C407.179 567.54 405.343 566.64 403.831 564.552H403.759V567H400.843V541.26H403.759V551.052H403.831C405.235 549.144 407.107 547.956 409.807 547.956C414.523 547.956 417.727 551.556 417.727 557.748C417.727 563.724 414.739 567.54 409.699 567.54ZM409.483 565.092C413.047 565.092 414.739 561.996 414.739 557.784C414.739 553.608 413.047 550.44 409.519 550.44C405.451 550.44 403.579 553.752 403.579 557.784C403.579 561.96 405.523 565.092 409.483 565.092ZM423.552 548.388V551.484H423.624C424.74 549.684 426.684 548.172 429.168 548.172C429.708 548.172 429.996 548.244 430.356 548.388V551.196H430.248C429.816 551.052 429.528 551.016 428.952 551.016C426.072 551.016 423.552 553.176 423.552 556.668V567H420.636V548.388H423.552ZM446.889 567.18C444.981 567.18 443.973 566.316 443.685 564.408H443.649C442.533 565.848 440.625 567.36 437.457 567.36C433.929 567.36 431.157 565.704 431.157 562.176C431.157 557.784 434.613 556.884 439.257 556.164C441.885 555.768 443.721 555.516 443.721 553.5C443.721 551.412 442.209 550.224 439.545 550.224C436.521 550.224 435.009 551.52 434.901 554.328H432.093C432.201 550.728 434.577 548.028 439.509 548.028C443.469 548.028 446.385 549.504 446.385 553.932V562.788C446.385 564.3 446.745 565.128 448.365 564.768H448.473V566.892C448.113 567.036 447.645 567.18 446.889 567.18ZM438.105 565.128C441.993 565.128 443.757 562.284 443.757 560.124V556.956C442.785 557.568 441.093 558.036 439.509 558.324C436.593 558.864 434.253 559.368 434.253 562.104C434.253 564.588 436.197 565.128 438.105 565.128ZM453.541 548.388V550.836H453.613C454.945 549.072 456.817 547.956 459.517 547.956C463.405 547.956 465.781 550.08 465.781 553.932V567H462.865V554.184C462.865 551.772 461.281 550.404 458.653 550.404C455.701 550.404 453.541 552.492 453.541 555.552V567H450.625V548.388H453.541ZM477.6 567.504C472.056 567.504 468.6 563.112 468.6 557.712C468.6 552.312 472.056 547.92 477.6 547.92C481.992 547.92 484.908 550.44 485.556 554.4H482.604C482.172 551.88 480.408 550.332 477.6 550.332C473.64 550.332 471.588 553.608 471.588 557.712C471.588 561.816 473.64 565.056 477.6 565.056C480.624 565.056 482.424 563.328 482.676 560.448H485.556C485.16 564.912 482.244 567.504 477.6 567.504ZM491.228 541.26V550.836H491.3C492.632 549.072 494.504 547.956 497.204 547.956C501.092 547.956 503.468 550.08 503.468 553.932V567H500.552V554.184C500.552 551.772 498.968 550.404 496.34 550.404C493.388 550.404 491.228 552.492 491.228 555.552V567H488.312V541.26H491.228ZM515.288 567.504C509.6 567.504 506.288 563.112 506.288 557.712C506.288 552.312 509.816 547.92 515.108 547.92C520.688 547.92 523.676 552.24 523.676 558.396H509.276C509.492 562.176 511.544 565.056 515.288 565.056C517.988 565.056 519.788 563.76 520.436 561.24H523.28C522.416 565.236 519.5 567.504 515.288 567.504ZM515.108 550.224C511.652 550.224 509.78 552.816 509.348 556.2H520.544C520.364 552.492 518.456 550.224 515.108 550.224ZM533.727 567.54C528.651 567.54 525.483 563.724 525.483 557.748C525.483 551.556 529.047 547.956 533.655 547.956C536.283 547.956 538.299 549.252 539.487 551.016H539.559V541.26H542.475V567H539.559V564.732H539.487C538.083 566.532 536.355 567.54 533.727 567.54ZM533.835 565.092C537.975 565.092 539.739 561.996 539.739 557.784C539.739 553.464 537.651 550.44 533.799 550.44C530.271 550.44 528.471 553.608 528.471 557.784C528.471 561.996 530.271 565.092 533.835 565.092ZM560.112 567.504C554.568 567.504 551.112 563.112 551.112 557.712C551.112 552.312 554.568 547.92 560.112 547.92C565.692 547.92 569.076 552.312 569.076 557.712C569.076 563.112 565.692 567.504 560.112 567.504ZM560.112 565.056C564.072 565.056 566.088 561.816 566.088 557.712C566.088 553.608 564.072 550.332 560.112 550.332C556.152 550.332 554.1 553.608 554.1 557.712C554.1 561.816 556.152 565.056 560.112 565.056ZM570.444 550.764V548.388H573V545.4C573 542.196 574.836 541.044 577.932 541.044C578.544 541.044 579.012 541.08 579.408 541.116V543.6C578.904 543.564 578.76 543.564 578.472 543.564C576.6 543.564 575.916 544.032 575.916 545.544V548.388H579.372V550.764H575.916V567H573V550.764H570.444ZM580.675 550.764V548.388H583.231V545.4C583.231 542.196 585.067 541.044 588.163 541.044C588.775 541.044 589.243 541.08 589.639 541.116V543.6C589.135 543.564 588.991 543.564 588.703 543.564C586.831 543.564 586.147 544.032 586.147 545.544V548.388H589.603V550.764H586.147V567H583.231V550.764H580.675ZM612.791 567.18C610.883 567.18 609.875 566.316 609.587 564.408H609.551C608.435 565.848 606.527 567.36 603.359 567.36C599.831 567.36 597.059 565.704 597.059 562.176C597.059 557.784 600.515 556.884 605.159 556.164C607.787 555.768 609.623 555.516 609.623 553.5C609.623 551.412 608.111 550.224 605.447 550.224C602.423 550.224 600.911 551.52 600.803 554.328H597.995C598.103 550.728 600.479 548.028 605.411 548.028C609.371 548.028 612.287 549.504 612.287 553.932V562.788C612.287 564.3 612.647 565.128 614.267 564.768H614.375V566.892C614.015 567.036 613.547 567.18 612.791 567.18ZM604.007 565.128C607.895 565.128 609.659 562.284 609.659 560.124V556.956C608.687 557.568 606.995 558.036 605.411 558.324C602.495 558.864 600.155 559.368 600.155 562.104C600.155 564.588 602.099 565.128 604.007 565.128ZM619.443 548.388V550.836H619.515C620.847 549.072 622.719 547.956 625.419 547.956C629.307 547.956 631.683 550.08 631.683 553.932V567H628.767V554.184C628.767 551.772 627.183 550.404 624.555 550.404C621.603 550.404 619.443 552.492 619.443 555.552V567H616.527V548.388H619.443ZM649.233 567.504C643.689 567.504 640.233 563.112 640.233 557.712C640.233 552.312 643.689 547.92 649.233 547.92C654.813 547.92 658.197 552.312 658.197 557.712C658.197 563.112 654.813 567.504 649.233 567.504ZM649.233 565.056C653.193 565.056 655.209 561.816 655.209 557.712C655.209 553.608 653.193 550.332 649.233 550.332C645.273 550.332 643.221 553.608 643.221 557.712C643.221 561.816 645.273 565.056 649.233 565.056ZM661.213 567V541.26H664.129V567H661.213ZM675.407 567.54C670.331 567.54 667.163 563.724 667.163 557.748C667.163 551.556 670.727 547.956 675.335 547.956C677.963 547.956 679.979 549.252 681.167 551.016H681.239V541.26H684.155V567H681.239V564.732H681.167C679.763 566.532 678.035 567.54 675.407 567.54ZM675.515 565.092C679.655 565.092 681.419 561.996 681.419 557.784C681.419 553.464 679.331 550.44 675.479 550.44C671.951 550.44 670.151 553.608 670.151 557.784C670.151 561.996 671.951 565.092 675.515 565.092ZM701.791 567.504C696.247 567.504 692.791 563.112 692.791 557.712C692.791 552.312 696.247 547.92 701.791 547.92C706.183 547.92 709.099 550.44 709.747 554.4H706.795C706.363 551.88 704.599 550.332 701.791 550.332C697.831 550.332 695.779 553.608 695.779 557.712C695.779 561.816 697.831 565.056 701.791 565.056C704.815 565.056 706.615 563.328 706.867 560.448H709.747C709.351 564.912 706.435 567.504 701.791 567.504ZM720.459 567.504C714.915 567.504 711.459 563.112 711.459 557.712C711.459 552.312 714.915 547.92 720.459 547.92C726.039 547.92 729.423 552.312 729.423 557.712C729.423 563.112 726.039 567.504 720.459 567.504ZM720.459 565.056C724.419 565.056 726.435 561.816 726.435 557.712C726.435 553.608 724.419 550.332 720.459 550.332C716.499 550.332 714.447 553.608 714.447 557.712C714.447 561.816 716.499 565.056 720.459 565.056ZM732.332 567V548.388H735.248V551.052H735.32C736.472 549.252 738.452 547.956 740.792 547.956C743.06 547.956 744.86 549.108 745.652 551.268H745.724C746.912 549.144 749.144 547.956 751.412 547.956C754.724 547.956 757.064 550.08 757.064 553.932V567H754.148V554.076C754.148 551.772 752.6 550.404 750.728 550.404C748.316 550.404 746.156 552.492 746.156 555.408V567H743.24V554.076C743.24 551.772 741.944 550.404 740.036 550.404C737.768 550.404 735.248 552.492 735.248 555.408V567H732.332ZM760.914 567V548.388H763.83V551.052H763.902C765.054 549.252 767.034 547.956 769.374 547.956C771.642 547.956 773.442 549.108 774.234 551.268H774.306C775.494 549.144 777.726 547.956 779.994 547.956C783.306 547.956 785.646 550.08 785.646 553.932V567H782.73V554.076C782.73 551.772 781.182 550.404 779.31 550.404C776.898 550.404 774.738 552.492 774.738 555.408V567H771.822V554.076C771.822 551.772 770.526 550.404 768.618 550.404C766.35 550.404 763.83 552.492 763.83 555.408V567H760.914ZM789.496 567V548.388H792.412V567H789.496ZM789.496 544.86V541.26H792.412V544.86H789.496ZM795.198 550.764V548.388H797.898V542.52H800.814V548.388H804.414V550.764H800.814V562.86C800.814 564.156 801.498 564.588 802.686 564.588C803.262 564.588 803.91 564.444 804.234 564.336H804.342V566.856C803.658 567 802.866 567.108 802.002 567.108C799.626 567.108 797.898 566.136 797.898 563.508V550.764H795.198ZM821.112 567.504C815.568 567.504 812.112 563.112 812.112 557.712C812.112 552.312 815.568 547.92 821.112 547.92C826.692 547.92 830.076 552.312 830.076 557.712C830.076 563.112 826.692 567.504 821.112 567.504ZM821.112 565.056C825.072 565.056 827.088 561.816 827.088 557.712C827.088 553.608 825.072 550.332 821.112 550.332C817.152 550.332 815.1 553.608 815.1 557.712C815.1 561.816 817.152 565.056 821.112 565.056ZM831.444 550.764V548.388H834V545.4C834 542.196 835.836 541.044 838.932 541.044C839.544 541.044 840.012 541.08 840.408 541.116V543.6C839.904 543.564 839.76 543.564 839.472 543.564C837.6 543.564 836.916 544.032 836.916 545.544V548.388H840.372V550.764H836.916V567H834V550.764H831.444ZM848.945 567V548.388H851.861V551.052H851.933C853.085 549.252 855.065 547.956 857.405 547.956C859.673 547.956 861.473 549.108 862.265 551.268H862.337C863.525 549.144 865.757 547.956 868.025 547.956C871.337 547.956 873.677 550.08 873.677 553.932V567H870.761V554.076C870.761 551.772 869.213 550.404 867.341 550.404C864.929 550.404 862.769 552.492 862.769 555.408V567H859.853V554.076C859.853 551.772 858.557 550.404 856.649 550.404C854.381 550.404 851.861 552.492 851.861 555.408V567H848.945ZM892.143 567.18C890.235 567.18 889.227 566.316 888.939 564.408H888.903C887.787 565.848 885.879 567.36 882.711 567.36C879.183 567.36 876.411 565.704 876.411 562.176C876.411 557.784 879.867 556.884 884.511 556.164C887.139 555.768 888.975 555.516 888.975 553.5C888.975 551.412 887.463 550.224 884.799 550.224C881.775 550.224 880.263 551.52 880.155 554.328H877.347C877.455 550.728 879.831 548.028 884.763 548.028C888.723 548.028 891.639 549.504 891.639 553.932V562.788C891.639 564.3 891.999 565.128 893.619 564.768H893.727V566.892C893.367 567.036 892.899 567.18 892.143 567.18ZM883.359 565.128C887.247 565.128 889.011 562.284 889.011 560.124V556.956C888.039 557.568 886.347 558.036 884.763 558.324C881.847 558.864 879.507 559.368 879.507 562.104C879.507 564.588 881.451 565.128 883.359 565.128ZM895.878 567V548.388H898.794V567H895.878ZM895.878 544.86V541.26H898.794V544.86H895.878ZM905.685 548.388V550.836H905.757C907.089 549.072 908.961 547.956 911.661 547.956C915.549 547.956 917.925 550.08 917.925 553.932V567H915.009V554.184C915.009 551.772 913.425 550.404 910.797 550.404C907.845 550.404 905.685 552.492 905.685 555.552V567H902.769V548.388H905.685ZM262.024 609.548C259.648 609.548 257.74 607.64 257.74 605.3C257.74 602.96 259.648 601.016 262.024 601.016C264.364 601.016 266.272 602.96 266.272 605.3C266.272 607.64 264.364 609.548 262.024 609.548ZM289.792 594.104V591.26H310.168V594.104H301.6V617H298.36V594.104H289.792ZM314.489 617L308.585 598.388H311.717L314.993 609.872C315.425 611.42 316.001 613.868 316.001 613.868H316.073C316.073 613.868 316.613 611.42 317.009 609.944L320.141 598.388H323.201L326.225 609.944C326.621 611.456 327.125 613.868 327.125 613.868H327.197C327.197 613.868 327.773 611.42 328.241 609.872L331.697 598.388H334.721L328.637 617H325.649L322.553 605.732C322.121 604.184 321.653 601.844 321.653 601.844H321.581C321.581 601.844 321.077 604.184 320.645 605.732L317.513 617H314.489ZM344.463 617.504C338.919 617.504 335.463 613.112 335.463 607.712C335.463 602.312 338.919 597.92 344.463 597.92C350.043 597.92 353.427 602.312 353.427 607.712C353.427 613.112 350.043 617.504 344.463 617.504ZM344.463 615.056C348.423 615.056 350.439 611.816 350.439 607.712C350.439 603.608 348.423 600.332 344.463 600.332C340.503 600.332 338.451 603.608 338.451 607.712C338.451 611.816 340.503 615.056 344.463 615.056ZM362.498 617V591.26H373.226C375.926 591.26 378.014 592.16 379.346 593.744C380.426 595.004 381.074 596.696 381.074 598.64C381.074 603.356 378.374 606.2 372.758 606.2H365.738V617H362.498ZM365.738 594.068V603.572H372.506C376.142 603.572 377.87 601.736 377.87 598.784C377.87 595.688 375.962 594.068 372.686 594.068H365.738ZM384.189 617V591.26H396.213C400.749 591.26 403.809 594.104 403.809 598.316C403.809 601.448 402.441 603.68 399.345 604.688V604.796C401.973 605.732 402.801 607.532 403.053 611.348C403.341 615.488 403.773 616.532 404.241 616.856V617H400.749C400.209 616.532 400.101 615.56 399.813 611.24C399.561 607.46 398.049 606.128 394.593 606.128H387.429V617H384.189ZM387.429 594.068V603.5H395.061C398.661 603.5 400.461 601.7 400.461 598.784C400.461 595.652 399.021 594.068 395.241 594.068H387.429ZM414.368 617.54C409.256 617.54 406.412 615.128 406.124 610.952H409.112C409.508 614.192 411.668 615.092 414.44 615.092C417.5 615.092 418.76 613.76 418.76 612.032C418.76 609.944 417.32 609.404 413.9 608.684C410.228 607.928 406.952 607.172 406.952 603.104C406.952 600.008 409.328 597.992 413.648 597.992C418.256 597.992 420.524 600.188 420.956 603.824H417.968C417.68 601.376 416.348 600.296 413.576 600.296C410.912 600.296 409.832 601.484 409.832 602.96C409.832 604.976 411.632 605.372 414.836 606.02C418.58 606.776 421.712 607.604 421.712 611.888C421.712 615.632 418.652 617.54 414.368 617.54ZM434.302 617L428.398 598.388H431.53L434.806 609.872C435.238 611.42 435.814 613.868 435.814 613.868H435.886C435.886 613.868 436.426 611.42 436.822 609.944L439.954 598.388H443.014L446.038 609.944C446.434 611.456 446.938 613.868 446.938 613.868H447.01C447.01 613.868 447.586 611.42 448.054 609.872L451.51 598.388H454.534L448.45 617H445.462L442.366 605.732C441.934 604.184 441.466 601.844 441.466 601.844H441.394C441.394 601.844 440.89 604.184 440.458 605.732L437.326 617H434.302ZM464.276 617.504C458.732 617.504 455.276 613.112 455.276 607.712C455.276 602.312 458.732 597.92 464.276 597.92C469.856 597.92 473.24 602.312 473.24 607.712C473.24 613.112 469.856 617.504 464.276 617.504ZM464.276 615.056C468.236 615.056 470.252 611.816 470.252 607.712C470.252 603.608 468.236 600.332 464.276 600.332C460.316 600.332 458.264 603.608 458.264 607.712C458.264 611.816 460.316 615.056 464.276 615.056ZM479.064 598.388V601.484H479.136C480.252 599.684 482.196 598.172 484.68 598.172C485.22 598.172 485.508 598.244 485.868 598.388V601.196H485.76C485.328 601.052 485.04 601.016 484.464 601.016C481.584 601.016 479.064 603.176 479.064 606.668V617H476.148V598.388H479.064ZM500.728 617L494.14 606.956L491.404 609.548V617H488.488V591.26H491.404V606.344L499.576 598.388H503.284L496.156 605.084L504.148 617H500.728ZM511.832 617V598.388H514.748V617H511.832ZM511.832 594.86V591.26H514.748V594.86H511.832ZM521.638 598.388V600.836H521.71C523.042 599.072 524.914 597.956 527.614 597.956C531.502 597.956 533.878 600.08 533.878 603.932V617H530.962V604.184C530.962 601.772 529.378 600.404 526.75 600.404C523.798 600.404 521.638 602.492 521.638 605.552V617H518.722V598.388H521.638ZM544.942 617.54C539.866 617.54 536.698 613.724 536.698 607.748C536.698 601.556 540.262 597.956 544.87 597.956C547.498 597.956 549.514 599.252 550.702 601.016H550.774V591.26H553.69V617H550.774V614.732H550.702C549.298 616.532 547.57 617.54 544.942 617.54ZM545.05 615.092C549.19 615.092 550.954 611.996 550.954 607.784C550.954 603.464 548.866 600.44 545.014 600.44C541.486 600.44 539.686 603.608 539.686 607.784C539.686 611.996 541.486 615.092 545.05 615.092ZM565.596 617.504C559.908 617.504 556.596 613.112 556.596 607.712C556.596 602.312 560.124 597.92 565.416 597.92C570.996 597.92 573.984 602.24 573.984 608.396H559.584C559.8 612.176 561.852 615.056 565.596 615.056C568.296 615.056 570.096 613.76 570.744 611.24H573.588C572.724 615.236 569.808 617.504 565.596 617.504ZM565.416 600.224C561.96 600.224 560.088 602.816 559.656 606.2H570.852C570.672 602.492 568.764 600.224 565.416 600.224ZM576.835 622.976V598.388H579.751V601.016H579.823C581.227 599.108 583.099 597.956 585.799 597.956C590.515 597.956 593.791 601.556 593.791 607.748C593.791 613.724 590.731 617.54 585.691 617.54C583.171 617.54 581.371 616.784 579.823 614.804H579.751V622.976H576.835ZM585.475 615.092C589.039 615.092 590.803 611.996 590.803 607.784C590.803 603.608 589.039 600.44 585.511 600.44C581.443 600.44 579.571 603.752 579.571 607.784C579.571 611.816 581.191 615.092 585.475 615.092ZM604.655 617.504C598.967 617.504 595.655 613.112 595.655 607.712C595.655 602.312 599.183 597.92 604.475 597.92C610.055 597.92 613.043 602.24 613.043 608.396H598.643C598.859 612.176 600.911 615.056 604.655 615.056C607.355 615.056 609.155 613.76 609.803 611.24H612.647C611.783 615.236 608.867 617.504 604.655 617.504ZM604.475 600.224C601.019 600.224 599.147 602.816 598.715 606.2H609.911C609.731 602.492 607.823 600.224 604.475 600.224ZM618.81 598.388V600.836H618.882C620.214 599.072 622.086 597.956 624.786 597.956C628.674 597.956 631.05 600.08 631.05 603.932V617H628.134V604.184C628.134 601.772 626.55 600.404 623.922 600.404C620.97 600.404 618.81 602.492 618.81 605.552V617H615.894V598.388H618.81ZM642.114 617.54C637.038 617.54 633.87 613.724 633.87 607.748C633.87 601.556 637.434 597.956 642.042 597.956C644.67 597.956 646.686 599.252 647.874 601.016H647.946V591.26H650.862V617H647.946V614.732H647.874C646.47 616.532 644.742 617.54 642.114 617.54ZM642.222 615.092C646.362 615.092 648.126 611.996 648.126 607.784C648.126 603.464 646.038 600.44 642.186 600.44C638.658 600.44 636.858 603.608 636.858 607.784C636.858 611.996 638.658 615.092 642.222 615.092ZM662.768 617.504C657.08 617.504 653.768 613.112 653.768 607.712C653.768 602.312 657.296 597.92 662.588 597.92C668.168 597.92 671.156 602.24 671.156 608.396H656.756C656.972 612.176 659.024 615.056 662.768 615.056C665.468 615.056 667.268 613.76 667.916 611.24H670.76C669.896 615.236 666.98 617.504 662.768 617.504ZM662.588 600.224C659.132 600.224 657.26 602.816 656.828 606.2H668.024C667.844 602.492 665.936 600.224 662.588 600.224ZM676.923 598.388V600.836H676.995C678.327 599.072 680.199 597.956 682.899 597.956C686.787 597.956 689.163 600.08 689.163 603.932V617H686.247V604.184C686.247 601.772 684.663 600.404 682.035 600.404C679.083 600.404 676.923 602.492 676.923 605.552V617H674.007V598.388H676.923ZM691.487 600.764V598.388H694.187V592.52H697.103V598.388H700.703V600.764H697.103V612.86C697.103 614.156 697.787 614.588 698.975 614.588C699.551 614.588 700.199 614.444 700.523 614.336H700.631V616.856C699.947 617 699.155 617.108 698.291 617.108C695.915 617.108 694.187 616.136 694.187 613.508V600.764H691.487ZM703.822 617V591.26H706.738V617H703.822ZM713.192 623.156C712.076 623.156 711.356 623.084 710.564 622.76V620.168H710.708C711.104 620.384 711.716 620.564 712.688 620.564C713.912 620.564 714.74 620.096 715.46 618.296L716.18 616.46L708.908 598.388H712.076L716.468 609.98C717.044 611.528 717.728 613.616 717.728 613.616H717.8C717.8 613.616 718.448 611.528 719.024 609.98L723.272 598.388H726.368L718.412 618.512C716.9 622.364 715.46 623.156 713.192 623.156ZM743.016 617.54C740.496 617.54 738.66 616.64 737.148 614.552H737.076V617H734.16V591.26H737.076V601.052H737.148C738.552 599.144 740.424 597.956 743.124 597.956C747.84 597.956 751.044 601.556 751.044 607.748C751.044 613.724 748.056 617.54 743.016 617.54ZM742.8 615.092C746.364 615.092 748.056 611.996 748.056 607.784C748.056 603.608 746.364 600.44 742.836 600.44C738.768 600.44 736.896 603.752 736.896 607.784C736.896 611.96 738.84 615.092 742.8 615.092ZM768.713 617H765.797V614.444H765.725C764.393 616.244 762.809 617.432 760.109 617.432C756.293 617.432 753.845 615.128 753.845 611.276V598.388H756.761V611.204C756.761 613.616 758.309 615.02 760.937 615.02C763.889 615.02 765.797 612.788 765.797 609.836V598.388H768.713V617ZM771.468 600.764V598.388H774.168V592.52H777.084V598.388H780.684V600.764H777.084V612.86C777.084 614.156 777.768 614.588 778.956 614.588C779.532 614.588 780.18 614.444 780.504 614.336H780.612V616.856C779.928 617 779.136 617.108 778.272 617.108C775.896 617.108 774.168 616.136 774.168 613.508V600.764H771.468ZM792.341 598.388V600.836H792.413C793.745 599.072 795.617 597.956 798.317 597.956C802.205 597.956 804.581 600.08 804.581 603.932V617H801.665V604.184C801.665 601.772 800.081 600.404 797.453 600.404C794.501 600.404 792.341 602.492 792.341 605.552V617H789.425V598.388H792.341ZM816.401 617.504C810.857 617.504 807.401 613.112 807.401 607.712C807.401 602.312 810.857 597.92 816.401 597.92C821.981 597.92 825.365 602.312 825.365 607.712C825.365 613.112 821.981 617.504 816.401 617.504ZM816.401 615.056C820.361 615.056 822.377 611.816 822.377 607.712C822.377 603.608 820.361 600.332 816.401 600.332C812.441 600.332 810.389 603.608 810.389 607.712C810.389 611.816 812.441 615.056 816.401 615.056ZM826.733 600.764V598.388H829.433V592.52H832.349V598.388H835.949V600.764H832.349V612.86C832.349 614.156 833.033 614.588 834.221 614.588C834.797 614.588 835.445 614.444 835.769 614.336H835.877V616.856C835.193 617 834.401 617.108 833.537 617.108C831.161 617.108 829.433 616.136 829.433 613.508V600.764H826.733ZM843.503 600.764V598.388H846.203V592.52H849.119V598.388H852.719V600.764H849.119V612.86C849.119 614.156 849.803 614.588 850.991 614.588C851.567 614.588 852.215 614.444 852.539 614.336H852.647V616.856C851.963 617 851.171 617.108 850.307 617.108C847.931 617.108 846.203 616.136 846.203 613.508V600.764H843.503ZM863.51 617.504C857.966 617.504 854.51 613.112 854.51 607.712C854.51 602.312 857.966 597.92 863.51 597.92C869.09 597.92 872.474 602.312 872.474 607.712C872.474 613.112 869.09 617.504 863.51 617.504ZM863.51 615.056C867.47 615.056 869.486 611.816 869.486 607.712C869.486 603.608 867.47 600.332 863.51 600.332C859.55 600.332 857.498 603.608 857.498 607.712C857.498 611.816 859.55 615.056 863.51 615.056ZM882.798 623.192C877.974 623.192 875.238 621.248 874.914 618.044H877.614C877.902 620.096 879.846 620.888 882.726 620.888C886.146 620.888 888.054 619.34 888.054 616.1V613.472H887.982C886.614 615.236 885.138 616.352 882.474 616.352C877.65 616.352 874.338 612.5 874.338 607.136C874.338 601.34 877.974 597.956 882.294 597.956C884.994 597.956 886.722 599 887.982 600.764H888.054V598.388H890.97V615.992C890.97 620.888 887.73 623.192 882.798 623.192ZM882.618 613.904C886.902 613.904 888.27 610.916 888.27 606.992C888.27 602.924 886.542 600.404 882.582 600.404C879.09 600.404 877.326 603.14 877.326 607.172C877.326 611.24 879.162 613.904 882.618 613.904ZM902.885 617.504C897.197 617.504 893.885 613.112 893.885 607.712C893.885 602.312 897.413 597.92 902.705 597.92C908.285 597.92 911.273 602.24 911.273 608.396H896.873C897.089 612.176 899.141 615.056 902.885 615.056C905.585 615.056 907.385 613.76 908.033 611.24H910.877C910.013 615.236 907.097 617.504 902.885 617.504ZM902.705 600.224C899.249 600.224 897.377 602.816 896.945 606.2H908.141C907.961 602.492 906.053 600.224 902.705 600.224ZM912.585 600.764V598.388H915.285V592.52H918.201V598.388H921.801V600.764H918.201V612.86C918.201 614.156 918.885 614.588 920.073 614.588C920.649 614.588 921.297 614.444 921.621 614.336H921.729V616.856C921.045 617 920.253 617.108 919.389 617.108C917.013 617.108 915.285 616.136 915.285 613.508V600.764H912.585ZM927.728 591.26V600.836H927.8C929.132 599.072 931.004 597.956 933.704 597.956C937.592 597.956 939.968 600.08 939.968 603.932V617H937.052V604.184C937.052 601.772 935.468 600.404 932.84 600.404C929.888 600.404 927.728 602.492 927.728 605.552V617H924.812V591.26H927.728ZM951.788 617.504C946.1 617.504 942.788 613.112 942.788 607.712C942.788 602.312 946.316 597.92 951.608 597.92C957.188 597.92 960.176 602.24 960.176 608.396H945.776C945.992 612.176 948.044 615.056 951.788 615.056C954.488 615.056 956.288 613.76 956.936 611.24H959.78C958.916 615.236 956 617.504 951.788 617.504ZM951.608 600.224C948.152 600.224 946.28 602.816 945.848 606.2H957.044C956.864 602.492 954.956 600.224 951.608 600.224ZM965.943 598.388V601.484H966.015C967.131 599.684 969.075 598.172 971.559 598.172C972.099 598.172 972.387 598.244 972.747 598.388V601.196H972.639C972.207 601.052 971.919 601.016 971.343 601.016C968.463 601.016 965.943 603.176 965.943 606.668V617H963.027V598.388H965.943Z" fill="black"/>
</svg>
