<svg width="1440" height="1024" viewBox="0 0 1440 1024" fill="none" xmlns="http://www.w3.org/2000/svg">
<rect width="1440" height="1024" fill="#F7F7F7"/>
<path d="M259.245 287.04C245.595 287.04 236.3 276.835 236.3 262.925C236.3 249.08 245.335 238.615 259.18 238.615C264.575 238.615 269.125 240.175 272.44 242.71C276.47 245.765 278.81 250.315 279.395 255.515H267.89C267.305 251.355 264.055 248.17 259.115 248.17C251.575 248.17 248 254.475 248 262.925C248 271.44 252.29 277.615 259.18 277.615C264.315 277.615 267.695 274.365 268.215 269.88H279.72C279.395 274.495 277.315 278.72 274.13 281.775C270.555 285.22 265.81 287.04 259.245 287.04ZM300.059 279.5C304.674 279.5 307.144 275.47 307.144 269.425C307.144 263.38 304.674 259.285 300.059 259.285C295.444 259.285 293.039 263.38 293.039 269.425C293.039 275.47 295.444 279.5 300.059 279.5ZM300.124 287.04C289.464 287.04 282.314 279.435 282.314 269.425C282.314 259.415 289.464 251.81 300.124 251.81C310.849 251.81 317.869 259.415 317.869 269.425C317.869 279.435 310.849 287.04 300.124 287.04ZM321.451 286V252.72H331.591V257.465H331.786C333.866 254.02 337.051 251.745 341.861 251.745C346.216 251.745 349.531 254.02 351.221 257.595H351.351C353.951 253.565 357.526 251.745 361.816 251.745C369.356 251.745 373.126 256.88 373.126 264.355V286H362.531V266.24C362.531 262.665 361.036 260.585 357.851 260.585C354.471 260.585 352.586 263.38 352.586 267.345V286H341.991V266.24C341.991 262.665 340.496 260.585 337.311 260.585C333.996 260.585 332.046 263.38 332.046 267.345V286H321.451ZM377.945 296.985V252.72H388.085V256.75H388.28C390.555 253.76 393.805 251.745 398.355 251.745C407.195 251.745 412.59 259.35 412.59 269.36C412.59 280.15 406.805 287.04 398.095 287.04C393.805 287.04 390.75 285.35 388.67 282.555H388.54V296.985H377.945ZM395.365 278.85C399.395 278.85 401.865 275.405 401.865 269.75C401.865 264.03 399.72 260.26 395.17 260.26C390.555 260.26 388.215 264.355 388.215 269.75C388.215 275.145 390.815 278.85 395.365 278.85ZM432.408 286.975C421.423 286.975 414.663 279.37 414.663 269.295C414.663 259.35 421.618 251.745 431.758 251.745C436.503 251.745 440.273 253.305 443.133 255.905C447.098 259.545 449.048 265.33 448.983 272.09H425.063C425.713 276.575 428.183 279.37 432.538 279.37C435.333 279.37 437.153 278.135 438.063 276.055H448.398C447.683 279.045 445.733 281.905 442.808 283.92C440.013 285.87 436.633 286.975 432.408 286.975ZM425.128 265.785H438.258C437.868 261.82 435.398 259.285 431.953 259.285C427.923 259.285 425.843 261.82 425.128 265.785ZM465.09 286.39C458.915 286.39 454.495 284.375 454.495 277.225V259.35H450.075V252.72H454.495V242.19H464.83V252.72H470.875V259.35H464.83V274.95C464.83 277.55 466.26 278.2 468.535 278.2C469.445 278.2 470.485 278.135 470.875 278.135V285.87C469.965 286.13 467.95 286.39 465.09 286.39ZM474.683 286V252.72H485.278V286H474.683ZM474.683 248.105V239.525H485.278V248.105H474.683ZM503.557 286.39C497.382 286.39 492.962 284.375 492.962 277.225V259.35H488.542V252.72H492.962V242.19H503.297V252.72H509.342V259.35H503.297V274.95C503.297 277.55 504.727 278.2 507.002 278.2C507.912 278.2 508.952 278.135 509.342 278.135V285.87C508.432 286.13 506.417 286.39 503.557 286.39ZM513.15 286V252.72H523.745V286H513.15ZM513.15 248.105V239.525H523.745V248.105H513.15ZM537.604 286L526.099 252.72H537.019L541.569 267.735C542.544 271.05 543.389 274.43 543.389 274.43H543.519C543.519 274.43 544.364 271.05 545.339 267.735L549.954 252.72H560.549L549.044 286H537.604ZM577.896 286.975C566.911 286.975 560.151 279.37 560.151 269.295C560.151 259.35 567.106 251.745 577.246 251.745C581.991 251.745 585.761 253.305 588.621 255.905C592.586 259.545 594.536 265.33 594.471 272.09H570.551C571.201 276.575 573.671 279.37 578.026 279.37C580.821 279.37 582.641 278.135 583.551 276.055H593.886C593.171 279.045 591.221 281.905 588.296 283.92C585.501 285.87 582.121 286.975 577.896 286.975ZM570.616 265.785H583.746C583.356 261.82 580.886 259.285 577.441 259.285C573.411 259.285 571.331 261.82 570.616 265.785ZM608.761 286V239.525H630.991C640.221 239.525 647.241 244.27 647.241 252.915C647.241 258.31 644.576 262.275 639.181 264.16V264.355C643.211 265.72 645.291 268.255 645.941 272.87C646.916 278.98 646.266 284.83 647.891 285.415V286H636.711C635.476 285.285 635.671 279.825 634.956 275.21C634.371 270.92 632.161 268.58 627.221 268.58H620.266V286H608.761ZM620.266 260.065H628.911C633.461 260.065 635.801 257.92 635.801 254.41C635.801 251.03 633.591 248.625 629.171 248.625H620.266V260.065ZM667.652 286.975C656.667 286.975 649.907 279.37 649.907 269.295C649.907 259.35 656.862 251.745 667.002 251.745C671.747 251.745 675.517 253.305 678.377 255.905C682.342 259.545 684.292 265.33 684.227 272.09H660.307C660.957 276.575 663.427 279.37 667.782 279.37C670.577 279.37 672.397 278.135 673.307 276.055H683.642C682.927 279.045 680.977 281.905 678.052 283.92C675.257 285.87 671.877 286.975 667.652 286.975ZM660.372 265.785H673.502C673.112 261.82 670.642 259.285 667.197 259.285C663.167 259.285 661.087 261.82 660.372 265.785ZM701.944 287.04C692.194 287.04 686.084 282.555 685.759 275.21H695.769C696.159 278.525 698.369 280.15 701.879 280.15C705.064 280.15 707.079 278.98 707.079 276.835C707.079 273.845 703.049 273.52 698.629 272.74C692.844 271.765 686.669 270.205 686.669 262.405C686.669 255.385 693.169 251.745 701.034 251.745C710.459 251.745 715.529 255.84 716.049 262.405H706.299C705.909 259.415 703.894 258.505 700.969 258.505C698.369 258.505 696.354 259.48 696.354 261.56C696.354 263.9 700.124 264.225 704.349 265.005C710.199 265.98 717.089 267.475 717.089 275.99C717.089 283.27 710.654 287.04 701.944 287.04ZM737.096 286.975C726.111 286.975 719.351 279.37 719.351 269.295C719.351 259.35 726.306 251.745 736.446 251.745C741.191 251.745 744.961 253.305 747.821 255.905C751.786 259.545 753.736 265.33 753.671 272.09H729.751C730.401 276.575 732.871 279.37 737.226 279.37C740.021 279.37 741.841 278.135 742.751 276.055H753.086C752.371 279.045 750.421 281.905 747.496 283.92C744.701 285.87 741.321 286.975 737.096 286.975ZM729.816 265.785H742.946C742.556 261.82 740.086 259.285 736.641 259.285C732.611 259.285 730.531 261.82 729.816 265.785ZM767.033 286.845C760.403 286.845 755.658 283.27 755.658 276.705C755.658 269.36 761.508 267.15 768.398 266.24C774.638 265.46 776.848 264.81 776.848 262.535C776.848 260.39 775.483 258.96 772.298 258.96C768.918 258.96 767.228 260.455 766.903 263.25H757.153C757.413 257.075 762.158 251.81 772.233 251.81C777.238 251.81 780.618 252.72 783.023 254.54C785.883 256.62 787.248 259.87 787.248 264.03V280.8C787.248 283.465 787.508 284.96 788.418 285.545V286H778.148C777.628 285.285 777.303 283.985 777.043 282.295H776.913C774.963 285.09 772.038 286.845 767.033 286.845ZM770.413 280.085C774.378 280.085 777.108 277.68 777.108 274.105V270.14C775.743 270.855 773.793 271.375 771.648 271.895C767.553 272.805 765.863 273.845 765.863 276.38C765.863 279.045 767.813 280.085 770.413 280.085ZM792.384 286V252.72H802.524V257.92H802.719C805.059 253.955 807.789 252.2 811.819 252.2C812.794 252.2 813.444 252.265 813.899 252.46V261.56H813.639C807.139 260.65 802.979 263.835 802.979 271.05V286H792.384ZM832.817 287.04C822.092 287.04 815.137 279.435 815.137 269.425C815.137 259.415 822.027 251.81 832.557 251.81C841.592 251.81 847.377 257.075 848.352 264.55H838.147C837.497 261.56 835.677 259.61 832.687 259.61C828.137 259.61 825.862 263.38 825.862 269.425C825.862 275.34 828.137 279.11 832.687 279.11C836.002 279.11 838.017 277.16 838.472 273.39H848.612C848.352 281.06 842.242 287.04 832.817 287.04ZM851.988 286V239.525H862.583V256.815H862.778C865.183 253.63 868.043 251.745 872.658 251.745C879.938 251.745 884.228 256.945 884.228 264.355V286H873.633V266.5C873.633 262.99 871.878 260.585 868.433 260.585C864.923 260.585 862.583 263.51 862.583 267.605V286H851.988Z" fill="black"/>
<path d="M235.36 363L244.828 337.26H248.464L257.968 363H254.44L251.704 355.152H241.444L238.672 363H235.36ZM245.44 343.884L242.38 352.524H250.804L247.852 343.884C247.348 342.444 246.7 340.248 246.7 340.248H246.628C246.628 340.248 245.944 342.408 245.44 343.884ZM267.577 363.504C262.033 363.504 258.577 359.112 258.577 353.712C258.577 348.312 262.033 343.92 267.577 343.92C271.969 343.92 274.885 346.44 275.533 350.4H272.581C272.149 347.88 270.385 346.332 267.577 346.332C263.617 346.332 261.565 349.608 261.565 353.712C261.565 357.816 263.617 361.056 267.577 361.056C270.601 361.056 272.401 359.328 272.653 356.448H275.533C275.137 360.912 272.221 363.504 267.577 363.504ZM277.101 346.764V344.388H279.801V338.52H282.717V344.388H286.317V346.764H282.717V358.86C282.717 360.156 283.401 360.588 284.589 360.588C285.165 360.588 285.813 360.444 286.137 360.336H286.245V362.856C285.561 363 284.769 363.108 283.905 363.108C281.529 363.108 279.801 362.136 279.801 359.508V346.764H277.101ZM289.328 363V344.388H292.244V363H289.328ZM289.328 340.86V337.26H292.244V340.86H289.328ZM300.826 363L294.31 344.388H297.442L301.294 356.196C301.834 357.852 302.518 360.12 302.518 360.12H302.59C302.59 360.12 303.274 357.816 303.814 356.196L307.738 344.388H310.762L304.066 363H300.826ZM320.416 363.504C314.728 363.504 311.416 359.112 311.416 353.712C311.416 348.312 314.944 343.92 320.236 343.92C325.816 343.92 328.804 348.24 328.804 354.396H314.404C314.62 358.176 316.672 361.056 320.416 361.056C323.116 361.056 324.916 359.76 325.564 357.24H328.408C327.544 361.236 324.628 363.504 320.416 363.504ZM320.236 346.224C316.78 346.224 314.908 348.816 314.476 352.2H325.672C325.492 348.492 323.584 346.224 320.236 346.224ZM337.386 363V344.388H340.302V347.052H340.374C341.526 345.252 343.506 343.956 345.846 343.956C348.114 343.956 349.914 345.108 350.706 347.268H350.778C351.966 345.144 354.198 343.956 356.466 343.956C359.778 343.956 362.118 346.08 362.118 349.932V363H359.202V350.076C359.202 347.772 357.654 346.404 355.782 346.404C353.37 346.404 351.21 348.492 351.21 351.408V363H348.294V350.076C348.294 347.772 346.998 346.404 345.09 346.404C342.822 346.404 340.302 348.492 340.302 351.408V363H337.386ZM373.924 363.504C368.236 363.504 364.924 359.112 364.924 353.712C364.924 348.312 368.452 343.92 373.744 343.92C379.324 343.92 382.312 348.24 382.312 354.396H367.912C368.128 358.176 370.18 361.056 373.924 361.056C376.624 361.056 378.424 359.76 379.072 357.24H381.916C381.052 361.236 378.136 363.504 373.924 363.504ZM373.744 346.224C370.288 346.224 368.416 348.816 367.984 352.2H379.18C379 348.492 377.092 346.224 373.744 346.224ZM388.08 344.388V347.484H388.152C389.268 345.684 391.212 344.172 393.696 344.172C394.236 344.172 394.524 344.244 394.884 344.388V347.196H394.776C394.344 347.052 394.056 347.016 393.48 347.016C390.6 347.016 388.08 349.176 388.08 352.668V363H385.164V344.388H388.08ZM404.216 369.192C399.392 369.192 396.656 367.248 396.332 364.044H399.032C399.32 366.096 401.264 366.888 404.144 366.888C407.564 366.888 409.472 365.34 409.472 362.1V359.472H409.4C408.032 361.236 406.556 362.352 403.892 362.352C399.068 362.352 395.756 358.5 395.756 353.136C395.756 347.34 399.392 343.956 403.712 343.956C406.412 343.956 408.14 345 409.4 346.764H409.472V344.388H412.388V361.992C412.388 366.888 409.148 369.192 404.216 369.192ZM404.036 359.904C408.32 359.904 409.688 356.916 409.688 352.992C409.688 348.924 407.96 346.404 404 346.404C400.508 346.404 398.744 349.14 398.744 353.172C398.744 357.24 400.58 359.904 404.036 359.904ZM424.303 363.504C418.615 363.504 415.303 359.112 415.303 353.712C415.303 348.312 418.831 343.92 424.123 343.92C429.703 343.92 432.691 348.24 432.691 354.396H418.291C418.507 358.176 420.559 361.056 424.303 361.056C427.003 361.056 428.803 359.76 429.451 357.24H432.295C431.431 361.236 428.515 363.504 424.303 363.504ZM424.123 346.224C420.667 346.224 418.795 348.816 418.363 352.2H429.559C429.379 348.492 427.471 346.224 424.123 346.224ZM454.269 368.976V360.732H454.197C452.793 362.532 451.101 363.54 448.437 363.54C443.397 363.54 440.337 359.724 440.337 353.748C440.337 347.556 443.793 343.956 448.329 343.956C451.029 343.956 452.901 345.036 454.197 346.872H454.269V344.388H457.185V368.976H454.269ZM448.581 361.092C452.865 361.092 454.449 357.996 454.449 353.784C454.449 349.464 452.613 346.44 448.545 346.44C445.017 346.44 443.325 349.608 443.325 353.784C443.325 357.996 445.017 361.092 448.581 361.092ZM475.896 363H472.98V360.444H472.908C471.576 362.244 469.992 363.432 467.292 363.432C463.476 363.432 461.028 361.128 461.028 357.276V344.388H463.944V357.204C463.944 359.616 465.492 361.02 468.12 361.02C471.072 361.02 472.98 358.788 472.98 355.836V344.388H475.896V363ZM487.795 363.504C482.107 363.504 478.795 359.112 478.795 353.712C478.795 348.312 482.323 343.92 487.615 343.92C493.195 343.92 496.183 348.24 496.183 354.396H481.783C481.999 358.176 484.051 361.056 487.795 361.056C490.495 361.056 492.295 359.76 492.943 357.24H495.787C494.923 361.236 492.007 363.504 487.795 363.504ZM487.615 346.224C484.159 346.224 482.287 348.816 481.855 352.2H493.051C492.871 348.492 490.963 346.224 487.615 346.224ZM513.795 363H510.879V360.444H510.807C509.475 362.244 507.891 363.432 505.191 363.432C501.375 363.432 498.927 361.128 498.927 357.276V344.388H501.843V357.204C501.843 359.616 503.391 361.02 506.019 361.02C508.971 361.02 510.879 358.788 510.879 355.836V344.388H513.795V363ZM525.694 363.504C520.006 363.504 516.694 359.112 516.694 353.712C516.694 348.312 520.222 343.92 525.514 343.92C531.094 343.92 534.082 348.24 534.082 354.396H519.682C519.898 358.176 521.95 361.056 525.694 361.056C528.394 361.056 530.194 359.76 530.842 357.24H533.686C532.822 361.236 529.906 363.504 525.694 363.504ZM525.514 346.224C522.058 346.224 520.186 348.816 519.754 352.2H530.95C530.77 348.492 528.862 346.224 525.514 346.224ZM542.664 368.976V344.388H545.58V347.016H545.652C547.056 345.108 548.928 343.956 551.628 343.956C556.344 343.956 559.62 347.556 559.62 353.748C559.62 359.724 556.56 363.54 551.52 363.54C549 363.54 547.2 362.784 545.652 360.804H545.58V368.976H542.664ZM551.304 361.092C554.868 361.092 556.632 357.996 556.632 353.784C556.632 349.608 554.868 346.44 551.34 346.44C547.272 346.44 545.4 349.752 545.4 353.784C545.4 357.816 547.02 361.092 551.304 361.092ZM565.443 344.388V347.484H565.515C566.631 345.684 568.575 344.172 571.059 344.172C571.599 344.172 571.887 344.244 572.247 344.388V347.196H572.139C571.707 347.052 571.419 347.016 570.843 347.016C567.963 347.016 565.443 349.176 565.443 352.668V363H562.527V344.388H565.443ZM582.12 363.504C576.576 363.504 573.12 359.112 573.12 353.712C573.12 348.312 576.576 343.92 582.12 343.92C587.7 343.92 591.084 348.312 591.084 353.712C591.084 359.112 587.7 363.504 582.12 363.504ZM582.12 361.056C586.08 361.056 588.096 357.816 588.096 353.712C588.096 349.608 586.08 346.332 582.12 346.332C578.16 346.332 576.108 349.608 576.108 353.712C576.108 357.816 578.16 361.056 582.12 361.056ZM601.192 363.54C596.116 363.54 592.948 359.724 592.948 353.748C592.948 347.556 596.512 343.956 601.12 343.956C603.748 343.956 605.764 345.252 606.952 347.016H607.024V337.26H609.94V363H607.024V360.732H606.952C605.548 362.532 603.82 363.54 601.192 363.54ZM601.3 361.092C605.44 361.092 607.204 357.996 607.204 353.784C607.204 349.464 605.116 346.44 601.264 346.44C597.736 346.44 595.936 349.608 595.936 353.784C595.936 357.996 597.736 361.092 601.3 361.092ZM628.65 363H625.734V360.444H625.662C624.33 362.244 622.746 363.432 620.046 363.432C616.23 363.432 613.782 361.128 613.782 357.276V344.388H616.698V357.204C616.698 359.616 618.246 361.02 620.874 361.02C623.826 361.02 625.734 358.788 625.734 355.836V344.388H628.65V363ZM640.549 363.504C635.005 363.504 631.549 359.112 631.549 353.712C631.549 348.312 635.005 343.92 640.549 343.92C644.941 343.92 647.857 346.44 648.505 350.4H645.553C645.121 347.88 643.357 346.332 640.549 346.332C636.589 346.332 634.537 349.608 634.537 353.712C634.537 357.816 636.589 361.056 640.549 361.056C643.573 361.056 645.373 359.328 645.625 356.448H648.505C648.109 360.912 645.193 363.504 640.549 363.504ZM650.073 346.764V344.388H652.773V338.52H655.689V344.388H659.289V346.764H655.689V358.86C655.689 360.156 656.373 360.588 657.561 360.588C658.137 360.588 658.785 360.444 659.109 360.336H659.217V362.856C658.533 363 657.741 363.108 656.877 363.108C654.501 363.108 652.773 362.136 652.773 359.508V346.764H650.073ZM669.356 363.54C664.244 363.54 661.4 361.128 661.112 356.952H664.1C664.496 360.192 666.656 361.092 669.428 361.092C672.488 361.092 673.748 359.76 673.748 358.032C673.748 355.944 672.308 355.404 668.888 354.684C665.216 353.928 661.94 353.172 661.94 349.104C661.94 346.008 664.316 343.992 668.636 343.992C673.244 343.992 675.512 346.188 675.944 349.824H672.956C672.668 347.376 671.336 346.296 668.564 346.296C665.9 346.296 664.82 347.484 664.82 348.96C664.82 350.976 666.62 351.372 669.824 352.02C673.568 352.776 676.7 353.604 676.7 357.888C676.7 361.632 673.64 363.54 669.356 363.54Z" fill="black"/>
<path d="M237.412 417V391.26H248.14C250.84 391.26 252.928 392.16 254.26 393.744C255.34 395.004 255.988 396.696 255.988 398.64C255.988 403.356 253.288 406.2 247.672 406.2H240.652V417H237.412ZM240.652 394.068V403.572H247.42C251.056 403.572 252.784 401.736 252.784 398.784C252.784 395.688 250.876 394.068 247.6 394.068H240.652ZM261.587 398.388V401.484H261.659C262.775 399.684 264.719 398.172 267.203 398.172C267.743 398.172 268.031 398.244 268.391 398.388V401.196H268.283C267.851 401.052 267.563 401.016 266.987 401.016C264.107 401.016 261.587 403.176 261.587 406.668V417H258.671V398.388H261.587ZM278.264 417.504C272.72 417.504 269.264 413.112 269.264 407.712C269.264 402.312 272.72 397.92 278.264 397.92C283.844 397.92 287.228 402.312 287.228 407.712C287.228 413.112 283.844 417.504 278.264 417.504ZM278.264 415.056C282.224 415.056 284.24 411.816 284.24 407.712C284.24 403.608 282.224 400.332 278.264 400.332C274.304 400.332 272.252 403.608 272.252 407.712C272.252 411.816 274.304 415.056 278.264 415.056ZM297.336 417.54C292.26 417.54 289.092 413.724 289.092 407.748C289.092 401.556 292.656 397.956 297.264 397.956C299.892 397.956 301.908 399.252 303.096 401.016H303.168V391.26H306.084V417H303.168V414.732H303.096C301.692 416.532 299.964 417.54 297.336 417.54ZM297.444 415.092C301.584 415.092 303.348 411.996 303.348 407.784C303.348 403.464 301.26 400.44 297.408 400.44C293.88 400.44 292.08 403.608 292.08 407.784C292.08 411.996 293.88 415.092 297.444 415.092ZM324.795 417H321.879V414.444H321.807C320.475 416.244 318.891 417.432 316.191 417.432C312.375 417.432 309.927 415.128 309.927 411.276V398.388H312.843V411.204C312.843 413.616 314.391 415.02 317.019 415.02C319.971 415.02 321.879 412.788 321.879 409.836V398.388H324.795V417ZM336.694 417.504C331.15 417.504 327.694 413.112 327.694 407.712C327.694 402.312 331.15 397.92 336.694 397.92C341.086 397.92 344.002 400.44 344.65 404.4H341.698C341.266 401.88 339.502 400.332 336.694 400.332C332.734 400.332 330.682 403.608 330.682 407.712C330.682 411.816 332.734 415.056 336.694 415.056C339.718 415.056 341.518 413.328 341.77 410.448H344.65C344.254 414.912 341.338 417.504 336.694 417.504ZM346.218 400.764V398.388H348.918V392.52H351.834V398.388H355.434V400.764H351.834V412.86C351.834 414.156 352.518 414.588 353.706 414.588C354.282 414.588 354.93 414.444 355.254 414.336H355.362V416.856C354.678 417 353.886 417.108 353.022 417.108C350.646 417.108 348.918 416.136 348.918 413.508V400.764H346.218ZM365.501 417.54C360.389 417.54 357.545 415.128 357.257 410.952H360.245C360.641 414.192 362.801 415.092 365.573 415.092C368.633 415.092 369.893 413.76 369.893 412.032C369.893 409.944 368.453 409.404 365.033 408.684C361.361 407.928 358.085 407.172 358.085 403.104C358.085 400.008 360.461 397.992 364.781 397.992C369.389 397.992 371.657 400.188 372.089 403.824H369.101C368.813 401.376 367.481 400.296 364.709 400.296C362.045 400.296 360.965 401.484 360.965 402.96C360.965 404.976 362.765 405.372 365.969 406.02C369.713 406.776 372.845 407.604 372.845 411.888C372.845 415.632 369.785 417.54 365.501 417.54ZM380.179 400.764V398.388H382.879V392.52H385.795V398.388H389.395V400.764H385.795V412.86C385.795 414.156 386.479 414.588 387.667 414.588C388.243 414.588 388.891 414.444 389.215 414.336H389.323V416.856C388.639 417 387.847 417.108 386.983 417.108C384.607 417.108 382.879 416.136 382.879 413.508V400.764H380.179ZM395.322 391.26V400.836H395.394C396.726 399.072 398.598 397.956 401.298 397.956C405.186 397.956 407.562 400.08 407.562 403.932V417H404.646V404.184C404.646 401.772 403.062 400.404 400.434 400.404C397.482 400.404 395.322 402.492 395.322 405.552V417H392.406V391.26H395.322ZM426.041 417.18C424.133 417.18 423.125 416.316 422.837 414.408H422.801C421.685 415.848 419.777 417.36 416.609 417.36C413.081 417.36 410.309 415.704 410.309 412.176C410.309 407.784 413.765 406.884 418.409 406.164C421.037 405.768 422.873 405.516 422.873 403.5C422.873 401.412 421.361 400.224 418.697 400.224C415.673 400.224 414.161 401.52 414.053 404.328H411.245C411.353 400.728 413.729 398.028 418.661 398.028C422.621 398.028 425.537 399.504 425.537 403.932V412.788C425.537 414.3 425.897 415.128 427.517 414.768H427.625V416.892C427.265 417.036 426.797 417.18 426.041 417.18ZM417.257 415.128C421.145 415.128 422.909 412.284 422.909 410.124V406.956C421.937 407.568 420.245 408.036 418.661 408.324C415.745 408.864 413.405 409.368 413.405 412.104C413.405 414.588 415.349 415.128 417.257 415.128ZM428.237 400.764V398.388H430.937V392.52H433.853V398.388H437.453V400.764H433.853V412.86C433.853 414.156 434.537 414.588 435.725 414.588C436.301 414.588 436.949 414.444 437.273 414.336H437.381V416.856C436.697 417 435.905 417.108 435.041 417.108C432.665 417.108 430.937 416.136 430.937 413.508V400.764H428.237ZM460.811 417.18C458.903 417.18 457.895 416.316 457.607 414.408H457.571C456.455 415.848 454.547 417.36 451.379 417.36C447.851 417.36 445.079 415.704 445.079 412.176C445.079 407.784 448.535 406.884 453.179 406.164C455.807 405.768 457.643 405.516 457.643 403.5C457.643 401.412 456.131 400.224 453.467 400.224C450.443 400.224 448.931 401.52 448.823 404.328H446.015C446.123 400.728 448.499 398.028 453.431 398.028C457.391 398.028 460.307 399.504 460.307 403.932V412.788C460.307 414.3 460.667 415.128 462.287 414.768H462.395V416.892C462.035 417.036 461.567 417.18 460.811 417.18ZM452.027 415.128C455.915 415.128 457.679 412.284 457.679 410.124V406.956C456.707 407.568 455.015 408.036 453.431 408.324C450.515 408.864 448.175 409.368 448.175 412.104C448.175 414.588 450.119 415.128 452.027 415.128ZM472.502 417.504C466.958 417.504 463.502 413.112 463.502 407.712C463.502 402.312 466.958 397.92 472.502 397.92C476.894 397.92 479.81 400.44 480.458 404.4H477.506C477.074 401.88 475.31 400.332 472.502 400.332C468.542 400.332 466.49 403.608 466.49 407.712C466.49 411.816 468.542 415.056 472.502 415.056C475.526 415.056 477.326 413.328 477.578 410.448H480.458C480.062 414.912 477.146 417.504 472.502 417.504ZM486.13 391.26V400.836H486.202C487.534 399.072 489.406 397.956 492.106 397.956C495.994 397.956 498.37 400.08 498.37 403.932V417H495.454V404.184C495.454 401.772 493.87 400.404 491.242 400.404C488.29 400.404 486.13 402.492 486.13 405.552V417H483.214V391.26H486.13ZM502.234 417V398.388H505.15V417H502.234ZM502.234 394.86V391.26H505.15V394.86H502.234ZM517.081 417.504C511.393 417.504 508.081 413.112 508.081 407.712C508.081 402.312 511.609 397.92 516.901 397.92C522.481 397.92 525.469 402.24 525.469 408.396H511.069C511.285 412.176 513.337 415.056 517.081 415.056C519.781 415.056 521.581 413.76 522.229 411.24H525.073C524.209 415.236 521.293 417.504 517.081 417.504ZM516.901 400.224C513.445 400.224 511.573 402.816 511.141 406.2H522.337C522.157 402.492 520.249 400.224 516.901 400.224ZM532.576 417L526.06 398.388H529.192L533.044 410.196C533.584 411.852 534.268 414.12 534.268 414.12H534.34C534.34 414.12 535.024 411.816 535.564 410.196L539.488 398.388H542.512L535.816 417H532.576ZM552.166 417.504C546.478 417.504 543.166 413.112 543.166 407.712C543.166 402.312 546.694 397.92 551.986 397.92C557.566 397.92 560.554 402.24 560.554 408.396H546.154C546.37 412.176 548.422 415.056 552.166 415.056C554.866 415.056 556.666 413.76 557.314 411.24H560.158C559.294 415.236 556.378 417.504 552.166 417.504ZM551.986 400.224C548.53 400.224 546.658 402.816 546.226 406.2H557.422C557.242 402.492 555.334 400.224 551.986 400.224ZM576.192 417.54C571.08 417.54 568.236 415.128 567.948 410.952H570.936C571.332 414.192 573.492 415.092 576.264 415.092C579.324 415.092 580.584 413.76 580.584 412.032C580.584 409.944 579.144 409.404 575.724 408.684C572.052 407.928 568.776 407.172 568.776 403.104C568.776 400.008 571.152 397.992 575.472 397.992C580.08 397.992 582.348 400.188 582.78 403.824H579.792C579.504 401.376 578.172 400.296 575.4 400.296C572.736 400.296 571.656 401.484 571.656 402.96C571.656 404.976 573.456 405.372 576.66 406.02C580.404 406.776 583.536 407.604 583.536 411.888C583.536 415.632 580.476 417.54 576.192 417.54ZM586.328 417V398.388H589.244V417H586.328ZM586.328 394.86V391.26H589.244V394.86H586.328ZM593.218 417V398.388H596.134V401.052H596.206C597.358 399.252 599.338 397.956 601.678 397.956C603.946 397.956 605.746 399.108 606.538 401.268H606.61C607.798 399.144 610.03 397.956 612.298 397.956C615.61 397.956 617.95 400.08 617.95 403.932V417H615.034V404.076C615.034 401.772 613.486 400.404 611.614 400.404C609.202 400.404 607.042 402.492 607.042 405.408V417H604.126V404.076C604.126 401.772 602.83 400.404 600.922 400.404C598.654 400.404 596.134 402.492 596.134 405.408V417H593.218ZM621.8 417V398.388H624.716V417H621.8ZM621.8 394.86V391.26H624.716V394.86H621.8ZM628.799 417V391.26H631.715V417H628.799ZM650.409 417.18C648.501 417.18 647.493 416.316 647.205 414.408H647.169C646.053 415.848 644.145 417.36 640.977 417.36C637.449 417.36 634.677 415.704 634.677 412.176C634.677 407.784 638.133 406.884 642.777 406.164C645.405 405.768 647.241 405.516 647.241 403.5C647.241 401.412 645.729 400.224 643.064 400.224C640.041 400.224 638.529 401.52 638.421 404.328H635.613C635.721 400.728 638.097 398.028 643.029 398.028C646.989 398.028 649.905 399.504 649.905 403.932V412.788C649.905 414.3 650.265 415.128 651.885 414.768H651.992V416.892C651.633 417.036 651.165 417.18 650.409 417.18ZM641.625 415.128C645.513 415.128 647.277 412.284 647.277 410.124V406.956C646.305 407.568 644.613 408.036 643.029 408.324C640.113 408.864 637.773 409.368 637.773 412.104C637.773 414.588 639.717 415.128 641.625 415.128ZM657.06 398.388V401.484H657.132C658.248 399.684 660.192 398.172 662.676 398.172C663.216 398.172 663.504 398.244 663.864 398.388V401.196H663.756C663.324 401.052 663.036 401.016 662.46 401.016C659.58 401.016 657.06 403.176 657.06 406.668V417H654.144V398.388H657.06ZM679.63 423.192C674.806 423.192 672.07 421.248 671.746 418.044H674.446C674.734 420.096 676.678 420.888 679.558 420.888C682.978 420.888 684.886 419.34 684.886 416.1V413.472H684.814C683.446 415.236 681.97 416.352 679.306 416.352C674.482 416.352 671.17 412.5 671.17 407.136C671.17 401.34 674.806 397.956 679.126 397.956C681.826 397.956 683.554 399 684.814 400.764H684.886V398.388H687.802V415.992C687.802 420.888 684.562 423.192 679.63 423.192ZM679.45 413.904C683.734 413.904 685.102 410.916 685.102 406.992C685.102 402.924 683.374 400.404 679.414 400.404C675.922 400.404 674.158 403.14 674.158 407.172C674.158 411.24 675.994 413.904 679.45 413.904ZM699.717 417.504C694.173 417.504 690.717 413.112 690.717 407.712C690.717 402.312 694.173 397.92 699.717 397.92C705.297 397.92 708.681 402.312 708.681 407.712C708.681 413.112 705.297 417.504 699.717 417.504ZM699.717 415.056C703.677 415.056 705.693 411.816 705.693 407.712C705.693 403.608 703.677 400.332 699.717 400.332C695.757 400.332 693.705 403.608 693.705 407.712C693.705 411.816 695.757 415.056 699.717 415.056ZM726.205 417.18C724.297 417.18 723.289 416.316 723.001 414.408H722.965C721.849 415.848 719.941 417.36 716.773 417.36C713.245 417.36 710.473 415.704 710.473 412.176C710.473 407.784 713.929 406.884 718.573 406.164C721.201 405.768 723.037 405.516 723.037 403.5C723.037 401.412 721.525 400.224 718.861 400.224C715.837 400.224 714.325 401.52 714.217 404.328H711.409C711.517 400.728 713.893 398.028 718.825 398.028C722.785 398.028 725.701 399.504 725.701 403.932V412.788C725.701 414.3 726.061 415.128 727.681 414.768H727.789V416.892C727.429 417.036 726.961 417.18 726.205 417.18ZM717.421 415.128C721.309 415.128 723.073 412.284 723.073 410.124V406.956C722.101 407.568 720.409 408.036 718.825 408.324C715.909 408.864 713.569 409.368 713.569 412.104C713.569 414.588 715.513 415.128 717.421 415.128ZM730.049 417V391.26H732.965V417H730.049ZM744.099 417.54C738.987 417.54 736.143 415.128 735.855 410.952H738.843C739.239 414.192 741.399 415.092 744.171 415.092C747.231 415.092 748.491 413.76 748.491 412.032C748.491 409.944 747.051 409.404 743.631 408.684C739.959 407.928 736.683 407.172 736.683 403.104C736.683 400.008 739.059 397.992 743.379 397.992C747.987 397.992 750.255 400.188 750.687 403.824H747.699C747.411 401.376 746.079 400.296 743.307 400.296C740.643 400.296 739.562 401.484 739.562 402.96C739.562 404.976 741.363 405.372 744.566 406.02C748.311 406.776 751.443 407.604 751.443 411.888C751.443 415.632 748.383 417.54 744.099 417.54Z" fill="black"/>
</svg>
