<svg width="1440" height="1024" viewBox="0 0 1440 1024" fill="none" xmlns="http://www.w3.org/2000/svg">
<rect width="1440" height="1024" fill="#F7F7F7"/>
<path d="M259.31 277.745C266.85 277.745 270.555 271.31 270.555 262.86C270.555 254.41 266.85 247.91 259.31 247.91C251.835 247.91 248 254.41 248 262.86C248 271.31 251.835 277.745 259.31 277.745ZM259.245 287.105C245.205 287.105 236.3 276.77 236.3 262.86C236.3 248.95 245.205 238.615 259.245 238.615C273.35 238.615 282.255 248.95 282.255 262.86C282.255 276.77 273.35 287.105 259.245 287.105ZM297.535 286.975C289.865 286.975 285.835 281.97 285.835 274.56V252.72H296.365V272.35C296.365 275.99 297.99 278.005 301.37 278.005C305.01 278.005 307.22 275.275 307.22 271.31V252.72H317.815V286H307.675V281.905H307.48C305.075 285.155 302.15 286.975 297.535 286.975ZM336.106 286.39C329.931 286.39 325.511 284.375 325.511 277.225V259.35H321.091V252.72H325.511V242.19H335.846V252.72H341.891V259.35H335.846V274.95C335.846 277.55 337.276 278.2 339.551 278.2C340.461 278.2 341.501 278.135 341.891 278.135V285.87C340.981 286.13 338.966 286.39 336.106 286.39ZM361.567 287.04C350.842 287.04 343.887 279.435 343.887 269.425C343.887 259.415 350.777 251.81 361.307 251.81C370.342 251.81 376.127 257.075 377.102 264.55H366.897C366.247 261.56 364.427 259.61 361.437 259.61C356.887 259.61 354.612 263.38 354.612 269.425C354.612 275.34 356.887 279.11 361.437 279.11C364.752 279.11 366.767 277.16 367.222 273.39H377.362C377.102 281.06 370.992 287.04 361.567 287.04ZM396.988 279.5C401.603 279.5 404.073 275.47 404.073 269.425C404.073 263.38 401.603 259.285 396.988 259.285C392.373 259.285 389.968 263.38 389.968 269.425C389.968 275.47 392.373 279.5 396.988 279.5ZM397.053 287.04C386.393 287.04 379.243 279.435 379.243 269.425C379.243 259.415 386.393 251.81 397.053 251.81C407.778 251.81 414.798 259.415 414.798 269.425C414.798 279.435 407.778 287.04 397.053 287.04ZM418.38 286V252.72H428.52V257.465H428.715C430.795 254.02 433.98 251.745 438.79 251.745C443.145 251.745 446.46 254.02 448.15 257.595H448.28C450.88 253.565 454.455 251.745 458.745 251.745C466.285 251.745 470.055 256.88 470.055 264.355V286H459.46V266.24C459.46 262.665 457.965 260.585 454.78 260.585C451.4 260.585 449.515 263.38 449.515 267.345V286H438.92V266.24C438.92 262.665 437.425 260.585 434.24 260.585C430.925 260.585 428.975 263.38 428.975 267.345V286H418.38ZM491.124 286.975C480.139 286.975 473.379 279.37 473.379 269.295C473.379 259.35 480.334 251.745 490.474 251.745C495.219 251.745 498.989 253.305 501.849 255.905C505.814 259.545 507.764 265.33 507.699 272.09H483.779C484.429 276.575 486.899 279.37 491.254 279.37C494.049 279.37 495.869 278.135 496.779 276.055H507.114C506.399 279.045 504.449 281.905 501.524 283.92C498.729 285.87 495.349 286.975 491.124 286.975ZM483.844 265.785H496.974C496.584 261.82 494.114 259.285 490.669 259.285C486.639 259.285 484.559 261.82 483.844 265.785ZM525.416 287.04C515.666 287.04 509.556 282.555 509.231 275.21H519.241C519.631 278.525 521.841 280.15 525.351 280.15C528.536 280.15 530.551 278.98 530.551 276.835C530.551 273.845 526.521 273.52 522.101 272.74C516.316 271.765 510.141 270.205 510.141 262.405C510.141 255.385 516.641 251.745 524.506 251.745C533.931 251.745 539.001 255.84 539.521 262.405H529.771C529.381 259.415 527.366 258.505 524.441 258.505C521.841 258.505 519.826 259.48 519.826 261.56C519.826 263.9 523.596 264.225 527.821 265.005C533.671 265.98 540.561 267.475 540.561 275.99C540.561 283.27 534.126 287.04 525.416 287.04Z" fill="black"/>
<path d="M236.764 363V337.26H245.332L248.464 348.528C248.932 350.148 249.94 354.396 249.94 354.396H250.012C250.012 354.396 251.02 350.148 251.452 348.528L254.62 337.26H263.26V363H257.428V350.04C257.428 348.996 257.536 344.892 257.536 344.892H257.464C257.464 344.892 256.564 348.744 256.276 349.68L252.568 363H247.312L243.64 349.716C243.352 348.78 242.452 344.892 242.452 344.892H242.38C242.38 344.892 242.488 349.032 242.488 350.076V363H236.764ZM275.427 363.54C269.343 363.54 265.599 359.328 265.599 353.748C265.599 348.24 269.451 344.028 275.067 344.028C277.695 344.028 279.783 344.892 281.367 346.332C283.563 348.348 284.643 351.552 284.607 355.296H271.359C271.719 357.78 273.087 359.328 275.499 359.328C277.047 359.328 278.055 358.644 278.559 357.492H284.283C283.887 359.148 282.807 360.732 281.187 361.848C279.639 362.928 277.767 363.54 275.427 363.54ZM271.395 351.804H278.667C278.451 349.608 277.083 348.204 275.175 348.204C272.943 348.204 271.791 349.608 271.395 351.804ZM286.572 363V344.568H292.188V347.448H292.296C293.592 345.252 295.104 344.28 297.336 344.28C297.876 344.28 298.236 344.316 298.488 344.424V349.464H298.344C294.744 348.96 292.44 350.724 292.44 354.72V363H286.572ZM308.57 369.372C303.494 369.372 300.146 367.284 299.57 363.432H305.258C305.582 364.404 306.554 365.232 308.498 365.232C310.982 365.232 312.026 363.936 312.026 361.704V359.868H311.882C310.802 361.092 309.398 361.992 307.166 361.992C303.026 361.992 299.174 358.896 299.174 353.244C299.174 347.844 302.342 344.028 306.914 344.028C309.362 344.028 311.018 345 312.098 346.548H312.17V344.568H317.786V361.2C317.786 363.972 316.814 365.988 315.338 367.32C313.718 368.76 311.306 369.372 308.57 369.372ZM308.534 357.636C311.09 357.636 312.278 355.62 312.278 353.028C312.278 350.544 310.982 348.456 308.534 348.456C306.338 348.456 304.898 350.256 304.898 353.064C304.898 355.836 306.338 357.636 308.534 357.636ZM329.603 363.54C323.519 363.54 319.775 359.328 319.775 353.748C319.775 348.24 323.627 344.028 329.243 344.028C331.871 344.028 333.959 344.892 335.543 346.332C337.739 348.348 338.819 351.552 338.783 355.296H325.535C325.895 357.78 327.263 359.328 329.675 359.328C331.223 359.328 332.231 358.644 332.735 357.492H338.459C338.063 359.148 336.983 360.732 335.363 361.848C333.815 362.928 331.943 363.54 329.603 363.54ZM325.571 351.804H332.843C332.627 349.608 331.259 348.204 329.351 348.204C327.119 348.204 325.967 349.608 325.571 351.804ZM346.338 363V344.568H352.206V363H346.338ZM346.338 342.012V337.26H352.206V342.012H346.338ZM362.869 363.576C357.469 363.576 354.085 361.092 353.905 357.024H359.449C359.665 358.86 360.889 359.76 362.833 359.76C364.597 359.76 365.713 359.112 365.713 357.924C365.713 356.268 363.481 356.088 361.033 355.656C357.829 355.116 354.409 354.252 354.409 349.932C354.409 346.044 358.009 344.028 362.365 344.028C367.585 344.028 370.393 346.296 370.681 349.932H365.281C365.065 348.276 363.949 347.772 362.329 347.772C360.889 347.772 359.773 348.312 359.773 349.464C359.773 350.76 361.861 350.94 364.201 351.372C367.441 351.912 371.257 352.74 371.257 357.456C371.257 361.488 367.693 363.576 362.869 363.576ZM384.188 363.468C380.516 363.468 377.888 361.488 377.888 357.852C377.888 353.784 381.128 352.56 384.944 352.056C388.4 351.624 389.624 351.264 389.624 350.004C389.624 348.816 388.868 348.024 387.104 348.024C385.232 348.024 384.296 348.852 384.116 350.4H378.716C378.86 346.98 381.488 344.064 387.068 344.064C389.84 344.064 391.712 344.568 393.044 345.576C394.628 346.728 395.384 348.528 395.384 350.832V360.12C395.384 361.596 395.528 362.424 396.032 362.748V363H390.344C390.056 362.604 389.876 361.884 389.732 360.948H389.66C388.58 362.496 386.96 363.468 384.188 363.468ZM386.06 359.724C388.256 359.724 389.768 358.392 389.768 356.412V354.216C389.012 354.612 387.932 354.9 386.744 355.188C384.476 355.692 383.54 356.268 383.54 357.672C383.54 359.148 384.62 359.724 386.06 359.724ZM409.146 367.968C406.662 364.188 404.466 358.86 404.466 352.38C404.466 345.504 406.59 339.6 409.11 335.856H414.078C411.918 340.032 410.262 345.288 410.262 352.38C410.262 358.896 412.134 364.008 414.078 367.968H409.146ZM416.088 363V344.568H421.704V347.196H421.812C422.964 345.288 424.728 344.028 427.392 344.028C429.804 344.028 431.64 345.288 432.576 347.268H432.648C434.088 345.036 436.068 344.028 438.444 344.028C442.62 344.028 444.708 346.872 444.708 351.012V363H438.84V352.056C438.84 350.076 438.012 348.924 436.248 348.924C434.376 348.924 433.332 350.472 433.332 352.668V363H427.464V352.056C427.464 350.076 426.636 348.924 424.872 348.924C423.036 348.924 421.956 350.472 421.956 352.668V363H416.088ZM447.377 363V344.568H453.245V363H447.377ZM447.377 342.012V337.26H453.245V342.012H447.377ZM456.06 363V344.568H461.712V347.088H461.82C463.188 345.108 464.952 344.028 467.508 344.028C471.54 344.028 473.916 346.908 473.916 351.012V363H468.048V352.2C468.048 350.256 467.076 348.924 465.168 348.924C463.224 348.924 461.928 350.544 461.928 352.812V363H456.06ZM485.592 359.4C488.148 359.4 489.516 357.168 489.516 353.82C489.516 350.472 488.148 348.204 485.592 348.204C483.036 348.204 481.704 350.472 481.704 353.82C481.704 357.168 483.036 359.4 485.592 359.4ZM485.628 363.576C479.724 363.576 475.764 359.364 475.764 353.82C475.764 348.276 479.724 344.064 485.628 344.064C491.568 344.064 495.456 348.276 495.456 353.82C495.456 359.364 491.568 363.576 485.628 363.576ZM497.439 363V344.568H503.055V347.448H503.163C504.459 345.252 505.971 344.28 508.203 344.28C508.743 344.28 509.103 344.316 509.355 344.424V349.464H509.211C505.611 348.96 503.307 350.724 503.307 354.72V363H497.439ZM510.253 367.968C512.341 363.684 514.069 358.392 514.069 351.552C514.069 344.784 512.269 339.744 510.253 335.856H515.221C517.633 339.492 519.865 344.928 519.865 351.552C519.865 358.284 517.741 364.116 515.185 367.968H510.253ZM536.752 363.576C531.352 363.576 527.968 361.092 527.788 357.024H533.332C533.548 358.86 534.772 359.76 536.716 359.76C538.48 359.76 539.596 359.112 539.596 357.924C539.596 356.268 537.364 356.088 534.916 355.656C531.712 355.116 528.292 354.252 528.292 349.932C528.292 346.044 531.892 344.028 536.248 344.028C541.468 344.028 544.276 346.296 544.564 349.932H539.164C538.948 348.276 537.832 347.772 536.212 347.772C534.772 347.772 533.656 348.312 533.656 349.464C533.656 350.76 535.744 350.94 538.084 351.372C541.324 351.912 545.14 352.74 545.14 357.456C545.14 361.488 541.576 363.576 536.752 363.576ZM553.381 363.54C549.133 363.54 546.901 360.768 546.901 356.664V344.568H552.733V355.44C552.733 357.456 553.633 358.572 555.505 358.572C557.521 358.572 558.745 357.06 558.745 354.864V344.568H564.613V363H558.997V360.732H558.889C557.557 362.532 555.937 363.54 553.381 363.54ZM576.399 363.576C570.459 363.576 566.607 359.364 566.607 353.82C566.607 348.276 570.423 344.064 576.255 344.064C581.259 344.064 584.463 346.98 585.003 351.12H579.351C578.991 349.464 577.983 348.384 576.327 348.384C573.807 348.384 572.547 350.472 572.547 353.82C572.547 357.096 573.807 359.184 576.327 359.184C578.163 359.184 579.279 358.104 579.531 356.016H585.147C585.003 360.264 581.619 363.576 576.399 363.576ZM595.981 363.576C590.041 363.576 586.189 359.364 586.189 353.82C586.189 348.276 590.005 344.064 595.837 344.064C600.841 344.064 604.045 346.98 604.585 351.12H598.933C598.573 349.464 597.565 348.384 595.909 348.384C593.389 348.384 592.129 350.472 592.129 353.82C592.129 357.096 593.389 359.184 595.909 359.184C597.745 359.184 598.861 358.104 599.113 356.016H604.729C604.585 360.264 601.201 363.576 595.981 363.576ZM615.599 363.54C609.515 363.54 605.771 359.328 605.771 353.748C605.771 348.24 609.623 344.028 615.239 344.028C617.867 344.028 619.955 344.892 621.539 346.332C623.735 348.348 624.815 351.552 624.779 355.296H611.531C611.891 357.78 613.259 359.328 615.671 359.328C617.219 359.328 618.227 358.644 618.731 357.492H624.455C624.059 359.148 622.979 360.732 621.359 361.848C619.811 362.928 617.939 363.54 615.599 363.54ZM611.567 351.804H618.839C618.623 349.608 617.255 348.204 615.347 348.204C613.115 348.204 611.963 349.608 611.567 351.804ZM634.592 363.576C629.192 363.576 625.808 361.092 625.628 357.024H631.172C631.388 358.86 632.612 359.76 634.556 359.76C636.32 359.76 637.436 359.112 637.436 357.924C637.436 356.268 635.204 356.088 632.756 355.656C629.552 355.116 626.132 354.252 626.132 349.932C626.132 346.044 629.732 344.028 634.088 344.028C639.308 344.028 642.116 346.296 642.404 349.932H637.004C636.788 348.276 635.672 347.772 634.052 347.772C632.612 347.772 631.496 348.312 631.496 349.464C631.496 350.76 633.584 350.94 635.924 351.372C639.164 351.912 642.98 352.74 642.98 357.456C642.98 361.488 639.416 363.576 634.592 363.576ZM652.908 363.576C647.508 363.576 644.124 361.092 643.944 357.024H649.488C649.704 358.86 650.928 359.76 652.872 359.76C654.636 359.76 655.752 359.112 655.752 357.924C655.752 356.268 653.52 356.088 651.072 355.656C647.868 355.116 644.448 354.252 644.448 349.932C644.448 346.044 648.048 344.028 652.404 344.028C657.624 344.028 660.432 346.296 660.72 349.932H655.32C655.104 348.276 653.988 347.772 652.368 347.772C650.928 347.772 649.812 348.312 649.812 349.464C649.812 350.76 651.9 350.94 654.24 351.372C657.48 351.912 661.296 352.74 661.296 357.456C661.296 361.488 657.732 363.576 652.908 363.576ZM665.037 354.576L663.525 343.344V337.26H669.573V343.344L668.061 354.576H665.037ZM663.489 363V356.952H669.609V363H663.489Z" fill="black"/>
<path d="M249.04 417.54C241.264 417.54 236.44 411.816 236.44 404.112C236.44 396.408 241.264 390.684 249.04 390.684C256.816 390.684 261.64 396.408 261.64 404.112C261.64 411.816 256.816 417.54 249.04 417.54ZM249.04 414.696C255.088 414.696 258.328 410.16 258.328 404.112C258.328 398.064 255.088 393.492 249.04 393.492C242.992 393.492 239.752 398.064 239.752 404.112C239.752 410.16 242.992 414.696 249.04 414.696ZM269.678 417L263.162 398.388H266.294L270.146 410.196C270.686 411.852 271.37 414.12 271.37 414.12H271.442C271.442 414.12 272.126 411.816 272.666 410.196L276.59 398.388H279.614L272.918 417H269.678ZM289.268 417.504C283.58 417.504 280.268 413.112 280.268 407.712C280.268 402.312 283.796 397.92 289.088 397.92C294.668 397.92 297.656 402.24 297.656 408.396H283.256C283.472 412.176 285.524 415.056 289.268 415.056C291.968 415.056 293.768 413.76 294.416 411.24H297.26C296.396 415.236 293.48 417.504 289.268 417.504ZM289.088 400.224C285.632 400.224 283.76 402.816 283.328 406.2H294.524C294.344 402.492 292.436 400.224 289.088 400.224ZM303.423 398.388V401.484H303.495C304.611 399.684 306.555 398.172 309.039 398.172C309.579 398.172 309.867 398.244 310.227 398.388V401.196H310.119C309.687 401.052 309.399 401.016 308.823 401.016C305.943 401.016 303.423 403.176 303.423 406.668V417H300.507V398.388H303.423ZM329.162 417V410.952H317.534V408.252L329.738 392.088H332.114V408.54H336.182V410.952H332.114V417H329.162ZM320.45 408.432V408.54H329.162V396.984H329.09L320.45 408.432ZM338.608 421.608V419.988C339.4 419.7 340.228 419.016 340.228 417H338.572V413.436H342.064V417.108C342.064 419.736 340.66 421.212 338.608 421.608ZM353.879 417.54C347.795 417.54 344.303 412.5 344.303 404.652C344.303 396.66 348.083 391.764 353.915 391.764C359.747 391.764 363.455 396.588 363.455 404.652C363.455 412.5 360.035 417.54 353.879 417.54ZM353.915 414.912C358.307 414.912 360.323 411.024 360.323 404.652C360.323 398.388 358.199 394.356 353.915 394.356C349.559 394.356 347.435 398.28 347.435 404.652C347.435 410.916 349.559 414.912 353.915 414.912ZM376.203 417.54C370.119 417.54 366.627 412.5 366.627 404.652C366.627 396.66 370.407 391.764 376.239 391.764C382.071 391.764 385.779 396.588 385.779 404.652C385.779 412.5 382.359 417.54 376.203 417.54ZM376.239 414.912C380.631 414.912 382.647 411.024 382.647 404.652C382.647 398.388 380.523 394.356 376.239 394.356C371.883 394.356 369.759 398.28 369.759 404.652C369.759 410.916 371.883 414.912 376.239 414.912ZM398.527 417.54C392.443 417.54 388.951 412.5 388.951 404.652C388.951 396.66 392.731 391.764 398.563 391.764C404.395 391.764 408.103 396.588 408.103 404.652C408.103 412.5 404.683 417.54 398.527 417.54ZM398.563 414.912C402.955 414.912 404.971 411.024 404.971 404.652C404.971 398.388 402.847 394.356 398.563 394.356C394.207 394.356 392.083 398.28 392.083 404.652C392.083 410.916 394.207 414.912 398.563 414.912ZM417.834 417V391.26H428.562C431.262 391.26 433.35 392.16 434.682 393.744C435.762 395.004 436.41 396.696 436.41 398.64C436.41 403.356 433.71 406.2 428.094 406.2H421.074V417H417.834ZM421.074 394.068V403.572H427.842C431.478 403.572 433.206 401.736 433.206 398.784C433.206 395.688 431.298 394.068 428.022 394.068H421.074ZM439.525 417V391.26H451.549C456.085 391.26 459.145 394.104 459.145 398.316C459.145 401.448 457.777 403.68 454.681 404.688V404.796C457.309 405.732 458.137 407.532 458.389 411.348C458.677 415.488 459.109 416.532 459.577 416.856V417H456.085C455.545 416.532 455.437 415.56 455.149 411.24C454.897 407.46 453.385 406.128 449.929 406.128H442.765V417H439.525ZM442.765 394.068V403.5H450.397C453.997 403.5 455.797 401.7 455.797 398.784C455.797 395.652 454.357 394.068 450.577 394.068H442.765ZM469.704 417.54C464.592 417.54 461.748 415.128 461.46 410.952H464.448C464.844 414.192 467.004 415.092 469.776 415.092C472.836 415.092 474.096 413.76 474.096 412.032C474.096 409.944 472.656 409.404 469.236 408.684C465.564 407.928 462.288 407.172 462.288 403.104C462.288 400.008 464.664 397.992 468.984 397.992C473.592 397.992 475.86 400.188 476.292 403.824H473.304C473.016 401.376 471.684 400.296 468.912 400.296C466.248 400.296 465.168 401.484 465.168 402.96C465.168 404.976 466.968 405.372 470.172 406.02C473.916 406.776 477.048 407.604 477.048 411.888C477.048 415.632 473.988 417.54 469.704 417.54ZM485.57 417V398.388H488.486V401.052H488.558C489.71 399.252 491.69 397.956 494.03 397.956C496.298 397.956 498.098 399.108 498.89 401.268H498.962C500.15 399.144 502.382 397.956 504.65 397.956C507.962 397.956 510.302 400.08 510.302 403.932V417H507.386V404.076C507.386 401.772 505.838 400.404 503.966 400.404C501.554 400.404 499.394 402.492 499.394 405.408V417H496.478V404.076C496.478 401.772 495.182 400.404 493.274 400.404C491.006 400.404 488.486 402.492 488.486 405.408V417H485.57ZM522.108 417.504C516.42 417.504 513.108 413.112 513.108 407.712C513.108 402.312 516.636 397.92 521.928 397.92C527.508 397.92 530.496 402.24 530.496 408.396H516.096C516.312 412.176 518.364 415.056 522.108 415.056C524.808 415.056 526.608 413.76 527.256 411.24H530.1C529.236 415.236 526.32 417.504 522.108 417.504ZM521.928 400.224C518.472 400.224 516.6 402.816 516.168 406.2H527.364C527.184 402.492 525.276 400.224 521.928 400.224ZM536.263 398.388V401.484H536.335C537.451 399.684 539.395 398.172 541.879 398.172C542.419 398.172 542.707 398.244 543.067 398.388V401.196H542.959C542.527 401.052 542.239 401.016 541.663 401.016C538.783 401.016 536.263 403.176 536.263 406.668V417H533.347V398.388H536.263ZM552.4 423.192C547.576 423.192 544.84 421.248 544.516 418.044H547.216C547.504 420.096 549.448 420.888 552.328 420.888C555.748 420.888 557.656 419.34 557.656 416.1V413.472H557.584C556.216 415.236 554.74 416.352 552.076 416.352C547.252 416.352 543.94 412.5 543.94 407.136C543.94 401.34 547.576 397.956 551.896 397.956C554.596 397.956 556.324 399 557.584 400.764H557.656V398.388H560.572V415.992C560.572 420.888 557.332 423.192 552.4 423.192ZM552.22 413.904C556.504 413.904 557.872 410.916 557.872 406.992C557.872 402.924 556.144 400.404 552.184 400.404C548.692 400.404 546.928 403.14 546.928 407.172C546.928 411.24 548.764 413.904 552.22 413.904ZM572.487 417.504C566.799 417.504 563.487 413.112 563.487 407.712C563.487 402.312 567.015 397.92 572.307 397.92C577.887 397.92 580.875 402.24 580.875 408.396H566.475C566.691 412.176 568.743 415.056 572.487 415.056C575.187 415.056 576.987 413.76 577.635 411.24H580.479C579.615 415.236 576.699 417.504 572.487 417.504ZM572.307 400.224C568.851 400.224 566.979 402.816 566.547 406.2H577.743C577.563 402.492 575.655 400.224 572.307 400.224ZM590.926 417.54C585.85 417.54 582.682 413.724 582.682 407.748C582.682 401.556 586.246 397.956 590.854 397.956C593.482 397.956 595.498 399.252 596.686 401.016H596.758V391.26H599.674V417H596.758V414.732H596.686C595.282 416.532 593.554 417.54 590.926 417.54ZM591.034 415.092C595.174 415.092 596.938 411.996 596.938 407.784C596.938 403.464 594.85 400.44 590.998 400.44C587.47 400.44 585.67 403.608 585.67 407.784C585.67 411.996 587.47 415.092 591.034 415.092ZM608.167 400.764V398.388H610.867V392.52H613.783V398.388H617.383V400.764H613.783V412.86C613.783 414.156 614.467 414.588 615.655 414.588C616.231 414.588 616.879 414.444 617.203 414.336H617.311V416.856C616.627 417 615.835 417.108 614.971 417.108C612.595 417.108 610.867 416.136 610.867 413.508V400.764H608.167ZM623.31 391.26V400.836H623.382C624.714 399.072 626.586 397.956 629.286 397.956C633.174 397.956 635.55 400.08 635.55 403.932V417H632.634V404.184C632.634 401.772 631.05 400.404 628.422 400.404C625.47 400.404 623.31 402.492 623.31 405.552V417H620.394V391.26H623.31ZM642.33 398.388V401.484H642.402C643.518 399.684 645.462 398.172 647.946 398.172C648.486 398.172 648.774 398.244 649.134 398.388V401.196H649.026C648.594 401.052 648.306 401.016 647.73 401.016C644.85 401.016 642.33 403.176 642.33 406.668V417H639.414V398.388H642.33ZM659.006 417.504C653.462 417.504 650.006 413.112 650.006 407.712C650.006 402.312 653.462 397.92 659.006 397.92C664.586 397.92 667.97 402.312 667.97 407.712C667.97 413.112 664.586 417.504 659.006 417.504ZM659.006 415.056C662.966 415.056 664.982 411.816 664.982 407.712C664.982 403.608 662.966 400.332 659.006 400.332C655.046 400.332 652.994 403.608 652.994 407.712C652.994 411.816 655.046 415.056 659.006 415.056ZM685.638 417H682.722V414.444H682.65C681.318 416.244 679.734 417.432 677.034 417.432C673.218 417.432 670.77 415.128 670.77 411.276V398.388H673.686V411.204C673.686 413.616 675.234 415.02 677.862 415.02C680.814 415.02 682.722 412.788 682.722 409.836V398.388H685.638V417ZM696.998 423.192C692.174 423.192 689.438 421.248 689.114 418.044H691.814C692.102 420.096 694.046 420.888 696.926 420.888C700.346 420.888 702.254 419.34 702.254 416.1V413.472H702.182C700.814 415.236 699.338 416.352 696.674 416.352C691.85 416.352 688.538 412.5 688.538 407.136C688.538 401.34 692.174 397.956 696.494 397.956C699.194 397.956 700.922 399 702.182 400.764H702.254V398.388H705.17V415.992C705.17 420.888 701.93 423.192 696.998 423.192ZM696.818 413.904C701.102 413.904 702.47 410.916 702.47 406.992C702.47 402.924 700.742 400.404 696.782 400.404C693.29 400.404 691.526 403.14 691.526 407.172C691.526 411.24 693.362 413.904 696.818 413.904ZM712.044 391.26V400.836H712.116C713.448 399.072 715.32 397.956 718.02 397.956C721.908 397.956 724.284 400.08 724.284 403.932V417H721.368V404.184C721.368 401.772 719.784 400.404 717.156 400.404C714.204 400.404 712.044 402.492 712.044 405.552V417H709.128V391.26H712.044ZM741.834 417.504C736.146 417.504 732.834 413.112 732.834 407.712C732.834 402.312 736.362 397.92 741.654 397.92C747.234 397.92 750.222 402.24 750.222 408.396H735.822C736.038 412.176 738.09 415.056 741.834 415.056C744.534 415.056 746.334 413.76 746.982 411.24H749.826C748.962 415.236 746.046 417.504 741.834 417.504ZM741.654 400.224C738.198 400.224 736.326 402.816 735.894 406.2H747.09C746.91 402.492 745.002 400.224 741.654 400.224ZM757.33 417L750.814 398.388H753.946L757.798 410.196C758.338 411.852 759.022 414.12 759.022 414.12H759.094C759.094 414.12 759.778 411.816 760.318 410.196L764.242 398.388H767.266L760.57 417H757.33ZM776.92 417.504C771.232 417.504 767.92 413.112 767.92 407.712C767.92 402.312 771.448 397.92 776.74 397.92C782.32 397.92 785.308 402.24 785.308 408.396H770.908C771.124 412.176 773.176 415.056 776.92 415.056C779.62 415.056 781.42 413.76 782.068 411.24H784.912C784.048 415.236 781.132 417.504 776.92 417.504ZM776.74 400.224C773.284 400.224 771.412 402.816 770.98 406.2H782.176C781.996 402.492 780.088 400.224 776.74 400.224ZM791.076 398.388V401.484H791.148C792.264 399.684 794.208 398.172 796.692 398.172C797.232 398.172 797.52 398.244 797.88 398.388V401.196H797.772C797.34 401.052 797.052 401.016 796.476 401.016C793.596 401.016 791.076 403.176 791.076 406.668V417H788.16V398.388H791.076ZM802.876 423.156C801.76 423.156 801.04 423.084 800.248 422.76V420.168H800.392C800.788 420.384 801.4 420.564 802.372 420.564C803.596 420.564 804.424 420.096 805.144 418.296L805.864 416.46L798.592 398.388H801.76L806.152 409.98C806.728 411.528 807.412 413.616 807.412 413.616H807.484C807.484 413.616 808.132 411.528 808.708 409.98L812.956 398.388H816.052L808.096 418.512C806.584 422.364 805.144 423.156 802.876 423.156ZM827.911 417L822.007 398.388H825.139L828.415 409.872C828.847 411.42 829.423 413.868 829.423 413.868H829.495C829.495 413.868 830.035 411.42 830.431 409.944L833.563 398.388H836.623L839.647 409.944C840.043 411.456 840.547 413.868 840.547 413.868H840.619C840.619 413.868 841.195 411.42 841.663 409.872L845.119 398.388H848.143L842.059 417H839.071L835.975 405.732C835.543 404.184 835.075 401.844 835.075 401.844H835.003C835.003 401.844 834.499 404.184 834.067 405.732L830.935 417H827.911ZM857.885 417.504C852.197 417.504 848.885 413.112 848.885 407.712C848.885 402.312 852.413 397.92 857.705 397.92C863.285 397.92 866.273 402.24 866.273 408.396H851.873C852.089 412.176 854.141 415.056 857.885 415.056C860.585 415.056 862.385 413.76 863.033 411.24H865.877C865.013 415.236 862.097 417.504 857.885 417.504ZM857.705 400.224C854.249 400.224 852.377 402.816 851.945 406.2H863.141C862.961 402.492 861.053 400.224 857.705 400.224ZM877.081 417.504C871.393 417.504 868.081 413.112 868.081 407.712C868.081 402.312 871.609 397.92 876.901 397.92C882.481 397.92 885.469 402.24 885.469 408.396H871.069C871.285 412.176 873.337 415.056 877.081 415.056C879.781 415.056 881.581 413.76 882.229 411.24H885.073C884.209 415.236 881.293 417.504 877.081 417.504ZM876.901 400.224C873.445 400.224 871.573 402.816 871.141 406.2H882.337C882.157 402.492 880.249 400.224 876.901 400.224ZM900.56 417L893.972 406.956L891.236 409.548V417H888.32V391.26H891.236V406.344L899.408 398.388H903.116L895.988 405.084L903.98 417H900.56Z" fill="black"/>
<path d="M236.116 471C236.404 464.412 241.048 462 245.368 459.516C248.608 457.644 250.588 456.384 250.588 453.396C250.588 450.372 248.5 448.32 245.224 448.32C243.496 448.32 242.2 448.896 241.3 449.868C240.328 450.912 239.896 452.28 239.896 454.8H236.728C236.728 451.632 237.556 449.616 239.068 448.104C240.652 446.556 242.956 445.8 245.476 445.8C250.48 445.8 253.72 448.968 253.72 453.36C253.72 458.112 250.48 459.696 246.52 461.892C243.856 463.368 240.436 465.384 239.752 468.12H253.216V471H236.116ZM265.228 471.54C260.368 471.54 256.912 468.66 256.696 464.304H259.756C259.972 467.004 261.844 468.984 265.156 468.984C267.028 468.984 268.36 468.444 269.332 467.364C270.808 465.78 271.384 463.008 271.528 459.336H271.456C269.872 461.316 267.604 462.468 264.652 462.468C260.116 462.468 256.48 458.724 256.444 454.188C256.408 449.58 260.08 445.764 265.084 445.764C267.496 445.764 269.368 446.52 270.772 447.6C273.58 449.76 274.48 453.288 274.48 458.796C274.48 463.8 273.472 467.4 271.024 469.56C269.548 470.856 267.568 471.54 265.228 471.54ZM265.048 459.984C268.756 459.984 271.096 457.572 271.096 454.08C271.096 450.588 268.396 448.212 265.084 448.212C261.664 448.212 259.252 450.588 259.252 454.08C259.252 457.572 261.844 459.984 265.048 459.984ZM287.154 471.54C284.454 471.54 282.474 470.712 280.998 469.344C278.37 466.968 277.506 463.584 277.506 458.508C277.506 450.84 280.782 445.764 287.046 445.764C291.978 445.764 294.426 449.04 294.822 452.604H291.834C291.618 450.264 289.962 448.32 287.118 448.32C282.294 448.32 280.566 452.208 280.458 458.256H280.53C282.114 456.06 284.346 454.836 287.298 454.836C291.834 454.836 295.398 458.58 295.434 463.116C295.47 467.724 291.762 471.54 287.154 471.54ZM287.082 469.092C290.286 469.092 292.626 466.716 292.626 463.224C292.626 459.732 290.178 457.32 286.974 457.32C283.446 457.32 280.998 459.66 280.998 463.188C280.998 466.68 283.626 469.092 287.082 469.092ZM319.166 471.18C317.258 471.18 316.25 470.316 315.962 468.408H315.926C314.81 469.848 312.902 471.36 309.734 471.36C306.206 471.36 303.434 469.704 303.434 466.176C303.434 461.784 306.89 460.884 311.534 460.164C314.162 459.768 315.998 459.516 315.998 457.5C315.998 455.412 314.486 454.224 311.822 454.224C308.798 454.224 307.286 455.52 307.178 458.328H304.37C304.478 454.728 306.854 452.028 311.786 452.028C315.746 452.028 318.662 453.504 318.662 457.932V466.788C318.662 468.3 319.022 469.128 320.642 468.768H320.75V470.892C320.39 471.036 319.922 471.18 319.166 471.18ZM310.382 469.128C314.27 469.128 316.034 466.284 316.034 464.124V460.956C315.062 461.568 313.37 462.036 311.786 462.324C308.87 462.864 306.53 463.368 306.53 466.104C306.53 468.588 308.474 469.128 310.382 469.128ZM330.858 471.504C325.314 471.504 321.858 467.112 321.858 461.712C321.858 456.312 325.314 451.92 330.858 451.92C335.25 451.92 338.166 454.44 338.814 458.4H335.862C335.43 455.88 333.666 454.332 330.858 454.332C326.898 454.332 324.846 457.608 324.846 461.712C324.846 465.816 326.898 469.056 330.858 469.056C333.882 469.056 335.682 467.328 335.934 464.448H338.814C338.418 468.912 335.502 471.504 330.858 471.504ZM340.382 454.764V452.388H343.082V446.52H345.998V452.388H349.598V454.764H345.998V466.86C345.998 468.156 346.682 468.588 347.87 468.588C348.446 468.588 349.094 468.444 349.418 468.336H349.526V470.856C348.842 471 348.05 471.108 347.186 471.108C344.81 471.108 343.082 470.136 343.082 467.508V454.764H340.382ZM352.609 471V452.388H355.525V471H352.609ZM352.609 448.86V445.26H355.525V448.86H352.609ZM364.108 471L357.592 452.388H360.724L364.576 464.196C365.116 465.852 365.8 468.12 365.8 468.12H365.872C365.872 468.12 366.556 465.816 367.096 464.196L371.02 452.388H374.044L367.348 471H364.108ZM383.698 471.504C378.01 471.504 374.698 467.112 374.698 461.712C374.698 456.312 378.226 451.92 383.518 451.92C389.098 451.92 392.086 456.24 392.086 462.396H377.686C377.902 466.176 379.954 469.056 383.698 469.056C386.398 469.056 388.198 467.76 388.846 465.24H391.69C390.826 469.236 387.91 471.504 383.698 471.504ZM383.518 454.224C380.062 454.224 378.19 456.816 377.758 460.2H388.954C388.774 456.492 386.866 454.224 383.518 454.224ZM413.664 476.976V468.732H413.592C412.188 470.532 410.496 471.54 407.832 471.54C402.792 471.54 399.732 467.724 399.732 461.748C399.732 455.556 403.188 451.956 407.724 451.956C410.424 451.956 412.296 453.036 413.592 454.872H413.664V452.388H416.58V476.976H413.664ZM407.976 469.092C412.26 469.092 413.844 465.996 413.844 461.784C413.844 457.464 412.008 454.44 407.939 454.44C404.412 454.44 402.72 457.608 402.72 461.784C402.72 465.996 404.412 469.092 407.976 469.092ZM435.291 471H432.375V468.444H432.303C430.971 470.244 429.387 471.432 426.687 471.432C422.871 471.432 420.423 469.128 420.423 465.276V452.388H423.339V465.204C423.339 467.616 424.887 469.02 427.515 469.02C430.467 469.02 432.375 466.788 432.375 463.836V452.388H435.291V471ZM447.19 471.504C441.502 471.504 438.19 467.112 438.19 461.712C438.19 456.312 441.718 451.92 447.01 451.92C452.59 451.92 455.578 456.24 455.578 462.396H441.178C441.394 466.176 443.446 469.056 447.19 469.056C449.89 469.056 451.69 467.76 452.338 465.24H455.182C454.318 469.236 451.402 471.504 447.19 471.504ZM447.01 454.224C443.554 454.224 441.682 456.816 441.25 460.2H452.446C452.266 456.492 450.358 454.224 447.01 454.224ZM473.189 471H470.273V468.444H470.201C468.869 470.244 467.285 471.432 464.585 471.432C460.769 471.432 458.321 469.128 458.321 465.276V452.388H461.237V465.204C461.237 467.616 462.785 469.02 465.413 469.02C468.365 469.02 470.273 466.788 470.273 463.836V452.388H473.189V471ZM485.088 471.504C479.4 471.504 476.088 467.112 476.088 461.712C476.088 456.312 479.616 451.92 484.908 451.92C490.488 451.92 493.476 456.24 493.476 462.396H479.076C479.292 466.176 481.344 469.056 485.088 469.056C487.788 469.056 489.588 467.76 490.236 465.24H493.08C492.216 469.236 489.3 471.504 485.088 471.504ZM484.908 454.224C481.452 454.224 479.58 456.816 479.148 460.2H490.344C490.164 456.492 488.256 454.224 484.908 454.224ZM503.384 471.54C498.272 471.54 495.428 469.128 495.14 464.952H498.128C498.524 468.192 500.684 469.092 503.456 469.092C506.516 469.092 507.776 467.76 507.776 466.032C507.776 463.944 506.336 463.404 502.916 462.684C499.244 461.928 495.968 461.172 495.968 457.104C495.968 454.008 498.344 451.992 502.664 451.992C507.272 451.992 509.54 454.188 509.972 457.824H506.984C506.696 455.376 505.364 454.296 502.592 454.296C499.928 454.296 498.848 455.484 498.848 456.96C498.848 458.976 500.648 459.372 503.852 460.02C507.596 460.776 510.728 461.604 510.728 465.888C510.728 469.632 507.668 471.54 503.384 471.54ZM513.159 475.608V473.988C513.951 473.7 514.779 473.016 514.779 471H513.123V467.436H516.615V471.108C516.615 473.736 515.211 475.212 513.159 475.608ZM530.538 471V453.036H525.138V451.02C528.162 450.948 530.754 449.832 531.222 446.196H533.562V471H530.538ZM537.475 471C537.763 464.412 542.407 462 546.727 459.516C549.967 457.644 551.947 456.384 551.947 453.396C551.947 450.372 549.859 448.32 546.583 448.32C544.855 448.32 543.559 448.896 542.659 449.868C541.687 450.912 541.255 452.28 541.255 454.8H538.087C538.087 451.632 538.915 449.616 540.427 448.104C542.011 446.556 544.315 445.8 546.835 445.8C551.839 445.8 555.079 448.968 555.079 453.36C555.079 458.112 551.839 459.696 547.879 461.892C545.215 463.368 541.795 465.384 541.111 468.12H554.575V471H537.475ZM566.99 452.388V454.836H567.062C568.394 453.072 570.266 451.956 572.966 451.956C576.854 451.956 579.23 454.08 579.23 457.932V471H576.314V458.184C576.314 455.772 574.73 454.404 572.102 454.404C569.15 454.404 566.99 456.492 566.99 459.552V471H564.074V452.388H566.99ZM591.049 471.504C585.361 471.504 582.049 467.112 582.049 461.712C582.049 456.312 585.577 451.92 590.869 451.92C596.449 451.92 599.437 456.24 599.437 462.396H585.037C585.253 466.176 587.305 469.056 591.049 469.056C593.749 469.056 595.549 467.76 596.197 465.24H599.041C598.177 469.236 595.261 471.504 591.049 471.504ZM590.869 454.224C587.413 454.224 585.541 456.816 585.109 460.2H596.305C596.125 456.492 594.217 454.224 590.869 454.224ZM606.005 471L600.101 452.388H603.233L606.509 463.872C606.941 465.42 607.517 467.868 607.517 467.868H607.589C607.589 467.868 608.129 465.42 608.525 463.944L611.657 452.388H614.717L617.741 463.944C618.137 465.456 618.641 467.868 618.641 467.868H618.713C618.713 467.868 619.289 465.42 619.757 463.872L623.213 452.388H626.237L620.153 471H617.165L614.069 459.732C613.637 458.184 613.169 455.844 613.169 455.844H613.097C613.097 455.844 612.593 458.184 612.161 459.732L609.029 471H606.005ZM639.937 475.248C636.985 470.748 634.681 465.708 634.681 458.94C634.681 452.676 637.201 447.672 639.937 443.856H642.313C639.937 447.888 638.101 453.036 638.101 458.94C638.101 465.312 639.613 470.28 642.313 475.248H639.937ZM647.379 471C647.919 462.396 652.419 453.576 657.963 449.112V449.04H643.887V446.34H661.131V448.824C656.091 453.252 651.123 461.208 650.619 471H647.379ZM682.222 476.976V468.732H682.15C680.746 470.532 679.054 471.54 676.39 471.54C671.35 471.54 668.29 467.724 668.29 461.748C668.29 455.556 671.746 451.956 676.282 451.956C678.982 451.956 680.854 453.036 682.15 454.872H682.222V452.388H685.138V476.976H682.222ZM676.534 469.092C680.818 469.092 682.402 465.996 682.402 461.784C682.402 457.464 680.566 454.44 676.498 454.44C672.97 454.44 671.278 457.608 671.278 461.784C671.278 465.996 672.97 469.092 676.534 469.092ZM703.849 471H700.933V468.444H700.861C699.529 470.244 697.945 471.432 695.245 471.432C691.429 471.432 688.981 469.128 688.981 465.276V452.388H691.897V465.204C691.897 467.616 693.445 469.02 696.073 469.02C699.025 469.02 700.933 466.788 700.933 463.836V452.388H703.849V471ZM722.409 471.18C720.501 471.18 719.493 470.316 719.205 468.408H719.169C718.053 469.848 716.145 471.36 712.977 471.36C709.449 471.36 706.677 469.704 706.677 466.176C706.677 461.784 710.133 460.884 714.777 460.164C717.405 459.768 719.241 459.516 719.241 457.5C719.241 455.412 717.729 454.224 715.064 454.224C712.041 454.224 710.529 455.52 710.421 458.328H707.613C707.721 454.728 710.097 452.028 715.029 452.028C718.989 452.028 721.905 453.504 721.905 457.932V466.788C721.905 468.3 722.265 469.128 723.885 468.768H723.992V470.892C723.633 471.036 723.165 471.18 722.409 471.18ZM713.625 469.128C717.513 469.128 719.277 466.284 719.277 464.124V460.956C718.305 461.568 716.613 462.036 715.029 462.324C712.113 462.864 709.773 463.368 709.773 466.104C709.773 468.588 711.717 469.128 713.625 469.128ZM726.252 471V445.26H729.168V471H726.252ZM733.246 471V452.388H736.162V471H733.246ZM733.246 448.86V445.26H736.162V448.86H733.246ZM738.948 454.764V452.388H741.504V449.4C741.504 446.196 743.34 445.044 746.436 445.044C747.048 445.044 747.516 445.08 747.912 445.116V447.6C747.408 447.564 747.264 447.564 746.976 447.564C745.104 447.564 744.42 448.032 744.42 449.544V452.388H747.876V454.764H744.42V471H741.504V454.764H738.948ZM750.718 471V452.388H753.634V471H750.718ZM750.718 448.86V445.26H753.634V448.86H750.718ZM765.565 471.504C759.877 471.504 756.565 467.112 756.565 461.712C756.565 456.312 760.093 451.92 765.385 451.92C770.965 451.92 773.953 456.24 773.953 462.396H759.553C759.769 466.176 761.821 469.056 765.565 469.056C768.265 469.056 770.065 467.76 770.713 465.24H773.557C772.693 469.236 769.777 471.504 765.565 471.504ZM765.385 454.224C761.929 454.224 760.057 456.816 759.625 460.2H770.821C770.641 456.492 768.733 454.224 765.385 454.224ZM784.004 471.54C778.928 471.54 775.76 467.724 775.76 461.748C775.76 455.556 779.324 451.956 783.932 451.956C786.56 451.956 788.576 453.252 789.764 455.016H789.836V445.26H792.752V471H789.836V468.732H789.764C788.36 470.532 786.632 471.54 784.004 471.54ZM784.112 469.092C788.252 469.092 790.016 465.996 790.016 461.784C790.016 457.464 787.928 454.44 784.076 454.44C780.548 454.44 778.748 457.608 778.748 461.784C778.748 465.996 780.548 469.092 784.112 469.092ZM795.515 475.248C798.215 470.28 799.727 465.312 799.727 458.94C799.727 453.036 797.891 447.888 795.515 443.856H797.891C800.627 447.672 803.147 452.676 803.147 458.94C803.147 465.708 800.843 470.748 797.891 475.248H795.515ZM813.367 471V452.388H816.283V471H813.367ZM813.367 448.86V445.26H816.283V448.86H813.367ZM823.173 452.388V454.836H823.245C824.577 453.072 826.449 451.956 829.149 451.956C833.037 451.956 835.413 454.08 835.413 457.932V471H832.497V458.184C832.497 455.772 830.913 454.404 828.285 454.404C825.333 454.404 823.173 456.492 823.173 459.552V471H820.257V452.388H823.173ZM843.819 454.764V452.388H846.519V446.52H849.435V452.388H853.035V454.764H849.435V466.86C849.435 468.156 850.119 468.588 851.307 468.588C851.883 468.588 852.531 468.444 852.855 468.336H852.963V470.856C852.279 471 851.487 471.108 850.623 471.108C848.247 471.108 846.519 470.136 846.519 467.508V454.764H843.819ZM858.962 445.26V454.836H859.034C860.366 453.072 862.238 451.956 864.938 451.956C868.826 451.956 871.202 454.08 871.202 457.932V471H868.286V458.184C868.286 455.772 866.702 454.404 864.074 454.404C861.122 454.404 858.962 456.492 858.962 459.552V471H856.046V445.26H858.962ZM883.022 471.504C877.334 471.504 874.022 467.112 874.022 461.712C874.022 456.312 877.55 451.92 882.842 451.92C888.422 451.92 891.41 456.24 891.41 462.396H877.01C877.226 466.176 879.278 469.056 883.022 469.056C885.722 469.056 887.522 467.76 888.17 465.24H891.014C890.15 469.236 887.234 471.504 883.022 471.504ZM882.842 454.224C879.386 454.224 877.514 456.816 877.082 460.2H888.278C888.098 456.492 886.19 454.224 882.842 454.224ZM900.1 471V445.26H903.016V471H900.1ZM921.709 471.18C919.801 471.18 918.793 470.316 918.505 468.408H918.469C917.353 469.848 915.445 471.36 912.277 471.36C908.749 471.36 905.977 469.704 905.977 466.176C905.977 461.784 909.433 460.884 914.077 460.164C916.705 459.768 918.541 459.516 918.541 457.5C918.541 455.412 917.029 454.224 914.365 454.224C911.341 454.224 909.829 455.52 909.721 458.328H906.913C907.021 454.728 909.397 452.028 914.329 452.028C918.289 452.028 921.205 453.504 921.205 457.932V466.788C921.205 468.3 921.565 469.128 923.185 468.768H923.293V470.892C922.933 471.036 922.465 471.18 921.709 471.18ZM912.925 469.128C916.813 469.128 918.577 466.284 918.577 464.124V460.956C917.605 461.568 915.913 462.036 914.329 462.324C911.413 462.864 909.073 463.368 909.073 466.104C909.073 468.588 911.017 469.128 912.925 469.128ZM932.501 471.54C927.389 471.54 924.545 469.128 924.257 464.952H927.245C927.641 468.192 929.801 469.092 932.573 469.092C935.633 469.092 936.893 467.76 936.893 466.032C936.893 463.944 935.453 463.404 932.033 462.684C928.361 461.928 925.085 461.172 925.085 457.104C925.085 454.008 927.461 451.992 931.781 451.992C936.389 451.992 938.657 454.188 939.089 457.824H936.101C935.813 455.376 934.481 454.296 931.709 454.296C929.045 454.296 927.965 455.484 927.965 456.96C927.965 458.976 929.765 459.372 932.969 460.02C936.713 460.776 939.845 461.604 939.845 465.888C939.845 469.632 936.785 471.54 932.501 471.54ZM941.097 454.764V452.388H943.797V446.52H946.713V452.388H950.313V454.764H946.713V466.86C946.713 468.156 947.397 468.588 948.585 468.588C949.161 468.588 949.809 468.444 950.133 468.336H950.241V470.856C949.557 471 948.765 471.108 947.901 471.108C945.525 471.108 943.797 470.136 943.797 467.508V454.764H941.097ZM963.122 471L957.218 452.388H960.35L963.626 463.872C964.058 465.42 964.634 467.868 964.634 467.868H964.706C964.706 467.868 965.246 465.42 965.642 463.944L968.774 452.388H971.834L974.858 463.944C975.254 465.456 975.758 467.868 975.758 467.868H975.83C975.83 467.868 976.406 465.42 976.874 463.872L980.33 452.388H983.354L977.27 471H974.282L971.186 459.732C970.754 458.184 970.286 455.844 970.286 455.844H970.214C970.214 455.844 969.71 458.184 969.278 459.732L966.146 471H963.122ZM993.096 471.504C987.408 471.504 984.096 467.112 984.096 461.712C984.096 456.312 987.624 451.92 992.916 451.92C998.496 451.92 1001.48 456.24 1001.48 462.396H987.084C987.3 466.176 989.352 469.056 993.096 469.056C995.796 469.056 997.596 467.76 998.244 465.24H1001.09C1000.22 469.236 997.308 471.504 993.096 471.504ZM992.916 454.224C989.46 454.224 987.588 456.816 987.156 460.2H998.352C998.172 456.492 996.264 454.224 992.916 454.224ZM1012.29 471.504C1006.6 471.504 1003.29 467.112 1003.29 461.712C1003.29 456.312 1006.82 451.92 1012.11 451.92C1017.69 451.92 1020.68 456.24 1020.68 462.396H1006.28C1006.5 466.176 1008.55 469.056 1012.29 469.056C1014.99 469.056 1016.79 467.76 1017.44 465.24H1020.28C1019.42 469.236 1016.5 471.504 1012.29 471.504ZM1012.11 454.224C1008.66 454.224 1006.78 456.816 1006.35 460.2H1017.55C1017.37 456.492 1015.46 454.224 1012.11 454.224ZM1035.77 471L1029.18 460.956L1026.45 463.548V471H1023.53V445.26H1026.45V460.344L1034.62 452.388H1038.33L1031.2 459.084L1039.19 471H1035.77Z" fill="black"/>
<path d="M241.624 525V507.036H236.224V505.02C239.248 504.948 241.84 503.832 242.308 500.196H244.648V525H241.624ZM258.605 525.54C252.521 525.54 249.029 520.5 249.029 512.652C249.029 504.66 252.809 499.764 258.641 499.764C264.473 499.764 268.181 504.588 268.181 512.652C268.181 520.5 264.761 525.54 258.605 525.54ZM258.641 522.912C263.033 522.912 265.049 519.024 265.049 512.652C265.049 506.388 262.925 502.356 258.641 502.356C254.285 502.356 252.161 506.28 252.161 512.652C252.161 518.916 254.285 522.912 258.641 522.912ZM280.93 525.54C274.846 525.54 271.354 520.5 271.354 512.652C271.354 504.66 275.134 499.764 280.966 499.764C286.798 499.764 290.506 504.588 290.506 512.652C290.506 520.5 287.086 525.54 280.93 525.54ZM280.966 522.912C285.358 522.912 287.374 519.024 287.374 512.652C287.374 506.388 285.25 502.356 280.966 502.356C276.61 502.356 274.486 506.28 274.486 512.652C274.486 518.916 276.61 522.912 280.966 522.912ZM298.79 514.02C295.334 514.02 292.958 511.212 292.958 506.892C292.958 502.5 295.478 499.764 298.79 499.764C302.102 499.764 304.55 502.428 304.55 506.892C304.55 511.212 302.246 514.02 298.79 514.02ZM314.738 525.54C311.282 525.54 308.906 522.732 308.906 518.412C308.906 514.02 311.426 511.284 314.738 511.284C318.05 511.284 320.498 513.948 320.498 518.412C320.498 522.732 318.194 525.54 314.738 525.54ZM298.43 525L312.578 500.34H315.026L300.878 525H298.43ZM298.79 511.86C300.842 511.86 301.886 509.772 301.886 506.892C301.886 504.084 300.77 501.924 298.79 501.924C296.774 501.924 295.694 504.012 295.694 506.892C295.694 509.7 296.774 511.86 298.79 511.86ZM314.738 523.38C316.79 523.38 317.834 521.292 317.834 518.412C317.834 515.604 316.718 513.444 314.738 513.444C312.722 513.444 311.642 515.532 311.642 518.412C311.642 521.22 312.722 523.38 314.738 523.38ZM332.005 506.388V509.484H332.077C333.193 507.684 335.137 506.172 337.621 506.172C338.161 506.172 338.449 506.244 338.809 506.388V509.196H338.701C338.269 509.052 337.981 509.016 337.405 509.016C334.525 509.016 332.005 511.176 332.005 514.668V525H329.089V506.388H332.005ZM348.682 525.504C342.994 525.504 339.682 521.112 339.682 515.712C339.682 510.312 343.21 505.92 348.502 505.92C354.082 505.92 357.07 510.24 357.07 516.396H342.67C342.886 520.176 344.938 523.056 348.682 523.056C351.382 523.056 353.182 521.76 353.83 519.24H356.674C355.81 523.236 352.894 525.504 348.682 525.504ZM348.502 508.224C345.046 508.224 343.174 510.816 342.742 514.2H353.938C353.758 510.492 351.85 508.224 348.502 508.224ZM358.382 508.764V506.388H361.082V500.52H363.998V506.388H367.598V508.764H363.998V520.86C363.998 522.156 364.682 522.588 365.87 522.588C366.446 522.588 367.094 522.444 367.418 522.336H367.526V524.856C366.842 525 366.05 525.108 365.186 525.108C362.81 525.108 361.082 524.136 361.082 521.508V508.764H358.382ZM378.389 525.504C372.701 525.504 369.389 521.112 369.389 515.712C369.389 510.312 372.917 505.92 378.209 505.92C383.789 505.92 386.777 510.24 386.777 516.396H372.377C372.593 520.176 374.645 523.056 378.389 523.056C381.089 523.056 382.889 521.76 383.537 519.24H386.381C385.517 523.236 382.601 525.504 378.389 525.504ZM378.209 508.224C374.753 508.224 372.881 510.816 372.449 514.2H383.645C383.465 510.492 381.557 508.224 378.209 508.224ZM392.544 506.388V508.836H392.616C393.948 507.072 395.82 505.956 398.52 505.956C402.408 505.956 404.784 508.08 404.784 511.932V525H401.868V512.184C401.868 509.772 400.284 508.404 397.656 508.404C394.704 508.404 392.544 510.492 392.544 513.552V525H389.628V506.388H392.544ZM407.108 508.764V506.388H409.808V500.52H412.724V506.388H416.324V508.764H412.724V520.86C412.724 522.156 413.408 522.588 414.596 522.588C415.172 522.588 415.82 522.444 416.144 522.336H416.252V524.856C415.568 525 414.776 525.108 413.912 525.108C411.536 525.108 409.808 524.136 409.808 521.508V508.764H407.108ZM419.335 525V506.388H422.251V525H419.335ZM419.335 502.86V499.26H422.251V502.86H419.335ZM434.182 525.504C428.638 525.504 425.182 521.112 425.182 515.712C425.182 510.312 428.638 505.92 434.182 505.92C439.762 505.92 443.146 510.312 443.146 515.712C443.146 521.112 439.762 525.504 434.182 525.504ZM434.182 523.056C438.142 523.056 440.158 519.816 440.158 515.712C440.158 511.608 438.142 508.332 434.182 508.332C430.222 508.332 428.17 511.608 428.17 515.712C428.17 519.816 430.222 523.056 434.182 523.056ZM448.97 506.388V508.836H449.042C450.374 507.072 452.246 505.956 454.946 505.956C458.834 505.956 461.21 508.08 461.21 511.932V525H458.294V512.184C458.294 509.772 456.71 508.404 454.082 508.404C451.13 508.404 448.97 510.492 448.97 513.552V525H446.054V506.388H448.97ZM469.616 508.764V506.388H472.172V503.4C472.172 500.196 474.008 499.044 477.104 499.044C477.716 499.044 478.184 499.08 478.58 499.116V501.6C478.076 501.564 477.932 501.564 477.644 501.564C475.772 501.564 475.088 502.032 475.088 503.544V506.388H478.544V508.764H475.088V525H472.172V508.764H469.616ZM484.302 506.388V509.484H484.374C485.49 507.684 487.434 506.172 489.918 506.172C490.458 506.172 490.746 506.244 491.106 506.388V509.196H490.998C490.566 509.052 490.278 509.016 489.702 509.016C486.822 509.016 484.302 511.176 484.302 514.668V525H481.386V506.388H484.302ZM500.979 525.504C495.435 525.504 491.979 521.112 491.979 515.712C491.979 510.312 495.435 505.92 500.979 505.92C506.559 505.92 509.943 510.312 509.943 515.712C509.943 521.112 506.559 525.504 500.979 525.504ZM500.979 523.056C504.939 523.056 506.955 519.816 506.955 515.712C506.955 511.608 504.939 508.332 500.979 508.332C497.019 508.332 494.967 511.608 494.967 515.712C494.967 519.816 497.019 523.056 500.979 523.056ZM512.851 525V506.388H515.767V509.052H515.839C516.991 507.252 518.971 505.956 521.311 505.956C523.579 505.956 525.379 507.108 526.171 509.268H526.243C527.431 507.144 529.663 505.956 531.931 505.956C535.243 505.956 537.583 508.08 537.583 511.932V525H534.667V512.076C534.667 509.772 533.119 508.404 531.247 508.404C528.835 508.404 526.675 510.492 526.675 513.408V525H523.759V512.076C523.759 509.772 522.463 508.404 520.555 508.404C518.287 508.404 515.767 510.492 515.767 513.408V525H512.851ZM547.164 530.976V506.388H550.08V509.016H550.152C551.556 507.108 553.428 505.956 556.128 505.956C560.844 505.956 564.12 509.556 564.12 515.748C564.12 521.724 561.06 525.54 556.02 525.54C553.5 525.54 551.7 524.784 550.152 522.804H550.08V530.976H547.164ZM555.804 523.092C559.368 523.092 561.132 519.996 561.132 515.784C561.132 511.608 559.368 508.44 555.84 508.44C551.772 508.44 549.9 511.752 549.9 515.784C549.9 519.816 551.52 523.092 555.804 523.092ZM581.643 525.18C579.735 525.18 578.727 524.316 578.439 522.408H578.403C577.287 523.848 575.379 525.36 572.211 525.36C568.683 525.36 565.911 523.704 565.911 520.176C565.911 515.784 569.367 514.884 574.011 514.164C576.639 513.768 578.475 513.516 578.475 511.5C578.475 509.412 576.963 508.224 574.299 508.224C571.275 508.224 569.763 509.52 569.655 512.328H566.847C566.955 508.728 569.331 506.028 574.263 506.028C578.223 506.028 581.139 507.504 581.139 511.932V520.788C581.139 522.3 581.499 523.128 583.119 522.768H583.227V524.892C582.867 525.036 582.399 525.18 581.643 525.18ZM572.859 523.128C576.747 523.128 578.511 520.284 578.511 518.124V514.956C577.539 515.568 575.847 516.036 574.263 516.324C571.347 516.864 569.007 517.368 569.007 520.104C569.007 522.588 570.951 523.128 572.859 523.128ZM587.403 531.156C586.287 531.156 585.567 531.084 584.775 530.76V528.168H584.919C585.315 528.384 585.927 528.564 586.899 528.564C588.123 528.564 588.951 528.096 589.671 526.296L590.391 524.46L583.119 506.388H586.287L590.679 517.98C591.255 519.528 591.939 521.616 591.939 521.616H592.011C592.011 521.616 592.659 519.528 593.235 517.98L597.483 506.388H600.579L592.623 526.512C591.111 530.364 589.671 531.156 587.403 531.156ZM602.64 525V506.388H605.556V525H602.64ZM602.64 502.86V499.26H605.556V502.86H602.64ZM612.447 506.388V508.836H612.519C613.851 507.072 615.723 505.956 618.423 505.956C622.311 505.956 624.687 508.08 624.687 511.932V525H621.771V512.184C621.771 509.772 620.187 508.404 617.559 508.404C614.607 508.404 612.447 510.492 612.447 513.552V525H609.531V506.388H612.447ZM635.966 531.192C631.142 531.192 628.406 529.248 628.082 526.044H630.782C631.07 528.096 633.014 528.888 635.894 528.888C639.314 528.888 641.222 527.34 641.222 524.1V521.472H641.15C639.782 523.236 638.306 524.352 635.642 524.352C630.818 524.352 627.506 520.5 627.506 515.136C627.506 509.34 631.142 505.956 635.462 505.956C638.162 505.956 639.89 507 641.15 508.764H641.222V506.388H644.138V523.992C644.138 528.888 640.898 531.192 635.966 531.192ZM635.786 521.904C640.07 521.904 641.438 518.916 641.438 514.992C641.438 510.924 639.71 508.404 635.75 508.404C632.258 508.404 630.494 511.14 630.494 515.172C630.494 519.24 632.33 521.904 635.786 521.904ZM652.64 508.764V506.388H655.34V500.52H658.256V506.388H661.856V508.764H658.256V520.86C658.256 522.156 658.94 522.588 660.128 522.588C660.704 522.588 661.352 522.444 661.676 522.336H661.784V524.856C661.1 525 660.308 525.108 659.444 525.108C657.068 525.108 655.34 524.136 655.34 521.508V508.764H652.64ZM672.647 525.504C666.959 525.504 663.647 521.112 663.647 515.712C663.647 510.312 667.175 505.92 672.467 505.92C678.047 505.92 681.035 510.24 681.035 516.396H666.635C666.851 520.176 668.903 523.056 672.647 523.056C675.347 523.056 677.147 521.76 677.795 519.24H680.639C679.775 523.236 676.859 525.504 672.647 525.504ZM672.467 508.224C669.011 508.224 667.139 510.816 666.707 514.2H677.903C677.723 510.492 675.815 508.224 672.467 508.224ZM698.502 525.18C696.594 525.18 695.586 524.316 695.298 522.408H695.262C694.146 523.848 692.238 525.36 689.07 525.36C685.542 525.36 682.77 523.704 682.77 520.176C682.77 515.784 686.226 514.884 690.87 514.164C693.498 513.768 695.334 513.516 695.334 511.5C695.334 509.412 693.822 508.224 691.158 508.224C688.134 508.224 686.622 509.52 686.514 512.328H683.706C683.814 508.728 686.19 506.028 691.122 506.028C695.082 506.028 697.998 507.504 697.998 511.932V520.788C697.998 522.3 698.358 523.128 699.978 522.768H700.086V524.892C699.726 525.036 699.258 525.18 698.502 525.18ZM689.718 523.128C693.606 523.128 695.37 520.284 695.37 518.124V514.956C694.398 515.568 692.706 516.036 691.122 516.324C688.206 516.864 685.866 517.368 685.866 520.104C685.866 522.588 687.81 523.128 689.718 523.128ZM702.238 525V506.388H705.154V509.052H705.226C706.378 507.252 708.358 505.956 710.698 505.956C712.966 505.956 714.766 507.108 715.558 509.268H715.63C716.818 507.144 719.05 505.956 721.318 505.956C724.63 505.956 726.97 508.08 726.97 511.932V525H724.054V512.076C724.054 509.772 722.506 508.404 720.634 508.404C718.222 508.404 716.062 510.492 716.062 513.408V525H713.146V512.076C713.146 509.772 711.85 508.404 709.942 508.404C707.674 508.404 705.154 510.492 705.154 513.408V525H702.238ZM737.876 525.54C732.764 525.54 729.92 523.128 729.632 518.952H732.62C733.016 522.192 735.176 523.092 737.948 523.092C741.008 523.092 742.268 521.76 742.268 520.032C742.268 517.944 740.828 517.404 737.408 516.684C733.736 515.928 730.46 515.172 730.46 511.104C730.46 508.008 732.836 505.992 737.156 505.992C741.764 505.992 744.032 508.188 744.464 511.824H741.476C741.188 509.376 739.856 508.296 737.084 508.296C734.42 508.296 733.34 509.484 733.34 510.96C733.34 512.976 735.14 513.372 738.344 514.02C742.088 514.776 745.22 515.604 745.22 519.888C745.22 523.632 742.16 525.54 737.876 525.54Z" fill="black"/>
<path d="M248.5 579.504C241.192 579.504 236.44 573.924 236.44 566.112C236.44 558.552 240.976 552.684 248.644 552.684C254.656 552.684 258.292 556.14 258.976 560.892H255.808C255.196 557.688 252.64 555.492 248.572 555.492C242.92 555.492 239.752 560.064 239.752 566.112C239.752 572.412 243.244 576.66 248.608 576.66C253.468 576.66 255.772 573.348 256.096 569.568H259.3C259.264 572.124 258.04 575.004 256.204 576.804C254.404 578.568 251.776 579.504 248.5 579.504ZM277.263 579H274.347V576.444H274.275C272.943 578.244 271.359 579.432 268.659 579.432C264.843 579.432 262.395 577.128 262.395 573.276V560.388H265.311V573.204C265.311 575.616 266.859 577.02 269.487 577.02C272.439 577.02 274.347 574.788 274.347 571.836V560.388H277.263V579ZM284.123 560.388V563.484H284.195C285.311 561.684 287.255 560.172 289.739 560.172C290.279 560.172 290.567 560.244 290.927 560.388V563.196H290.819C290.387 563.052 290.099 563.016 289.523 563.016C286.643 563.016 284.123 565.176 284.123 568.668V579H281.207V560.388H284.123ZM296.462 560.388V563.484H296.534C297.65 561.684 299.594 560.172 302.078 560.172C302.618 560.172 302.906 560.244 303.266 560.388V563.196H303.158C302.726 563.052 302.438 563.016 301.862 563.016C298.982 563.016 296.462 565.176 296.462 568.668V579H293.546V560.388H296.462ZM313.139 579.504C307.451 579.504 304.139 575.112 304.139 569.712C304.139 564.312 307.667 559.92 312.959 559.92C318.539 559.92 321.527 564.24 321.527 570.396H307.127C307.343 574.176 309.395 577.056 313.139 577.056C315.839 577.056 317.639 575.76 318.287 573.24H321.131C320.267 577.236 317.351 579.504 313.139 579.504ZM312.959 562.224C309.503 562.224 307.631 564.816 307.199 568.2H318.395C318.215 564.492 316.307 562.224 312.959 562.224ZM327.294 560.388V562.836H327.366C328.698 561.072 330.57 559.956 333.27 559.956C337.158 559.956 339.534 562.08 339.534 565.932V579H336.618V566.184C336.618 563.772 335.034 562.404 332.406 562.404C329.454 562.404 327.294 564.492 327.294 567.552V579H324.378V560.388H327.294ZM341.858 562.764V560.388H344.558V554.52H347.474V560.388H351.074V562.764H347.474V574.86C347.474 576.156 348.158 576.588 349.346 576.588C349.922 576.588 350.57 576.444 350.894 576.336H351.002V578.856C350.318 579 349.526 579.108 348.662 579.108C346.286 579.108 344.558 578.136 344.558 575.508V562.764H341.858ZM354.193 579V553.26H357.109V579H354.193ZM363.563 585.156C362.447 585.156 361.727 585.084 360.935 584.76V582.168H361.079C361.475 582.384 362.087 582.564 363.059 582.564C364.283 582.564 365.111 582.096 365.831 580.296L366.551 578.46L359.279 560.388H362.447L366.839 571.98C367.415 573.528 368.099 575.616 368.099 575.616H368.171C368.171 575.616 368.819 573.528 369.395 571.98L373.643 560.388H376.739L368.783 580.512C367.271 584.364 365.831 585.156 363.563 585.156ZM389.175 579V561.036H383.775V559.02C386.799 558.948 389.391 557.832 389.859 554.196H392.199V579H389.175ZM406.156 579.54C400.072 579.54 396.58 574.5 396.58 566.652C396.58 558.66 400.36 553.764 406.192 553.764C412.024 553.764 415.732 558.588 415.732 566.652C415.732 574.5 412.312 579.54 406.156 579.54ZM406.192 576.912C410.584 576.912 412.6 573.024 412.6 566.652C412.6 560.388 410.476 556.356 406.192 556.356C401.836 556.356 399.712 560.28 399.712 566.652C399.712 572.916 401.836 576.912 406.192 576.912ZM439.647 579.18C437.739 579.18 436.731 578.316 436.443 576.408H436.407C435.291 577.848 433.383 579.36 430.215 579.36C426.687 579.36 423.915 577.704 423.915 574.176C423.915 569.784 427.371 568.884 432.015 568.164C434.643 567.768 436.479 567.516 436.479 565.5C436.479 563.412 434.967 562.224 432.303 562.224C429.279 562.224 427.767 563.52 427.659 566.328H424.851C424.959 562.728 427.335 560.028 432.267 560.028C436.227 560.028 439.143 561.504 439.143 565.932V574.788C439.143 576.3 439.503 577.128 441.123 576.768H441.231V578.892C440.871 579.036 440.403 579.18 439.647 579.18ZM430.863 577.128C434.751 577.128 436.515 574.284 436.515 572.124V568.956C435.543 569.568 433.851 570.036 432.267 570.324C429.351 570.864 427.011 571.368 427.011 574.104C427.011 576.588 428.955 577.128 430.863 577.128ZM451.338 579.504C445.794 579.504 442.338 575.112 442.338 569.712C442.338 564.312 445.794 559.92 451.338 559.92C455.73 559.92 458.646 562.44 459.294 566.4H456.342C455.91 563.88 454.146 562.332 451.338 562.332C447.378 562.332 445.326 565.608 445.326 569.712C445.326 573.816 447.378 577.056 451.338 577.056C454.362 577.056 456.162 575.328 456.414 572.448H459.294C458.898 576.912 455.982 579.504 451.338 579.504ZM460.862 562.764V560.388H463.562V554.52H466.478V560.388H470.078V562.764H466.478V574.86C466.478 576.156 467.162 576.588 468.35 576.588C468.926 576.588 469.574 576.444 469.898 576.336H470.006V578.856C469.322 579 468.53 579.108 467.666 579.108C465.29 579.108 463.562 578.136 463.562 575.508V562.764H460.862ZM473.089 579V560.388H476.005V579H473.089ZM473.089 556.86V553.26H476.005V556.86H473.089ZM484.588 579L478.072 560.388H481.204L485.056 572.196C485.596 573.852 486.28 576.12 486.28 576.12H486.352C486.352 576.12 487.036 573.816 487.576 572.196L491.5 560.388H494.524L487.828 579H484.588ZM504.178 579.504C498.49 579.504 495.178 575.112 495.178 569.712C495.178 564.312 498.706 559.92 503.998 559.92C509.578 559.92 512.566 564.24 512.566 570.396H498.166C498.382 574.176 500.434 577.056 504.178 577.056C506.878 577.056 508.678 575.76 509.326 573.24H512.17C511.306 577.236 508.39 579.504 504.178 579.504ZM503.998 562.224C500.542 562.224 498.67 564.816 498.238 568.2H509.434C509.254 564.492 507.346 562.224 503.998 562.224ZM521.148 584.976V560.388H524.064V563.016H524.136C525.54 561.108 527.412 559.956 530.112 559.956C534.828 559.956 538.104 563.556 538.104 569.748C538.104 575.724 535.044 579.54 530.004 579.54C527.484 579.54 525.684 578.784 524.136 576.804H524.064V584.976H521.148ZM529.788 577.092C533.352 577.092 535.116 573.996 535.116 569.784C535.116 565.608 533.352 562.44 529.824 562.44C525.756 562.44 523.884 565.752 523.884 569.784C523.884 573.816 525.504 577.092 529.788 577.092ZM555.627 579.18C553.719 579.18 552.711 578.316 552.423 576.408H552.387C551.271 577.848 549.363 579.36 546.195 579.36C542.667 579.36 539.895 577.704 539.895 574.176C539.895 569.784 543.351 568.884 547.995 568.164C550.623 567.768 552.459 567.516 552.459 565.5C552.459 563.412 550.947 562.224 548.283 562.224C545.259 562.224 543.747 563.52 543.639 566.328H540.831C540.939 562.728 543.315 560.028 548.247 560.028C552.207 560.028 555.123 561.504 555.123 565.932V574.788C555.123 576.3 555.483 577.128 557.103 576.768H557.211V578.892C556.851 579.036 556.383 579.18 555.627 579.18ZM546.843 577.128C550.731 577.128 552.495 574.284 552.495 572.124V568.956C551.523 569.568 549.831 570.036 548.247 570.324C545.331 570.864 542.991 571.368 542.991 574.104C542.991 576.588 544.935 577.128 546.843 577.128ZM561.387 585.156C560.271 585.156 559.551 585.084 558.759 584.76V582.168H558.903C559.299 582.384 559.911 582.564 560.883 582.564C562.107 582.564 562.935 582.096 563.655 580.296L564.375 578.46L557.103 560.388H560.271L564.663 571.98C565.239 573.528 565.923 575.616 565.923 575.616H565.995C565.995 575.616 566.643 573.528 567.219 571.98L571.467 560.388H574.563L566.607 580.512C565.095 584.364 563.655 585.156 561.387 585.156ZM576.625 579V560.388H579.541V579H576.625ZM576.625 556.86V553.26H579.541V556.86H576.625ZM586.431 560.388V562.836H586.503C587.835 561.072 589.707 559.956 592.407 559.956C596.295 559.956 598.671 562.08 598.671 565.932V579H595.755V566.184C595.755 563.772 594.171 562.404 591.543 562.404C588.591 562.404 586.431 564.492 586.431 567.552V579H583.515V560.388H586.431ZM609.951 585.192C605.127 585.192 602.391 583.248 602.067 580.044H604.767C605.055 582.096 606.999 582.888 609.879 582.888C613.299 582.888 615.207 581.34 615.207 578.1V575.472H615.135C613.767 577.236 612.291 578.352 609.627 578.352C604.803 578.352 601.491 574.5 601.491 569.136C601.491 563.34 605.127 559.956 609.447 559.956C612.147 559.956 613.875 561 615.135 562.764H615.207V560.388H618.123V577.992C618.123 582.888 614.883 585.192 609.951 585.192ZM609.771 575.904C614.055 575.904 615.423 572.916 615.423 568.992C615.423 564.924 613.695 562.404 609.735 562.404C606.243 562.404 604.479 565.14 604.479 569.172C604.479 573.24 606.315 575.904 609.771 575.904ZM635.768 579.504C630.08 579.504 626.768 575.112 626.768 569.712C626.768 564.312 630.296 559.92 635.588 559.92C641.168 559.92 644.156 564.24 644.156 570.396H629.756C629.972 574.176 632.024 577.056 635.768 577.056C638.468 577.056 640.268 575.76 640.916 573.24H643.76C642.896 577.236 639.98 579.504 635.768 579.504ZM635.588 562.224C632.132 562.224 630.26 564.816 629.828 568.2H641.024C640.844 564.492 638.936 562.224 635.588 562.224ZM649.923 560.388V562.836H649.995C651.327 561.072 653.199 559.956 655.899 559.956C659.787 559.956 662.163 562.08 662.163 565.932V579H659.247V566.184C659.247 563.772 657.663 562.404 655.035 562.404C652.083 562.404 649.923 564.492 649.923 567.552V579H647.007V560.388H649.923ZM673.443 585.192C668.619 585.192 665.883 583.248 665.559 580.044H668.259C668.547 582.096 670.491 582.888 673.371 582.888C676.791 582.888 678.699 581.34 678.699 578.1V575.472H678.627C677.259 577.236 675.783 578.352 673.119 578.352C668.295 578.352 664.983 574.5 664.983 569.136C664.983 563.34 668.619 559.956 672.939 559.956C675.639 559.956 677.367 561 678.627 562.764H678.699V560.388H681.615V577.992C681.615 582.888 678.375 585.192 673.443 585.192ZM673.263 575.904C677.547 575.904 678.915 572.916 678.915 568.992C678.915 564.924 677.187 562.404 673.227 562.404C669.735 562.404 667.971 565.14 667.971 569.172C667.971 573.24 669.807 575.904 673.263 575.904ZM685.574 579V560.388H688.49V579H685.574ZM685.574 556.86V553.26H688.49V556.86H685.574ZM695.38 560.388V562.836H695.452C696.784 561.072 698.656 559.956 701.356 559.956C705.244 559.956 707.62 562.08 707.62 565.932V579H704.704V566.184C704.704 563.772 703.12 562.404 700.492 562.404C697.54 562.404 695.38 564.492 695.38 567.552V579H692.464V560.388H695.38ZM719.44 579.504C713.752 579.504 710.44 575.112 710.44 569.712C710.44 564.312 713.968 559.92 719.26 559.92C724.84 559.92 727.828 564.24 727.828 570.396H713.428C713.644 574.176 715.696 577.056 719.44 577.056C722.14 577.056 723.94 575.76 724.588 573.24H727.432C726.568 577.236 723.652 579.504 719.44 579.504ZM719.26 562.224C715.804 562.224 713.932 564.816 713.5 568.2H724.696C724.516 564.492 722.608 562.224 719.26 562.224ZM738.635 579.504C732.947 579.504 729.635 575.112 729.635 569.712C729.635 564.312 733.163 559.92 738.455 559.92C744.035 559.92 747.023 564.24 747.023 570.396H732.623C732.839 574.176 734.891 577.056 738.635 577.056C741.335 577.056 743.135 575.76 743.783 573.24H746.627C745.763 577.236 742.847 579.504 738.635 579.504ZM738.455 562.224C734.999 562.224 733.127 564.816 732.695 568.2H743.891C743.711 564.492 741.803 562.224 738.455 562.224ZM752.791 560.388V563.484H752.863C753.979 561.684 755.923 560.172 758.407 560.172C758.947 560.172 759.235 560.244 759.595 560.388V563.196H759.487C759.055 563.052 758.767 563.016 758.191 563.016C755.311 563.016 752.791 565.176 752.791 568.668V579H749.875V560.388H752.791ZM762.214 579V560.388H765.13V579H762.214ZM762.214 556.86V553.26H765.13V556.86H762.214ZM772.021 560.388V562.836H772.093C773.425 561.072 775.297 559.956 777.997 559.956C781.885 559.956 784.261 562.08 784.261 565.932V579H781.345V566.184C781.345 563.772 779.761 562.404 777.133 562.404C774.181 562.404 772.021 564.492 772.021 567.552V579H769.105V560.388H772.021ZM795.541 585.192C790.717 585.192 787.981 583.248 787.657 580.044H790.357C790.645 582.096 792.589 582.888 795.469 582.888C798.889 582.888 800.797 581.34 800.797 578.1V575.472H800.725C799.357 577.236 797.881 578.352 795.217 578.352C790.393 578.352 787.081 574.5 787.081 569.136C787.081 563.34 790.717 559.956 795.037 559.956C797.737 559.956 799.465 561 800.725 562.764H800.797V560.388H803.713V577.992C803.713 582.888 800.473 585.192 795.541 585.192ZM795.361 575.904C799.645 575.904 801.013 572.916 801.013 568.992C801.013 564.924 799.285 562.404 795.325 562.404C791.833 562.404 790.069 565.14 790.069 569.172C790.069 573.24 791.905 575.904 795.361 575.904ZM812.214 562.764V560.388H814.914V554.52H817.83V560.388H821.43V562.764H817.83V574.86C817.83 576.156 818.514 576.588 819.702 576.588C820.278 576.588 820.926 576.444 821.25 576.336H821.358V578.856C820.674 579 819.882 579.108 819.018 579.108C816.642 579.108 814.914 578.136 814.914 575.508V562.764H812.214ZM832.221 579.504C826.533 579.504 823.221 575.112 823.221 569.712C823.221 564.312 826.749 559.92 832.041 559.92C837.621 559.92 840.609 564.24 840.609 570.396H826.209C826.425 574.176 828.477 577.056 832.221 577.056C834.921 577.056 836.721 575.76 837.369 573.24H840.213C839.349 577.236 836.433 579.504 832.221 579.504ZM832.041 562.224C828.585 562.224 826.713 564.816 826.281 568.2H837.477C837.297 564.492 835.389 562.224 832.041 562.224ZM858.076 579.18C856.168 579.18 855.16 578.316 854.872 576.408H854.836C853.72 577.848 851.812 579.36 848.644 579.36C845.116 579.36 842.344 577.704 842.344 574.176C842.344 569.784 845.8 568.884 850.444 568.164C853.072 567.768 854.908 567.516 854.908 565.5C854.908 563.412 853.396 562.224 850.732 562.224C847.708 562.224 846.196 563.52 846.088 566.328H843.28C843.388 562.728 845.764 560.028 850.696 560.028C854.656 560.028 857.572 561.504 857.572 565.932V574.788C857.572 576.3 857.932 577.128 859.552 576.768H859.66V578.892C859.3 579.036 858.832 579.18 858.076 579.18ZM849.292 577.128C853.18 577.128 854.944 574.284 854.944 572.124V568.956C853.972 569.568 852.28 570.036 850.696 570.324C847.78 570.864 845.44 571.368 845.44 574.104C845.44 576.588 847.384 577.128 849.292 577.128ZM861.812 579V560.388H864.728V563.052H864.8C865.952 561.252 867.932 559.956 870.272 559.956C872.54 559.956 874.34 561.108 875.132 563.268H875.204C876.392 561.144 878.624 559.956 880.892 559.956C884.204 559.956 886.544 562.08 886.544 565.932V579H883.628V566.076C883.628 563.772 882.08 562.404 880.208 562.404C877.796 562.404 875.636 564.492 875.636 567.408V579H872.72V566.076C872.72 563.772 871.424 562.404 869.516 562.404C867.248 562.404 864.728 564.492 864.728 567.408V579H861.812ZM897.45 579.54C892.338 579.54 889.494 577.128 889.206 572.952H892.194C892.59 576.192 894.75 577.092 897.522 577.092C900.582 577.092 901.842 575.76 901.842 574.032C901.842 571.944 900.402 571.404 896.982 570.684C893.31 569.928 890.034 569.172 890.034 565.104C890.034 562.008 892.41 559.992 896.73 559.992C901.338 559.992 903.606 562.188 904.038 565.824H901.05C900.762 563.376 899.43 562.296 896.658 562.296C893.994 562.296 892.914 563.484 892.914 564.96C892.914 566.976 894.714 567.372 897.918 568.02C901.662 568.776 904.794 569.604 904.794 573.888C904.794 577.632 901.734 579.54 897.45 579.54ZM928.076 579H925.16V576.444H925.088C923.756 578.244 922.172 579.432 919.472 579.432C915.656 579.432 913.208 577.128 913.208 573.276V560.388H916.124V573.204C916.124 575.616 917.672 577.02 920.3 577.02C923.252 577.02 925.16 574.788 925.16 571.836V560.388H928.076V579ZM939.075 579.54C933.963 579.54 931.119 577.128 930.831 572.952H933.819C934.215 576.192 936.375 577.092 939.147 577.092C942.207 577.092 943.467 575.76 943.467 574.032C943.467 571.944 942.027 571.404 938.607 570.684C934.935 569.928 931.659 569.172 931.659 565.104C931.659 562.008 934.035 559.992 938.355 559.992C942.963 559.992 945.231 562.188 945.663 565.824H942.675C942.387 563.376 941.055 562.296 938.283 562.296C935.619 562.296 934.539 563.484 934.539 564.96C934.539 566.976 936.339 567.372 939.543 568.02C943.287 568.776 946.419 569.604 946.419 573.888C946.419 577.632 943.359 579.54 939.075 579.54ZM957.518 579.504C951.83 579.504 948.518 575.112 948.518 569.712C948.518 564.312 952.046 559.92 957.338 559.92C962.918 559.92 965.906 564.24 965.906 570.396H951.506C951.722 574.176 953.774 577.056 957.518 577.056C960.218 577.056 962.018 575.76 962.666 573.24H965.51C964.646 577.236 961.73 579.504 957.518 579.504ZM957.338 562.224C953.882 562.224 952.01 564.816 951.578 568.2H962.774C962.594 564.492 960.686 562.224 957.338 562.224ZM974.488 579V560.388H977.404V579H974.488ZM974.488 556.86V553.26H977.404V556.86H974.488ZM980.19 562.764V560.388H982.89V554.52H985.806V560.388H989.406V562.764H985.806V574.86C985.806 576.156 986.49 576.588 987.678 576.588C988.254 576.588 988.902 576.444 989.226 576.336H989.334V578.856C988.65 579 987.858 579.108 986.994 579.108C984.618 579.108 982.89 578.136 982.89 575.508V562.764H980.19Z" fill="black"/>
</svg>
