<svg width="1440" height="1024" viewBox="0 0 1440 1024" fill="none" xmlns="http://www.w3.org/2000/svg">
<rect width="1440" height="1024" fill="#F7F7F7"/>
<path d="M236.43 286C236.56 278.525 239.875 274.235 244.295 270.53C248.325 267.085 253.525 263.835 257.035 260.715C258.855 259.09 259.96 257.4 259.96 255.19C259.96 251.745 257.945 249.405 254.175 249.405C252.095 249.405 250.47 250.055 249.365 251.42C248.065 252.915 247.415 254.93 247.35 257.985H237.08C237.08 252.785 237.99 249.6 240.135 246.675C242.67 243.035 247.48 240.565 254.435 240.565C265.16 240.565 270.945 246.935 270.945 254.8C270.945 260.975 267.5 264.55 263.535 267.605C259.57 270.855 254.76 273.585 251.64 276.9V276.965H271.01V286H236.43ZM294.341 278.46C300.386 278.46 302.726 272.545 302.726 263.77C302.726 255.125 300.321 249.015 294.341 249.015C288.361 249.015 285.891 255.06 285.891 263.77C285.891 272.48 288.361 278.46 294.341 278.46ZM294.276 287.04C282.706 287.04 274.646 277.94 274.646 263.77C274.646 249.6 282.641 240.5 294.341 240.5C306.301 240.5 314.036 249.6 314.036 263.77C314.036 277.94 306.106 287.04 294.276 287.04ZM328.747 260.91C331.477 260.91 332.647 257.92 332.647 253.565C332.647 249.21 331.477 246.025 328.747 246.025C326.017 246.025 324.847 249.21 324.847 253.565C324.847 257.855 326.017 260.91 328.747 260.91ZM328.747 266.565C321.922 266.565 316.852 261.43 316.852 253.565C316.852 245.635 321.857 240.5 328.747 240.5C335.767 240.5 340.642 245.635 340.642 253.565C340.642 261.43 335.637 266.565 328.747 266.565ZM328.747 286L352.732 241.41H358.842L334.792 286H328.747ZM358.842 281.45C361.572 281.45 362.742 278.395 362.742 274.04C362.742 269.75 361.507 266.565 358.842 266.565C356.047 266.565 354.942 269.685 354.942 274.04C354.942 278.395 356.047 281.45 358.842 281.45ZM358.777 287.105C351.952 287.105 346.882 281.97 346.882 274.04C346.882 266.175 351.952 261.04 358.777 261.04C365.862 261.04 370.737 266.11 370.737 274.04C370.737 281.97 365.732 287.105 358.777 287.105ZM385.26 286V239.525H419.84V249.21H396.765V258.635H416.07V267.93H396.765V286H385.26ZM437.042 286.975C426.057 286.975 419.297 279.37 419.297 269.295C419.297 259.35 426.252 251.745 436.392 251.745C441.137 251.745 444.907 253.305 447.767 255.905C451.732 259.545 453.682 265.33 453.617 272.09H429.697C430.347 276.575 432.817 279.37 437.172 279.37C439.967 279.37 441.787 278.135 442.697 276.055H453.032C452.317 279.045 450.367 281.905 447.442 283.92C444.647 285.87 441.267 286.975 437.042 286.975ZM429.762 265.785H442.892C442.502 261.82 440.032 259.285 436.587 259.285C432.557 259.285 430.477 261.82 429.762 265.785ZM473.414 286.975C462.429 286.975 455.669 279.37 455.669 269.295C455.669 259.35 462.624 251.745 472.764 251.745C477.509 251.745 481.279 253.305 484.139 255.905C488.104 259.545 490.054 265.33 489.989 272.09H466.069C466.719 276.575 469.189 279.37 473.544 279.37C476.339 279.37 478.159 278.135 479.069 276.055H489.404C488.689 279.045 486.739 281.905 483.814 283.92C481.019 285.87 477.639 286.975 473.414 286.975ZM466.134 265.785H479.264C478.874 261.82 476.404 259.285 472.959 259.285C468.929 259.285 466.849 261.82 466.134 265.785ZM506.601 287.04C498.086 287.04 492.041 280.475 492.041 269.36C492.041 258.96 498.021 251.745 506.601 251.745C511.281 251.745 513.946 253.695 515.896 256.49H516.091V239.525H526.686V286H516.546V281.515H516.416C514.401 284.96 510.956 287.04 506.601 287.04ZM509.331 278.655C513.751 278.655 516.351 274.82 516.351 269.36C516.351 263.77 514.076 259.74 509.461 259.74C505.236 259.74 502.766 263.64 502.766 269.23C502.766 275.015 505.236 278.655 509.331 278.655ZM552.094 287.04C547.674 287.04 544.099 285.22 542.019 281.775H541.889V286H531.749V239.525H542.344V256.49H542.539C544.619 253.63 547.479 251.745 552.029 251.745C560.674 251.745 566.264 259.35 566.264 269.36C566.264 280.41 560.674 287.04 552.094 287.04ZM549.104 278.655C553.264 278.655 555.539 275.08 555.539 269.295C555.539 263.575 553.264 259.805 548.974 259.805C544.294 259.805 542.019 263.9 542.019 269.36C542.019 274.885 544.749 278.655 549.104 278.655ZM579.65 286.845C573.02 286.845 568.275 283.27 568.275 276.705C568.275 269.36 574.125 267.15 581.015 266.24C587.255 265.46 589.465 264.81 589.465 262.535C589.465 260.39 588.1 258.96 584.915 258.96C581.535 258.96 579.845 260.455 579.52 263.25H569.77C570.03 257.075 574.775 251.81 584.85 251.81C589.855 251.81 593.235 252.72 595.64 254.54C598.5 256.62 599.865 259.87 599.865 264.03V280.8C599.865 283.465 600.125 284.96 601.035 285.545V286H590.765C590.245 285.285 589.92 283.985 589.66 282.295H589.53C587.58 285.09 584.655 286.845 579.65 286.845ZM583.03 280.085C586.995 280.085 589.725 277.68 589.725 274.105V270.14C588.36 270.855 586.41 271.375 584.265 271.895C580.17 272.805 578.48 273.845 578.48 276.38C578.48 279.045 580.43 280.085 583.03 280.085ZM621.186 287.04C610.461 287.04 603.506 279.435 603.506 269.425C603.506 259.415 610.396 251.81 620.926 251.81C629.961 251.81 635.746 257.075 636.721 264.55H626.516C625.866 261.56 624.046 259.61 621.056 259.61C616.506 259.61 614.231 263.38 614.231 269.425C614.231 275.34 616.506 279.11 621.056 279.11C624.371 279.11 626.386 277.16 626.841 273.39H636.981C636.721 281.06 630.611 287.04 621.186 287.04ZM640.357 286V239.525H650.822V263.965L660.702 252.72H672.922L661.222 265.2L674.287 286H662.002L654.007 272.415L650.822 275.795V286H640.357Z" fill="black"/>
<path d="M236.764 363V337.26H243.172L250.804 350.184C251.2 350.904 252.568 353.46 252.568 353.46H252.64C252.64 353.46 252.568 350.364 252.568 349.464V337.26H258.796V363H252.388L244.828 350.256C244.396 349.572 242.992 346.8 242.992 346.8H242.92C242.92 346.8 242.992 350.112 242.992 351.012V363H236.764ZM270.963 359.4C273.519 359.4 274.887 357.168 274.887 353.82C274.887 350.472 273.519 348.204 270.963 348.204C268.407 348.204 267.075 350.472 267.075 353.82C267.075 357.168 268.407 359.4 270.963 359.4ZM270.999 363.576C265.095 363.576 261.135 359.364 261.135 353.82C261.135 348.276 265.095 344.064 270.999 344.064C276.939 344.064 280.827 348.276 280.827 353.82C280.827 359.364 276.939 363.576 270.999 363.576ZM289.767 363.216C286.347 363.216 283.899 362.1 283.899 358.14V348.24H281.451V344.568H283.899V338.736H289.623V344.568H292.971V348.24H289.623V356.88C289.623 358.32 290.415 358.68 291.675 358.68C292.179 358.68 292.755 358.644 292.971 358.644V362.928C292.467 363.072 291.351 363.216 289.767 363.216ZM300.867 363.468C297.195 363.468 294.567 361.488 294.567 357.852C294.567 353.784 297.807 352.56 301.623 352.056C305.079 351.624 306.303 351.264 306.303 350.004C306.303 348.816 305.547 348.024 303.783 348.024C301.911 348.024 300.975 348.852 300.795 350.4H295.395C295.539 346.98 298.167 344.064 303.747 344.064C306.519 344.064 308.391 344.568 309.723 345.576C311.307 346.728 312.063 348.528 312.063 350.832V360.12C312.063 361.596 312.207 362.424 312.711 362.748V363H307.023C306.735 362.604 306.555 361.884 306.411 360.948H306.339C305.259 362.496 303.639 363.468 300.867 363.468ZM302.739 359.724C304.935 359.724 306.447 358.392 306.447 356.412V354.216C305.691 354.612 304.611 354.9 303.423 355.188C301.155 355.692 300.219 356.268 300.219 357.672C300.219 359.148 301.299 359.724 302.739 359.724ZM326.176 363.576C323.728 363.576 321.748 362.568 320.596 360.66H320.524V363H314.908V337.26H320.776V346.656H320.884C322.036 345.072 323.62 344.028 326.14 344.028C330.928 344.028 334.024 348.24 334.024 353.784C334.024 359.904 330.928 363.576 326.176 363.576ZM324.52 358.932C326.824 358.932 328.084 356.952 328.084 353.748C328.084 350.58 326.824 348.492 324.448 348.492C321.856 348.492 320.596 350.76 320.596 353.784C320.596 356.844 322.108 358.932 324.52 358.932ZM336.038 363V337.26H341.978V363H336.038ZM353.826 363.54C347.742 363.54 343.998 359.328 343.998 353.748C343.998 348.24 347.85 344.028 353.466 344.028C356.094 344.028 358.182 344.892 359.766 346.332C361.962 348.348 363.042 351.552 363.006 355.296H349.758C350.118 357.78 351.486 359.328 353.898 359.328C355.446 359.328 356.454 358.644 356.958 357.492H362.682C362.286 359.148 361.206 360.732 359.586 361.848C358.038 362.928 356.166 363.54 353.826 363.54ZM349.794 351.804H357.066C356.85 349.608 355.482 348.204 353.574 348.204C351.342 348.204 350.19 349.608 349.794 351.804ZM370.56 369.084V344.568H376.176V346.8H376.284C377.544 345.144 379.344 344.028 381.864 344.028C386.76 344.028 389.748 348.24 389.748 353.784C389.748 359.76 386.544 363.576 381.72 363.576C379.344 363.576 377.652 362.64 376.5 361.092H376.428V369.084H370.56ZM380.208 359.04C382.44 359.04 383.808 357.132 383.808 354C383.808 350.832 382.62 348.744 380.1 348.744C377.544 348.744 376.248 351.012 376.248 354C376.248 356.988 377.688 359.04 380.208 359.04ZM400.724 359.4C403.28 359.4 404.648 357.168 404.648 353.82C404.648 350.472 403.28 348.204 400.724 348.204C398.168 348.204 396.836 350.472 396.836 353.82C396.836 357.168 398.168 359.4 400.724 359.4ZM400.76 363.576C394.856 363.576 390.896 359.364 390.896 353.82C390.896 348.276 394.856 344.064 400.76 344.064C406.7 344.064 410.588 348.276 410.588 353.82C410.588 359.364 406.7 363.576 400.76 363.576ZM412.572 363V344.568H418.44V363H412.572ZM412.572 342.012V337.26H418.44V342.012H412.572ZM421.256 363V344.568H426.908V347.088H427.016C428.384 345.108 430.148 344.028 432.704 344.028C436.736 344.028 439.112 346.908 439.112 351.012V363H433.244V352.2C433.244 350.256 432.272 348.924 430.364 348.924C428.42 348.924 427.124 350.544 427.124 352.812V363H421.256ZM448.743 363.216C445.323 363.216 442.875 362.1 442.875 358.14V348.24H440.427V344.568H442.875V338.736H448.599V344.568H451.947V348.24H448.599V356.88C448.599 358.32 449.391 358.68 450.651 358.68C451.155 358.68 451.731 358.644 451.947 358.644V362.928C451.443 363.072 450.327 363.216 448.743 363.216ZM462.256 363.576C456.856 363.576 453.472 361.092 453.292 357.024H458.836C459.052 358.86 460.276 359.76 462.22 359.76C463.984 359.76 465.1 359.112 465.1 357.924C465.1 356.268 462.868 356.088 460.42 355.656C457.216 355.116 453.796 354.252 453.796 349.932C453.796 346.044 457.396 344.028 461.752 344.028C466.972 344.028 469.78 346.296 470.068 349.932H464.668C464.452 348.276 463.336 347.772 461.716 347.772C460.276 347.772 459.16 348.312 459.16 349.464C459.16 350.76 461.248 350.94 463.588 351.372C466.828 351.912 470.644 352.74 470.644 357.456C470.644 361.488 467.08 363.576 462.256 363.576ZM472.58 363V356.952H478.736V363H472.58ZM472.58 351.84V345.792H478.736V351.84H472.58Z" fill="black"/>
<path d="M237.412 417V391.26H248.14C250.84 391.26 252.928 392.16 254.26 393.744C255.34 395.004 255.988 396.696 255.988 398.64C255.988 403.356 253.288 406.2 247.672 406.2H240.652V417H237.412ZM240.652 394.068V403.572H247.42C251.056 403.572 252.784 401.736 252.784 398.784C252.784 395.688 250.876 394.068 247.6 394.068H240.652ZM258.779 417V391.26H261.695V417H258.779ZM280.389 417.18C278.481 417.18 277.473 416.316 277.185 414.408H277.149C276.033 415.848 274.125 417.36 270.957 417.36C267.429 417.36 264.657 415.704 264.657 412.176C264.657 407.784 268.113 406.884 272.757 406.164C275.385 405.768 277.221 405.516 277.221 403.5C277.221 401.412 275.709 400.224 273.045 400.224C270.021 400.224 268.509 401.52 268.401 404.328H265.593C265.701 400.728 268.077 398.028 273.009 398.028C276.969 398.028 279.885 399.504 279.885 403.932V412.788C279.885 414.3 280.245 415.128 281.865 414.768H281.973V416.892C281.613 417.036 281.145 417.18 280.389 417.18ZM271.605 415.128C275.493 415.128 277.257 412.284 277.257 410.124V406.956C276.285 407.568 274.593 408.036 273.009 408.324C270.093 408.864 267.753 409.368 267.753 412.104C267.753 414.588 269.697 415.128 271.605 415.128ZM287.041 398.388V400.836H287.113C288.445 399.072 290.317 397.956 293.017 397.956C296.905 397.956 299.281 400.08 299.281 403.932V417H296.365V404.184C296.365 401.772 294.781 400.404 292.153 400.404C289.201 400.404 287.041 402.492 287.041 405.552V417H284.125V398.388H287.041ZM310.2 417.54C305.088 417.54 302.244 415.128 301.956 410.952H304.944C305.34 414.192 307.5 415.092 310.272 415.092C313.332 415.092 314.592 413.76 314.592 412.032C314.592 409.944 313.152 409.404 309.732 408.684C306.06 407.928 302.784 407.172 302.784 403.104C302.784 400.008 305.16 397.992 309.48 397.992C314.088 397.992 316.356 400.188 316.788 403.824H313.8C313.512 401.376 312.18 400.296 309.408 400.296C306.744 400.296 305.664 401.484 305.664 402.96C305.664 404.976 307.464 405.372 310.668 406.02C314.412 406.776 317.544 407.604 317.544 411.888C317.544 415.632 314.484 417.54 310.2 417.54ZM324.878 400.764V398.388H327.434V395.4C327.434 392.196 329.27 391.044 332.366 391.044C332.978 391.044 333.446 391.08 333.842 391.116V393.6C333.338 393.564 333.194 393.564 332.906 393.564C331.034 393.564 330.35 394.032 330.35 395.544V398.388H333.806V400.764H330.35V417H327.434V400.764H324.878ZM344.077 417.504C338.533 417.504 335.077 413.112 335.077 407.712C335.077 402.312 338.533 397.92 344.077 397.92C349.657 397.92 353.041 402.312 353.041 407.712C353.041 413.112 349.657 417.504 344.077 417.504ZM344.077 415.056C348.037 415.056 350.053 411.816 350.053 407.712C350.053 403.608 348.037 400.332 344.077 400.332C340.117 400.332 338.065 403.608 338.065 407.712C338.065 411.816 340.117 415.056 344.077 415.056ZM358.865 398.388V401.484H358.937C360.053 399.684 361.997 398.172 364.481 398.172C365.021 398.172 365.309 398.244 365.669 398.388V401.196H365.561C365.129 401.052 364.841 401.016 364.265 401.016C361.385 401.016 358.865 403.176 358.865 406.668V417H355.949V398.388H358.865ZM372.831 400.764V398.388H375.531V392.52H378.447V398.388H382.047V400.764H378.447V412.86C378.447 414.156 379.131 414.588 380.319 414.588C380.895 414.588 381.543 414.444 381.867 414.336H381.975V416.856C381.291 417 380.499 417.108 379.635 417.108C377.259 417.108 375.531 416.136 375.531 413.508V400.764H372.831ZM389.478 417L383.574 398.388H386.706L389.982 409.872C390.414 411.42 390.99 413.868 390.99 413.868H391.062C391.062 413.868 391.602 411.42 391.998 409.944L395.13 398.388H398.19L401.214 409.944C401.61 411.456 402.114 413.868 402.114 413.868H402.186C402.186 413.868 402.762 411.42 403.23 409.872L406.686 398.388H409.71L403.626 417H400.638L397.542 405.732C397.11 404.184 396.642 401.844 396.642 401.844H396.57C396.57 401.844 396.066 404.184 395.634 405.732L392.502 417H389.478ZM419.452 417.504C413.908 417.504 410.452 413.112 410.452 407.712C410.452 402.312 413.908 397.92 419.452 397.92C425.032 397.92 428.416 402.312 428.416 407.712C428.416 413.112 425.032 417.504 419.452 417.504ZM419.452 415.056C423.412 415.056 425.428 411.816 425.428 407.712C425.428 403.608 423.412 400.332 419.452 400.332C415.492 400.332 413.44 403.608 413.44 407.712C413.44 411.816 415.492 415.056 419.452 415.056ZM451.67 417.18C449.762 417.18 448.754 416.316 448.466 414.408H448.43C447.314 415.848 445.406 417.36 442.238 417.36C438.71 417.36 435.938 415.704 435.938 412.176C435.938 407.784 439.394 406.884 444.038 406.164C446.666 405.768 448.502 405.516 448.502 403.5C448.502 401.412 446.99 400.224 444.326 400.224C441.302 400.224 439.79 401.52 439.682 404.328H436.874C436.982 400.728 439.358 398.028 444.29 398.028C448.25 398.028 451.166 399.504 451.166 403.932V412.788C451.166 414.3 451.526 415.128 453.146 414.768H453.254V416.892C452.894 417.036 452.426 417.18 451.67 417.18ZM442.886 415.128C446.774 415.128 448.538 412.284 448.538 410.124V406.956C447.566 407.568 445.874 408.036 444.29 408.324C441.374 408.864 439.034 409.368 439.034 412.104C439.034 414.588 440.978 415.128 442.886 415.128ZM462.606 417.54C457.53 417.54 454.362 413.724 454.362 407.748C454.362 401.556 457.926 397.956 462.534 397.956C465.162 397.956 467.178 399.252 468.366 401.016H468.438V391.26H471.354V417H468.438V414.732H468.366C466.962 416.532 465.234 417.54 462.606 417.54ZM462.714 415.092C466.854 415.092 468.618 411.996 468.618 407.784C468.618 403.464 466.53 400.44 462.678 400.44C459.15 400.44 457.35 403.608 457.35 407.784C457.35 411.996 459.15 415.092 462.714 415.092ZM482.504 417.54C477.428 417.54 474.26 413.724 474.26 407.748C474.26 401.556 477.824 397.956 482.432 397.956C485.06 397.956 487.076 399.252 488.264 401.016H488.336V391.26H491.252V417H488.336V414.732H488.264C486.86 416.532 485.132 417.54 482.504 417.54ZM482.612 415.092C486.752 415.092 488.516 411.996 488.516 407.784C488.516 403.464 486.428 400.44 482.576 400.44C479.048 400.44 477.248 403.608 477.248 407.784C477.248 411.996 479.048 415.092 482.612 415.092ZM495.203 417V398.388H498.119V417H495.203ZM495.203 394.86V391.26H498.119V394.86H495.203ZM500.905 400.764V398.388H503.605V392.52H506.521V398.388H510.121V400.764H506.521V412.86C506.521 414.156 507.205 414.588 508.393 414.588C508.969 414.588 509.617 414.444 509.941 414.336H510.049V416.856C509.365 417 508.573 417.108 507.709 417.108C505.333 417.108 503.605 416.136 503.605 413.508V400.764H500.905ZM513.132 417V398.388H516.048V417H513.132ZM513.132 394.86V391.26H516.048V394.86H513.132ZM527.979 417.504C522.435 417.504 518.979 413.112 518.979 407.712C518.979 402.312 522.435 397.92 527.979 397.92C533.559 397.92 536.943 402.312 536.943 407.712C536.943 413.112 533.559 417.504 527.979 417.504ZM527.979 415.056C531.939 415.056 533.955 411.816 533.955 407.712C533.955 403.608 531.939 400.332 527.979 400.332C524.019 400.332 521.967 403.608 521.967 407.712C521.967 411.816 524.019 415.056 527.979 415.056ZM542.767 398.388V400.836H542.839C544.171 399.072 546.043 397.956 548.743 397.956C552.631 397.956 555.007 400.08 555.007 403.932V417H552.091V404.184C552.091 401.772 550.507 400.404 547.879 400.404C544.927 400.404 542.767 402.492 542.767 405.552V417H539.851V398.388H542.767ZM573.487 417.18C571.579 417.18 570.571 416.316 570.283 414.408H570.247C569.131 415.848 567.223 417.36 564.055 417.36C560.527 417.36 557.755 415.704 557.755 412.176C557.755 407.784 561.211 406.884 565.855 406.164C568.483 405.768 570.319 405.516 570.319 403.5C570.319 401.412 568.807 400.224 566.143 400.224C563.119 400.224 561.607 401.52 561.499 404.328H558.691C558.799 400.728 561.175 398.028 566.107 398.028C570.067 398.028 572.983 399.504 572.983 403.932V412.788C572.983 414.3 573.343 415.128 574.963 414.768H575.071V416.892C574.711 417.036 574.243 417.18 573.487 417.18ZM564.703 415.128C568.591 415.128 570.355 412.284 570.355 410.124V406.956C569.383 407.568 567.691 408.036 566.107 408.324C563.191 408.864 560.851 409.368 560.851 412.104C560.851 414.588 562.795 415.128 564.703 415.128ZM577.33 417V391.26H580.246V417H577.33ZM594.662 417L588.146 398.388H591.278L595.13 410.196C595.67 411.852 596.354 414.12 596.354 414.12H596.426C596.426 414.12 597.11 411.816 597.65 410.196L601.574 398.388H604.598L597.902 417H594.662ZM606.648 417V398.388H609.564V417H606.648ZM606.648 394.86V391.26H609.564V394.86H606.648ZM621.495 417.504C615.807 417.504 612.495 413.112 612.495 407.712C612.495 402.312 616.023 397.92 621.315 397.92C626.895 397.92 629.883 402.24 629.883 408.396H615.483C615.699 412.176 617.751 415.056 621.495 415.056C624.195 415.056 625.995 413.76 626.643 411.24H629.487C628.623 415.236 625.707 417.504 621.495 417.504ZM621.315 400.224C617.859 400.224 615.987 402.816 615.555 406.2H626.751C626.571 402.492 624.663 400.224 621.315 400.224ZM636.45 417L630.546 398.388H633.678L636.954 409.872C637.386 411.42 637.962 413.868 637.962 413.868H638.034C638.034 413.868 638.574 411.42 638.97 409.944L642.102 398.388H645.162L648.186 409.944C648.582 411.456 649.086 413.868 649.086 413.868H649.158C649.158 413.868 649.734 411.42 650.202 409.872L653.658 398.388H656.682L650.598 417H647.61L644.514 405.732C644.082 404.184 643.614 401.844 643.614 401.844H643.542C643.542 401.844 643.038 404.184 642.606 405.732L639.474 417H636.45ZM665.7 417.54C660.588 417.54 657.744 415.128 657.456 410.952H660.444C660.84 414.192 663 415.092 665.772 415.092C668.832 415.092 670.092 413.76 670.092 412.032C670.092 409.944 668.652 409.404 665.232 408.684C661.56 407.928 658.284 407.172 658.284 403.104C658.284 400.008 660.66 397.992 664.98 397.992C669.588 397.992 671.856 400.188 672.288 403.824H669.3C669.012 401.376 667.68 400.296 664.908 400.296C662.244 400.296 661.164 401.484 661.164 402.96C661.164 404.976 662.964 405.372 666.168 406.02C669.912 406.776 673.044 407.604 673.044 411.888C673.044 415.632 669.984 417.54 665.7 417.54ZM675.547 406.092V402.528H679.039V406.092H675.547ZM675.547 417V413.436H679.039V417H675.547ZM696.413 417.504C690.725 417.504 687.413 413.112 687.413 407.712C687.413 402.312 690.941 397.92 696.233 397.92C701.813 397.92 704.801 402.24 704.801 408.396H690.401C690.617 412.176 692.669 415.056 696.413 415.056C699.113 415.056 700.913 413.76 701.561 411.24H704.405C703.541 415.236 700.625 417.504 696.413 417.504ZM696.233 400.224C692.777 400.224 690.905 402.816 690.473 406.2H701.669C701.489 402.492 699.581 400.224 696.233 400.224ZM710.568 398.388V401.484H710.64C711.756 399.684 713.7 398.172 716.184 398.172C716.724 398.172 717.012 398.244 717.372 398.388V401.196H717.264C716.832 401.052 716.544 401.016 715.968 401.016C713.088 401.016 710.568 403.176 710.568 406.668V417H707.652V398.388H710.568ZM722.908 398.388V401.484H722.98C724.096 399.684 726.04 398.172 728.524 398.172C729.064 398.172 729.352 398.244 729.712 398.388V401.196H729.604C729.172 401.052 728.884 401.016 728.308 401.016C725.428 401.016 722.908 403.176 722.908 406.668V417H719.992V398.388H722.908ZM739.584 417.504C734.04 417.504 730.584 413.112 730.584 407.712C730.584 402.312 734.04 397.92 739.584 397.92C745.164 397.92 748.548 402.312 748.548 407.712C748.548 413.112 745.164 417.504 739.584 417.504ZM739.584 415.056C743.544 415.056 745.56 411.816 745.56 407.712C745.56 403.608 743.544 400.332 739.584 400.332C735.624 400.332 733.572 403.608 733.572 407.712C733.572 411.816 735.624 415.056 739.584 415.056ZM754.373 398.388V401.484H754.445C755.561 399.684 757.505 398.172 759.989 398.172C760.529 398.172 760.817 398.244 761.177 398.388V401.196H761.069C760.637 401.052 760.349 401.016 759.773 401.016C756.893 401.016 754.373 403.176 754.373 406.668V417H751.457V398.388H754.373ZM770.852 417.54C765.74 417.54 762.896 415.128 762.608 410.952H765.596C765.992 414.192 768.152 415.092 770.924 415.092C773.984 415.092 775.244 413.76 775.244 412.032C775.244 409.944 773.804 409.404 770.384 408.684C766.712 407.928 763.436 407.172 763.436 403.104C763.436 400.008 765.812 397.992 770.132 397.992C774.74 397.992 777.008 400.188 777.44 403.824H774.452C774.164 401.376 772.832 400.296 770.06 400.296C767.396 400.296 766.316 401.484 766.316 402.96C766.316 404.976 768.116 405.372 771.32 406.02C775.064 406.776 778.196 407.604 778.196 411.888C778.196 415.632 775.136 417.54 770.852 417.54ZM801.334 417.18C799.426 417.18 798.418 416.316 798.13 414.408H798.094C796.978 415.848 795.07 417.36 791.902 417.36C788.374 417.36 785.602 415.704 785.602 412.176C785.602 407.784 789.058 406.884 793.702 406.164C796.33 405.768 798.166 405.516 798.166 403.5C798.166 401.412 796.654 400.224 793.99 400.224C790.966 400.224 789.454 401.52 789.346 404.328H786.538C786.646 400.728 789.022 398.028 793.954 398.028C797.914 398.028 800.83 399.504 800.83 403.932V412.788C800.83 414.3 801.19 415.128 802.81 414.768H802.918V416.892C802.558 417.036 802.09 417.18 801.334 417.18ZM792.55 415.128C796.438 415.128 798.202 412.284 798.202 410.124V406.956C797.23 407.568 795.538 408.036 793.954 408.324C791.038 408.864 788.698 409.368 788.698 412.104C788.698 414.588 790.642 415.128 792.55 415.128ZM807.986 398.388V400.836H808.058C809.39 399.072 811.262 397.956 813.962 397.956C817.85 397.956 820.226 400.08 820.226 403.932V417H817.31V404.184C817.31 401.772 815.726 400.404 813.098 400.404C810.146 400.404 807.986 402.492 807.986 405.552V417H805.07V398.388H807.986ZM831.289 417.54C826.213 417.54 823.045 413.724 823.045 407.748C823.045 401.556 826.609 397.956 831.217 397.956C833.845 397.956 835.861 399.252 837.049 401.016H837.121V391.26H840.037V417H837.121V414.732H837.049C835.645 416.532 833.917 417.54 831.289 417.54ZM831.397 415.092C835.537 415.092 837.301 411.996 837.301 407.784C837.301 403.464 835.213 400.44 831.361 400.44C827.833 400.44 826.033 403.608 826.033 407.784C826.033 411.996 827.833 415.092 831.397 415.092ZM849.718 417V398.388H852.634V401.052H852.706C853.858 399.252 855.838 397.956 858.178 397.956C860.446 397.956 862.246 399.108 863.038 401.268H863.11C864.298 399.144 866.53 397.956 868.798 397.956C872.11 397.956 874.45 400.08 874.45 403.932V417H871.534V404.076C871.534 401.772 869.986 400.404 868.114 400.404C865.702 400.404 863.542 402.492 863.542 405.408V417H860.626V404.076C860.626 401.772 859.33 400.404 857.422 400.404C855.154 400.404 852.634 402.492 852.634 405.408V417H849.718ZM886.256 417.504C880.568 417.504 877.256 413.112 877.256 407.712C877.256 402.312 880.784 397.92 886.076 397.92C891.656 397.92 894.644 402.24 894.644 408.396H880.244C880.46 412.176 882.512 415.056 886.256 415.056C888.956 415.056 890.756 413.76 891.404 411.24H894.248C893.384 415.236 890.468 417.504 886.256 417.504ZM886.076 400.224C882.62 400.224 880.748 402.816 880.316 406.2H891.512C891.332 402.492 889.424 400.224 886.076 400.224ZM895.956 400.764V398.388H898.656V392.52H901.572V398.388H905.172V400.764H901.572V412.86C901.572 414.156 902.256 414.588 903.444 414.588C904.02 414.588 904.668 414.444 904.992 414.336H905.1V416.856C904.416 417 903.624 417.108 902.76 417.108C900.384 417.108 898.656 416.136 898.656 413.508V400.764H895.956ZM911.099 398.388V401.484H911.171C912.287 399.684 914.231 398.172 916.715 398.172C917.255 398.172 917.543 398.244 917.903 398.388V401.196H917.795C917.363 401.052 917.075 401.016 916.499 401.016C913.619 401.016 911.099 403.176 911.099 406.668V417H908.183V398.388H911.099ZM920.523 417V398.388H923.439V417H920.523ZM920.523 394.86V391.26H923.439V394.86H920.523ZM935.37 417.504C929.826 417.504 926.37 413.112 926.37 407.712C926.37 402.312 929.826 397.92 935.37 397.92C939.762 397.92 942.678 400.44 943.326 404.4H940.374C939.942 401.88 938.178 400.332 935.37 400.332C931.41 400.332 929.358 403.608 929.358 407.712C929.358 411.816 931.41 415.056 935.37 415.056C938.394 415.056 940.194 413.328 940.446 410.448H943.326C942.93 414.912 940.014 417.504 935.37 417.504ZM953.489 417.54C948.377 417.54 945.533 415.128 945.245 410.952H948.233C948.629 414.192 950.789 415.092 953.561 415.092C956.621 415.092 957.881 413.76 957.881 412.032C957.881 409.944 956.441 409.404 953.021 408.684C949.349 407.928 946.073 407.172 946.073 403.104C946.073 400.008 948.449 397.992 952.769 397.992C957.377 397.992 959.645 400.188 960.077 403.824H957.089C956.801 401.376 955.469 400.296 952.697 400.296C950.033 400.296 948.953 401.484 948.953 402.96C948.953 404.976 950.753 405.372 953.957 406.02C957.701 406.776 960.833 407.604 960.833 411.888C960.833 415.632 957.773 417.54 953.489 417.54Z" fill="black"/>
<path d="M237.412 471V445.26H240.652V456.204H254.404V445.26H257.644V471H254.404V458.832H240.652V471H237.412ZM276.662 471.18C274.754 471.18 273.746 470.316 273.458 468.408H273.422C272.306 469.848 270.398 471.36 267.23 471.36C263.702 471.36 260.93 469.704 260.93 466.176C260.93 461.784 264.386 460.884 269.03 460.164C271.658 459.768 273.494 459.516 273.494 457.5C273.494 455.412 271.982 454.224 269.318 454.224C266.294 454.224 264.782 455.52 264.674 458.328H261.866C261.974 454.728 264.35 452.028 269.282 452.028C273.242 452.028 276.158 453.504 276.158 457.932V466.788C276.158 468.3 276.518 469.128 278.138 468.768H278.246V470.892C277.886 471.036 277.418 471.18 276.662 471.18ZM267.878 469.128C271.766 469.128 273.53 466.284 273.53 464.124V460.956C272.558 461.568 270.866 462.036 269.282 462.324C266.366 462.864 264.026 463.368 264.026 466.104C264.026 468.588 265.97 469.128 267.878 469.128ZM287.454 471.54C282.342 471.54 279.498 469.128 279.21 464.952H282.198C282.594 468.192 284.754 469.092 287.526 469.092C290.586 469.092 291.846 467.76 291.846 466.032C291.846 463.944 290.406 463.404 286.986 462.684C283.314 461.928 280.038 461.172 280.038 457.104C280.038 454.008 282.414 451.992 286.734 451.992C291.342 451.992 293.61 454.188 294.042 457.824H291.054C290.766 455.376 289.434 454.296 286.662 454.296C283.998 454.296 282.918 455.484 282.918 456.96C282.918 458.976 284.718 459.372 287.922 460.02C291.666 460.776 294.798 461.604 294.798 465.888C294.798 469.632 291.738 471.54 287.454 471.54ZM300.505 445.26V454.836H300.577C301.909 453.072 303.781 451.956 306.481 451.956C310.369 451.956 312.745 454.08 312.745 457.932V471H309.829V458.184C309.829 455.772 308.245 454.404 305.617 454.404C302.665 454.404 300.505 456.492 300.505 459.552V471H297.589V445.26H300.505ZM324.565 471.504C318.877 471.504 315.565 467.112 315.565 461.712C315.565 456.312 319.093 451.92 324.385 451.92C329.965 451.92 332.953 456.24 332.953 462.396H318.553C318.769 466.176 320.821 469.056 324.565 469.056C327.265 469.056 329.065 467.76 329.713 465.24H332.557C331.693 469.236 328.777 471.504 324.565 471.504ZM324.385 454.224C320.929 454.224 319.057 456.816 318.625 460.2H329.821C329.641 456.492 327.733 454.224 324.385 454.224ZM343.004 471.54C337.928 471.54 334.76 467.724 334.76 461.748C334.76 455.556 338.324 451.956 342.932 451.956C345.56 451.956 347.576 453.252 348.764 455.016H348.836V445.26H351.752V471H348.836V468.732H348.764C347.36 470.532 345.632 471.54 343.004 471.54ZM343.112 469.092C347.252 469.092 349.016 465.996 349.016 461.784C349.016 457.464 346.928 454.44 343.076 454.44C339.548 454.44 337.748 457.608 337.748 461.784C337.748 465.996 339.548 469.092 343.112 469.092ZM369.389 471.504C363.845 471.504 360.389 467.112 360.389 461.712C360.389 456.312 363.845 451.92 369.389 451.92C374.969 451.92 378.353 456.312 378.353 461.712C378.353 467.112 374.969 471.504 369.389 471.504ZM369.389 469.056C373.349 469.056 375.365 465.816 375.365 461.712C375.365 457.608 373.349 454.332 369.389 454.332C365.429 454.332 363.377 457.608 363.377 461.712C363.377 465.816 365.429 469.056 369.389 469.056ZM396.021 471H393.105V468.444H393.033C391.701 470.244 390.117 471.432 387.417 471.432C383.601 471.432 381.153 469.128 381.153 465.276V452.388H384.069V465.204C384.069 467.616 385.617 469.02 388.245 469.02C391.197 469.02 393.105 466.788 393.105 463.836V452.388H396.021V471ZM398.776 454.764V452.388H401.476V446.52H404.392V452.388H407.992V454.764H404.392V466.86C404.392 468.156 405.076 468.588 406.264 468.588C406.84 468.588 407.488 468.444 407.812 468.336H407.92V470.856C407.236 471 406.444 471.108 405.58 471.108C403.204 471.108 401.476 470.136 401.476 467.508V454.764H398.776ZM423.934 471.54C418.858 471.54 415.69 467.724 415.69 461.748C415.69 455.556 419.254 451.956 423.862 451.956C426.49 451.956 428.506 453.252 429.694 455.016H429.766V445.26H432.682V471H429.766V468.732H429.694C428.29 470.532 426.562 471.54 423.934 471.54ZM424.042 469.092C428.182 469.092 429.946 465.996 429.946 461.784C429.946 457.464 427.858 454.44 424.006 454.44C420.478 454.44 418.678 457.608 418.678 461.784C418.678 465.996 420.478 469.092 424.042 469.092ZM444.588 471.504C438.9 471.504 435.588 467.112 435.588 461.712C435.588 456.312 439.116 451.92 444.408 451.92C449.988 451.92 452.976 456.24 452.976 462.396H438.576C438.792 466.176 440.844 469.056 444.588 469.056C447.288 469.056 449.088 467.76 449.736 465.24H452.58C451.716 469.236 448.8 471.504 444.588 471.504ZM444.408 454.224C440.952 454.224 439.08 456.816 438.648 460.2H449.844C449.664 456.492 447.756 454.224 444.408 454.224ZM454.288 454.764V452.388H456.988V446.52H459.904V452.388H463.504V454.764H459.904V466.86C459.904 468.156 460.588 468.588 461.776 468.588C462.352 468.588 463 468.444 463.324 468.336H463.432V470.856C462.748 471 461.956 471.108 461.092 471.108C458.716 471.108 456.988 470.136 456.988 467.508V454.764H454.288ZM481.131 471.18C479.223 471.18 478.215 470.316 477.927 468.408H477.891C476.775 469.848 474.867 471.36 471.699 471.36C468.171 471.36 465.399 469.704 465.399 466.176C465.399 461.784 468.855 460.884 473.499 460.164C476.127 459.768 477.963 459.516 477.963 457.5C477.963 455.412 476.451 454.224 473.787 454.224C470.763 454.224 469.251 455.52 469.143 458.328H466.335C466.443 454.728 468.819 452.028 473.751 452.028C477.711 452.028 480.627 453.504 480.627 457.932V466.788C480.627 468.3 480.987 469.128 482.607 468.768H482.715V470.892C482.355 471.036 481.887 471.18 481.131 471.18ZM472.347 469.128C476.235 469.128 477.999 466.284 477.999 464.124V460.956C477.027 461.568 475.335 462.036 473.751 462.324C470.835 462.864 468.495 463.368 468.495 466.104C468.495 468.588 470.439 469.128 472.347 469.128ZM484.867 471V452.388H487.783V471H484.867ZM484.867 448.86V445.26H487.783V448.86H484.867ZM491.865 471V445.26H494.781V471H491.865ZM505.915 471.54C500.803 471.54 497.959 469.128 497.671 464.952H500.659C501.055 468.192 503.215 469.092 505.987 469.092C509.047 469.092 510.307 467.76 510.307 466.032C510.307 463.944 508.867 463.404 505.447 462.684C501.775 461.928 498.499 461.172 498.499 457.104C498.499 454.008 500.875 451.992 505.195 451.992C509.803 451.992 512.071 454.188 512.503 457.824H509.515C509.227 455.376 507.895 454.296 505.123 454.296C502.459 454.296 501.379 455.484 501.379 456.96C501.379 458.976 503.179 459.372 506.383 460.02C510.127 460.776 513.259 461.604 513.259 465.888C513.259 469.632 510.199 471.54 505.915 471.54ZM529.737 471.504C524.193 471.504 520.737 467.112 520.737 461.712C520.737 456.312 524.193 451.92 529.737 451.92C535.317 451.92 538.701 456.312 538.701 461.712C538.701 467.112 535.317 471.504 529.737 471.504ZM529.737 469.056C533.697 469.056 535.713 465.816 535.713 461.712C535.713 457.608 533.697 454.332 529.737 454.332C525.777 454.332 523.725 457.608 523.725 461.712C523.725 465.816 525.777 469.056 529.737 469.056ZM544.525 452.388V454.836H544.597C545.929 453.072 547.801 451.956 550.501 451.956C554.389 451.956 556.765 454.08 556.765 457.932V471H553.849V458.184C553.849 455.772 552.265 454.404 549.637 454.404C546.685 454.404 544.525 456.492 544.525 459.552V471H541.609V452.388H544.525ZM570.967 471L564.451 452.388H567.583L571.435 464.196C571.975 465.852 572.659 468.12 572.659 468.12H572.731C572.731 468.12 573.415 465.816 573.955 464.196L577.879 452.388H580.903L574.207 471H570.967ZM582.953 471V452.388H585.869V471H582.953ZM582.953 448.86V445.26H585.869V448.86H582.953ZM604.459 471.18C602.551 471.18 601.543 470.316 601.255 468.408H601.219C600.103 469.848 598.195 471.36 595.027 471.36C591.499 471.36 588.727 469.704 588.727 466.176C588.727 461.784 592.183 460.884 596.827 460.164C599.455 459.768 601.291 459.516 601.291 457.5C601.291 455.412 599.779 454.224 597.115 454.224C594.091 454.224 592.579 455.52 592.471 458.328H589.663C589.771 454.728 592.147 452.028 597.079 452.028C601.039 452.028 603.955 453.504 603.955 457.932V466.788C603.955 468.3 604.315 469.128 605.935 468.768H606.043V470.892C605.683 471.036 605.215 471.18 604.459 471.18ZM595.675 469.128C599.563 469.128 601.327 466.284 601.327 464.124V460.956C600.355 461.568 598.663 462.036 597.079 462.324C594.163 462.864 591.823 463.368 591.823 466.104C591.823 468.588 593.767 469.128 595.675 469.128ZM617.051 471.54C614.531 471.54 612.695 470.64 611.183 468.552H611.111V471H608.195V445.26H611.111V455.052H611.183C612.587 453.144 614.459 451.956 617.159 451.956C621.875 451.956 625.079 455.556 625.079 461.748C625.079 467.724 622.091 471.54 617.051 471.54ZM616.835 469.092C620.399 469.092 622.091 465.996 622.091 461.784C622.091 457.608 620.399 454.44 616.871 454.44C612.803 454.44 610.931 457.752 610.931 461.784C610.931 465.96 612.875 469.092 616.835 469.092ZM628.096 471V445.26H631.012V471H628.096ZM643.045 471.504C637.357 471.504 634.045 467.112 634.045 461.712C634.045 456.312 637.573 451.92 642.865 451.92C648.445 451.92 651.433 456.24 651.433 462.396H637.033C637.249 466.176 639.301 469.056 643.045 469.056C645.745 469.056 647.545 467.76 648.193 465.24H651.037C650.173 469.236 647.257 471.504 643.045 471.504ZM642.865 454.224C639.409 454.224 637.537 456.816 637.105 460.2H648.301C648.121 456.492 646.213 454.224 642.865 454.224ZM667.215 471.54C662.139 471.54 658.971 467.724 658.971 461.748C658.971 455.556 662.535 451.956 667.143 451.956C669.771 451.956 671.787 453.252 672.975 455.016H673.047V445.26H675.963V471H673.047V468.732H672.975C671.571 470.532 669.843 471.54 667.215 471.54ZM667.323 469.092C671.463 469.092 673.227 465.996 673.227 461.784C673.227 457.464 671.139 454.44 667.287 454.44C663.759 454.44 661.959 457.608 661.959 461.784C661.959 465.996 663.759 469.092 667.323 469.092ZM694.53 471.18C692.622 471.18 691.614 470.316 691.326 468.408H691.29C690.174 469.848 688.266 471.36 685.098 471.36C681.57 471.36 678.798 469.704 678.798 466.176C678.798 461.784 682.254 460.884 686.898 460.164C689.526 459.768 691.362 459.516 691.362 457.5C691.362 455.412 689.85 454.224 687.186 454.224C684.162 454.224 682.65 455.52 682.542 458.328H679.734C679.842 454.728 682.218 452.028 687.15 452.028C691.11 452.028 694.026 453.504 694.026 457.932V466.788C694.026 468.3 694.386 469.128 696.006 468.768H696.114V470.892C695.754 471.036 695.286 471.18 694.53 471.18ZM685.746 469.128C689.634 469.128 691.398 466.284 691.398 464.124V460.956C690.426 461.568 688.734 462.036 687.15 462.324C684.234 462.864 681.894 463.368 681.894 466.104C681.894 468.588 683.838 469.128 685.746 469.128ZM696.726 454.764V452.388H699.426V446.52H702.342V452.388H705.942V454.764H702.342V466.86C702.342 468.156 703.026 468.588 704.214 468.588C704.79 468.588 705.438 468.444 705.762 468.336H705.87V470.856C705.186 471 704.394 471.108 703.53 471.108C701.154 471.108 699.426 470.136 699.426 467.508V454.764H696.726ZM723.569 471.18C721.661 471.18 720.653 470.316 720.365 468.408H720.329C719.213 469.848 717.305 471.36 714.137 471.36C710.609 471.36 707.837 469.704 707.837 466.176C707.837 461.784 711.293 460.884 715.937 460.164C718.565 459.768 720.401 459.516 720.401 457.5C720.401 455.412 718.889 454.224 716.225 454.224C713.201 454.224 711.689 455.52 711.581 458.328H708.773C708.881 454.728 711.257 452.028 716.189 452.028C720.149 452.028 723.065 453.504 723.065 457.932V466.788C723.065 468.3 723.425 469.128 725.045 468.768H725.153V470.892C724.793 471.036 724.325 471.18 723.569 471.18ZM714.785 469.128C718.673 469.128 720.437 466.284 720.437 464.124V460.956C719.465 461.568 717.773 462.036 716.189 462.324C713.273 462.864 710.933 463.368 710.933 466.104C710.933 468.588 712.877 469.128 714.785 469.128ZM737.643 471L731.127 452.388H734.259L738.111 464.196C738.651 465.852 739.335 468.12 739.335 468.12H739.407C739.407 468.12 740.091 465.816 740.631 464.196L744.555 452.388H747.579L740.883 471H737.643ZM749.628 471V452.388H752.544V471H749.628ZM749.628 448.86V445.26H752.544V448.86H749.628ZM763.575 471.54C758.463 471.54 755.619 469.128 755.331 464.952H758.319C758.715 468.192 760.875 469.092 763.647 469.092C766.707 469.092 767.967 467.76 767.967 466.032C767.967 463.944 766.527 463.404 763.107 462.684C759.435 461.928 756.159 461.172 756.159 457.104C756.159 454.008 758.535 451.992 762.855 451.992C767.463 451.992 769.731 454.188 770.163 457.824H767.175C766.887 455.376 765.555 454.296 762.783 454.296C760.119 454.296 759.039 455.484 759.039 456.96C759.039 458.976 760.839 459.372 764.043 460.02C767.787 460.776 770.919 461.604 770.919 465.888C770.919 469.632 767.859 471.54 763.575 471.54ZM788.47 471H785.554V468.444H785.482C784.15 470.244 782.566 471.432 779.866 471.432C776.05 471.432 773.602 469.128 773.602 465.276V452.388H776.518V465.204C776.518 467.616 778.066 469.02 780.694 469.02C783.646 469.02 785.554 466.788 785.554 463.836V452.388H788.47V471ZM807.03 471.18C805.122 471.18 804.114 470.316 803.826 468.408H803.79C802.674 469.848 800.766 471.36 797.598 471.36C794.07 471.36 791.298 469.704 791.298 466.176C791.298 461.784 794.754 460.884 799.398 460.164C802.026 459.768 803.862 459.516 803.862 457.5C803.862 455.412 802.35 454.224 799.686 454.224C796.662 454.224 795.15 455.52 795.042 458.328H792.234C792.342 454.728 794.718 452.028 799.65 452.028C803.61 452.028 806.526 453.504 806.526 457.932V466.788C806.526 468.3 806.886 469.128 808.506 468.768H808.614V470.892C808.254 471.036 807.786 471.18 807.03 471.18ZM798.246 469.128C802.134 469.128 803.898 466.284 803.898 464.124V460.956C802.926 461.568 801.234 462.036 799.65 462.324C796.734 462.864 794.394 463.368 794.394 466.104C794.394 468.588 796.338 469.128 798.246 469.128ZM810.873 471V445.26H813.789V471H810.873ZM817.867 471V452.388H820.783V471H817.867ZM817.867 448.86V445.26H820.783V448.86H817.867ZM824.001 471V468.696L834.369 455.052V454.944H824.613V452.388H838.437V454.116L827.745 468.228V468.336H838.833V471H824.001ZM856.319 471.18C854.411 471.18 853.403 470.316 853.115 468.408H853.079C851.963 469.848 850.055 471.36 846.887 471.36C843.359 471.36 840.587 469.704 840.587 466.176C840.587 461.784 844.043 460.884 848.687 460.164C851.315 459.768 853.151 459.516 853.151 457.5C853.151 455.412 851.639 454.224 848.975 454.224C845.951 454.224 844.439 455.52 844.331 458.328H841.523C841.631 454.728 844.007 452.028 848.939 452.028C852.899 452.028 855.815 453.504 855.815 457.932V466.788C855.815 468.3 856.175 469.128 857.795 468.768H857.903V470.892C857.543 471.036 857.075 471.18 856.319 471.18ZM847.535 469.128C851.423 469.128 853.187 466.284 853.187 464.124V460.956C852.215 461.568 850.523 462.036 848.939 462.324C846.023 462.864 843.683 463.368 843.683 466.104C843.683 468.588 845.627 469.128 847.535 469.128ZM858.515 454.764V452.388H861.215V446.52H864.131V452.388H867.731V454.764H864.131V466.86C864.131 468.156 864.815 468.588 866.003 468.588C866.579 468.588 867.227 468.444 867.551 468.336H867.659V470.856C866.975 471 866.183 471.108 865.319 471.108C862.943 471.108 861.215 470.136 861.215 467.508V454.764H858.515ZM870.742 471V452.388H873.658V471H870.742ZM870.742 448.86V445.26H873.658V448.86H870.742ZM885.588 471.504C880.044 471.504 876.588 467.112 876.588 461.712C876.588 456.312 880.044 451.92 885.588 451.92C891.168 451.92 894.552 456.312 894.552 461.712C894.552 467.112 891.168 471.504 885.588 471.504ZM885.588 469.056C889.548 469.056 891.564 465.816 891.564 461.712C891.564 457.608 889.548 454.332 885.588 454.332C881.628 454.332 879.576 457.608 879.576 461.712C879.576 465.816 881.628 469.056 885.588 469.056ZM900.376 452.388V454.836H900.448C901.78 453.072 903.652 451.956 906.352 451.956C910.24 451.956 912.616 454.08 912.616 457.932V471H909.7V458.184C909.7 455.772 908.116 454.404 905.488 454.404C902.536 454.404 900.376 456.492 900.376 459.552V471H897.46V452.388H900.376ZM923.536 471.54C918.424 471.54 915.58 469.128 915.292 464.952H918.28C918.676 468.192 920.836 469.092 923.608 469.092C926.668 469.092 927.928 467.76 927.928 466.032C927.928 463.944 926.488 463.404 923.068 462.684C919.396 461.928 916.12 461.172 916.12 457.104C916.12 454.008 918.496 451.992 922.816 451.992C927.424 451.992 929.692 454.188 930.124 457.824H927.136C926.848 455.376 925.516 454.296 922.744 454.296C920.08 454.296 919 455.484 919 456.96C919 458.976 920.8 459.372 924.004 460.02C927.748 460.776 930.88 461.604 930.88 465.888C930.88 469.632 927.82 471.54 923.536 471.54Z" fill="black"/>
<path d="M257.572 525L256.636 521.616H256.564C254.692 524.244 251.92 525.54 248.536 525.54C241.3 525.54 236.44 520.032 236.44 512.22C236.44 504.66 240.724 498.72 248.824 498.72C254.8 498.72 258.472 501.96 259.3 507H255.952C255.232 503.58 252.82 501.528 248.752 501.528C242.56 501.528 239.752 506.172 239.752 512.22C239.752 518.52 243.424 522.732 248.644 522.732C253.936 522.732 256.42 519.132 256.42 514.812V514.2H248.68V511.392H259.66V525H257.572ZM263.699 525V506.388H266.615V525H263.699ZM263.699 502.86V499.26H266.615V502.86H263.699ZM285.205 525.18C283.297 525.18 282.289 524.316 282.001 522.408H281.965C280.849 523.848 278.941 525.36 275.773 525.36C272.245 525.36 269.473 523.704 269.473 520.176C269.473 515.784 272.929 514.884 277.573 514.164C280.201 513.768 282.037 513.516 282.037 511.5C282.037 509.412 280.525 508.224 277.861 508.224C274.837 508.224 273.325 509.52 273.217 512.328H270.409C270.517 508.728 272.893 506.028 277.825 506.028C281.785 506.028 284.701 507.504 284.701 511.932V520.788C284.701 522.3 285.061 523.128 286.681 522.768H286.789V524.892C286.429 525.036 285.961 525.18 285.205 525.18ZM276.421 523.128C280.309 523.128 282.073 520.284 282.073 518.124V514.956C281.101 515.568 279.409 516.036 277.825 516.324C274.909 516.864 272.569 517.368 272.569 520.104C272.569 522.588 274.513 523.128 276.421 523.128ZM291.857 506.388V508.836H291.929C293.261 507.072 295.133 505.956 297.833 505.956C301.721 505.956 304.097 508.08 304.097 511.932V525H301.181V512.184C301.181 509.772 299.597 508.404 296.969 508.404C294.017 508.404 291.857 510.492 291.857 513.552V525H288.941V506.388H291.857ZM306.421 508.764V506.388H309.121V500.52H312.037V506.388H315.637V508.764H312.037V520.86C312.037 522.156 312.721 522.588 313.909 522.588C314.485 522.588 315.133 522.444 315.457 522.336H315.565V524.856C314.881 525 314.089 525.108 313.225 525.108C310.849 525.108 309.121 524.136 309.121 521.508V508.764H306.421ZM333.234 525.54C330.714 525.54 328.878 524.64 327.366 522.552H327.294V525H324.378V499.26H327.294V509.052H327.366C328.77 507.144 330.642 505.956 333.342 505.956C338.058 505.956 341.262 509.556 341.262 515.748C341.262 521.724 338.274 525.54 333.234 525.54ZM333.018 523.092C336.582 523.092 338.274 519.996 338.274 515.784C338.274 511.608 336.582 508.44 333.054 508.44C328.986 508.44 327.114 511.752 327.114 515.784C327.114 519.96 329.058 523.092 333.018 523.092ZM352.127 525.504C346.583 525.504 343.127 521.112 343.127 515.712C343.127 510.312 346.583 505.92 352.127 505.92C357.707 505.92 361.091 510.312 361.091 515.712C361.091 521.112 357.707 525.504 352.127 525.504ZM352.127 523.056C356.087 523.056 358.103 519.816 358.103 515.712C358.103 511.608 356.087 508.332 352.127 508.332C348.167 508.332 346.115 511.608 346.115 515.712C346.115 519.816 348.167 523.056 352.127 523.056ZM366.916 506.388V509.484H366.988C368.104 507.684 370.048 506.172 372.532 506.172C373.072 506.172 373.36 506.244 373.72 506.388V509.196H373.612C373.18 509.052 372.892 509.016 372.316 509.016C369.436 509.016 366.916 511.176 366.916 514.668V525H364V506.388H366.916ZM376.339 525V506.388H379.255V525H376.339ZM376.339 502.86V499.26H379.255V502.86H376.339ZM386.146 506.388V508.836H386.218C387.55 507.072 389.422 505.956 392.122 505.956C396.01 505.956 398.386 508.08 398.386 511.932V525H395.47V512.184C395.47 509.772 393.886 508.404 391.258 508.404C388.306 508.404 386.146 510.492 386.146 513.552V525H383.23V506.388H386.146ZM409.666 531.192C404.842 531.192 402.106 529.248 401.782 526.044H404.482C404.77 528.096 406.714 528.888 409.594 528.888C413.014 528.888 414.922 527.34 414.922 524.1V521.472H414.85C413.482 523.236 412.006 524.352 409.342 524.352C404.518 524.352 401.206 520.5 401.206 515.136C401.206 509.34 404.842 505.956 409.162 505.956C411.862 505.956 413.59 507 414.85 508.764H414.922V506.388H417.838V523.992C417.838 528.888 414.598 531.192 409.666 531.192ZM409.486 521.904C413.77 521.904 415.138 518.916 415.138 514.992C415.138 510.924 413.41 508.404 409.45 508.404C405.958 508.404 404.194 511.14 404.194 515.172C404.194 519.24 406.03 521.904 409.486 521.904ZM427.635 525V499.26H430.551V525H427.635ZM434.628 525V506.388H437.544V525H434.628ZM434.628 502.86V499.26H437.544V502.86H434.628ZM448.575 525.54C443.463 525.54 440.619 523.128 440.331 518.952H443.319C443.715 522.192 445.875 523.092 448.647 523.092C451.707 523.092 452.967 521.76 452.967 520.032C452.967 517.944 451.527 517.404 448.107 516.684C444.435 515.928 441.159 515.172 441.159 511.104C441.159 508.008 443.535 505.992 447.855 505.992C452.463 505.992 454.731 508.188 455.163 511.824H452.175C451.887 509.376 450.555 508.296 447.783 508.296C445.119 508.296 444.039 509.484 444.039 510.96C444.039 512.976 445.839 513.372 449.043 514.02C452.787 514.776 455.919 515.604 455.919 519.888C455.919 523.632 452.859 525.54 448.575 525.54ZM457.171 508.764V506.388H459.871V500.52H462.787V506.388H466.387V508.764H462.787V520.86C462.787 522.156 463.471 522.588 464.659 522.588C465.235 522.588 465.883 522.444 466.207 522.336H466.315V524.856C465.631 525 464.839 525.108 463.975 525.108C461.599 525.108 459.871 524.136 459.871 521.508V508.764H457.171ZM483.084 525.504C477.54 525.504 474.084 521.112 474.084 515.712C474.084 510.312 477.54 505.92 483.084 505.92C488.664 505.92 492.048 510.312 492.048 515.712C492.048 521.112 488.664 525.504 483.084 525.504ZM483.084 523.056C487.044 523.056 489.06 519.816 489.06 515.712C489.06 511.608 487.044 508.332 483.084 508.332C479.124 508.332 477.072 511.608 477.072 515.712C477.072 519.816 479.124 523.056 483.084 523.056ZM493.417 508.764V506.388H495.973V503.4C495.973 500.196 497.809 499.044 500.905 499.044C501.517 499.044 501.985 499.08 502.381 499.116V501.6C501.877 501.564 501.733 501.564 501.445 501.564C499.573 501.564 498.889 502.032 498.889 503.544V506.388H502.345V508.764H498.889V525H495.973V508.764H493.417ZM515.526 525L509.01 506.388H512.142L515.994 518.196C516.534 519.852 517.218 522.12 517.218 522.12H517.29C517.29 522.12 517.974 519.816 518.514 518.196L522.438 506.388H525.462L518.766 525H515.526ZM527.511 525V506.388H530.427V525H527.511ZM527.511 502.86V499.26H530.427V502.86H527.511ZM541.458 525.54C536.346 525.54 533.502 523.128 533.214 518.952H536.202C536.598 522.192 538.758 523.092 541.53 523.092C544.59 523.092 545.85 521.76 545.85 520.032C545.85 517.944 544.41 517.404 540.99 516.684C537.318 515.928 534.042 515.172 534.042 511.104C534.042 508.008 536.418 505.992 540.738 505.992C545.346 505.992 547.614 508.188 548.046 511.824H545.058C544.77 509.376 543.438 508.296 540.666 508.296C538.002 508.296 536.922 509.484 536.922 510.96C536.922 512.976 538.722 513.372 541.926 514.02C545.67 514.776 548.802 515.604 548.802 519.888C548.802 523.632 545.742 525.54 541.458 525.54ZM566.353 525H563.437V522.444H563.365C562.033 524.244 560.449 525.432 557.749 525.432C553.933 525.432 551.485 523.128 551.485 519.276V506.388H554.401V519.204C554.401 521.616 555.949 523.02 558.577 523.02C561.529 523.02 563.437 520.788 563.437 517.836V506.388H566.353V525ZM584.912 525.18C583.004 525.18 581.996 524.316 581.708 522.408H581.672C580.556 523.848 578.648 525.36 575.48 525.36C571.952 525.36 569.18 523.704 569.18 520.176C569.18 515.784 572.636 514.884 577.28 514.164C579.908 513.768 581.744 513.516 581.744 511.5C581.744 509.412 580.232 508.224 577.568 508.224C574.544 508.224 573.032 509.52 572.924 512.328H570.116C570.224 508.728 572.6 506.028 577.532 506.028C581.492 506.028 584.408 507.504 584.408 511.932V520.788C584.408 522.3 584.768 523.128 586.388 522.768H586.496V524.892C586.136 525.036 585.668 525.18 584.912 525.18ZM576.128 523.128C580.016 523.128 581.78 520.284 581.78 518.124V514.956C580.808 515.568 579.116 516.036 577.532 516.324C574.616 516.864 572.276 517.368 572.276 520.104C572.276 522.588 574.22 523.128 576.128 523.128ZM588.756 525V499.26H591.672V525H588.756ZM600.292 508.764V506.388H602.848V503.4C602.848 500.196 604.684 499.044 607.78 499.044C608.392 499.044 608.86 499.08 609.256 499.116V501.6C608.752 501.564 608.608 501.564 608.32 501.564C606.448 501.564 605.764 502.032 605.764 503.544V506.388H609.22V508.764H605.764V525H602.848V508.764H600.292ZM619.491 525.504C613.803 525.504 610.491 521.112 610.491 515.712C610.491 510.312 614.019 505.92 619.311 505.92C624.891 505.92 627.879 510.24 627.879 516.396H613.479C613.695 520.176 615.747 523.056 619.491 523.056C622.191 523.056 623.991 521.76 624.639 519.24H627.483C626.619 523.236 623.703 525.504 619.491 525.504ZM619.311 508.224C615.855 508.224 613.983 510.816 613.551 514.2H624.747C624.567 510.492 622.659 508.224 619.311 508.224ZM638.686 525.504C632.998 525.504 629.686 521.112 629.686 515.712C629.686 510.312 633.214 505.92 638.506 505.92C644.086 505.92 647.074 510.24 647.074 516.396H632.674C632.89 520.176 634.942 523.056 638.686 523.056C641.386 523.056 643.186 521.76 643.834 519.24H646.678C645.814 523.236 642.898 525.504 638.686 525.504ZM638.506 508.224C635.05 508.224 633.178 510.816 632.746 514.2H643.942C643.762 510.492 641.854 508.224 638.506 508.224ZM657.125 525.54C652.049 525.54 648.881 521.724 648.881 515.748C648.881 509.556 652.445 505.956 657.053 505.956C659.681 505.956 661.697 507.252 662.885 509.016H662.957V499.26H665.873V525H662.957V522.732H662.885C661.481 524.532 659.753 525.54 657.125 525.54ZM657.233 523.092C661.373 523.092 663.137 519.996 663.137 515.784C663.137 511.464 661.049 508.44 657.197 508.44C653.669 508.44 651.869 511.608 651.869 515.784C651.869 519.996 653.669 523.092 657.233 523.092ZM678.68 525.54C676.16 525.54 674.324 524.64 672.812 522.552H672.74V525H669.824V499.26H672.74V509.052H672.812C674.216 507.144 676.088 505.956 678.788 505.956C683.504 505.956 686.708 509.556 686.708 515.748C686.708 521.724 683.72 525.54 678.68 525.54ZM678.464 523.092C682.028 523.092 683.72 519.996 683.72 515.784C683.72 511.608 682.028 508.44 678.5 508.44C674.432 508.44 672.56 511.752 672.56 515.784C672.56 519.96 674.504 523.092 678.464 523.092ZM704.233 525.18C702.325 525.18 701.317 524.316 701.029 522.408H700.993C699.877 523.848 697.969 525.36 694.801 525.36C691.273 525.36 688.501 523.704 688.501 520.176C688.501 515.784 691.957 514.884 696.601 514.164C699.229 513.768 701.065 513.516 701.065 511.5C701.065 509.412 699.553 508.224 696.889 508.224C693.865 508.224 692.353 509.52 692.245 512.328H689.437C689.545 508.728 691.921 506.028 696.853 506.028C700.813 506.028 703.729 507.504 703.729 511.932V520.788C703.729 522.3 704.089 523.128 705.709 522.768H705.817V524.892C705.457 525.036 704.989 525.18 704.233 525.18ZM695.449 523.128C699.337 523.128 701.101 520.284 701.101 518.124V514.956C700.129 515.568 698.437 516.036 696.853 516.324C693.937 516.864 691.597 517.368 691.597 520.104C691.597 522.588 693.541 523.128 695.449 523.128ZM715.924 525.504C710.38 525.504 706.924 521.112 706.924 515.712C706.924 510.312 710.38 505.92 715.924 505.92C720.316 505.92 723.232 508.44 723.88 512.4H720.928C720.496 509.88 718.732 508.332 715.924 508.332C711.964 508.332 709.912 511.608 709.912 515.712C709.912 519.816 711.964 523.056 715.924 523.056C718.948 523.056 720.748 521.328 721 518.448H723.88C723.484 522.912 720.568 525.504 715.924 525.504ZM738.876 525L732.288 514.956L729.552 517.548V525H726.636V499.26H729.552V514.344L737.724 506.388H741.432L734.304 513.084L742.296 525H738.876Z" fill="black"/>
</svg>
