<svg width="1440" height="1024" viewBox="0 0 1440 1024" fill="none" xmlns="http://www.w3.org/2000/svg">
<rect width="1440" height="1024" fill="#F7F7F7"/>
<path d="M259.31 277.745C266.85 277.745 270.555 271.31 270.555 262.86C270.555 254.41 266.85 247.91 259.31 247.91C251.835 247.91 248 254.41 248 262.86C248 271.31 251.835 277.745 259.31 277.745ZM259.245 287.105C245.205 287.105 236.3 276.77 236.3 262.86C236.3 248.95 245.205 238.615 259.245 238.615C273.35 238.615 282.255 248.95 282.255 262.86C282.255 276.77 273.35 287.105 259.245 287.105ZM286.095 286V252.72H296.3V257.27H296.495C298.965 253.695 302.15 251.745 306.765 251.745C314.045 251.745 318.335 256.945 318.335 264.355V286H307.74V266.5C307.74 262.99 305.985 260.585 302.54 260.585C299.03 260.585 296.69 263.51 296.69 267.605V286H286.095ZM338.635 297.505C329.47 297.505 323.425 293.735 322.385 286.78H332.655C333.24 288.535 334.995 290.03 338.505 290.03C342.99 290.03 344.875 287.69 344.875 283.66V280.345H344.615C342.665 282.555 340.13 284.18 336.1 284.18C328.625 284.18 321.67 278.59 321.67 268.385C321.67 258.635 327.39 251.745 335.645 251.745C340.065 251.745 343.055 253.5 345.005 256.295H345.135V252.72H355.275V282.75C355.275 287.755 353.52 291.395 350.855 293.8C347.93 296.4 343.575 297.505 338.635 297.505ZM338.57 276.315C343.185 276.315 345.33 272.675 345.33 267.995C345.33 263.51 342.99 259.74 338.57 259.74C334.605 259.74 332.005 262.99 332.005 268.06C332.005 273.065 334.605 276.315 338.57 276.315ZM376.612 279.5C381.227 279.5 383.697 275.47 383.697 269.425C383.697 263.38 381.227 259.285 376.612 259.285C371.997 259.285 369.592 263.38 369.592 269.425C369.592 275.47 371.997 279.5 376.612 279.5ZM376.677 287.04C366.017 287.04 358.867 279.435 358.867 269.425C358.867 259.415 366.017 251.81 376.677 251.81C387.402 251.81 394.422 259.415 394.422 269.425C394.422 279.435 387.402 287.04 376.677 287.04ZM398.004 286V252.72H408.599V286H398.004ZM398.004 248.105V239.525H408.599V248.105H398.004ZM413.682 286V252.72H423.887V257.27H424.082C426.552 253.695 429.737 251.745 434.352 251.745C441.632 251.745 445.922 256.945 445.922 264.355V286H435.327V266.5C435.327 262.99 433.572 260.585 430.127 260.585C426.617 260.585 424.277 263.51 424.277 267.605V286H413.682ZM466.223 297.505C457.058 297.505 451.013 293.735 449.973 286.78H460.243C460.828 288.535 462.583 290.03 466.093 290.03C470.578 290.03 472.463 287.69 472.463 283.66V280.345H472.203C470.253 282.555 467.718 284.18 463.688 284.18C456.213 284.18 449.258 278.59 449.258 268.385C449.258 258.635 454.978 251.745 463.233 251.745C467.653 251.745 470.643 253.5 472.593 256.295H472.723V252.72H482.863V282.75C482.863 287.755 481.108 291.395 478.443 293.8C475.518 296.4 471.163 297.505 466.223 297.505ZM466.158 276.315C470.773 276.315 472.918 272.675 472.918 267.995C472.918 263.51 470.578 259.74 466.158 259.74C462.193 259.74 459.593 262.99 459.593 268.06C459.593 273.065 462.193 276.315 466.158 276.315ZM517.218 287.105C504.868 287.105 496.743 281.645 496.483 271.375H508.053C508.573 276.055 511.628 278.005 517.153 278.005C520.923 278.005 524.628 276.64 524.628 273.13C524.628 269.425 520.858 268.645 514.488 267.085C506.428 265.2 497.913 262.73 497.913 252.98C497.913 243.035 505.973 238.68 516.373 238.68C526.448 238.68 534.248 243.23 534.703 252.98H523.458C523.003 249.405 520.273 247.39 515.983 247.39C511.953 247.39 509.288 249.145 509.288 251.745C509.288 254.995 512.863 255.775 519.818 257.335C528.463 259.35 536.263 262.015 536.263 271.96C536.263 281.71 527.943 287.105 517.218 287.105ZM551.758 286.975C544.088 286.975 540.058 281.97 540.058 274.56V252.72H550.588V272.35C550.588 275.99 552.213 278.005 555.593 278.005C559.233 278.005 561.443 275.275 561.443 271.31V252.72H572.038V286H561.898V281.905H561.703C559.298 285.155 556.373 286.975 551.758 286.975ZM577.135 296.985V252.72H587.275V256.75H587.47C589.745 253.76 592.995 251.745 597.545 251.745C606.385 251.745 611.78 259.35 611.78 269.36C611.78 280.15 605.995 287.04 597.285 287.04C592.995 287.04 589.94 285.35 587.86 282.555H587.73V296.985H577.135ZM594.555 278.85C598.585 278.85 601.055 275.405 601.055 269.75C601.055 264.03 598.91 260.26 594.36 260.26C589.745 260.26 587.405 264.355 587.405 269.75C587.405 275.145 590.005 278.85 594.555 278.85ZM615.348 296.985V252.72H625.488V256.75H625.683C627.958 253.76 631.208 251.745 635.758 251.745C644.598 251.745 649.993 259.35 649.993 269.36C649.993 280.15 644.208 287.04 635.498 287.04C631.208 287.04 628.153 285.35 626.073 282.555H625.943V296.985H615.348ZM632.768 278.85C636.798 278.85 639.268 275.405 639.268 269.75C639.268 264.03 637.123 260.26 632.573 260.26C627.958 260.26 625.618 264.355 625.618 269.75C625.618 275.145 628.218 278.85 632.768 278.85ZM669.81 279.5C674.425 279.5 676.895 275.47 676.895 269.425C676.895 263.38 674.425 259.285 669.81 259.285C665.195 259.285 662.79 263.38 662.79 269.425C662.79 275.47 665.195 279.5 669.81 279.5ZM669.875 287.04C659.215 287.04 652.065 279.435 652.065 269.425C652.065 259.415 659.215 251.81 669.875 251.81C680.6 251.81 687.62 259.415 687.62 269.425C687.62 279.435 680.6 287.04 669.875 287.04ZM691.202 286V252.72H701.342V257.92H701.537C703.877 253.955 706.607 252.2 710.637 252.2C711.612 252.2 712.262 252.265 712.717 252.46V261.56H712.457C705.957 260.65 701.797 263.835 701.797 271.05V286H691.202ZM729.915 286.39C723.74 286.39 719.32 284.375 719.32 277.225V259.35H714.9V252.72H719.32V242.19H729.655V252.72H735.7V259.35H729.655V274.95C729.655 277.55 731.085 278.2 733.36 278.2C734.27 278.2 735.31 278.135 735.7 278.135V285.87C734.79 286.13 732.775 286.39 729.915 286.39Z" fill="black"/>
<path d="M244.468 363.468C238.384 363.468 235.468 360.156 235.468 355.26V352.992H241.264V355.116C241.264 357.312 242.308 358.212 244.072 358.212C245.944 358.212 246.736 357.06 246.736 355.188V337.26H253.108V355.332C253.108 357.636 252.532 359.508 251.272 360.912C249.832 362.496 247.492 363.468 244.468 363.468ZM262.357 363.54C258.109 363.54 255.877 360.768 255.877 356.664V344.568H261.709V355.44C261.709 357.456 262.609 358.572 264.481 358.572C266.497 358.572 267.721 357.06 267.721 354.864V344.568H273.589V363H267.973V360.732H267.865C266.533 362.532 264.913 363.54 262.357 363.54ZM284.26 363.576C278.86 363.576 275.476 361.092 275.296 357.024H280.84C281.056 358.86 282.28 359.76 284.224 359.76C285.988 359.76 287.104 359.112 287.104 357.924C287.104 356.268 284.872 356.088 282.424 355.656C279.22 355.116 275.8 354.252 275.8 349.932C275.8 346.044 279.4 344.028 283.756 344.028C288.976 344.028 291.784 346.296 292.072 349.932H286.672C286.456 348.276 285.34 347.772 283.72 347.772C282.28 347.772 281.164 348.312 281.164 349.464C281.164 350.76 283.252 350.94 285.592 351.372C288.832 351.912 292.648 352.74 292.648 357.456C292.648 361.488 289.084 363.576 284.26 363.576ZM301.333 363.216C297.913 363.216 295.465 362.1 295.465 358.14V348.24H293.017V344.568H295.465V338.736H301.189V344.568H304.537V348.24H301.189V356.88C301.189 358.32 301.981 358.68 303.241 358.68C303.745 358.68 304.321 358.644 304.537 358.644V362.928C304.033 363.072 302.917 363.216 301.333 363.216ZM317.672 363.468C314 363.468 311.372 361.488 311.372 357.852C311.372 353.784 314.612 352.56 318.428 352.056C321.884 351.624 323.108 351.264 323.108 350.004C323.108 348.816 322.352 348.024 320.588 348.024C318.716 348.024 317.78 348.852 317.6 350.4H312.2C312.344 346.98 314.972 344.064 320.552 344.064C323.324 344.064 325.196 344.568 326.528 345.576C328.112 346.728 328.868 348.528 328.868 350.832V360.12C328.868 361.596 329.012 362.424 329.516 362.748V363H323.828C323.54 362.604 323.36 361.884 323.216 360.948H323.144C322.064 362.496 320.444 363.468 317.672 363.468ZM319.544 359.724C321.74 359.724 323.252 358.392 323.252 356.412V354.216C322.496 354.612 321.416 354.9 320.228 355.188C317.96 355.692 317.024 356.268 317.024 357.672C317.024 359.148 318.104 359.724 319.544 359.724ZM338.67 363V348.312H336.294V344.568H338.67V343.236C338.67 341.328 339.21 339.924 340.182 338.952C341.766 337.404 344.826 337.044 347.994 337.368V341.508C345.762 341.436 344.538 341.616 344.538 343.668V344.568H347.994V348.312H344.538V363H338.67ZM358.326 363.54C352.242 363.54 348.498 359.328 348.498 353.748C348.498 348.24 352.35 344.028 357.966 344.028C360.594 344.028 362.682 344.892 364.266 346.332C366.462 348.348 367.542 351.552 367.506 355.296H354.258C354.618 357.78 355.986 359.328 358.398 359.328C359.946 359.328 360.954 358.644 361.458 357.492H367.182C366.786 359.148 365.706 360.732 364.086 361.848C362.538 362.928 360.666 363.54 358.326 363.54ZM354.294 351.804H361.566C361.35 349.608 359.982 348.204 358.074 348.204C355.842 348.204 354.69 349.608 354.294 351.804ZM373.119 363L367.467 344.568H373.443L375.459 352.2C375.855 353.676 376.287 355.764 376.287 355.764H376.359C376.359 355.764 376.791 353.64 377.187 352.092L379.131 344.568H384.099L386.115 352.092C386.511 353.676 386.979 355.8 386.979 355.8H387.051C387.051 355.8 387.519 353.676 387.915 352.2L389.967 344.568H395.763L390.111 363H384.603L382.443 354.648C382.047 353.208 381.651 351.336 381.651 351.336H381.579C381.579 351.336 381.147 353.208 380.751 354.648L378.555 363H373.119ZM402.728 363V344.568H408.344V347.448H408.452C409.748 345.252 411.26 344.28 413.492 344.28C414.032 344.28 414.392 344.316 414.644 344.424V349.464H414.5C410.9 348.96 408.596 350.724 408.596 354.72V363H402.728ZM425.158 363.54C419.074 363.54 415.33 359.328 415.33 353.748C415.33 348.24 419.182 344.028 424.798 344.028C427.426 344.028 429.514 344.892 431.098 346.332C433.294 348.348 434.374 351.552 434.338 355.296H421.09C421.45 357.78 422.818 359.328 425.23 359.328C426.778 359.328 427.786 358.644 428.29 357.492H434.014C433.618 359.148 432.538 360.732 430.918 361.848C429.37 362.928 427.498 363.54 425.158 363.54ZM421.126 351.804H428.398C428.182 349.608 426.814 348.204 424.906 348.204C422.674 348.204 421.522 349.608 421.126 351.804ZM445.266 363.576C439.326 363.576 435.474 359.364 435.474 353.82C435.474 348.276 439.29 344.064 445.122 344.064C450.126 344.064 453.33 346.98 453.87 351.12H448.218C447.858 349.464 446.85 348.384 445.194 348.384C442.674 348.384 441.414 350.472 441.414 353.82C441.414 357.096 442.674 359.184 445.194 359.184C447.03 359.184 448.146 358.104 448.398 356.016H454.014C453.87 360.264 450.486 363.576 445.266 363.576ZM464.884 363.54C458.8 363.54 455.056 359.328 455.056 353.748C455.056 348.24 458.908 344.028 464.524 344.028C467.152 344.028 469.24 344.892 470.824 346.332C473.02 348.348 474.1 351.552 474.064 355.296H460.816C461.176 357.78 462.544 359.328 464.956 359.328C466.504 359.328 467.512 358.644 468.016 357.492H473.74C473.344 359.148 472.264 360.732 470.644 361.848C469.096 362.928 467.224 363.54 464.884 363.54ZM460.852 351.804H468.124C467.908 349.608 466.54 348.204 464.632 348.204C462.4 348.204 461.248 349.608 460.852 351.804ZM476.029 363V344.568H481.681V347.088H481.789C483.157 345.108 484.921 344.028 487.477 344.028C491.509 344.028 493.885 346.908 493.885 351.012V363H488.017V352.2C488.017 350.256 487.045 348.924 485.137 348.924C483.193 348.924 481.897 350.544 481.897 352.812V363H476.029ZM503.517 363.216C500.097 363.216 497.649 362.1 497.649 358.14V348.24H495.201V344.568H497.649V338.736H503.373V344.568H506.721V348.24H503.373V356.88C503.373 358.32 504.165 358.68 505.425 358.68C505.929 358.68 506.505 358.644 506.721 358.644V362.928C506.217 363.072 505.101 363.216 503.517 363.216ZM514.42 363V344.568H520.288V363H514.42ZM514.42 342.012V337.26H520.288V342.012H514.42ZM523.103 363V344.568H528.755V347.088H528.863C530.231 345.108 531.995 344.028 534.551 344.028C538.583 344.028 540.959 346.908 540.959 351.012V363H535.091V352.2C535.091 350.256 534.119 348.924 532.211 348.924C530.267 348.924 528.971 350.544 528.971 352.812V363H523.103ZM543.634 363V344.568H549.502V363H543.634ZM543.634 342.012V337.26H549.502V342.012H543.634ZM559.626 363.216C556.206 363.216 553.758 362.1 553.758 358.14V348.24H551.31V344.568H553.758V338.736H559.482V344.568H562.83V348.24H559.482V356.88C559.482 358.32 560.274 358.68 561.534 358.68C562.038 358.68 562.614 358.644 562.83 358.644V362.928C562.326 363.072 561.21 363.216 559.626 363.216ZM564.939 363V344.568H570.807V363H564.939ZM564.939 342.012V337.26H570.807V342.012H564.939ZM579.059 363.468C575.387 363.468 572.759 361.488 572.759 357.852C572.759 353.784 575.999 352.56 579.815 352.056C583.271 351.624 584.495 351.264 584.495 350.004C584.495 348.816 583.739 348.024 581.975 348.024C580.103 348.024 579.167 348.852 578.987 350.4H573.587C573.731 346.98 576.359 344.064 581.939 344.064C584.711 344.064 586.583 344.568 587.915 345.576C589.499 346.728 590.255 348.528 590.255 350.832V360.12C590.255 361.596 590.399 362.424 590.903 362.748V363H585.215C584.927 362.604 584.747 361.884 584.603 360.948H584.531C583.451 362.496 581.831 363.468 579.059 363.468ZM580.931 359.724C583.127 359.724 584.639 358.392 584.639 356.412V354.216C583.883 354.612 582.803 354.9 581.615 355.188C579.347 355.692 578.411 356.268 578.411 357.672C578.411 359.148 579.491 359.724 580.931 359.724ZM600.056 363.216C596.636 363.216 594.188 362.1 594.188 358.14V348.24H591.74V344.568H594.188V338.736H599.912V344.568H603.26V348.24H599.912V356.88C599.912 358.32 600.704 358.68 601.964 358.68C602.468 358.68 603.044 358.644 603.26 358.644V362.928C602.756 363.072 601.64 363.216 600.056 363.216ZM605.369 363V344.568H611.237V363H605.369ZM605.369 342.012V337.26H611.237V342.012H605.369ZM618.912 363L612.54 344.568H618.588L621.108 352.884C621.648 354.72 622.116 356.592 622.116 356.592H622.188C622.188 356.592 622.656 354.72 623.196 352.884L625.752 344.568H631.62L625.248 363H618.912ZM641.228 363.54C635.144 363.54 631.4 359.328 631.4 353.748C631.4 348.24 635.252 344.028 640.868 344.028C643.496 344.028 645.584 344.892 647.168 346.332C649.364 348.348 650.444 351.552 650.408 355.296H637.16C637.52 357.78 638.888 359.328 641.3 359.328C642.848 359.328 643.856 358.644 644.36 357.492H650.084C649.688 359.148 648.608 360.732 646.988 361.848C645.44 362.928 643.568 363.54 641.228 363.54ZM637.196 351.804H644.468C644.252 349.608 642.884 348.204 640.976 348.204C638.744 348.204 637.592 349.608 637.196 351.804ZM660.221 363.576C654.821 363.576 651.437 361.092 651.257 357.024H656.801C657.017 358.86 658.241 359.76 660.185 359.76C661.949 359.76 663.065 359.112 663.065 357.924C663.065 356.268 660.833 356.088 658.385 355.656C655.181 355.116 651.761 354.252 651.761 349.932C651.761 346.044 655.361 344.028 659.717 344.028C664.937 344.028 667.745 346.296 668.033 349.932H662.633C662.417 348.276 661.301 347.772 659.681 347.772C658.241 347.772 657.125 348.312 657.125 349.464C657.125 350.76 659.213 350.94 661.553 351.372C664.793 351.912 668.609 352.74 668.609 357.456C668.609 361.488 665.045 363.576 660.221 363.576ZM670.545 363V356.952H676.701V363H670.545ZM670.545 351.84V345.792H676.701V351.84H670.545Z" fill="black"/>
<path d="M235.36 417L244.828 391.26H248.464L257.968 417H254.44L251.704 409.152H241.444L238.672 417H235.36ZM245.44 397.884L242.38 406.524H250.804L247.852 397.884C247.348 396.444 246.7 394.248 246.7 394.248H246.628C246.628 394.248 245.944 396.408 245.44 397.884ZM267.577 417.504C262.033 417.504 258.577 413.112 258.577 407.712C258.577 402.312 262.033 397.92 267.577 397.92C271.969 397.92 274.885 400.44 275.533 404.4H272.581C272.149 401.88 270.385 400.332 267.577 400.332C263.617 400.332 261.565 403.608 261.565 407.712C261.565 411.816 263.617 415.056 267.577 415.056C270.601 415.056 272.401 413.328 272.653 410.448H275.533C275.137 414.912 272.221 417.504 267.577 417.504ZM277.101 400.764V398.388H279.801V392.52H282.717V398.388H286.317V400.764H282.717V412.86C282.717 414.156 283.401 414.588 284.589 414.588C285.165 414.588 285.813 414.444 286.137 414.336H286.245V416.856C285.561 417 284.769 417.108 283.905 417.108C281.529 417.108 279.801 416.136 279.801 413.508V400.764H277.101ZM289.328 417V398.388H292.244V417H289.328ZM289.328 394.86V391.26H292.244V394.86H289.328ZM304.174 417.504C298.63 417.504 295.174 413.112 295.174 407.712C295.174 402.312 298.63 397.92 304.174 397.92C309.754 397.92 313.138 402.312 313.138 407.712C313.138 413.112 309.754 417.504 304.174 417.504ZM304.174 415.056C308.134 415.056 310.15 411.816 310.15 407.712C310.15 403.608 308.134 400.332 304.174 400.332C300.214 400.332 298.162 403.608 298.162 407.712C298.162 411.816 300.214 415.056 304.174 415.056ZM318.962 398.388V400.836H319.034C320.366 399.072 322.238 397.956 324.938 397.956C328.826 397.956 331.202 400.08 331.202 403.932V417H328.286V404.184C328.286 401.772 326.702 400.404 324.074 400.404C321.122 400.404 318.962 402.492 318.962 405.552V417H316.046V398.388H318.962ZM342.122 417.54C337.01 417.54 334.166 415.128 333.878 410.952H336.866C337.262 414.192 339.422 415.092 342.194 415.092C345.254 415.092 346.514 413.76 346.514 412.032C346.514 409.944 345.074 409.404 341.654 408.684C337.982 407.928 334.706 407.172 334.706 403.104C334.706 400.008 337.082 397.992 341.402 397.992C346.01 397.992 348.278 400.188 348.71 403.824H345.722C345.434 401.376 344.102 400.296 341.33 400.296C338.666 400.296 337.586 401.484 337.586 402.96C337.586 404.976 339.386 405.372 342.59 406.02C346.334 406.776 349.466 407.604 349.466 411.888C349.466 415.632 346.406 417.54 342.122 417.54ZM356.8 400.764V398.388H359.5V392.52H362.416V398.388H366.016V400.764H362.416V412.86C362.416 414.156 363.1 414.588 364.288 414.588C364.864 414.588 365.512 414.444 365.836 414.336H365.944V416.856C365.26 417 364.468 417.108 363.604 417.108C361.228 417.108 359.5 416.136 359.5 413.508V400.764H356.8ZM376.807 417.504C371.263 417.504 367.807 413.112 367.807 407.712C367.807 402.312 371.263 397.92 376.807 397.92C382.387 397.92 385.771 402.312 385.771 407.712C385.771 413.112 382.387 417.504 376.807 417.504ZM376.807 415.056C380.767 415.056 382.783 411.816 382.783 407.712C382.783 403.608 380.767 400.332 376.807 400.332C372.847 400.332 370.795 403.608 370.795 407.712C370.795 411.816 372.847 415.056 376.807 415.056ZM397.326 398.388V401.484H397.398C398.514 399.684 400.458 398.172 402.942 398.172C403.482 398.172 403.77 398.244 404.13 398.388V401.196H404.022C403.59 401.052 403.302 401.016 402.726 401.016C399.846 401.016 397.326 403.176 397.326 406.668V417H394.41V398.388H397.326ZM414.002 417.504C408.314 417.504 405.002 413.112 405.002 407.712C405.002 402.312 408.53 397.92 413.822 397.92C419.402 397.92 422.39 402.24 422.39 408.396H407.99C408.206 412.176 410.258 415.056 414.002 415.056C416.702 415.056 418.502 413.76 419.15 411.24H421.994C421.13 415.236 418.214 417.504 414.002 417.504ZM413.822 400.224C410.366 400.224 408.494 402.816 408.062 406.2H419.258C419.078 402.492 417.17 400.224 413.822 400.224ZM425.242 417V398.388H428.158V401.052H428.23C429.382 399.252 431.362 397.956 433.702 397.956C435.97 397.956 437.77 399.108 438.562 401.268H438.634C439.822 399.144 442.054 397.956 444.322 397.956C447.634 397.956 449.974 400.08 449.974 403.932V417H447.058V404.076C447.058 401.772 445.51 400.404 443.638 400.404C441.226 400.404 439.066 402.492 439.066 405.408V417H436.15V404.076C436.15 401.772 434.854 400.404 432.946 400.404C430.678 400.404 428.158 402.492 428.158 405.408V417H425.242ZM461.78 417.504C456.236 417.504 452.78 413.112 452.78 407.712C452.78 402.312 456.236 397.92 461.78 397.92C467.36 397.92 470.744 402.312 470.744 407.712C470.744 413.112 467.36 417.504 461.78 417.504ZM461.78 415.056C465.74 415.056 467.756 411.816 467.756 407.712C467.756 403.608 465.74 400.332 461.78 400.332C457.82 400.332 455.768 403.608 455.768 407.712C455.768 411.816 457.82 415.056 461.78 415.056ZM477.908 417L471.392 398.388H474.524L478.376 410.196C478.916 411.852 479.6 414.12 479.6 414.12H479.672C479.672 414.12 480.356 411.816 480.896 410.196L484.82 398.388H487.844L481.148 417H477.908ZM497.499 417.504C491.811 417.504 488.499 413.112 488.499 407.712C488.499 402.312 492.027 397.92 497.319 397.92C502.899 397.92 505.887 402.24 505.887 408.396H491.487C491.703 412.176 493.755 415.056 497.499 415.056C500.199 415.056 501.999 413.76 502.647 411.24H505.491C504.627 415.236 501.711 417.504 497.499 417.504ZM497.319 400.224C493.863 400.224 491.991 402.816 491.559 406.2H502.755C502.575 402.492 500.667 400.224 497.319 400.224ZM527.464 422.976V414.732H527.392C525.988 416.532 524.296 417.54 521.632 417.54C516.592 417.54 513.532 413.724 513.532 407.748C513.532 401.556 516.988 397.956 521.524 397.956C524.224 397.956 526.096 399.036 527.392 400.872H527.464V398.388H530.38V422.976H527.464ZM521.776 415.092C526.06 415.092 527.644 411.996 527.644 407.784C527.644 403.464 525.808 400.44 521.74 400.44C518.212 400.44 516.52 403.608 516.52 407.784C516.52 411.996 518.212 415.092 521.776 415.092ZM549.092 417H546.176V414.444H546.104C544.772 416.244 543.188 417.432 540.488 417.432C536.672 417.432 534.224 415.128 534.224 411.276V398.388H537.14V411.204C537.14 413.616 538.688 415.02 541.316 415.02C544.268 415.02 546.176 412.788 546.176 409.836V398.388H549.092V417ZM560.991 417.504C555.303 417.504 551.991 413.112 551.991 407.712C551.991 402.312 555.519 397.92 560.811 397.92C566.391 397.92 569.379 402.24 569.379 408.396H554.979C555.195 412.176 557.247 415.056 560.991 415.056C563.691 415.056 565.491 413.76 566.139 411.24H568.983C568.119 415.236 565.203 417.504 560.991 417.504ZM560.811 400.224C557.355 400.224 555.483 402.816 555.051 406.2H566.247C566.067 402.492 564.159 400.224 560.811 400.224ZM586.99 417H584.074V414.444H584.002C582.67 416.244 581.086 417.432 578.386 417.432C574.57 417.432 572.122 415.128 572.122 411.276V398.388H575.038V411.204C575.038 413.616 576.586 415.02 579.214 415.02C582.166 415.02 584.074 412.788 584.074 409.836V398.388H586.99V417ZM598.889 417.504C593.201 417.504 589.889 413.112 589.889 407.712C589.889 402.312 593.417 397.92 598.709 397.92C604.289 397.92 607.277 402.24 607.277 408.396H592.877C593.093 412.176 595.145 415.056 598.889 415.056C601.589 415.056 603.389 413.76 604.037 411.24H606.881C606.017 415.236 603.101 417.504 598.889 417.504ZM598.709 400.224C595.253 400.224 593.381 402.816 592.949 406.2H604.145C603.965 402.492 602.057 400.224 598.709 400.224ZM615.859 417V398.388H618.775V417H615.859ZM615.859 394.86V391.26H618.775V394.86H615.859ZM621.562 400.764V398.388H624.262V392.52H627.178V398.388H630.778V400.764H627.178V412.86C627.178 414.156 627.862 414.588 629.05 414.588C629.626 414.588 630.274 414.444 630.598 414.336H630.706V416.856C630.022 417 629.23 417.108 628.366 417.108C625.99 417.108 624.262 416.136 624.262 413.508V400.764H621.562ZM641.569 417.504C635.881 417.504 632.569 413.112 632.569 407.712C632.569 402.312 636.097 397.92 641.389 397.92C646.969 397.92 649.957 402.24 649.957 408.396H635.557C635.773 412.176 637.825 415.056 641.569 415.056C644.269 415.056 646.069 413.76 646.717 411.24H649.561C648.697 415.236 645.781 417.504 641.569 417.504ZM641.389 400.224C637.933 400.224 636.061 402.816 635.629 406.2H646.825C646.645 402.492 644.737 400.224 641.389 400.224ZM652.808 417V398.388H655.724V401.052H655.796C656.948 399.252 658.928 397.956 661.268 397.956C663.536 397.956 665.336 399.108 666.128 401.268H666.2C667.388 399.144 669.62 397.956 671.888 397.956C675.2 397.956 677.54 400.08 677.54 403.932V417H674.624V404.076C674.624 401.772 673.076 400.404 671.204 400.404C668.792 400.404 666.632 402.492 666.632 405.408V417H663.716V404.076C663.716 401.772 662.42 400.404 660.512 400.404C658.244 400.404 655.724 402.492 655.724 405.408V417H652.808ZM688.446 417.54C683.334 417.54 680.49 415.128 680.202 410.952H683.19C683.586 414.192 685.746 415.092 688.518 415.092C691.578 415.092 692.838 413.76 692.838 412.032C692.838 409.944 691.398 409.404 687.978 408.684C684.306 407.928 681.03 407.172 681.03 403.104C681.03 400.008 683.406 397.992 687.726 397.992C692.334 397.992 694.602 400.188 695.034 403.824H692.046C691.758 401.376 690.426 400.296 687.654 400.296C684.99 400.296 683.91 401.484 683.91 402.96C683.91 404.976 685.71 405.372 688.914 406.02C692.658 406.776 695.79 407.604 695.79 411.888C695.79 415.632 692.73 417.54 688.446 417.54ZM698.222 421.608V419.988C699.014 419.7 699.842 419.016 699.842 417H698.186V413.436H701.678V417.108C701.678 419.736 700.274 421.212 698.222 421.608ZM710.957 422.976V398.388H713.873V401.016H713.945C715.349 399.108 717.221 397.956 719.921 397.956C724.637 397.956 727.913 401.556 727.913 407.748C727.913 413.724 724.853 417.54 719.813 417.54C717.293 417.54 715.493 416.784 713.945 414.804H713.873V422.976H710.957ZM719.597 415.092C723.161 415.092 724.925 411.996 724.925 407.784C724.925 403.608 723.161 400.44 719.633 400.44C715.565 400.44 713.693 403.752 713.693 407.784C713.693 411.816 715.313 415.092 719.597 415.092ZM733.736 398.388V401.484H733.808C734.924 399.684 736.868 398.172 739.352 398.172C739.892 398.172 740.18 398.244 740.54 398.388V401.196H740.432C740 401.052 739.712 401.016 739.136 401.016C736.256 401.016 733.736 403.176 733.736 406.668V417H730.82V398.388H733.736ZM750.413 417.504C744.869 417.504 741.413 413.112 741.413 407.712C741.413 402.312 744.869 397.92 750.413 397.92C755.993 397.92 759.377 402.312 759.377 407.712C759.377 413.112 755.993 417.504 750.413 417.504ZM750.413 415.056C754.373 415.056 756.389 411.816 756.389 407.712C756.389 403.608 754.373 400.332 750.413 400.332C746.453 400.332 744.401 403.608 744.401 407.712C744.401 411.816 746.453 415.056 750.413 415.056ZM762.285 417V398.388H765.201V401.052H765.273C766.425 399.252 768.405 397.956 770.745 397.956C773.013 397.956 774.813 399.108 775.605 401.268H775.677C776.865 399.144 779.097 397.956 781.365 397.956C784.677 397.956 787.017 400.08 787.017 403.932V417H784.101V404.076C784.101 401.772 782.553 400.404 780.681 400.404C778.269 400.404 776.109 402.492 776.109 405.408V417H773.193V404.076C773.193 401.772 771.897 400.404 769.989 400.404C767.721 400.404 765.201 402.492 765.201 405.408V417H762.285ZM798.823 417.504C793.279 417.504 789.823 413.112 789.823 407.712C789.823 402.312 793.279 397.92 798.823 397.92C804.403 397.92 807.787 402.312 807.787 407.712C807.787 413.112 804.403 417.504 798.823 417.504ZM798.823 415.056C802.783 415.056 804.799 411.816 804.799 407.712C804.799 403.608 802.783 400.332 798.823 400.332C794.863 400.332 792.811 403.608 792.811 407.712C792.811 411.816 794.863 415.056 798.823 415.056ZM809.155 400.764V398.388H811.855V392.52H814.771V398.388H818.371V400.764H814.771V412.86C814.771 414.156 815.455 414.588 816.643 414.588C817.219 414.588 817.867 414.444 818.191 414.336H818.299V416.856C817.615 417 816.823 417.108 815.959 417.108C813.583 417.108 811.855 416.136 811.855 413.508V400.764H809.155ZM829.163 417.504C823.475 417.504 820.163 413.112 820.163 407.712C820.163 402.312 823.691 397.92 828.983 397.92C834.563 397.92 837.551 402.24 837.551 408.396H823.151C823.367 412.176 825.419 415.056 829.163 415.056C831.863 415.056 833.663 413.76 834.311 411.24H837.155C836.291 415.236 833.375 417.504 829.163 417.504ZM828.983 400.224C825.527 400.224 823.655 402.816 823.223 406.2H834.419C834.239 402.492 832.331 400.224 828.983 400.224ZM846.132 417V398.388H849.048V417H846.132ZM846.132 394.86V391.26H849.048V394.86H846.132ZM851.835 400.764V398.388H854.535V392.52H857.451V398.388H861.051V400.764H857.451V412.86C857.451 414.156 858.135 414.588 859.323 414.588C859.899 414.588 860.547 414.444 860.871 414.336H860.979V416.856C860.295 417 859.503 417.108 858.639 417.108C856.263 417.108 854.535 416.136 854.535 413.508V400.764H851.835ZM871.842 417.504C866.154 417.504 862.842 413.112 862.842 407.712C862.842 402.312 866.37 397.92 871.662 397.92C877.242 397.92 880.23 402.24 880.23 408.396H865.83C866.046 412.176 868.098 415.056 871.842 415.056C874.542 415.056 876.342 413.76 876.99 411.24H879.834C878.97 415.236 876.054 417.504 871.842 417.504ZM871.662 400.224C868.206 400.224 866.334 402.816 865.902 406.2H877.098C876.918 402.492 875.01 400.224 871.662 400.224ZM883.082 417V398.388H885.998V401.052H886.07C887.222 399.252 889.202 397.956 891.542 397.956C893.81 397.956 895.61 399.108 896.402 401.268H896.474C897.662 399.144 899.894 397.956 902.162 397.956C905.474 397.956 907.814 400.08 907.814 403.932V417H904.898V404.076C904.898 401.772 903.35 400.404 901.478 400.404C899.066 400.404 896.906 402.492 896.906 405.408V417H893.99V404.076C893.99 401.772 892.694 400.404 890.786 400.404C888.518 400.404 885.998 402.492 885.998 405.408V417H883.082ZM918.72 417.54C913.608 417.54 910.764 415.128 910.476 410.952H913.464C913.86 414.192 916.02 415.092 918.792 415.092C921.852 415.092 923.112 413.76 923.112 412.032C923.112 409.944 921.672 409.404 918.252 408.684C914.58 407.928 911.304 407.172 911.304 403.104C911.304 400.008 913.68 397.992 918 397.992C922.608 397.992 924.876 400.188 925.308 403.824H922.32C922.032 401.376 920.7 400.296 917.928 400.296C915.264 400.296 914.184 401.484 914.184 402.96C914.184 404.976 915.984 405.372 919.188 406.02C922.932 406.776 926.064 407.604 926.064 411.888C926.064 415.632 923.004 417.54 918.72 417.54ZM928.495 421.608V419.988C929.287 419.7 930.115 419.016 930.115 417H928.459V413.436H931.951V417.108C931.951 419.736 930.547 421.212 928.495 421.608ZM955.846 417.18C953.938 417.18 952.93 416.316 952.642 414.408H952.606C951.49 415.848 949.582 417.36 946.414 417.36C942.886 417.36 940.114 415.704 940.114 412.176C940.114 407.784 943.57 406.884 948.214 406.164C950.842 405.768 952.678 405.516 952.678 403.5C952.678 401.412 951.166 400.224 948.502 400.224C945.478 400.224 943.966 401.52 943.858 404.328H941.05C941.158 400.728 943.534 398.028 948.466 398.028C952.426 398.028 955.342 399.504 955.342 403.932V412.788C955.342 414.3 955.702 415.128 957.322 414.768H957.43V416.892C957.07 417.036 956.602 417.18 955.846 417.18ZM947.062 415.128C950.95 415.128 952.714 412.284 952.714 410.124V406.956C951.742 407.568 950.05 408.036 948.466 408.324C945.55 408.864 943.21 409.368 943.21 412.104C943.21 414.588 945.154 415.128 947.062 415.128ZM962.498 398.388V400.836H962.57C963.902 399.072 965.774 397.956 968.474 397.956C972.362 397.956 974.738 400.08 974.738 403.932V417H971.822V404.184C971.822 401.772 970.238 400.404 967.61 400.404C964.658 400.404 962.498 402.492 962.498 405.552V417H959.582V398.388H962.498ZM985.801 417.54C980.725 417.54 977.557 413.724 977.557 407.748C977.557 401.556 981.121 397.956 985.729 397.956C988.357 397.956 990.373 399.252 991.561 401.016H991.633V391.26H994.549V417H991.633V414.732H991.561C990.157 416.532 988.429 417.54 985.801 417.54ZM985.909 415.092C990.049 415.092 991.813 411.996 991.813 407.784C991.813 403.464 989.725 400.44 985.873 400.44C982.345 400.44 980.545 403.608 980.545 407.784C980.545 411.996 982.345 415.092 985.909 415.092ZM244.18 459.54C239.104 459.54 235.936 455.724 235.936 449.748C235.936 443.556 239.5 439.956 244.108 439.956C246.736 439.956 248.752 441.252 249.94 443.016H250.012V433.26H252.928V459H250.012V456.732H249.94C248.536 458.532 246.808 459.54 244.18 459.54ZM244.288 457.092C248.428 457.092 250.192 453.996 250.192 449.784C250.192 445.464 248.104 442.44 244.252 442.44C240.724 442.44 238.924 445.608 238.924 449.784C238.924 453.996 240.724 457.092 244.288 457.092ZM264.834 459.504C259.29 459.504 255.834 455.112 255.834 449.712C255.834 444.312 259.29 439.92 264.834 439.92C270.414 439.92 273.798 444.312 273.798 449.712C273.798 455.112 270.414 459.504 264.834 459.504ZM264.834 457.056C268.794 457.056 270.81 453.816 270.81 449.712C270.81 445.608 268.794 442.332 264.834 442.332C260.874 442.332 258.822 445.608 258.822 449.712C258.822 453.816 260.874 457.056 264.834 457.056ZM280.423 459L274.519 440.388H277.651L280.927 451.872C281.359 453.42 281.935 455.868 281.935 455.868H282.007C282.007 455.868 282.547 453.42 282.943 451.944L286.075 440.388H289.135L292.159 451.944C292.555 453.456 293.059 455.868 293.059 455.868H293.131C293.131 455.868 293.707 453.42 294.175 451.872L297.631 440.388H300.655L294.571 459H291.583L288.487 447.732C288.055 446.184 287.587 443.844 287.587 443.844H287.515C287.515 443.844 287.011 446.184 286.579 447.732L283.447 459H280.423ZM305.709 440.388V442.836H305.781C307.113 441.072 308.985 439.956 311.685 439.956C315.573 439.956 317.949 442.08 317.949 445.932V459H315.033V446.184C315.033 443.772 313.449 442.404 310.821 442.404C307.869 442.404 305.709 444.492 305.709 447.552V459H302.793V440.388H305.709ZM321.92 459V433.26H324.836V459H321.92ZM336.87 459.504C331.326 459.504 327.87 455.112 327.87 449.712C327.87 444.312 331.326 439.92 336.87 439.92C342.45 439.92 345.834 444.312 345.834 449.712C345.834 455.112 342.45 459.504 336.87 459.504ZM336.87 457.056C340.83 457.056 342.846 453.816 342.846 449.712C342.846 445.608 340.83 442.332 336.87 442.332C332.91 442.332 330.858 445.608 330.858 449.712C330.858 453.816 332.91 457.056 336.87 457.056ZM363.358 459.18C361.45 459.18 360.442 458.316 360.154 456.408H360.118C359.002 457.848 357.094 459.36 353.926 459.36C350.398 459.36 347.626 457.704 347.626 454.176C347.626 449.784 351.082 448.884 355.726 448.164C358.354 447.768 360.19 447.516 360.19 445.5C360.19 443.412 358.678 442.224 356.014 442.224C352.99 442.224 351.478 443.52 351.37 446.328H348.562C348.67 442.728 351.046 440.028 355.978 440.028C359.938 440.028 362.854 441.504 362.854 445.932V454.788C362.854 456.3 363.214 457.128 364.834 456.768H364.942V458.892C364.582 459.036 364.114 459.18 363.358 459.18ZM354.574 457.128C358.462 457.128 360.226 454.284 360.226 452.124V448.956C359.254 449.568 357.562 450.036 355.978 450.324C353.062 450.864 350.722 451.368 350.722 454.104C350.722 456.588 352.666 457.128 354.574 457.128ZM374.293 459.54C369.217 459.54 366.049 455.724 366.049 449.748C366.049 443.556 369.613 439.956 374.221 439.956C376.849 439.956 378.865 441.252 380.053 443.016H380.125V433.26H383.041V459H380.125V456.732H380.053C378.649 458.532 376.921 459.54 374.293 459.54ZM374.401 457.092C378.541 457.092 380.305 453.996 380.305 449.784C380.305 445.464 378.217 442.44 374.365 442.44C370.837 442.44 369.037 445.608 369.037 449.784C369.037 453.996 370.837 457.092 374.401 457.092ZM392.722 459V440.388H395.638V459H392.722ZM392.722 436.86V433.26H395.638V436.86H392.722ZM399.613 459V440.388H402.529V443.052H402.601C403.753 441.252 405.733 439.956 408.073 439.956C410.341 439.956 412.141 441.108 412.933 443.268H413.005C414.193 441.144 416.425 439.956 418.693 439.956C422.005 439.956 424.345 442.08 424.345 445.932V459H421.429V446.076C421.429 443.772 419.881 442.404 418.009 442.404C415.597 442.404 413.437 444.492 413.437 447.408V459H410.521V446.076C410.521 443.772 409.225 442.404 407.317 442.404C405.049 442.404 402.529 444.492 402.529 447.408V459H399.613ZM428.195 464.976V440.388H431.111V443.016H431.183C432.587 441.108 434.459 439.956 437.159 439.956C441.875 439.956 445.151 443.556 445.151 449.748C445.151 455.724 442.091 459.54 437.051 459.54C434.531 459.54 432.731 458.784 431.183 456.804H431.111V464.976H428.195ZM436.835 457.092C440.399 457.092 442.163 453.996 442.163 449.784C442.163 445.608 440.399 442.44 436.871 442.44C432.803 442.44 430.931 445.752 430.931 449.784C430.931 453.816 432.551 457.092 436.835 457.092ZM462.674 459.18C460.766 459.18 459.758 458.316 459.47 456.408H459.434C458.318 457.848 456.41 459.36 453.242 459.36C449.714 459.36 446.942 457.704 446.942 454.176C446.942 449.784 450.398 448.884 455.042 448.164C457.67 447.768 459.506 447.516 459.506 445.5C459.506 443.412 457.994 442.224 455.33 442.224C452.306 442.224 450.794 443.52 450.686 446.328H447.878C447.986 442.728 450.362 440.028 455.294 440.028C459.254 440.028 462.17 441.504 462.17 445.932V454.788C462.17 456.3 462.53 457.128 464.15 456.768H464.258V458.892C463.898 459.036 463.43 459.18 462.674 459.18ZM453.89 457.128C457.778 457.128 459.542 454.284 459.542 452.124V448.956C458.57 449.568 456.878 450.036 455.294 450.324C452.378 450.864 450.038 451.368 450.038 454.104C450.038 456.588 451.982 457.128 453.89 457.128ZM474.366 459.504C468.822 459.504 465.366 455.112 465.366 449.712C465.366 444.312 468.822 439.92 474.366 439.92C478.758 439.92 481.674 442.44 482.322 446.4H479.37C478.938 443.88 477.174 442.332 474.366 442.332C470.406 442.332 468.354 445.608 468.354 449.712C468.354 453.816 470.406 457.056 474.366 457.056C477.39 457.056 479.19 455.328 479.442 452.448H482.322C481.926 456.912 479.01 459.504 474.366 459.504ZM483.89 442.764V440.388H486.59V434.52H489.506V440.388H493.106V442.764H489.506V454.86C489.506 456.156 490.19 456.588 491.378 456.588C491.954 456.588 492.602 456.444 492.926 456.336H493.034V458.856C492.35 459 491.558 459.108 490.694 459.108C488.318 459.108 486.59 458.136 486.59 455.508V442.764H483.89ZM503.897 459.504C498.209 459.504 494.897 455.112 494.897 449.712C494.897 444.312 498.425 439.92 503.717 439.92C509.297 439.92 512.285 444.24 512.285 450.396H497.885C498.101 454.176 500.153 457.056 503.897 457.056C506.597 457.056 508.397 455.76 509.045 453.24H511.889C511.025 457.236 508.109 459.504 503.897 459.504ZM503.717 442.224C500.261 442.224 498.389 444.816 497.957 448.2H509.153C508.973 444.492 507.065 442.224 503.717 442.224ZM522.336 459.54C517.26 459.54 514.092 455.724 514.092 449.748C514.092 443.556 517.656 439.956 522.264 439.956C524.892 439.956 526.908 441.252 528.096 443.016H528.168V433.26H531.084V459H528.168V456.732H528.096C526.692 458.532 524.964 459.54 522.336 459.54ZM522.444 457.092C526.584 457.092 528.348 453.996 528.348 449.784C528.348 445.464 526.26 442.44 522.408 442.44C518.88 442.44 517.08 445.608 517.08 449.784C517.08 453.996 518.88 457.092 522.444 457.092ZM539.577 442.764V440.388H542.277V434.52H545.193V440.388H548.793V442.764H545.193V454.86C545.193 456.156 545.877 456.588 547.065 456.588C547.641 456.588 548.289 456.444 548.613 456.336H548.721V458.856C548.037 459 547.245 459.108 546.381 459.108C544.005 459.108 542.277 458.136 542.277 455.508V442.764H539.577ZM566.42 459.18C564.512 459.18 563.504 458.316 563.216 456.408H563.18C562.064 457.848 560.156 459.36 556.988 459.36C553.46 459.36 550.688 457.704 550.688 454.176C550.688 449.784 554.144 448.884 558.788 448.164C561.416 447.768 563.252 447.516 563.252 445.5C563.252 443.412 561.74 442.224 559.076 442.224C556.052 442.224 554.54 443.52 554.432 446.328H551.624C551.732 442.728 554.108 440.028 559.04 440.028C563 440.028 565.916 441.504 565.916 445.932V454.788C565.916 456.3 566.276 457.128 567.896 456.768H568.004V458.892C567.644 459.036 567.176 459.18 566.42 459.18ZM557.636 457.128C561.524 457.128 563.288 454.284 563.288 452.124V448.956C562.316 449.568 560.624 450.036 559.04 450.324C556.124 450.864 553.784 451.368 553.784 454.104C553.784 456.588 555.728 457.128 557.636 457.128ZM573.072 440.388V443.484H573.144C574.26 441.684 576.204 440.172 578.688 440.172C579.228 440.172 579.516 440.244 579.876 440.388V443.196H579.768C579.336 443.052 579.048 443.016 578.472 443.016C575.592 443.016 573.072 445.176 573.072 448.668V459H570.156V440.388H573.072ZM589.209 465.192C584.385 465.192 581.649 463.248 581.325 460.044H584.025C584.312 462.096 586.257 462.888 589.137 462.888C592.557 462.888 594.465 461.34 594.465 458.1V455.472H594.393C593.025 457.236 591.549 458.352 588.885 458.352C584.061 458.352 580.749 454.5 580.749 449.136C580.749 443.34 584.385 439.956 588.705 439.956C591.405 439.956 593.133 441 594.393 442.764H594.465V440.388H597.381V457.992C597.381 462.888 594.141 465.192 589.209 465.192ZM589.029 455.904C593.313 455.904 594.681 452.916 594.681 448.992C594.681 444.924 592.953 442.404 588.993 442.404C585.501 442.404 583.737 445.14 583.737 449.172C583.737 453.24 585.573 455.904 589.029 455.904ZM609.295 459.504C603.607 459.504 600.295 455.112 600.295 449.712C600.295 444.312 603.823 439.92 609.115 439.92C614.695 439.92 617.683 444.24 617.683 450.396H603.283C603.499 454.176 605.551 457.056 609.295 457.056C611.995 457.056 613.795 455.76 614.443 453.24H617.287C616.423 457.236 613.507 459.504 609.295 459.504ZM609.115 442.224C605.659 442.224 603.787 444.816 603.355 448.2H614.551C614.371 444.492 612.463 442.224 609.115 442.224ZM618.995 442.764V440.388H621.695V434.52H624.611V440.388H628.211V442.764H624.611V454.86C624.611 456.156 625.295 456.588 626.483 456.588C627.059 456.588 627.707 456.444 628.031 456.336H628.139V458.856C627.455 459 626.663 459.108 625.799 459.108C623.423 459.108 621.695 458.136 621.695 455.508V442.764H618.995ZM638.278 459.54C633.166 459.54 630.322 457.128 630.034 452.952H633.022C633.418 456.192 635.578 457.092 638.35 457.092C641.41 457.092 642.67 455.76 642.67 454.032C642.67 451.944 641.23 451.404 637.81 450.684C634.138 449.928 630.862 449.172 630.862 445.104C630.862 442.008 633.238 439.992 637.558 439.992C642.166 439.992 644.434 442.188 644.866 445.824H641.878C641.59 443.376 640.258 442.296 637.486 442.296C634.822 442.296 633.742 443.484 633.742 444.96C633.742 446.976 635.542 447.372 638.746 448.02C642.49 448.776 645.622 449.604 645.622 453.888C645.622 457.632 642.562 459.54 638.278 459.54Z" fill="black"/>
<path d="M235.36 513L244.828 487.26H248.464L257.968 513H254.44L251.704 505.152H241.444L238.672 513H235.36ZM245.44 493.884L242.38 502.524H250.804L247.852 493.884C247.348 492.444 246.7 490.248 246.7 490.248H246.628C246.628 490.248 245.944 492.408 245.44 493.884ZM266.996 513.54C261.92 513.54 258.752 509.724 258.752 503.748C258.752 497.556 262.316 493.956 266.924 493.956C269.552 493.956 271.568 495.252 272.756 497.016H272.828V487.26H275.744V513H272.828V510.732H272.756C271.352 512.532 269.624 513.54 266.996 513.54ZM267.104 511.092C271.244 511.092 273.008 507.996 273.008 503.784C273.008 499.464 270.92 496.44 267.068 496.44C263.54 496.44 261.74 499.608 261.74 503.784C261.74 507.996 263.54 511.092 267.104 511.092ZM286.895 513.54C281.819 513.54 278.651 509.724 278.651 503.748C278.651 497.556 282.215 493.956 286.823 493.956C289.451 493.956 291.467 495.252 292.655 497.016H292.727V487.26H295.643V513H292.727V510.732H292.655C291.251 512.532 289.523 513.54 286.895 513.54ZM287.003 511.092C291.143 511.092 292.907 507.996 292.907 503.784C292.907 499.464 290.819 496.44 286.967 496.44C283.439 496.44 281.639 499.608 281.639 503.784C281.639 507.996 283.439 511.092 287.003 511.092ZM299.593 513V494.388H302.509V513H299.593ZM299.593 490.86V487.26H302.509V490.86H299.593ZM305.296 496.764V494.388H307.996V488.52H310.912V494.388H314.512V496.764H310.912V508.86C310.912 510.156 311.596 510.588 312.784 510.588C313.36 510.588 314.008 510.444 314.332 510.336H314.44V512.856C313.756 513 312.964 513.108 312.1 513.108C309.724 513.108 307.996 512.136 307.996 509.508V496.764H305.296ZM317.523 513V494.388H320.439V513H317.523ZM317.523 490.86V487.26H320.439V490.86H317.523ZM332.37 513.504C326.826 513.504 323.37 509.112 323.37 503.712C323.37 498.312 326.826 493.92 332.37 493.92C337.95 493.92 341.334 498.312 341.334 503.712C341.334 509.112 337.95 513.504 332.37 513.504ZM332.37 511.056C336.33 511.056 338.346 507.816 338.346 503.712C338.346 499.608 336.33 496.332 332.37 496.332C328.41 496.332 326.358 499.608 326.358 503.712C326.358 507.816 328.41 511.056 332.37 511.056ZM347.158 494.388V496.836H347.23C348.562 495.072 350.434 493.956 353.134 493.956C357.022 493.956 359.398 496.08 359.398 499.932V513H356.482V500.184C356.482 497.772 354.898 496.404 352.27 496.404C349.318 496.404 347.158 498.492 347.158 501.552V513H344.242V494.388H347.158ZM376.948 513.504C371.404 513.504 367.948 509.112 367.948 503.712C367.948 498.312 371.404 493.92 376.948 493.92C382.528 493.92 385.912 498.312 385.912 503.712C385.912 509.112 382.528 513.504 376.948 513.504ZM376.948 511.056C380.908 511.056 382.924 507.816 382.924 503.712C382.924 499.608 380.908 496.332 376.948 496.332C372.988 496.332 370.936 499.608 370.936 503.712C370.936 507.816 372.988 511.056 376.948 511.056ZM387.28 496.764V494.388H389.836V491.4C389.836 488.196 391.672 487.044 394.768 487.044C395.38 487.044 395.848 487.08 396.244 487.116V489.6C395.74 489.564 395.596 489.564 395.308 489.564C393.436 489.564 392.752 490.032 392.752 491.544V494.388H396.208V496.764H392.752V513H389.836V496.764H387.28ZM404.781 518.976V494.388H407.697V497.016H407.769C409.173 495.108 411.045 493.956 413.745 493.956C418.461 493.956 421.737 497.556 421.737 503.748C421.737 509.724 418.677 513.54 413.637 513.54C411.117 513.54 409.317 512.784 407.769 510.804H407.697V518.976H404.781ZM413.421 511.092C416.985 511.092 418.749 507.996 418.749 503.784C418.749 499.608 416.985 496.44 413.457 496.44C409.389 496.44 407.517 499.752 407.517 503.784C407.517 507.816 409.137 511.092 413.421 511.092ZM439.26 513.18C437.352 513.18 436.344 512.316 436.056 510.408H436.02C434.904 511.848 432.996 513.36 429.828 513.36C426.3 513.36 423.528 511.704 423.528 508.176C423.528 503.784 426.984 502.884 431.628 502.164C434.256 501.768 436.092 501.516 436.092 499.5C436.092 497.412 434.58 496.224 431.916 496.224C428.892 496.224 427.38 497.52 427.272 500.328H424.464C424.572 496.728 426.948 494.028 431.88 494.028C435.84 494.028 438.756 495.504 438.756 499.932V508.788C438.756 510.3 439.116 511.128 440.736 510.768H440.844V512.892C440.484 513.036 440.016 513.18 439.26 513.18ZM430.476 511.128C434.364 511.128 436.128 508.284 436.128 506.124V502.956C435.156 503.568 433.464 504.036 431.88 504.324C428.964 504.864 426.624 505.368 426.624 508.104C426.624 510.588 428.568 511.128 430.476 511.128ZM445.912 494.388V497.484H445.984C447.1 495.684 449.044 494.172 451.528 494.172C452.068 494.172 452.356 494.244 452.716 494.388V497.196H452.608C452.176 497.052 451.888 497.016 451.312 497.016C448.432 497.016 445.912 499.176 445.912 502.668V513H442.996V494.388H445.912ZM469.248 513.18C467.34 513.18 466.332 512.316 466.044 510.408H466.008C464.892 511.848 462.984 513.36 459.816 513.36C456.288 513.36 453.516 511.704 453.516 508.176C453.516 503.784 456.972 502.884 461.616 502.164C464.244 501.768 466.08 501.516 466.08 499.5C466.08 497.412 464.568 496.224 461.904 496.224C458.88 496.224 457.368 497.52 457.26 500.328H454.452C454.56 496.728 456.936 494.028 461.868 494.028C465.828 494.028 468.744 495.504 468.744 499.932V508.788C468.744 510.3 469.104 511.128 470.724 510.768H470.832V512.892C470.472 513.036 470.004 513.18 469.248 513.18ZM460.464 511.128C464.352 511.128 466.116 508.284 466.116 506.124V502.956C465.144 503.568 463.452 504.036 461.868 504.324C458.952 504.864 456.612 505.368 456.612 508.104C456.612 510.588 458.556 511.128 460.464 511.128ZM473.092 513V487.26H476.008V513H473.092ZM480.193 513V487.26H483.109V513H480.193ZM495.143 513.504C489.455 513.504 486.143 509.112 486.143 503.712C486.143 498.312 489.671 493.92 494.963 493.92C500.543 493.92 503.531 498.24 503.531 504.396H489.131C489.347 508.176 491.399 511.056 495.143 511.056C497.843 511.056 499.643 509.76 500.291 507.24H503.135C502.271 511.236 499.355 513.504 495.143 513.504ZM494.963 496.224C491.507 496.224 489.635 498.816 489.203 502.2H500.399C500.219 498.492 498.311 496.224 494.963 496.224ZM506.49 513V487.26H509.406V513H506.49ZM519.214 513V494.388H522.13V497.052H522.202C523.354 495.252 525.334 493.956 527.674 493.956C529.942 493.956 531.742 495.108 532.534 497.268H532.606C533.794 495.144 536.026 493.956 538.294 493.956C541.606 493.956 543.946 496.08 543.946 499.932V513H541.03V500.076C541.03 497.772 539.482 496.404 537.61 496.404C535.198 496.404 533.038 498.492 533.038 501.408V513H530.122V500.076C530.122 497.772 528.826 496.404 526.918 496.404C524.65 496.404 522.13 498.492 522.13 501.408V513H519.214ZM555.752 513.504C550.064 513.504 546.752 509.112 546.752 503.712C546.752 498.312 550.28 493.92 555.572 493.92C561.152 493.92 564.14 498.24 564.14 504.396H549.74C549.956 508.176 552.008 511.056 555.752 511.056C558.452 511.056 560.252 509.76 560.9 507.24H563.744C562.88 511.236 559.964 513.504 555.752 513.504ZM555.572 496.224C552.116 496.224 550.244 498.816 549.812 502.2H561.008C560.828 498.492 558.92 496.224 555.572 496.224ZM569.908 494.388V497.484H569.98C571.096 495.684 573.04 494.172 575.524 494.172C576.064 494.172 576.352 494.244 576.712 494.388V497.196H576.604C576.172 497.052 575.884 497.016 575.308 497.016C572.428 497.016 569.908 499.176 569.908 502.668V513H566.992V494.388H569.908ZM586.044 519.192C581.22 519.192 578.484 517.248 578.16 514.044H580.86C581.148 516.096 583.092 516.888 585.972 516.888C589.392 516.888 591.3 515.34 591.3 512.1V509.472H591.228C589.86 511.236 588.384 512.352 585.72 512.352C580.896 512.352 577.584 508.5 577.584 503.136C577.584 497.34 581.22 493.956 585.54 493.956C588.24 493.956 589.968 495 591.228 496.764H591.3V494.388H594.216V511.992C594.216 516.888 590.976 519.192 586.044 519.192ZM585.864 509.904C590.148 509.904 591.516 506.916 591.516 502.992C591.516 498.924 589.788 496.404 585.828 496.404C582.336 496.404 580.572 499.14 580.572 503.172C580.572 507.24 582.408 509.904 585.864 509.904ZM598.175 513V494.388H601.091V513H598.175ZM598.175 490.86V487.26H601.091V490.86H598.175ZM607.982 494.388V496.836H608.054C609.386 495.072 611.258 493.956 613.958 493.956C617.846 493.956 620.222 496.08 620.222 499.932V513H617.306V500.184C617.306 497.772 615.722 496.404 613.094 496.404C610.142 496.404 607.982 498.492 607.982 501.552V513H605.066V494.388H607.982ZM631.501 519.192C626.677 519.192 623.941 517.248 623.617 514.044H626.317C626.605 516.096 628.549 516.888 631.429 516.888C634.849 516.888 636.757 515.34 636.757 512.1V509.472H636.685C635.317 511.236 633.841 512.352 631.177 512.352C626.353 512.352 623.041 508.5 623.041 503.136C623.041 497.34 626.677 493.956 630.997 493.956C633.697 493.956 635.425 495 636.685 496.764H636.757V494.388H639.673V511.992C639.673 516.888 636.433 519.192 631.501 519.192ZM631.321 509.904C635.605 509.904 636.973 506.916 636.973 502.992C636.973 498.924 635.245 496.404 631.285 496.404C627.793 496.404 626.029 499.14 626.029 503.172C626.029 507.24 627.865 509.904 631.321 509.904ZM657.319 513.504C651.775 513.504 648.319 509.112 648.319 503.712C648.319 498.312 651.775 493.92 657.319 493.92C661.711 493.92 664.627 496.44 665.275 500.4H662.323C661.891 497.88 660.127 496.332 657.319 496.332C653.359 496.332 651.307 499.608 651.307 503.712C651.307 507.816 653.359 511.056 657.319 511.056C660.343 511.056 662.143 509.328 662.395 506.448H665.275C664.879 510.912 661.963 513.504 657.319 513.504ZM675.987 513.504C670.443 513.504 666.987 509.112 666.987 503.712C666.987 498.312 670.443 493.92 675.987 493.92C681.567 493.92 684.951 498.312 684.951 503.712C684.951 509.112 681.567 513.504 675.987 513.504ZM675.987 511.056C679.947 511.056 681.963 507.816 681.963 503.712C681.963 499.608 679.947 496.332 675.987 496.332C672.027 496.332 669.975 499.608 669.975 503.712C669.975 507.816 672.027 511.056 675.987 511.056ZM690.775 494.388V496.836H690.847C692.179 495.072 694.051 493.956 696.751 493.956C700.639 493.956 703.015 496.08 703.015 499.932V513H700.099V500.184C700.099 497.772 698.515 496.404 695.887 496.404C692.935 496.404 690.775 498.492 690.775 501.552V513H687.859V494.388H690.775ZM714.834 513.504C709.29 513.504 705.834 509.112 705.834 503.712C705.834 498.312 709.29 493.92 714.834 493.92C719.226 493.92 722.142 496.44 722.79 500.4H719.838C719.406 497.88 717.642 496.332 714.834 496.332C710.874 496.332 708.822 499.608 708.822 503.712C708.822 507.816 710.874 511.056 714.834 511.056C717.858 511.056 719.658 509.328 719.91 506.448H722.79C722.394 510.912 719.478 513.504 714.834 513.504ZM733.502 513.504C727.814 513.504 724.502 509.112 724.502 503.712C724.502 498.312 728.03 493.92 733.322 493.92C738.902 493.92 741.89 498.24 741.89 504.396H727.49C727.706 508.176 729.758 511.056 733.502 511.056C736.202 511.056 738.002 509.76 738.65 507.24H741.494C740.63 511.236 737.714 513.504 733.502 513.504ZM733.322 496.224C729.866 496.224 727.994 498.816 727.562 502.2H738.758C738.578 498.492 736.67 496.224 733.322 496.224ZM744.742 518.976V494.388H747.658V497.016H747.73C749.134 495.108 751.006 493.956 753.706 493.956C758.422 493.956 761.698 497.556 761.698 503.748C761.698 509.724 758.638 513.54 753.598 513.54C751.078 513.54 749.278 512.784 747.73 510.804H747.658V518.976H744.742ZM753.382 511.092C756.946 511.092 758.71 507.996 758.71 503.784C758.71 499.608 756.946 496.44 753.418 496.44C749.35 496.44 747.478 499.752 747.478 503.784C747.478 507.816 749.098 511.092 753.382 511.092ZM762.89 496.764V494.388H765.59V488.52H768.506V494.388H772.106V496.764H768.506V508.86C768.506 510.156 769.19 510.588 770.378 510.588C770.954 510.588 771.602 510.444 771.926 510.336H772.034V512.856C771.35 513 770.558 513.108 769.694 513.108C767.318 513.108 765.59 512.136 765.59 509.508V496.764H762.89Z" fill="black"/>
<path d="M235.36 567L244.828 541.26H248.464L257.968 567H254.44L251.704 559.152H241.444L238.672 567H235.36ZM245.44 547.884L242.38 556.524H250.804L247.852 547.884C247.348 546.444 246.7 544.248 246.7 544.248H246.628C246.628 544.248 245.944 546.408 245.44 547.884ZM266.996 567.54C261.92 567.54 258.752 563.724 258.752 557.748C258.752 551.556 262.316 547.956 266.924 547.956C269.552 547.956 271.568 549.252 272.756 551.016H272.828V541.26H275.744V567H272.828V564.732H272.756C271.352 566.532 269.624 567.54 266.996 567.54ZM267.104 565.092C271.244 565.092 273.008 561.996 273.008 557.784C273.008 553.464 270.92 550.44 267.068 550.44C263.54 550.44 261.74 553.608 261.74 557.784C261.74 561.996 263.54 565.092 267.104 565.092ZM286.895 567.54C281.819 567.54 278.651 563.724 278.651 557.748C278.651 551.556 282.215 547.956 286.823 547.956C289.451 547.956 291.467 549.252 292.655 551.016H292.727V541.26H295.643V567H292.727V564.732H292.655C291.251 566.532 289.523 567.54 286.895 567.54ZM287.003 565.092C291.143 565.092 292.907 561.996 292.907 557.784C292.907 553.464 290.819 550.44 286.967 550.44C283.439 550.44 281.639 553.608 281.639 557.784C281.639 561.996 283.439 565.092 287.003 565.092ZM299.593 567V548.388H302.509V567H299.593ZM299.593 544.86V541.26H302.509V544.86H299.593ZM305.296 550.764V548.388H307.996V542.52H310.912V548.388H314.512V550.764H310.912V562.86C310.912 564.156 311.596 564.588 312.784 564.588C313.36 564.588 314.008 564.444 314.332 564.336H314.44V566.856C313.756 567 312.964 567.108 312.1 567.108C309.724 567.108 307.996 566.136 307.996 563.508V550.764H305.296ZM317.523 567V548.388H320.439V567H317.523ZM317.523 544.86V541.26H320.439V544.86H317.523ZM332.37 567.504C326.826 567.504 323.37 563.112 323.37 557.712C323.37 552.312 326.826 547.92 332.37 547.92C337.95 547.92 341.334 552.312 341.334 557.712C341.334 563.112 337.95 567.504 332.37 567.504ZM332.37 565.056C336.33 565.056 338.346 561.816 338.346 557.712C338.346 553.608 336.33 550.332 332.37 550.332C328.41 550.332 326.358 553.608 326.358 557.712C326.358 561.816 328.41 565.056 332.37 565.056ZM347.158 548.388V550.836H347.23C348.562 549.072 350.434 547.956 353.134 547.956C357.022 547.956 359.398 550.08 359.398 553.932V567H356.482V554.184C356.482 551.772 354.898 550.404 352.27 550.404C349.318 550.404 347.158 552.492 347.158 555.552V567H344.242V548.388H347.158ZM376.948 567.504C371.404 567.504 367.948 563.112 367.948 557.712C367.948 552.312 371.404 547.92 376.948 547.92C382.528 547.92 385.912 552.312 385.912 557.712C385.912 563.112 382.528 567.504 376.948 567.504ZM376.948 565.056C380.908 565.056 382.924 561.816 382.924 557.712C382.924 553.608 380.908 550.332 376.948 550.332C372.988 550.332 370.936 553.608 370.936 557.712C370.936 561.816 372.988 565.056 376.948 565.056ZM387.28 550.764V548.388H389.836V545.4C389.836 542.196 391.672 541.044 394.768 541.044C395.38 541.044 395.848 541.08 396.244 541.116V543.6C395.74 543.564 395.596 543.564 395.308 543.564C393.436 543.564 392.752 544.032 392.752 545.544V548.388H396.208V550.764H392.752V567H389.836V550.764H387.28ZM404.889 567V541.26H407.805V567H404.889ZM411.882 567V548.388H414.798V567H411.882ZM411.882 544.86V541.26H414.798V544.86H411.882ZM426.189 573.192C421.365 573.192 418.629 571.248 418.305 568.044H421.005C421.293 570.096 423.237 570.888 426.117 570.888C429.537 570.888 431.445 569.34 431.445 566.1V563.472H431.373C430.005 565.236 428.529 566.352 425.865 566.352C421.041 566.352 417.729 562.5 417.729 557.136C417.729 551.34 421.365 547.956 425.685 547.956C428.385 547.956 430.113 549 431.373 550.764H431.445V548.388H434.361V565.992C434.361 570.888 431.121 573.192 426.189 573.192ZM426.009 563.904C430.293 563.904 431.661 560.916 431.661 556.992C431.661 552.924 429.933 550.404 425.973 550.404C422.481 550.404 420.717 553.14 420.717 557.172C420.717 561.24 422.553 563.904 426.009 563.904ZM441.236 541.26V550.836H441.308C442.64 549.072 444.512 547.956 447.212 547.956C451.1 547.956 453.476 550.08 453.476 553.932V567H450.56V554.184C450.56 551.772 448.976 550.404 446.348 550.404C443.396 550.404 441.236 552.492 441.236 555.552V567H438.32V541.26H441.236ZM455.8 550.764V548.388H458.5V542.52H461.416V548.388H465.016V550.764H461.416V562.86C461.416 564.156 462.1 564.588 463.288 564.588C463.864 564.588 464.512 564.444 464.836 564.336H464.944V566.856C464.26 567 463.468 567.108 462.604 567.108C460.228 567.108 458.5 566.136 458.5 563.508V550.764H455.8ZM473.757 567V548.388H476.673V551.052H476.745C477.897 549.252 479.877 547.956 482.217 547.956C484.485 547.956 486.285 549.108 487.077 551.268H487.149C488.337 549.144 490.569 547.956 492.837 547.956C496.149 547.956 498.489 550.08 498.489 553.932V567H495.573V554.076C495.573 551.772 494.025 550.404 492.153 550.404C489.741 550.404 487.581 552.492 487.581 555.408V567H484.665V554.076C484.665 551.772 483.369 550.404 481.461 550.404C479.193 550.404 476.673 552.492 476.673 555.408V567H473.757ZM510.295 567.504C504.751 567.504 501.295 563.112 501.295 557.712C501.295 552.312 504.751 547.92 510.295 547.92C515.875 547.92 519.259 552.312 519.259 557.712C519.259 563.112 515.875 567.504 510.295 567.504ZM510.295 565.056C514.255 565.056 516.271 561.816 516.271 557.712C516.271 553.608 514.255 550.332 510.295 550.332C506.335 550.332 504.283 553.608 504.283 557.712C504.283 561.816 506.335 565.056 510.295 565.056ZM529.368 567.54C524.292 567.54 521.124 563.724 521.124 557.748C521.124 551.556 524.688 547.956 529.296 547.956C531.924 547.956 533.94 549.252 535.128 551.016H535.2V541.26H538.116V567H535.2V564.732H535.128C533.724 566.532 531.996 567.54 529.368 567.54ZM529.476 565.092C533.616 565.092 535.38 561.996 535.38 557.784C535.38 553.464 533.292 550.44 529.439 550.44C525.912 550.44 524.112 553.608 524.112 557.784C524.112 561.996 525.912 565.092 529.476 565.092ZM550.022 567.504C544.334 567.504 541.022 563.112 541.022 557.712C541.022 552.312 544.55 547.92 549.842 547.92C555.422 547.92 558.41 552.24 558.41 558.396H544.01C544.226 562.176 546.278 565.056 550.022 565.056C552.722 565.056 554.522 563.76 555.17 561.24H558.014C557.15 565.236 554.234 567.504 550.022 567.504ZM549.842 550.224C546.386 550.224 544.514 552.816 544.082 556.2H555.278C555.098 552.492 553.19 550.224 549.842 550.224Z" fill="black"/>
<path d="M237.412 621V595.26H249.436C253.972 595.26 257.032 598.104 257.032 602.316C257.032 605.448 255.664 607.68 252.568 608.688V608.796C255.196 609.732 256.024 611.532 256.276 615.348C256.564 619.488 256.996 620.532 257.464 620.856V621H253.972C253.432 620.532 253.324 619.56 253.036 615.24C252.784 611.46 251.272 610.128 247.816 610.128H240.652V621H237.412ZM240.652 598.068V607.5H248.284C251.884 607.5 253.684 605.7 253.684 602.784C253.684 599.652 252.244 598.068 248.464 598.068H240.652ZM268.315 621.504C262.627 621.504 259.315 617.112 259.315 611.712C259.315 606.312 262.843 601.92 268.135 601.92C273.715 601.92 276.703 606.24 276.703 612.396H262.303C262.519 616.176 264.571 619.056 268.315 619.056C271.015 619.056 272.815 617.76 273.463 615.24H276.307C275.443 619.236 272.527 621.504 268.315 621.504ZM268.135 604.224C264.679 604.224 262.807 606.816 262.375 610.2H273.571C273.391 606.492 271.483 604.224 268.135 604.224ZM279.554 621V602.388H282.47V605.052H282.542C283.694 603.252 285.674 601.956 288.014 601.956C290.282 601.956 292.082 603.108 292.874 605.268H292.946C294.134 603.144 296.366 601.956 298.634 601.956C301.946 601.956 304.286 604.08 304.286 607.932V621H301.37V608.076C301.37 605.772 299.822 604.404 297.95 604.404C295.538 604.404 293.378 606.492 293.378 609.408V621H290.462V608.076C290.462 605.772 289.166 604.404 287.258 604.404C284.99 604.404 282.47 606.492 282.47 609.408V621H279.554ZM316.092 621.504C310.548 621.504 307.092 617.112 307.092 611.712C307.092 606.312 310.548 601.92 316.092 601.92C321.672 601.92 325.056 606.312 325.056 611.712C325.056 617.112 321.672 621.504 316.092 621.504ZM316.092 619.056C320.052 619.056 322.068 615.816 322.068 611.712C322.068 607.608 320.052 604.332 316.092 604.332C312.132 604.332 310.08 607.608 310.08 611.712C310.08 615.816 312.132 619.056 316.092 619.056ZM332.221 621L325.705 602.388H328.837L332.689 614.196C333.229 615.852 333.913 618.12 333.913 618.12H333.985C333.985 618.12 334.669 615.816 335.209 614.196L339.133 602.388H342.157L335.461 621H332.221ZM358.295 621.18C356.387 621.18 355.379 620.316 355.091 618.408H355.055C353.939 619.848 352.031 621.36 348.863 621.36C345.335 621.36 342.563 619.704 342.563 616.176C342.563 611.784 346.019 610.884 350.663 610.164C353.291 609.768 355.127 609.516 355.127 607.5C355.127 605.412 353.615 604.224 350.951 604.224C347.927 604.224 346.415 605.52 346.307 608.328H343.499C343.607 604.728 345.983 602.028 350.915 602.028C354.875 602.028 357.791 603.504 357.791 607.932V616.788C357.791 618.3 358.151 619.128 359.771 618.768H359.879V620.892C359.519 621.036 359.051 621.18 358.295 621.18ZM349.511 619.128C353.399 619.128 355.163 616.284 355.163 614.124V610.956C354.191 611.568 352.499 612.036 350.915 612.324C347.999 612.864 345.659 613.368 345.659 616.104C345.659 618.588 347.603 619.128 349.511 619.128ZM362.139 621V595.26H365.055V621H362.139ZM382.819 621.504C377.275 621.504 373.819 617.112 373.819 611.712C373.819 606.312 377.275 601.92 382.819 601.92C388.399 601.92 391.783 606.312 391.783 611.712C391.783 617.112 388.399 621.504 382.819 621.504ZM382.819 619.056C386.779 619.056 388.795 615.816 388.795 611.712C388.795 607.608 386.779 604.332 382.819 604.332C378.859 604.332 376.807 607.608 376.807 611.712C376.807 615.816 378.859 619.056 382.819 619.056ZM393.151 604.764V602.388H395.707V599.4C395.707 596.196 397.543 595.044 400.639 595.044C401.251 595.044 401.719 595.08 402.115 595.116V597.6C401.611 597.564 401.467 597.564 401.179 597.564C399.307 597.564 398.623 598.032 398.623 599.544V602.388H402.079V604.764H398.623V621H395.707V604.764H393.151ZM415.26 621L408.744 602.388H411.876L415.728 614.196C416.268 615.852 416.952 618.12 416.952 618.12H417.024C417.024 618.12 417.708 615.816 418.248 614.196L422.172 602.388H425.196L418.5 621H415.26ZM427.246 621V602.388H430.162V621H427.246ZM427.246 598.86V595.26H430.162V598.86H427.246ZM441.192 621.54C436.08 621.54 433.236 619.128 432.948 614.952H435.936C436.332 618.192 438.492 619.092 441.264 619.092C444.324 619.092 445.584 617.76 445.584 616.032C445.584 613.944 444.144 613.404 440.724 612.684C437.052 611.928 433.776 611.172 433.776 607.104C433.776 604.008 436.152 601.992 440.472 601.992C445.08 601.992 447.348 604.188 447.78 607.824H444.792C444.504 605.376 443.172 604.296 440.4 604.296C437.736 604.296 436.656 605.484 436.656 606.96C436.656 608.976 438.456 609.372 441.66 610.02C445.404 610.776 448.536 611.604 448.536 615.888C448.536 619.632 445.476 621.54 441.192 621.54ZM466.088 621H463.172V618.444H463.1C461.768 620.244 460.184 621.432 457.484 621.432C453.668 621.432 451.22 619.128 451.22 615.276V602.388H454.136V615.204C454.136 617.616 455.684 619.02 458.312 619.02C461.264 619.02 463.172 616.788 463.172 613.836V602.388H466.088V621ZM484.647 621.18C482.739 621.18 481.731 620.316 481.443 618.408H481.407C480.291 619.848 478.383 621.36 475.215 621.36C471.687 621.36 468.915 619.704 468.915 616.176C468.915 611.784 472.371 610.884 477.015 610.164C479.643 609.768 481.479 609.516 481.479 607.5C481.479 605.412 479.967 604.224 477.303 604.224C474.279 604.224 472.767 605.52 472.659 608.328H469.851C469.959 604.728 472.335 602.028 477.267 602.028C481.227 602.028 484.143 603.504 484.143 607.932V616.788C484.143 618.3 484.503 619.128 486.123 618.768H486.231V620.892C485.871 621.036 485.403 621.18 484.647 621.18ZM475.863 619.128C479.751 619.128 481.515 616.284 481.515 614.124V610.956C480.543 611.568 478.851 612.036 477.267 612.324C474.351 612.864 472.011 613.368 472.011 616.104C472.011 618.588 473.955 619.128 475.863 619.128ZM488.49 621V595.26H491.406V621H488.49ZM495.484 621V602.388H498.4V621H495.484ZM495.484 598.86V595.26H498.4V598.86H495.484ZM501.619 621V618.696L511.987 605.052V604.944H502.231V602.388H516.055V604.116L505.363 618.228V618.336H516.451V621H501.619ZM533.936 621.18C532.028 621.18 531.02 620.316 530.732 618.408H530.696C529.58 619.848 527.672 621.36 524.504 621.36C520.976 621.36 518.204 619.704 518.204 616.176C518.204 611.784 521.66 610.884 526.304 610.164C528.932 609.768 530.768 609.516 530.768 607.5C530.768 605.412 529.256 604.224 526.592 604.224C523.568 604.224 522.056 605.52 521.948 608.328H519.14C519.248 604.728 521.624 602.028 526.556 602.028C530.516 602.028 533.432 603.504 533.432 607.932V616.788C533.432 618.3 533.792 619.128 535.412 618.768H535.52V620.892C535.16 621.036 534.692 621.18 533.936 621.18ZM525.152 619.128C529.04 619.128 530.804 616.284 530.804 614.124V610.956C529.832 611.568 528.14 612.036 526.556 612.324C523.64 612.864 521.3 613.368 521.3 616.104C521.3 618.588 523.244 619.128 525.152 619.128ZM536.132 604.764V602.388H538.832V596.52H541.748V602.388H545.348V604.764H541.748V616.86C541.748 618.156 542.432 618.588 543.62 618.588C544.196 618.588 544.844 618.444 545.168 618.336H545.276V620.856C544.592 621 543.8 621.108 542.936 621.108C540.56 621.108 538.832 620.136 538.832 617.508V604.764H536.132ZM548.359 621V602.388H551.275V621H548.359ZM548.359 598.86V595.26H551.275V598.86H548.359ZM563.206 621.504C557.662 621.504 554.206 617.112 554.206 611.712C554.206 606.312 557.662 601.92 563.206 601.92C568.786 601.92 572.17 606.312 572.17 611.712C572.17 617.112 568.786 621.504 563.206 621.504ZM563.206 619.056C567.166 619.056 569.182 615.816 569.182 611.712C569.182 607.608 567.166 604.332 563.206 604.332C559.246 604.332 557.194 607.608 557.194 611.712C557.194 615.816 559.246 619.056 563.206 619.056ZM577.994 602.388V604.836H578.066C579.398 603.072 581.27 601.956 583.97 601.956C587.858 601.956 590.234 604.08 590.234 607.932V621H587.318V608.184C587.318 605.772 585.734 604.404 583.106 604.404C580.154 604.404 577.994 606.492 577.994 609.552V621H575.078V602.388H577.994ZM601.153 621.54C596.041 621.54 593.197 619.128 592.909 614.952H595.897C596.293 618.192 598.453 619.092 601.225 619.092C604.285 619.092 605.545 617.76 605.545 616.032C605.545 613.944 604.105 613.404 600.685 612.684C597.013 611.928 593.737 611.172 593.737 607.104C593.737 604.008 596.113 601.992 600.433 601.992C605.041 601.992 607.309 604.188 607.741 607.824H604.753C604.465 605.376 603.133 604.296 600.361 604.296C597.697 604.296 596.617 605.484 596.617 606.96C596.617 608.976 598.417 609.372 601.621 610.02C605.365 610.776 608.497 611.604 608.497 615.888C608.497 619.632 605.437 621.54 601.153 621.54ZM617.019 621V602.388H619.935V621H617.019ZM617.019 598.86V595.26H619.935V598.86H617.019ZM626.826 602.388V604.836H626.898C628.23 603.072 630.102 601.956 632.802 601.956C636.69 601.956 639.066 604.08 639.066 607.932V621H636.15V608.184C636.15 605.772 634.566 604.404 631.938 604.404C628.986 604.404 626.826 606.492 626.826 609.552V621H623.91V602.388H626.826ZM655.716 621.54C650.604 621.54 647.76 619.128 647.472 614.952H650.46C650.856 618.192 653.016 619.092 655.788 619.092C658.848 619.092 660.108 617.76 660.108 616.032C660.108 613.944 658.668 613.404 655.248 612.684C651.576 611.928 648.3 611.172 648.3 607.104C648.3 604.008 650.676 601.992 654.996 601.992C659.604 601.992 661.872 604.188 662.304 607.824H659.316C659.028 605.376 657.696 604.296 654.924 604.296C652.26 604.296 651.18 605.484 651.18 606.96C651.18 608.976 652.98 609.372 656.184 610.02C659.928 610.776 663.06 611.604 663.06 615.888C663.06 619.632 660 621.54 655.716 621.54ZM665.851 621V602.388H668.767V621H665.851ZM665.851 598.86V595.26H668.767V598.86H665.851ZM679.942 621.54C674.866 621.54 671.698 617.724 671.698 611.748C671.698 605.556 675.262 601.956 679.87 601.956C682.498 601.956 684.514 603.252 685.702 605.016H685.774V595.26H688.69V621H685.774V618.732H685.702C684.298 620.532 682.57 621.54 679.942 621.54ZM680.05 619.092C684.19 619.092 685.954 615.996 685.954 611.784C685.954 607.464 683.866 604.44 680.014 604.44C676.486 604.44 674.686 607.608 674.686 611.784C674.686 615.996 676.486 619.092 680.05 619.092ZM700.596 621.504C694.908 621.504 691.596 617.112 691.596 611.712C691.596 606.312 695.124 601.92 700.416 601.92C705.996 601.92 708.984 606.24 708.984 612.396H694.584C694.8 616.176 696.852 619.056 700.596 619.056C703.296 619.056 705.096 617.76 705.744 615.24H708.588C707.724 619.236 704.808 621.504 700.596 621.504ZM700.416 604.224C696.96 604.224 695.088 606.816 694.656 610.2H705.852C705.672 606.492 703.764 604.224 700.416 604.224ZM720.691 621.54C718.171 621.54 716.335 620.64 714.823 618.552H714.751V621H711.835V595.26H714.751V605.052H714.823C716.227 603.144 718.099 601.956 720.799 601.956C725.515 601.956 728.719 605.556 728.719 611.748C728.719 617.724 725.731 621.54 720.691 621.54ZM720.475 619.092C724.039 619.092 725.731 615.996 725.731 611.784C725.731 607.608 724.039 604.44 720.511 604.44C716.443 604.44 714.571 607.752 714.571 611.784C714.571 615.96 716.515 619.092 720.475 619.092ZM746.244 621.18C744.336 621.18 743.328 620.316 743.04 618.408H743.004C741.888 619.848 739.98 621.36 736.812 621.36C733.284 621.36 730.512 619.704 730.512 616.176C730.512 611.784 733.968 610.884 738.612 610.164C741.24 609.768 743.076 609.516 743.076 607.5C743.076 605.412 741.564 604.224 738.9 604.224C735.876 604.224 734.364 605.52 734.256 608.328H731.448C731.556 604.728 733.932 602.028 738.864 602.028C742.824 602.028 745.74 603.504 745.74 607.932V616.788C745.74 618.3 746.1 619.128 747.72 618.768H747.828V620.892C747.468 621.036 747 621.18 746.244 621.18ZM737.46 619.128C741.348 619.128 743.112 616.284 743.112 614.124V610.956C742.14 611.568 740.448 612.036 738.864 612.324C735.948 612.864 733.608 613.368 733.608 616.104C733.608 618.588 735.552 619.128 737.46 619.128ZM752.896 602.388V605.484H752.968C754.084 603.684 756.028 602.172 758.512 602.172C759.052 602.172 759.34 602.244 759.7 602.388V605.196H759.592C759.16 605.052 758.872 605.016 758.296 605.016C755.416 605.016 752.896 607.176 752.896 610.668V621H749.98V602.388H752.896Z" fill="black"/>
<path d="M235.36 675L244.828 649.26H248.464L257.968 675H254.44L251.704 667.152H241.444L238.672 675H235.36ZM245.44 655.884L242.38 664.524H250.804L247.852 655.884C247.348 654.444 246.7 652.248 246.7 652.248H246.628C246.628 652.248 245.944 654.408 245.44 655.884ZM274.556 675H271.64V672.444H271.568C270.236 674.244 268.652 675.432 265.952 675.432C262.136 675.432 259.688 673.128 259.688 669.276V656.388H262.604V669.204C262.604 671.616 264.152 673.02 266.78 673.02C269.732 673.02 271.64 670.788 271.64 667.836V656.388H274.556V675ZM277.312 658.764V656.388H280.012V650.52H282.928V656.388H286.528V658.764H282.928V670.86C282.928 672.156 283.612 672.588 284.8 672.588C285.376 672.588 286.024 672.444 286.348 672.336H286.456V674.856C285.772 675 284.98 675.108 284.116 675.108C281.74 675.108 280.012 674.136 280.012 671.508V658.764H277.312ZM297.319 675.504C291.775 675.504 288.319 671.112 288.319 665.712C288.319 660.312 291.775 655.92 297.319 655.92C302.899 655.92 306.283 660.312 306.283 665.712C306.283 671.112 302.899 675.504 297.319 675.504ZM297.319 673.056C301.279 673.056 303.295 669.816 303.295 665.712C303.295 661.608 301.279 658.332 297.319 658.332C293.359 658.332 291.307 661.608 291.307 665.712C291.307 669.816 293.359 673.056 297.319 673.056ZM322.877 675.504C317.189 675.504 313.877 671.112 313.877 665.712C313.877 660.312 317.405 655.92 322.697 655.92C328.277 655.92 331.265 660.24 331.265 666.396H316.865C317.081 670.176 319.133 673.056 322.877 673.056C325.577 673.056 327.377 671.76 328.025 669.24H330.869C330.005 673.236 327.089 675.504 322.877 675.504ZM322.697 658.224C319.241 658.224 317.369 660.816 316.937 664.2H328.133C327.953 660.492 326.045 658.224 322.697 658.224ZM331.439 675L338.459 665.244L332.267 656.388H335.651L340.079 663.156H340.151L344.759 656.388H347.963L341.843 664.92L349.115 675H345.695L340.187 667.008H340.115L334.715 675H331.439ZM351.308 680.976V656.388H354.224V659.016H354.296C355.7 657.108 357.572 655.956 360.272 655.956C364.988 655.956 368.264 659.556 368.264 665.748C368.264 671.724 365.204 675.54 360.164 675.54C357.644 675.54 355.844 674.784 354.296 672.804H354.224V680.976H351.308ZM359.948 673.092C363.512 673.092 365.276 669.996 365.276 665.784C365.276 661.608 363.512 658.44 359.984 658.44C355.916 658.44 354.044 661.752 354.044 665.784C354.044 669.816 355.664 673.092 359.948 673.092ZM385.787 675.18C383.879 675.18 382.871 674.316 382.583 672.408H382.547C381.431 673.848 379.523 675.36 376.355 675.36C372.827 675.36 370.055 673.704 370.055 670.176C370.055 665.784 373.511 664.884 378.155 664.164C380.783 663.768 382.619 663.516 382.619 661.5C382.619 659.412 381.107 658.224 378.443 658.224C375.419 658.224 373.907 659.52 373.799 662.328H370.991C371.099 658.728 373.475 656.028 378.407 656.028C382.367 656.028 385.283 657.504 385.283 661.932V670.788C385.283 672.3 385.643 673.128 387.263 672.768H387.371V674.892C387.011 675.036 386.543 675.18 385.787 675.18ZM377.003 673.128C380.891 673.128 382.655 670.284 382.655 668.124V664.956C381.683 665.568 379.991 666.036 378.407 666.324C375.491 666.864 373.151 667.368 373.151 670.104C373.151 672.588 375.095 673.128 377.003 673.128ZM392.439 656.388V658.836H392.511C393.843 657.072 395.715 655.956 398.415 655.956C402.303 655.956 404.679 658.08 404.679 661.932V675H401.763V662.184C401.763 659.772 400.179 658.404 397.551 658.404C394.599 658.404 392.439 660.492 392.439 663.552V675H389.523V656.388H392.439ZM415.743 675.54C410.667 675.54 407.499 671.724 407.499 665.748C407.499 659.556 411.062 655.956 415.671 655.956C418.299 655.956 420.315 657.252 421.503 659.016H421.575V649.26H424.491V675H421.575V672.732H421.503C420.099 674.532 418.371 675.54 415.743 675.54ZM415.851 673.092C419.991 673.092 421.755 669.996 421.755 665.784C421.755 661.464 419.667 658.44 415.814 658.44C412.287 658.44 410.487 661.608 410.487 665.784C410.487 669.996 412.287 673.092 415.851 673.092ZM436.397 675.504C430.709 675.504 427.397 671.112 427.397 665.712C427.397 660.312 430.925 655.92 436.217 655.92C441.797 655.92 444.785 660.24 444.785 666.396H430.385C430.601 670.176 432.653 673.056 436.397 673.056C439.097 673.056 440.897 671.76 441.545 669.24H444.389C443.525 673.236 440.609 675.504 436.397 675.504ZM436.217 658.224C432.761 658.224 430.889 660.816 430.457 664.2H441.653C441.473 660.492 439.565 658.224 436.217 658.224ZM454.836 675.54C449.76 675.54 446.592 671.724 446.592 665.748C446.592 659.556 450.156 655.956 454.764 655.956C457.392 655.956 459.408 657.252 460.596 659.016H460.668V649.26H463.584V675H460.668V672.732H460.596C459.192 674.532 457.464 675.54 454.836 675.54ZM454.944 673.092C459.084 673.092 460.848 669.996 460.848 665.784C460.848 661.464 458.76 658.44 454.908 658.44C451.38 658.44 449.58 661.608 449.58 665.784C449.58 669.996 451.38 673.092 454.944 673.092ZM476.181 649.26V658.836H476.253C477.585 657.072 479.457 655.956 482.157 655.956C486.045 655.956 488.421 658.08 488.421 661.932V675H485.505V662.184C485.505 659.772 483.921 658.404 481.293 658.404C478.341 658.404 476.181 660.492 476.181 663.552V675H473.265V649.26H476.181ZM492.285 675V656.388H495.201V675H492.285ZM492.285 652.86V649.26H495.201V652.86H492.285ZM506.231 675.54C501.119 675.54 498.275 673.128 497.987 668.952H500.975C501.371 672.192 503.531 673.092 506.303 673.092C509.363 673.092 510.623 671.76 510.623 670.032C510.623 667.944 509.183 667.404 505.763 666.684C502.091 665.928 498.815 665.172 498.815 661.104C498.815 658.008 501.191 655.992 505.511 655.992C510.119 655.992 512.387 658.188 512.819 661.824H509.831C509.543 659.376 508.211 658.296 505.439 658.296C502.775 658.296 501.695 659.484 501.695 660.96C501.695 662.976 503.495 663.372 506.699 664.02C510.443 664.776 513.575 665.604 513.575 669.888C513.575 673.632 510.515 675.54 506.231 675.54ZM514.827 658.764V656.388H517.527V650.52H520.443V656.388H524.043V658.764H520.443V670.86C520.443 672.156 521.127 672.588 522.315 672.588C522.891 672.588 523.539 672.444 523.863 672.336H523.971V674.856C523.287 675 522.495 675.108 521.631 675.108C519.255 675.108 517.527 674.136 517.527 671.508V658.764H514.827ZM534.834 675.504C529.29 675.504 525.834 671.112 525.834 665.712C525.834 660.312 529.29 655.92 534.834 655.92C540.414 655.92 543.798 660.312 543.798 665.712C543.798 671.112 540.414 675.504 534.834 675.504ZM534.834 673.056C538.794 673.056 540.81 669.816 540.81 665.712C540.81 661.608 538.794 658.332 534.834 658.332C530.874 658.332 528.822 661.608 528.822 665.712C528.822 669.816 530.874 673.056 534.834 673.056ZM549.623 656.388V659.484H549.695C550.811 657.684 552.755 656.172 555.239 656.172C555.779 656.172 556.067 656.244 556.427 656.388V659.196H556.319C555.887 659.052 555.599 659.016 555.023 659.016C552.143 659.016 549.623 661.176 549.623 664.668V675H546.707V656.388H549.623ZM561.422 681.156C560.306 681.156 559.586 681.084 558.794 680.76V678.168H558.938C559.334 678.384 559.946 678.564 560.918 678.564C562.142 678.564 562.97 678.096 563.69 676.296L564.41 674.46L557.138 656.388H560.306L564.698 667.98C565.274 669.528 565.958 671.616 565.958 671.616H566.03C566.03 671.616 566.678 669.528 567.254 667.98L571.502 656.388H574.598L566.642 676.512C565.13 680.364 563.69 681.156 561.422 681.156ZM582.39 675V656.388H585.306V675H582.39ZM582.39 652.86V649.26H585.306V652.86H582.39ZM588.093 658.764V656.388H590.793V650.52H593.709V656.388H597.309V658.764H593.709V670.86C593.709 672.156 594.393 672.588 595.581 672.588C596.157 672.588 596.805 672.444 597.129 672.336H597.237V674.856C596.553 675 595.761 675.108 594.897 675.108C592.521 675.108 590.793 674.136 590.793 671.508V658.764H588.093ZM608.1 675.504C602.412 675.504 599.1 671.112 599.1 665.712C599.1 660.312 602.628 655.92 607.92 655.92C613.5 655.92 616.488 660.24 616.488 666.396H602.088C602.304 670.176 604.356 673.056 608.1 673.056C610.8 673.056 612.6 671.76 613.248 669.24H616.092C615.228 673.236 612.312 675.504 608.1 675.504ZM607.92 658.224C604.464 658.224 602.592 660.816 602.16 664.2H613.356C613.176 660.492 611.268 658.224 607.92 658.224ZM619.339 675V656.388H622.255V659.052H622.327C623.479 657.252 625.459 655.956 627.799 655.956C630.067 655.956 631.867 657.108 632.659 659.268H632.731C633.919 657.144 636.151 655.956 638.419 655.956C641.731 655.956 644.071 658.08 644.071 661.932V675H641.155V662.076C641.155 659.772 639.607 658.404 637.735 658.404C635.323 658.404 633.163 660.492 633.163 663.408V675H630.247V662.076C630.247 659.772 628.951 658.404 627.043 658.404C624.775 658.404 622.255 660.492 622.255 663.408V675H619.339ZM654.977 675.54C649.865 675.54 647.021 673.128 646.733 668.952H649.721C650.117 672.192 652.277 673.092 655.049 673.092C658.109 673.092 659.369 671.76 659.369 670.032C659.369 667.944 657.929 667.404 654.509 666.684C650.837 665.928 647.561 665.172 647.561 661.104C647.561 658.008 649.937 655.992 654.257 655.992C658.865 655.992 661.133 658.188 661.565 661.824H658.577C658.289 659.376 656.957 658.296 654.185 658.296C651.521 658.296 650.441 659.484 650.441 660.96C650.441 662.976 652.241 663.372 655.445 664.02C659.189 664.776 662.321 665.604 662.321 669.888C662.321 673.632 659.261 675.54 654.977 675.54Z" fill="black"/>
<path d="M235.36 729L244.828 703.26H248.464L257.968 729H254.44L251.704 721.152H241.444L238.672 729H235.36ZM245.44 709.884L242.38 718.524H250.804L247.852 709.884C247.348 708.444 246.7 706.248 246.7 706.248H246.628C246.628 706.248 245.944 708.408 245.44 709.884ZM266.996 729.54C261.92 729.54 258.752 725.724 258.752 719.748C258.752 713.556 262.316 709.956 266.924 709.956C269.552 709.956 271.568 711.252 272.756 713.016H272.828V703.26H275.744V729H272.828V726.732H272.756C271.352 728.532 269.624 729.54 266.996 729.54ZM267.104 727.092C271.244 727.092 273.008 723.996 273.008 719.784C273.008 715.464 270.92 712.44 267.068 712.44C263.54 712.44 261.74 715.608 261.74 719.784C261.74 723.996 263.54 727.092 267.104 727.092ZM286.895 729.54C281.819 729.54 278.651 725.724 278.651 719.748C278.651 713.556 282.215 709.956 286.823 709.956C289.451 709.956 291.467 711.252 292.655 713.016H292.727V703.26H295.643V729H292.727V726.732H292.655C291.251 728.532 289.523 729.54 286.895 729.54ZM287.003 727.092C291.143 727.092 292.907 723.996 292.907 719.784C292.907 715.464 290.819 712.44 286.967 712.44C283.439 712.44 281.639 715.608 281.639 719.784C281.639 723.996 283.439 727.092 287.003 727.092ZM299.593 729V710.388H302.509V729H299.593ZM299.593 706.86V703.26H302.509V706.86H299.593ZM305.296 712.764V710.388H307.996V704.52H310.912V710.388H314.512V712.764H310.912V724.86C310.912 726.156 311.596 726.588 312.784 726.588C313.36 726.588 314.008 726.444 314.332 726.336H314.44V728.856C313.756 729 312.964 729.108 312.1 729.108C309.724 729.108 307.996 728.136 307.996 725.508V712.764H305.296ZM317.523 729V710.388H320.439V729H317.523ZM317.523 706.86V703.26H320.439V706.86H317.523ZM332.37 729.504C326.826 729.504 323.37 725.112 323.37 719.712C323.37 714.312 326.826 709.92 332.37 709.92C337.95 709.92 341.334 714.312 341.334 719.712C341.334 725.112 337.95 729.504 332.37 729.504ZM332.37 727.056C336.33 727.056 338.346 723.816 338.346 719.712C338.346 715.608 336.33 712.332 332.37 712.332C328.41 712.332 326.358 715.608 326.358 719.712C326.358 723.816 328.41 727.056 332.37 727.056ZM347.158 710.388V712.836H347.23C348.562 711.072 350.434 709.956 353.134 709.956C357.022 709.956 359.398 712.08 359.398 715.932V729H356.482V716.184C356.482 713.772 354.898 712.404 352.27 712.404C349.318 712.404 347.158 714.492 347.158 717.552V729H344.242V710.388H347.158ZM383.608 729.18C381.7 729.18 380.692 728.316 380.404 726.408H380.368C379.252 727.848 377.344 729.36 374.176 729.36C370.648 729.36 367.876 727.704 367.876 724.176C367.876 719.784 371.332 718.884 375.976 718.164C378.604 717.768 380.44 717.516 380.44 715.5C380.44 713.412 378.928 712.224 376.264 712.224C373.24 712.224 371.728 713.52 371.62 716.328H368.812C368.92 712.728 371.296 710.028 376.228 710.028C380.188 710.028 383.104 711.504 383.104 715.932V724.788C383.104 726.3 383.464 727.128 385.084 726.768H385.192V728.892C384.832 729.036 384.364 729.18 383.608 729.18ZM374.824 727.128C378.712 727.128 380.476 724.284 380.476 722.124V718.956C379.504 719.568 377.812 720.036 376.228 720.324C373.312 720.864 370.972 721.368 370.972 724.104C370.972 726.588 372.916 727.128 374.824 727.128ZM390.259 710.388V712.836H390.331C391.663 711.072 393.535 709.956 396.235 709.956C400.123 709.956 402.499 712.08 402.499 715.932V729H399.583V716.184C399.583 713.772 397.999 712.404 395.371 712.404C392.419 712.404 390.259 714.492 390.259 717.552V729H387.343V710.388H390.259ZM413.563 729.54C408.487 729.54 405.319 725.724 405.319 719.748C405.319 713.556 408.883 709.956 413.491 709.956C416.119 709.956 418.135 711.252 419.323 713.016H419.395V703.26H422.311V729H419.395V726.732H419.323C417.919 728.532 416.191 729.54 413.563 729.54ZM413.671 727.092C417.811 727.092 419.575 723.996 419.575 719.784C419.575 715.464 417.487 712.44 413.635 712.44C410.107 712.44 408.307 715.608 408.307 719.784C408.307 723.996 410.107 727.092 413.671 727.092ZM431.992 729V710.388H434.908V729H431.992ZM431.992 706.86V703.26H434.908V706.86H431.992ZM437.694 712.764V710.388H440.394V704.52H443.31V710.388H446.91V712.764H443.31V724.86C443.31 726.156 443.994 726.588 445.182 726.588C445.758 726.588 446.406 726.444 446.73 726.336H446.838V728.856C446.154 729 445.362 729.108 444.498 729.108C442.122 729.108 440.394 728.136 440.394 725.508V712.764H437.694ZM457.702 729.504C452.014 729.504 448.702 725.112 448.702 719.712C448.702 714.312 452.23 709.92 457.522 709.92C463.102 709.92 466.09 714.24 466.09 720.396H451.69C451.906 724.176 453.958 727.056 457.702 727.056C460.402 727.056 462.202 725.76 462.85 723.24H465.694C464.83 727.236 461.914 729.504 457.702 729.504ZM457.522 712.224C454.066 712.224 452.194 714.816 451.762 718.2H462.958C462.778 714.492 460.87 712.224 457.522 712.224ZM471.857 710.388V713.484H471.929C473.045 711.684 474.989 710.172 477.473 710.172C478.013 710.172 478.301 710.244 478.661 710.388V713.196H478.553C478.121 713.052 477.833 713.016 477.257 713.016C474.377 713.016 471.857 715.176 471.857 718.668V729H468.941V710.388H471.857ZM495.194 729.18C493.286 729.18 492.278 728.316 491.99 726.408H491.954C490.838 727.848 488.93 729.36 485.762 729.36C482.234 729.36 479.462 727.704 479.462 724.176C479.462 719.784 482.918 718.884 487.562 718.164C490.19 717.768 492.026 717.516 492.026 715.5C492.026 713.412 490.514 712.224 487.85 712.224C484.826 712.224 483.314 713.52 483.206 716.328H480.398C480.506 712.728 482.882 710.028 487.814 710.028C491.774 710.028 494.69 711.504 494.69 715.932V724.788C494.69 726.3 495.05 727.128 496.67 726.768H496.778V728.892C496.418 729.036 495.95 729.18 495.194 729.18ZM486.41 727.128C490.298 727.128 492.062 724.284 492.062 722.124V718.956C491.09 719.568 489.398 720.036 487.814 720.324C484.898 720.864 482.558 721.368 482.558 724.104C482.558 726.588 484.502 727.128 486.41 727.128ZM497.39 712.764V710.388H500.09V704.52H503.006V710.388H506.606V712.764H503.006V724.86C503.006 726.156 503.69 726.588 504.878 726.588C505.454 726.588 506.102 726.444 506.426 726.336H506.534V728.856C505.85 729 505.058 729.108 504.194 729.108C501.818 729.108 500.09 728.136 500.09 725.508V712.764H497.39ZM509.617 729V710.388H512.533V729H509.617ZM509.617 706.86V703.26H512.533V706.86H509.617ZM524.463 729.504C518.919 729.504 515.463 725.112 515.463 719.712C515.463 714.312 518.919 709.92 524.463 709.92C530.043 709.92 533.427 714.312 533.427 719.712C533.427 725.112 530.043 729.504 524.463 729.504ZM524.463 727.056C528.423 727.056 530.439 723.816 530.439 719.712C530.439 715.608 528.423 712.332 524.463 712.332C520.503 712.332 518.451 715.608 518.451 719.712C518.451 723.816 520.503 727.056 524.463 727.056ZM539.251 710.388V712.836H539.323C540.655 711.072 542.527 709.956 545.227 709.956C549.115 709.956 551.491 712.08 551.491 715.932V729H548.575V716.184C548.575 713.772 546.991 712.404 544.363 712.404C541.411 712.404 539.251 714.492 539.251 717.552V729H536.335V710.388H539.251ZM569.041 729.504C563.497 729.504 560.041 725.112 560.041 719.712C560.041 714.312 563.497 709.92 569.041 709.92C574.621 709.92 578.005 714.312 578.005 719.712C578.005 725.112 574.621 729.504 569.041 729.504ZM569.041 727.056C573.001 727.056 575.017 723.816 575.017 719.712C575.017 715.608 573.001 712.332 569.041 712.332C565.081 712.332 563.029 715.608 563.029 719.712C563.029 723.816 565.081 727.056 569.041 727.056ZM583.83 710.388V712.836H583.902C585.234 711.072 587.106 709.956 589.806 709.956C593.694 709.956 596.07 712.08 596.07 715.932V729H593.154V716.184C593.154 713.772 591.57 712.404 588.942 712.404C585.99 712.404 583.83 714.492 583.83 717.552V729H580.914V710.388H583.83ZM613.62 729.504C608.076 729.504 604.62 725.112 604.62 719.712C604.62 714.312 608.076 709.92 613.62 709.92C619.2 709.92 622.584 714.312 622.584 719.712C622.584 725.112 619.2 729.504 613.62 729.504ZM613.62 727.056C617.58 727.056 619.596 723.816 619.596 719.712C619.596 715.608 617.58 712.332 613.62 712.332C609.66 712.332 607.608 715.608 607.608 719.712C607.608 723.816 609.66 727.056 613.62 727.056ZM628.408 710.388V712.836H628.48C629.812 711.072 631.684 709.956 634.384 709.956C638.272 709.956 640.648 712.08 640.648 715.932V729H637.732V716.184C637.732 713.772 636.148 712.404 633.52 712.404C630.568 712.404 628.408 714.492 628.408 717.552V729H625.492V710.388H628.408ZM653.367 729.54C650.847 729.54 649.011 728.64 647.499 726.552H647.427V729H644.511V703.26H647.427V713.052H647.499C648.903 711.144 650.775 709.956 653.475 709.956C658.191 709.956 661.395 713.556 661.395 719.748C661.395 725.724 658.407 729.54 653.367 729.54ZM653.151 727.092C656.715 727.092 658.407 723.996 658.407 719.784C658.407 715.608 656.715 712.44 653.187 712.44C649.119 712.44 647.247 715.752 647.247 719.784C647.247 723.96 649.191 727.092 653.151 727.092ZM672.26 729.504C666.716 729.504 663.26 725.112 663.26 719.712C663.26 714.312 666.716 709.92 672.26 709.92C677.84 709.92 681.224 714.312 681.224 719.712C681.224 725.112 677.84 729.504 672.26 729.504ZM672.26 727.056C676.22 727.056 678.236 723.816 678.236 719.712C678.236 715.608 676.22 712.332 672.26 712.332C668.3 712.332 666.248 715.608 666.248 719.712C666.248 723.816 668.3 727.056 672.26 727.056ZM698.748 729.18C696.84 729.18 695.832 728.316 695.544 726.408H695.508C694.392 727.848 692.484 729.36 689.316 729.36C685.788 729.36 683.016 727.704 683.016 724.176C683.016 719.784 686.472 718.884 691.116 718.164C693.744 717.768 695.58 717.516 695.58 715.5C695.58 713.412 694.068 712.224 691.404 712.224C688.38 712.224 686.868 713.52 686.76 716.328H683.952C684.06 712.728 686.436 710.028 691.368 710.028C695.328 710.028 698.244 711.504 698.244 715.932V724.788C698.244 726.3 698.604 727.128 700.224 726.768H700.332V728.892C699.972 729.036 699.504 729.18 698.748 729.18ZM689.964 727.128C693.852 727.128 695.616 724.284 695.616 722.124V718.956C694.644 719.568 692.952 720.036 691.368 720.324C688.452 720.864 686.112 721.368 686.112 724.104C686.112 726.588 688.056 727.128 689.964 727.128ZM705.4 710.388V713.484H705.472C706.588 711.684 708.532 710.172 711.016 710.172C711.556 710.172 711.844 710.244 712.204 710.388V713.196H712.096C711.664 713.052 711.376 713.016 710.8 713.016C707.92 713.016 705.4 715.176 705.4 718.668V729H702.484V710.388H705.4ZM721.321 729.54C716.245 729.54 713.077 725.724 713.077 719.748C713.077 713.556 716.641 709.956 721.249 709.956C723.877 709.956 725.893 711.252 727.081 713.016H727.153V703.26H730.069V729H727.153V726.732H727.081C725.677 728.532 723.949 729.54 721.321 729.54ZM721.429 727.092C725.569 727.092 727.333 723.996 727.333 719.784C727.333 715.464 725.245 712.44 721.393 712.44C717.865 712.44 716.065 715.608 716.065 719.784C716.065 723.996 717.865 727.092 721.429 727.092ZM734.019 729V710.388H736.935V729H734.019ZM734.019 706.86V703.26H736.935V706.86H734.019ZM743.826 710.388V712.836H743.898C745.23 711.072 747.102 709.956 749.802 709.956C753.69 709.956 756.066 712.08 756.066 715.932V729H753.15V716.184C753.15 713.772 751.566 712.404 748.938 712.404C745.986 712.404 743.826 714.492 743.826 717.552V729H740.91V710.388H743.826ZM767.345 735.192C762.521 735.192 759.785 733.248 759.461 730.044H762.161C762.449 732.096 764.393 732.888 767.273 732.888C770.693 732.888 772.601 731.34 772.601 728.1V725.472H772.529C771.161 727.236 769.685 728.352 767.021 728.352C762.197 728.352 758.885 724.5 758.885 719.136C758.885 713.34 762.521 709.956 766.841 709.956C769.541 709.956 771.269 711 772.529 712.764H772.601V710.388H775.517V727.992C775.517 732.888 772.277 735.192 767.345 735.192ZM767.165 725.904C771.449 725.904 772.817 722.916 772.817 718.992C772.817 714.924 771.089 712.404 767.129 712.404C763.637 712.404 761.873 715.14 761.873 719.172C761.873 723.24 763.709 725.904 767.165 725.904ZM784.019 712.764V710.388H786.575V707.4C786.575 704.196 788.411 703.044 791.507 703.044C792.119 703.044 792.587 703.08 792.983 703.116V705.6C792.479 705.564 792.335 705.564 792.047 705.564C790.175 705.564 789.491 706.032 789.491 707.544V710.388H792.947V712.764H789.491V729H786.575V712.764H784.019ZM795.897 729V703.26H798.813V729H795.897ZM810.846 729.504C805.302 729.504 801.846 725.112 801.846 719.712C801.846 714.312 805.302 709.92 810.846 709.92C816.426 709.92 819.81 714.312 819.81 719.712C819.81 725.112 816.426 729.504 810.846 729.504ZM810.846 727.056C814.806 727.056 816.822 723.816 816.822 719.712C816.822 715.608 814.806 712.332 810.846 712.332C806.886 712.332 804.834 715.608 804.834 719.712C804.834 723.816 806.886 727.056 810.846 727.056ZM826.435 729L820.531 710.388H823.663L826.939 721.872C827.371 723.42 827.947 725.868 827.947 725.868H828.019C828.019 725.868 828.559 723.42 828.955 721.944L832.087 710.388H835.147L838.171 721.944C838.567 723.456 839.071 725.868 839.071 725.868H839.143C839.143 725.868 839.719 723.42 840.187 721.872L843.643 710.388H846.667L840.583 729H837.595L834.499 717.732C834.067 716.184 833.599 713.844 833.599 713.844H833.527C833.527 713.844 833.023 716.184 832.591 717.732L829.459 729H826.435Z" fill="black"/>
</svg>
