<svg width="1440" height="1024" viewBox="0 0 1440 1024" fill="none" xmlns="http://www.w3.org/2000/svg">
<rect width="1440" height="1024" fill="#F7F7F7"/>
<path d="M236.43 286C236.56 278.525 239.875 274.235 244.295 270.53C248.325 267.085 253.525 263.835 257.035 260.715C258.855 259.09 259.96 257.4 259.96 255.19C259.96 251.745 257.945 249.405 254.175 249.405C252.095 249.405 250.47 250.055 249.365 251.42C248.065 252.915 247.415 254.93 247.35 257.985H237.08C237.08 252.785 237.99 249.6 240.135 246.675C242.67 243.035 247.48 240.565 254.435 240.565C265.16 240.565 270.945 246.935 270.945 254.8C270.945 260.975 267.5 264.55 263.535 267.605C259.57 270.855 254.76 273.585 251.64 276.9V276.965H271.01V286H236.43ZM294.341 278.46C300.386 278.46 302.726 272.545 302.726 263.77C302.726 255.125 300.321 249.015 294.341 249.015C288.361 249.015 285.891 255.06 285.891 263.77C285.891 272.48 288.361 278.46 294.341 278.46ZM294.276 287.04C282.706 287.04 274.646 277.94 274.646 263.77C274.646 249.6 282.641 240.5 294.341 240.5C306.301 240.5 314.036 249.6 314.036 263.77C314.036 277.94 306.106 287.04 294.276 287.04ZM328.747 260.91C331.477 260.91 332.647 257.92 332.647 253.565C332.647 249.21 331.477 246.025 328.747 246.025C326.017 246.025 324.847 249.21 324.847 253.565C324.847 257.855 326.017 260.91 328.747 260.91ZM328.747 266.565C321.922 266.565 316.852 261.43 316.852 253.565C316.852 245.635 321.857 240.5 328.747 240.5C335.767 240.5 340.642 245.635 340.642 253.565C340.642 261.43 335.637 266.565 328.747 266.565ZM328.747 286L352.732 241.41H358.842L334.792 286H328.747ZM358.842 281.45C361.572 281.45 362.742 278.395 362.742 274.04C362.742 269.75 361.507 266.565 358.842 266.565C356.047 266.565 354.942 269.685 354.942 274.04C354.942 278.395 356.047 281.45 358.842 281.45ZM358.777 287.105C351.952 287.105 346.882 281.97 346.882 274.04C346.882 266.175 351.952 261.04 358.777 261.04C365.862 261.04 370.737 266.11 370.737 274.04C370.737 281.97 365.732 287.105 358.777 287.105ZM396.765 276.315H403.525C411.065 276.315 414.965 271.57 414.965 263.055C414.965 254.605 410.87 249.145 403.655 249.145H396.765V276.315ZM385.26 286V239.525H405.085C417.955 239.525 426.6 248.82 426.6 263.055C426.6 271.245 423.74 277.81 418.54 281.775C414.9 284.505 410.22 286 404.37 286H385.26ZM446.69 286.975C435.705 286.975 428.945 279.37 428.945 269.295C428.945 259.35 435.9 251.745 446.04 251.745C450.785 251.745 454.555 253.305 457.415 255.905C461.38 259.545 463.33 265.33 463.265 272.09H439.345C439.995 276.575 442.465 279.37 446.82 279.37C449.615 279.37 451.435 278.135 452.345 276.055H462.68C461.965 279.045 460.015 281.905 457.09 283.92C454.295 285.87 450.915 286.975 446.69 286.975ZM439.41 265.785H452.54C452.15 261.82 449.68 259.285 446.235 259.285C442.205 259.285 440.125 261.82 439.41 265.785ZM480.982 287.04C471.232 287.04 465.122 282.555 464.797 275.21H474.807C475.197 278.525 477.407 280.15 480.917 280.15C484.102 280.15 486.117 278.98 486.117 276.835C486.117 273.845 482.087 273.52 477.667 272.74C471.882 271.765 465.707 270.205 465.707 262.405C465.707 255.385 472.207 251.745 480.072 251.745C489.497 251.745 494.567 255.84 495.087 262.405H485.337C484.947 259.415 482.932 258.505 480.007 258.505C477.407 258.505 475.392 259.48 475.392 261.56C475.392 263.9 479.162 264.225 483.387 265.005C489.237 265.98 496.127 267.475 496.127 275.99C496.127 283.27 489.692 287.04 480.982 287.04ZM499.566 286V252.72H510.161V286H499.566ZM499.566 248.105V239.525H510.161V248.105H499.566ZM530.715 297.505C521.55 297.505 515.505 293.735 514.465 286.78H524.735C525.32 288.535 527.075 290.03 530.585 290.03C535.07 290.03 536.955 287.69 536.955 283.66V280.345H536.695C534.745 282.555 532.21 284.18 528.18 284.18C520.705 284.18 513.75 278.59 513.75 268.385C513.75 258.635 519.47 251.745 527.725 251.745C532.145 251.745 535.135 253.5 537.085 256.295H537.215V252.72H547.355V282.75C547.355 287.755 545.6 291.395 542.935 293.8C540.01 296.4 535.655 297.505 530.715 297.505ZM530.65 276.315C535.265 276.315 537.41 272.675 537.41 267.995C537.41 263.51 535.07 259.74 530.65 259.74C526.685 259.74 524.085 262.99 524.085 268.06C524.085 273.065 526.685 276.315 530.65 276.315ZM552.442 286V252.72H562.647V257.27H562.842C565.312 253.695 568.497 251.745 573.112 251.745C580.392 251.745 584.682 256.945 584.682 264.355V286H574.087V266.5C574.087 262.99 572.332 260.585 568.887 260.585C565.377 260.585 563.037 263.51 563.037 267.605V286H552.442ZM603.683 287.04C593.933 287.04 587.823 282.555 587.498 275.21H597.508C597.898 278.525 600.108 280.15 603.618 280.15C606.803 280.15 608.818 278.98 608.818 276.835C608.818 273.845 604.788 273.52 600.368 272.74C594.583 271.765 588.408 270.205 588.408 262.405C588.408 255.385 594.908 251.745 602.773 251.745C612.198 251.745 617.268 255.84 617.788 262.405H608.038C607.648 259.415 605.633 258.505 602.708 258.505C600.108 258.505 598.093 259.48 598.093 261.56C598.093 263.9 601.863 264.225 606.088 265.005C611.938 265.98 618.828 267.475 618.828 275.99C618.828 283.27 612.393 287.04 603.683 287.04Z" fill="black"/>
</svg>
