<svg width="1440" height="1024" viewBox="0 0 1440 1024" fill="none" xmlns="http://www.w3.org/2000/svg">
<rect width="1440" height="1024" fill="#F7F7F7"/>
<path d="M247.74 286L235 239.525H246.635L251.315 259.025C252.355 263.51 253.46 270.53 253.46 270.53H253.59C253.59 270.53 254.825 264.16 255.865 259.48L260.22 239.525H270.88L275.235 259.35C276.275 264.095 277.445 270.53 277.445 270.53H277.575C277.575 270.53 278.875 263.51 279.915 258.895L284.53 239.525H296.1L283.36 286H272.115L267.24 263.705C266.395 260 265.615 255.06 265.615 255.06H265.485C265.485 255.06 264.705 260 263.925 263.705L259.05 286H247.74ZM298.663 286V239.525H309.258V256.815H309.453C311.858 253.63 314.718 251.745 319.333 251.745C326.613 251.745 330.903 256.945 330.903 264.355V286H320.308V266.5C320.308 262.99 318.553 260.585 315.108 260.585C311.598 260.585 309.258 263.51 309.258 267.605V286H298.663ZM351.983 279.5C356.598 279.5 359.068 275.47 359.068 269.425C359.068 263.38 356.598 259.285 351.983 259.285C347.368 259.285 344.963 263.38 344.963 269.425C344.963 275.47 347.368 279.5 351.983 279.5ZM352.048 287.04C341.388 287.04 334.238 279.435 334.238 269.425C334.238 259.415 341.388 251.81 352.048 251.81C362.773 251.81 369.793 259.415 369.793 269.425C369.793 279.435 362.773 287.04 352.048 287.04ZM391.008 286L380.803 252.72H391.593L395.233 266.5C395.948 269.165 396.728 272.935 396.728 272.935H396.858C396.858 272.935 397.638 269.1 398.353 266.305L401.863 252.72H410.833L414.473 266.305C415.188 269.165 416.033 273 416.033 273H416.163C416.163 273 417.008 269.165 417.723 266.5L421.428 252.72H431.893L421.688 286H411.743L407.843 270.92C407.128 268.32 406.413 264.94 406.413 264.94H406.283C406.283 264.94 405.503 268.32 404.788 270.92L400.823 286H391.008ZM434.376 286V252.72H444.971V286H434.376ZM434.376 248.105V239.525H444.971V248.105H434.376ZM450.12 286V239.525H460.845V286H450.12ZM466.052 286V239.525H476.777V286H466.052ZM503.453 286.975C495.783 286.975 491.753 281.97 491.753 274.56V252.72H502.283V272.35C502.283 275.99 503.908 278.005 507.288 278.005C510.928 278.005 513.138 275.275 513.138 271.31V252.72H523.733V286H513.593V281.905H513.398C510.993 285.155 508.068 286.975 503.453 286.975ZM542.999 287.04C533.249 287.04 527.139 282.555 526.814 275.21H536.824C537.214 278.525 539.424 280.15 542.934 280.15C546.119 280.15 548.134 278.98 548.134 276.835C548.134 273.845 544.104 273.52 539.684 272.74C533.899 271.765 527.724 270.205 527.724 262.405C527.724 255.385 534.224 251.745 542.089 251.745C551.514 251.745 556.584 255.84 557.104 262.405H547.354C546.964 259.415 544.949 258.505 542.024 258.505C539.424 258.505 537.409 259.48 537.409 261.56C537.409 263.9 541.179 264.225 545.404 265.005C551.254 265.98 558.144 267.475 558.144 275.99C558.144 283.27 551.709 287.04 542.999 287.04ZM578.15 286.975C567.165 286.975 560.405 279.37 560.405 269.295C560.405 259.35 567.36 251.745 577.5 251.745C582.245 251.745 586.015 253.305 588.875 255.905C592.84 259.545 594.79 265.33 594.725 272.09H570.805C571.455 276.575 573.925 279.37 578.28 279.37C581.075 279.37 582.895 278.135 583.805 276.055H594.14C593.425 279.045 591.475 281.905 588.55 283.92C585.755 285.87 582.375 286.975 578.15 286.975ZM570.87 265.785H584C583.61 261.82 581.14 259.285 577.695 259.285C573.665 259.285 571.585 261.82 570.87 265.785ZM621.56 286.39C615.385 286.39 610.965 284.375 610.965 277.225V259.35H606.545V252.72H610.965V242.19H621.3V252.72H627.345V259.35H621.3V274.95C621.3 277.55 622.73 278.2 625.005 278.2C625.915 278.2 626.955 278.135 627.345 278.135V285.87C626.435 286.13 624.42 286.39 621.56 286.39ZM631.153 286V239.525H641.748V256.815H641.943C644.348 253.63 647.208 251.745 651.823 251.745C659.103 251.745 663.393 256.945 663.393 264.355V286H652.798V266.5C652.798 262.99 651.043 260.585 647.598 260.585C644.088 260.585 641.748 263.51 641.748 267.605V286H631.153ZM668.223 286V252.72H678.818V286H668.223ZM668.223 248.105V239.525H678.818V248.105H668.223ZM698.072 287.04C688.322 287.04 682.212 282.555 681.887 275.21H691.897C692.287 278.525 694.497 280.15 698.007 280.15C701.192 280.15 703.207 278.98 703.207 276.835C703.207 273.845 699.177 273.52 694.757 272.74C688.972 271.765 682.797 270.205 682.797 262.405C682.797 255.385 689.297 251.745 697.162 251.745C706.587 251.745 711.657 255.84 712.177 262.405H702.427C702.037 259.415 700.022 258.505 697.097 258.505C694.497 258.505 692.482 259.48 692.482 261.56C692.482 263.9 696.252 264.225 700.477 265.005C706.327 265.98 713.217 267.475 713.217 275.99C713.217 283.27 706.782 287.04 698.072 287.04ZM725.267 270.79C725.267 264.16 726.632 262.535 729.752 259.935C732.612 257.27 736.317 256.295 736.317 252.33C736.317 249.275 733.912 247.455 730.792 247.455C726.892 247.455 724.227 249.99 724.227 254.15H713.762C713.957 244.985 720.392 238.68 731.247 238.68C740.932 238.68 747.432 244.075 747.432 251.94C747.432 258.05 744.182 260.585 741.322 262.47C738.592 264.225 736.902 265.135 735.862 266.37C734.952 267.54 734.627 268.71 734.627 270.79H725.267ZM724.227 286V275.08H735.342V286H724.227Z" fill="black"/>
<path d="M236.764 367V341.26H256.276V346.516H243.136V351.124H254.404V356.092H243.136V361.6H256.492V367H236.764ZM259.009 367V348.568H264.661V351.088H264.769C266.137 349.108 267.901 348.028 270.457 348.028C274.489 348.028 276.865 350.908 276.865 355.012V367H270.997V356.2C270.997 354.256 270.025 352.924 268.117 352.924C266.173 352.924 264.877 354.544 264.877 356.812V367H259.009ZM288.109 373.372C283.033 373.372 279.685 371.284 279.109 367.432H284.797C285.121 368.404 286.093 369.232 288.037 369.232C290.521 369.232 291.565 367.936 291.565 365.704V363.868H291.421C290.341 365.092 288.937 365.992 286.705 365.992C282.565 365.992 278.713 362.896 278.713 357.244C278.713 351.844 281.881 348.028 286.453 348.028C288.901 348.028 290.557 349 291.637 350.548H291.709V348.568H297.325V365.2C297.325 367.972 296.353 369.988 294.877 371.32C293.257 372.76 290.845 373.372 288.109 373.372ZM288.073 361.636C290.629 361.636 291.817 359.62 291.817 357.028C291.817 354.544 290.521 352.456 288.073 352.456C285.877 352.456 284.437 354.256 284.437 357.064C284.437 359.836 285.877 361.636 288.073 361.636ZM300.142 367V348.568H306.01V367H300.142ZM300.142 346.012V341.26H306.01V346.012H300.142ZM308.826 367V348.568H314.478V351.088H314.586C315.954 349.108 317.718 348.028 320.274 348.028C324.306 348.028 326.682 350.908 326.682 355.012V367H320.814V356.2C320.814 354.256 319.842 352.924 317.934 352.924C315.99 352.924 314.694 354.544 314.694 356.812V367H308.826ZM338.357 367.54C332.273 367.54 328.529 363.328 328.529 357.748C328.529 352.24 332.381 348.028 337.997 348.028C340.625 348.028 342.713 348.892 344.297 350.332C346.493 352.348 347.573 355.552 347.537 359.296H334.289C334.649 361.78 336.017 363.328 338.429 363.328C339.977 363.328 340.985 362.644 341.489 361.492H347.213C346.817 363.148 345.737 364.732 344.117 365.848C342.569 366.928 340.697 367.54 338.357 367.54ZM334.325 355.804H341.597C341.381 353.608 340.013 352.204 338.105 352.204C335.873 352.204 334.721 353.608 334.325 355.804ZM358.502 367.54C352.418 367.54 348.674 363.328 348.674 357.748C348.674 352.24 352.526 348.028 358.142 348.028C360.77 348.028 362.858 348.892 364.442 350.332C366.638 352.348 367.718 355.552 367.682 359.296H354.434C354.794 361.78 356.162 363.328 358.574 363.328C360.122 363.328 361.13 362.644 361.634 361.492H367.358C366.962 363.148 365.882 364.732 364.262 365.848C362.714 366.928 360.842 367.54 358.502 367.54ZM354.47 355.804H361.742C361.526 353.608 360.158 352.204 358.25 352.204C356.018 352.204 354.866 353.608 354.47 355.804ZM369.646 367V348.568H375.262V351.448H375.37C376.666 349.252 378.178 348.28 380.41 348.28C380.95 348.28 381.31 348.316 381.562 348.424V353.464H381.418C377.818 352.96 375.514 354.724 375.514 358.72V367H369.646ZM383.427 367V348.568H389.295V367H383.427ZM383.427 346.012V341.26H389.295V346.012H383.427ZM392.111 367V348.568H397.763V351.088H397.871C399.239 349.108 401.003 348.028 403.559 348.028C407.591 348.028 409.967 350.908 409.967 355.012V367H404.099V356.2C404.099 354.256 403.127 352.924 401.219 352.924C399.275 352.924 397.979 354.544 397.979 356.812V367H392.111ZM421.21 373.372C416.134 373.372 412.786 371.284 412.21 367.432H417.898C418.222 368.404 419.194 369.232 421.138 369.232C423.622 369.232 424.666 367.936 424.666 365.704V363.868H424.522C423.442 365.092 422.038 365.992 419.806 365.992C415.666 365.992 411.814 362.896 411.814 357.244C411.814 351.844 414.982 348.028 419.554 348.028C422.002 348.028 423.658 349 424.738 350.548H424.81V348.568H430.426V365.2C430.426 367.972 429.454 369.988 427.978 371.32C426.358 372.76 423.946 373.372 421.21 373.372ZM421.174 361.636C423.73 361.636 424.918 359.62 424.918 357.028C424.918 354.544 423.622 352.456 421.174 352.456C418.978 352.456 417.538 354.256 417.538 357.064C417.538 359.836 418.978 361.636 421.174 361.636ZM438.834 367V348.568H444.45V351.196H444.558C445.71 349.288 447.474 348.028 450.138 348.028C452.55 348.028 454.386 349.288 455.322 351.268H455.394C456.834 349.036 458.814 348.028 461.19 348.028C465.366 348.028 467.454 350.872 467.454 355.012V367H461.586V356.056C461.586 354.076 460.758 352.924 458.994 352.924C457.122 352.924 456.078 354.472 456.078 356.668V367H450.21V356.056C450.21 354.076 449.382 352.924 447.618 352.924C445.782 352.924 444.702 354.472 444.702 356.668V367H438.834ZM475.559 367.468C471.887 367.468 469.259 365.488 469.259 361.852C469.259 357.784 472.499 356.56 476.315 356.056C479.771 355.624 480.995 355.264 480.995 354.004C480.995 352.816 480.239 352.024 478.475 352.024C476.603 352.024 475.667 352.852 475.487 354.4H470.087C470.231 350.98 472.859 348.064 478.439 348.064C481.211 348.064 483.083 348.568 484.415 349.576C485.999 350.728 486.755 352.528 486.755 354.832V364.12C486.755 365.596 486.899 366.424 487.403 366.748V367H481.715C481.427 366.604 481.247 365.884 481.103 364.948H481.031C479.951 366.496 478.331 367.468 475.559 367.468ZM477.431 363.724C479.627 363.724 481.139 362.392 481.139 360.412V358.216C480.383 358.612 479.303 358.9 478.115 359.188C475.847 359.692 474.911 360.268 474.911 361.672C474.911 363.148 475.991 363.724 477.431 363.724ZM489.599 367V348.568H495.251V351.088H495.359C496.727 349.108 498.491 348.028 501.047 348.028C505.079 348.028 507.455 350.908 507.455 355.012V367H501.587V356.2C501.587 354.256 500.615 352.924 498.707 352.924C496.763 352.924 495.467 354.544 495.467 356.812V367H489.599ZM515.567 367.468C511.895 367.468 509.267 365.488 509.267 361.852C509.267 357.784 512.507 356.56 516.323 356.056C519.779 355.624 521.003 355.264 521.003 354.004C521.003 352.816 520.247 352.024 518.483 352.024C516.611 352.024 515.675 352.852 515.495 354.4H510.095C510.239 350.98 512.867 348.064 518.447 348.064C521.219 348.064 523.091 348.568 524.423 349.576C526.007 350.728 526.763 352.528 526.763 354.832V364.12C526.763 365.596 526.907 366.424 527.411 366.748V367H521.723C521.435 366.604 521.255 365.884 521.111 364.948H521.039C519.959 366.496 518.339 367.468 515.567 367.468ZM517.439 363.724C519.635 363.724 521.147 362.392 521.147 360.412V358.216C520.391 358.612 519.311 358.9 518.123 359.188C515.855 359.692 514.919 360.268 514.919 361.672C514.919 363.148 515.999 363.724 517.439 363.724ZM538.175 373.372C533.099 373.372 529.751 371.284 529.175 367.432H534.863C535.187 368.404 536.159 369.232 538.103 369.232C540.587 369.232 541.631 367.936 541.631 365.704V363.868H541.487C540.407 365.092 539.003 365.992 536.771 365.992C532.631 365.992 528.779 362.896 528.779 357.244C528.779 351.844 531.947 348.028 536.519 348.028C538.967 348.028 540.623 349 541.703 350.548H541.775V348.568H547.391V365.2C547.391 367.972 546.419 369.988 544.943 371.32C543.323 372.76 540.911 373.372 538.175 373.372ZM538.139 361.636C540.695 361.636 541.883 359.62 541.883 357.028C541.883 354.544 540.587 352.456 538.139 352.456C535.943 352.456 534.503 354.256 534.503 357.064C534.503 359.836 535.943 361.636 538.139 361.636ZM559.209 367.54C553.125 367.54 549.381 363.328 549.381 357.748C549.381 352.24 553.233 348.028 558.849 348.028C561.477 348.028 563.565 348.892 565.149 350.332C567.345 352.348 568.425 355.552 568.389 359.296H555.141C555.501 361.78 556.869 363.328 559.281 363.328C560.829 363.328 561.837 362.644 562.341 361.492H568.065C567.669 363.148 566.589 364.732 564.969 365.848C563.421 366.928 561.549 367.54 559.209 367.54ZM555.177 355.804H562.449C562.233 353.608 560.865 352.204 558.957 352.204C556.725 352.204 555.573 353.608 555.177 355.804ZM570.353 367V348.568H575.969V351.448H576.077C577.373 349.252 578.885 348.28 581.117 348.28C581.657 348.28 582.017 348.316 582.269 348.424V353.464H582.125C578.525 352.96 576.221 354.724 576.221 358.72V367H570.353ZM591.982 367.576C586.582 367.576 583.198 365.092 583.018 361.024H588.562C588.778 362.86 590.002 363.76 591.946 363.76C593.71 363.76 594.826 363.112 594.826 361.924C594.826 360.268 592.594 360.088 590.146 359.656C586.942 359.116 583.522 358.252 583.522 353.932C583.522 350.044 587.122 348.028 591.478 348.028C596.698 348.028 599.506 350.296 599.794 353.932H594.394C594.178 352.276 593.062 351.772 591.442 351.772C590.002 351.772 588.886 352.312 588.886 353.464C588.886 354.76 590.974 354.94 593.314 355.372C596.554 355.912 600.37 356.74 600.37 361.456C600.37 365.488 596.806 367.576 591.982 367.576ZM602.271 373.444V370.96C603.999 370.492 605.079 369.052 605.079 367H602.199V360.952H608.355V366.532C608.355 368.8 607.743 370.312 606.663 371.464C605.547 372.652 603.963 373.336 602.271 373.444ZM628.537 367.576C620.977 367.576 615.829 361.924 615.829 354.22C615.829 346.552 620.833 340.756 628.501 340.756C631.489 340.756 634.009 341.62 635.845 343.024C638.077 344.716 639.373 347.236 639.697 350.116H633.325C633.001 347.812 631.201 346.048 628.465 346.048C624.289 346.048 622.309 349.54 622.309 354.22C622.309 358.936 624.685 362.356 628.501 362.356C631.345 362.356 633.217 360.556 633.505 358.072H639.877C639.697 360.628 638.545 362.968 636.781 364.66C634.801 366.568 632.173 367.576 628.537 367.576ZM647.959 367V346.66H640.471V341.26H661.891V346.66H654.331V367H647.959ZM674.874 362.428C679.05 362.428 681.102 358.864 681.102 354.184C681.102 349.504 679.05 345.904 674.874 345.904C670.734 345.904 668.61 349.504 668.61 354.184C668.61 358.864 670.734 362.428 674.874 362.428ZM674.838 367.612C667.062 367.612 662.13 361.888 662.13 354.184C662.13 346.48 667.062 340.756 674.838 340.756C682.65 340.756 687.582 346.48 687.582 354.184C687.582 361.888 682.65 367.612 674.838 367.612ZM689.632 351.952V349.864C691.036 349.432 692.188 348.208 692.188 346.624H689.74V341.26H695.104V345.976C695.104 347.848 694.492 349.18 693.556 350.152C692.548 351.196 691.072 351.808 689.632 351.952ZM704.131 367.576C698.731 367.576 695.347 365.092 695.167 361.024H700.711C700.927 362.86 702.151 363.76 704.095 363.76C705.859 363.76 706.975 363.112 706.975 361.924C706.975 360.268 704.743 360.088 702.295 359.656C699.091 359.116 695.671 358.252 695.671 353.932C695.671 350.044 699.271 348.028 703.627 348.028C708.847 348.028 711.655 350.296 711.943 353.932H706.543C706.327 352.276 705.211 351.772 703.591 351.772C702.151 351.772 701.035 352.312 701.035 353.464C701.035 354.76 703.123 354.94 705.463 355.372C708.703 355.912 712.519 356.74 712.519 361.456C712.519 365.488 708.955 367.576 704.131 367.576ZM714.419 373.444V370.96C716.147 370.492 717.227 369.052 717.227 367H714.347V360.952H720.503V366.532C720.503 368.8 719.891 370.312 718.811 371.464C717.695 372.652 716.111 373.336 714.419 373.444ZM734.098 367.468C730.426 367.468 727.798 365.488 727.798 361.852C727.798 357.784 731.038 356.56 734.854 356.056C738.31 355.624 739.534 355.264 739.534 354.004C739.534 352.816 738.778 352.024 737.014 352.024C735.142 352.024 734.206 352.852 734.026 354.4H728.626C728.77 350.98 731.398 348.064 736.978 348.064C739.75 348.064 741.622 348.568 742.954 349.576C744.538 350.728 745.294 352.528 745.294 354.832V364.12C745.294 365.596 745.438 366.424 745.942 366.748V367H740.254C739.966 366.604 739.786 365.884 739.642 364.948H739.57C738.49 366.496 736.87 367.468 734.098 367.468ZM735.97 363.724C738.166 363.724 739.678 362.392 739.678 360.412V358.216C738.922 358.612 737.842 358.9 736.654 359.188C734.386 359.692 733.45 360.268 733.45 361.672C733.45 363.148 734.53 363.724 735.97 363.724ZM748.138 367V348.568H753.79V351.088H753.898C755.266 349.108 757.03 348.028 759.586 348.028C763.618 348.028 765.994 350.908 765.994 355.012V367H760.126V356.2C760.126 354.256 759.154 352.924 757.246 352.924C755.302 352.924 754.006 354.544 754.006 356.812V367H748.138ZM775.906 367.576C771.19 367.576 767.842 363.94 767.842 357.784C767.842 352.024 771.154 348.028 775.906 348.028C778.498 348.028 779.974 349.108 781.054 350.656H781.162V341.26H787.03V367H781.414V364.516H781.342C780.226 366.424 778.318 367.576 775.906 367.576ZM777.418 362.932C779.866 362.932 781.306 360.808 781.306 357.784C781.306 354.688 780.046 352.456 777.49 352.456C775.15 352.456 773.782 354.616 773.782 357.712C773.782 360.916 775.15 362.932 777.418 362.932ZM802.732 367.216C799.312 367.216 796.864 366.1 796.864 362.14V352.24H794.416V348.568H796.864V342.736H802.588V348.568H805.936V352.24H802.588V360.88C802.588 362.32 803.38 362.68 804.64 362.68C805.144 362.68 805.72 362.644 805.936 362.644V366.928C805.432 367.072 804.316 367.216 802.732 367.216ZM816.869 367.54C810.785 367.54 807.041 363.328 807.041 357.748C807.041 352.24 810.893 348.028 816.509 348.028C819.137 348.028 821.225 348.892 822.809 350.332C825.005 352.348 826.085 355.552 826.049 359.296H812.801C813.161 361.78 814.529 363.328 816.941 363.328C818.489 363.328 819.497 362.644 820.001 361.492H825.725C825.329 363.148 824.249 364.732 822.629 365.848C821.081 366.928 819.209 367.54 816.869 367.54ZM812.837 355.804H820.109C819.893 353.608 818.525 352.204 816.617 352.204C814.385 352.204 813.233 353.608 812.837 355.804ZM836.977 367.576C831.037 367.576 827.185 363.364 827.185 357.82C827.185 352.276 831.001 348.064 836.833 348.064C841.837 348.064 845.041 350.98 845.581 355.12H839.929C839.569 353.464 838.561 352.384 836.905 352.384C834.385 352.384 833.125 354.472 833.125 357.82C833.125 361.096 834.385 363.184 836.905 363.184C838.741 363.184 839.857 362.104 840.109 360.016H845.725C845.581 364.264 842.197 367.576 836.977 367.576ZM847.595 367V341.26H853.463V350.836H853.571C854.903 349.072 856.487 348.028 859.043 348.028C863.075 348.028 865.451 350.908 865.451 355.012V367H859.583V356.2C859.583 354.256 858.611 352.924 856.703 352.924C854.759 352.924 853.463 354.544 853.463 356.812V367H847.595ZM873.753 367V341.26H879.693V367H873.753ZM891.541 367.54C885.457 367.54 881.713 363.328 881.713 357.748C881.713 352.24 885.565 348.028 891.181 348.028C893.809 348.028 895.897 348.892 897.481 350.332C899.677 352.348 900.757 355.552 900.721 359.296H887.473C887.833 361.78 889.201 363.328 891.613 363.328C893.161 363.328 894.169 362.644 894.673 361.492H900.397C900.001 363.148 898.921 364.732 897.301 365.848C895.753 366.928 893.881 367.54 891.541 367.54ZM887.509 355.804H894.781C894.565 353.608 893.197 352.204 891.289 352.204C889.057 352.204 887.905 353.608 887.509 355.804ZM908.121 367.468C904.449 367.468 901.821 365.488 901.821 361.852C901.821 357.784 905.061 356.56 908.877 356.056C912.333 355.624 913.557 355.264 913.557 354.004C913.557 352.816 912.801 352.024 911.037 352.024C909.165 352.024 908.229 352.852 908.049 354.4H902.649C902.793 350.98 905.421 348.064 911.001 348.064C913.773 348.064 915.645 348.568 916.977 349.576C918.561 350.728 919.317 352.528 919.317 354.832V364.12C919.317 365.596 919.461 366.424 919.965 366.748V367H914.277C913.989 366.604 913.809 365.884 913.665 364.948H913.593C912.513 366.496 910.893 367.468 908.121 367.468ZM909.993 363.724C912.189 363.724 913.701 362.392 913.701 360.412V358.216C912.945 358.612 911.865 358.9 910.677 359.188C908.409 359.692 907.473 360.268 907.473 361.672C907.473 363.148 908.553 363.724 909.993 363.724ZM929.398 367.576C924.682 367.576 921.334 363.94 921.334 357.784C921.334 352.024 924.646 348.028 929.398 348.028C931.99 348.028 933.466 349.108 934.546 350.656H934.654V341.26H940.522V367H934.906V364.516H934.834C933.718 366.424 931.81 367.576 929.398 367.576ZM930.91 362.932C933.358 362.932 934.798 360.808 934.798 357.784C934.798 354.688 933.538 352.456 930.982 352.456C928.642 352.456 927.274 354.616 927.274 357.712C927.274 360.916 928.642 362.932 930.91 362.932ZM951.174 367.576C945.774 367.576 942.39 365.092 942.21 361.024H947.754C947.97 362.86 949.194 363.76 951.138 363.76C952.902 363.76 954.018 363.112 954.018 361.924C954.018 360.268 951.786 360.088 949.338 359.656C946.134 359.116 942.714 358.252 942.714 353.932C942.714 350.044 946.314 348.028 950.67 348.028C955.89 348.028 958.698 350.296 958.986 353.932H953.586C953.37 352.276 952.254 351.772 950.634 351.772C949.194 351.772 948.078 352.312 948.078 353.464C948.078 354.76 950.166 354.94 952.506 355.372C955.746 355.912 959.562 356.74 959.562 361.456C959.562 365.488 955.998 367.576 951.174 367.576ZM971.841 367L965.937 348.388H969.069L972.345 359.872C972.777 361.42 973.353 363.868 973.353 363.868H973.425C973.425 363.868 973.965 361.42 974.361 359.944L977.493 348.388H980.553L983.577 359.944C983.973 361.456 984.477 363.868 984.477 363.868H984.549C984.549 363.868 985.125 361.42 985.593 359.872L989.049 348.388H992.073L985.989 367H983.001L979.905 355.732C979.473 354.184 979.005 351.844 979.005 351.844H978.933C978.933 351.844 978.429 354.184 977.997 355.732L974.865 367H971.841ZM994.21 367V348.388H997.126V367H994.21ZM994.21 344.86V341.26H997.126V344.86H994.21ZM1001.21 367V341.26H1004.13V367H1001.21ZM1008.31 367V341.26H1011.23V367H1008.31ZM1028.09 367.54C1022.98 367.54 1020.13 365.128 1019.85 360.952H1022.83C1023.23 364.192 1025.39 365.092 1028.16 365.092C1031.22 365.092 1032.48 363.76 1032.48 362.032C1032.48 359.944 1031.04 359.404 1027.62 358.684C1023.95 357.928 1020.67 357.172 1020.67 353.104C1020.67 350.008 1023.05 347.992 1027.37 347.992C1031.98 347.992 1034.25 350.188 1034.68 353.824H1031.69C1031.4 351.376 1030.07 350.296 1027.3 350.296C1024.63 350.296 1023.55 351.484 1023.55 352.96C1023.55 354.976 1025.35 355.372 1028.56 356.02C1032.3 356.776 1035.43 357.604 1035.43 361.888C1035.43 365.632 1032.37 367.54 1028.09 367.54ZM1046.53 367.504C1040.85 367.504 1037.53 363.112 1037.53 357.712C1037.53 352.312 1041.06 347.92 1046.35 347.92C1051.93 347.92 1054.92 352.24 1054.92 358.396H1040.52C1040.74 362.176 1042.79 365.056 1046.53 365.056C1049.23 365.056 1051.03 363.76 1051.68 361.24H1054.53C1053.66 365.236 1050.75 367.504 1046.53 367.504ZM1046.35 350.224C1042.9 350.224 1041.03 352.816 1040.59 356.2H1051.79C1051.61 352.492 1049.7 350.224 1046.35 350.224ZM1056.23 350.764V348.388H1058.93V342.52H1061.85V348.388H1065.45V350.764H1061.85V362.86C1061.85 364.156 1062.53 364.588 1063.72 364.588C1064.3 364.588 1064.95 364.444 1065.27 364.336H1065.38V366.856C1064.69 367 1063.9 367.108 1063.04 367.108C1060.66 367.108 1058.93 366.136 1058.93 363.508V350.764H1056.23ZM1088.95 367H1086.03V364.444H1085.96C1084.63 366.244 1083.05 367.432 1080.35 367.432C1076.53 367.432 1074.08 365.128 1074.08 361.276V348.388H1077V361.204C1077 363.616 1078.55 365.02 1081.17 365.02C1084.13 365.02 1086.03 362.788 1086.03 359.836V348.388H1088.95V367ZM1092.89 372.976V348.388H1095.81V351.016H1095.88C1097.29 349.108 1099.16 347.956 1101.86 347.956C1106.57 347.956 1109.85 351.556 1109.85 357.748C1109.85 363.724 1106.79 367.54 1101.75 367.54C1099.23 367.54 1097.43 366.784 1095.88 364.804H1095.81V372.976H1092.89ZM1101.53 365.092C1105.1 365.092 1106.86 361.996 1106.86 357.784C1106.86 353.608 1105.1 350.44 1101.57 350.44C1097.5 350.44 1095.63 353.752 1095.63 357.784C1095.63 361.816 1097.25 365.092 1101.53 365.092ZM251.596 417.18C249.688 417.18 248.68 416.316 248.392 414.408H248.356C247.24 415.848 245.332 417.36 242.164 417.36C238.636 417.36 235.864 415.704 235.864 412.176C235.864 407.784 239.32 406.884 243.964 406.164C246.592 405.768 248.428 405.516 248.428 403.5C248.428 401.412 246.916 400.224 244.252 400.224C241.228 400.224 239.716 401.52 239.608 404.328H236.8C236.908 400.728 239.284 398.028 244.216 398.028C248.176 398.028 251.092 399.504 251.092 403.932V412.788C251.092 414.3 251.452 415.128 253.072 414.768H253.18V416.892C252.82 417.036 252.352 417.18 251.596 417.18ZM242.812 415.128C246.7 415.128 248.464 412.284 248.464 410.124V406.956C247.492 407.568 245.8 408.036 244.216 408.324C241.3 408.864 238.96 409.368 238.96 412.104C238.96 414.588 240.904 415.128 242.812 415.128ZM258.248 398.388V400.836H258.32C259.652 399.072 261.524 397.956 264.224 397.956C268.112 397.956 270.488 400.08 270.488 403.932V417H267.572V404.184C267.572 401.772 265.988 400.404 263.36 400.404C260.408 400.404 258.248 402.492 258.248 405.552V417H255.332V398.388H258.248ZM281.551 417.54C276.475 417.54 273.307 413.724 273.307 407.748C273.307 401.556 276.871 397.956 281.479 397.956C284.107 397.956 286.123 399.252 287.311 401.016H287.383V391.26H290.299V417H287.383V414.732H287.311C285.907 416.532 284.179 417.54 281.551 417.54ZM281.659 415.092C285.799 415.092 287.563 411.996 287.563 407.784C287.563 403.464 285.475 400.44 281.623 400.44C278.095 400.44 276.295 403.608 276.295 407.784C276.295 411.996 278.095 415.092 281.659 415.092ZM299.98 417V398.388H302.896V401.052H302.968C304.12 399.252 306.1 397.956 308.44 397.956C310.708 397.956 312.508 399.108 313.3 401.268H313.372C314.56 399.144 316.792 397.956 319.06 397.956C322.372 397.956 324.712 400.08 324.712 403.932V417H321.796V404.076C321.796 401.772 320.248 400.404 318.376 400.404C315.964 400.404 313.804 402.492 313.804 405.408V417H310.888V404.076C310.888 401.772 309.592 400.404 307.684 400.404C305.416 400.404 302.896 402.492 302.896 405.408V417H299.98ZM336.518 417.504C330.974 417.504 327.518 413.112 327.518 407.712C327.518 402.312 330.974 397.92 336.518 397.92C342.098 397.92 345.482 402.312 345.482 407.712C345.482 413.112 342.098 417.504 336.518 417.504ZM336.518 415.056C340.478 415.056 342.494 411.816 342.494 407.712C342.494 403.608 340.478 400.332 336.518 400.332C332.558 400.332 330.506 403.608 330.506 407.712C330.506 411.816 332.558 415.056 336.518 415.056ZM351.306 398.388V400.836H351.378C352.71 399.072 354.582 397.956 357.282 397.956C361.17 397.956 363.546 400.08 363.546 403.932V417H360.63V404.184C360.63 401.772 359.046 400.404 356.418 400.404C353.466 400.404 351.306 402.492 351.306 405.552V417H348.39V398.388H351.306ZM367.41 417V398.388H370.326V417H367.41ZM367.41 394.86V391.26H370.326V394.86H367.41ZM373.112 400.764V398.388H375.812V392.52H378.728V398.388H382.328V400.764H378.728V412.86C378.728 414.156 379.412 414.588 380.6 414.588C381.176 414.588 381.824 414.444 382.148 414.336H382.256V416.856C381.572 417 380.78 417.108 379.916 417.108C377.54 417.108 375.812 416.136 375.812 413.508V400.764H373.112ZM393.12 417.504C387.576 417.504 384.12 413.112 384.12 407.712C384.12 402.312 387.576 397.92 393.12 397.92C398.7 397.92 402.084 402.312 402.084 407.712C402.084 413.112 398.7 417.504 393.12 417.504ZM393.12 415.056C397.08 415.056 399.096 411.816 399.096 407.712C399.096 403.608 397.08 400.332 393.12 400.332C389.16 400.332 387.108 403.608 387.108 407.712C387.108 411.816 389.16 415.056 393.12 415.056ZM407.908 398.388V401.484H407.98C409.096 399.684 411.04 398.172 413.524 398.172C414.064 398.172 414.352 398.244 414.712 398.388V401.196H414.604C414.172 401.052 413.884 401.016 413.308 401.016C410.428 401.016 407.908 403.176 407.908 406.668V417H404.992V398.388H407.908ZM421.874 400.764V398.388H424.574V392.52H427.49V398.388H431.09V400.764H427.49V412.86C427.49 414.156 428.174 414.588 429.362 414.588C429.938 414.588 430.586 414.444 430.91 414.336H431.018V416.856C430.334 417 429.542 417.108 428.678 417.108C426.302 417.108 424.574 416.136 424.574 413.508V400.764H421.874ZM437.017 391.26V400.836H437.089C438.421 399.072 440.293 397.956 442.993 397.956C446.881 397.956 449.257 400.08 449.257 403.932V417H446.341V404.184C446.341 401.772 444.757 400.404 442.129 400.404C439.177 400.404 437.017 402.492 437.017 405.552V417H434.101V391.26H437.017ZM461.077 417.504C455.389 417.504 452.077 413.112 452.077 407.712C452.077 402.312 455.605 397.92 460.897 397.92C466.477 397.92 469.465 402.24 469.465 408.396H455.065C455.281 412.176 457.333 415.056 461.077 415.056C463.777 415.056 465.577 413.76 466.225 411.24H469.069C468.205 415.236 465.289 417.504 461.077 417.504ZM460.897 400.224C457.441 400.224 455.569 402.816 455.137 406.2H466.333C466.153 402.492 464.245 400.224 460.897 400.224ZM472.316 417V398.388H475.232V417H472.316ZM472.316 394.86V391.26H475.232V394.86H472.316ZM482.123 398.388V401.484H482.195C483.311 399.684 485.255 398.172 487.739 398.172C488.279 398.172 488.567 398.244 488.927 398.388V401.196H488.819C488.387 401.052 488.099 401.016 487.523 401.016C484.643 401.016 482.123 403.176 482.123 406.668V417H479.207V398.388H482.123ZM496.089 400.764V398.388H498.789V392.52H501.705V398.388H505.305V400.764H501.705V412.86C501.705 414.156 502.389 414.588 503.577 414.588C504.153 414.588 504.801 414.444 505.125 414.336H505.233V416.856C504.549 417 503.757 417.108 502.893 417.108C500.517 417.108 498.789 416.136 498.789 413.508V400.764H496.089ZM516.096 417.504C510.408 417.504 507.096 413.112 507.096 407.712C507.096 402.312 510.624 397.92 515.916 397.92C521.496 397.92 524.484 402.24 524.484 408.396H510.084C510.3 412.176 512.352 415.056 516.096 415.056C518.796 415.056 520.596 413.76 521.244 411.24H524.088C523.224 415.236 520.308 417.504 516.096 417.504ZM515.916 400.224C512.46 400.224 510.588 402.816 510.156 406.2H521.352C521.172 402.492 519.264 400.224 515.916 400.224ZM541.951 417.18C540.043 417.18 539.035 416.316 538.747 414.408H538.711C537.595 415.848 535.687 417.36 532.519 417.36C528.991 417.36 526.219 415.704 526.219 412.176C526.219 407.784 529.675 406.884 534.319 406.164C536.947 405.768 538.783 405.516 538.783 403.5C538.783 401.412 537.271 400.224 534.607 400.224C531.583 400.224 530.071 401.52 529.963 404.328H527.155C527.263 400.728 529.639 398.028 534.571 398.028C538.531 398.028 541.447 399.504 541.447 403.932V412.788C541.447 414.3 541.807 415.128 543.427 414.768H543.535V416.892C543.175 417.036 542.707 417.18 541.951 417.18ZM533.167 415.128C537.055 415.128 538.819 412.284 538.819 410.124V406.956C537.847 407.568 536.155 408.036 534.571 408.324C531.655 408.864 529.315 409.368 529.315 412.104C529.315 414.588 531.259 415.128 533.167 415.128ZM545.687 417V398.388H548.603V401.052H548.675C549.827 399.252 551.807 397.956 554.147 397.956C556.415 397.956 558.215 399.108 559.007 401.268H559.079C560.267 399.144 562.499 397.956 564.767 397.956C568.079 397.956 570.419 400.08 570.419 403.932V417H567.503V404.076C567.503 401.772 565.955 400.404 564.083 400.404C561.671 400.404 559.511 402.492 559.511 405.408V417H556.595V404.076C556.595 401.772 555.299 400.404 553.391 400.404C551.123 400.404 548.603 402.492 548.603 405.408V417H545.687ZM575.947 391.26V394.86C575.947 397.452 574.615 398.568 572.923 398.82V397.452C573.751 397.128 574.291 396.408 574.291 394.86H572.887V391.26H575.947ZM584.524 417.54C579.412 417.54 576.568 415.128 576.28 410.952H579.268C579.664 414.192 581.824 415.092 584.596 415.092C587.656 415.092 588.916 413.76 588.916 412.032C588.916 409.944 587.476 409.404 584.056 408.684C580.384 407.928 577.108 407.172 577.108 403.104C577.108 400.008 579.484 397.992 583.804 397.992C588.412 397.992 590.68 400.188 591.112 403.824H588.124C587.836 401.376 586.504 400.296 583.732 400.296C581.068 400.296 579.988 401.484 579.988 402.96C579.988 404.976 581.788 405.372 584.992 406.02C588.736 406.776 591.868 407.604 591.868 411.888C591.868 415.632 588.808 417.54 584.524 417.54ZM613.386 422.976V414.732H613.314C611.91 416.532 610.218 417.54 607.554 417.54C602.514 417.54 599.454 413.724 599.454 407.748C599.454 401.556 602.91 397.956 607.446 397.956C610.146 397.956 612.018 399.036 613.314 400.872H613.386V398.388H616.302V422.976H613.386ZM607.698 415.092C611.982 415.092 613.566 411.996 613.566 407.784C613.566 403.464 611.73 400.44 607.662 400.44C604.134 400.44 602.442 403.608 602.442 407.784C602.442 411.996 604.134 415.092 607.698 415.092ZM635.013 417H632.097V414.444H632.025C630.693 416.244 629.109 417.432 626.409 417.432C622.593 417.432 620.145 415.128 620.145 411.276V398.388H623.061V411.204C623.061 413.616 624.609 415.02 627.237 415.02C630.189 415.02 632.097 412.788 632.097 409.836V398.388H635.013V417ZM646.913 417.504C641.225 417.504 637.913 413.112 637.913 407.712C637.913 402.312 641.441 397.92 646.733 397.92C652.313 397.92 655.301 402.24 655.301 408.396H640.901C641.117 412.176 643.169 415.056 646.913 415.056C649.613 415.056 651.413 413.76 652.061 411.24H654.905C654.041 415.236 651.125 417.504 646.913 417.504ZM646.733 400.224C643.277 400.224 641.405 402.816 640.973 406.2H652.169C651.989 402.492 650.081 400.224 646.733 400.224ZM672.912 417H669.996V414.444H669.924C668.592 416.244 667.008 417.432 664.308 417.432C660.492 417.432 658.044 415.128 658.044 411.276V398.388H660.96V411.204C660.96 413.616 662.508 415.02 665.136 415.02C668.088 415.02 669.996 412.788 669.996 409.836V398.388H672.912V417ZM684.811 417.504C679.123 417.504 675.811 413.112 675.811 407.712C675.811 402.312 679.339 397.92 684.631 397.92C690.211 397.92 693.199 402.24 693.199 408.396H678.799C679.015 412.176 681.067 415.056 684.811 415.056C687.511 415.056 689.311 413.76 689.959 411.24H692.803C691.939 415.236 689.023 417.504 684.811 417.504ZM684.631 400.224C681.175 400.224 679.303 402.816 678.871 406.2H690.067C689.887 402.492 687.979 400.224 684.631 400.224ZM695.303 417V413.436H698.795V417H695.303Z" fill="black"/>
<path d="M236.8 479V453.26H243.172V479H236.8ZM258.377 479.576C250.817 479.576 245.669 473.924 245.669 466.22C245.669 458.552 250.673 452.756 258.341 452.756C261.329 452.756 263.849 453.62 265.685 455.024C267.917 456.716 269.213 459.236 269.537 462.116H263.165C262.841 459.812 261.041 458.048 258.305 458.048C254.129 458.048 252.149 461.54 252.149 466.22C252.149 470.936 254.525 474.356 258.341 474.356C261.185 474.356 263.057 472.556 263.345 470.072H269.717C269.537 472.628 268.385 474.968 266.621 476.66C264.641 478.568 262.013 479.576 258.377 479.576ZM279.654 479.576C274.254 479.576 270.87 477.092 270.69 473.024H276.234C276.45 474.86 277.674 475.76 279.618 475.76C281.382 475.76 282.498 475.112 282.498 473.924C282.498 472.268 280.266 472.088 277.818 471.656C274.614 471.116 271.194 470.252 271.194 465.932C271.194 462.044 274.794 460.028 279.15 460.028C284.37 460.028 287.178 462.296 287.466 465.932H282.066C281.85 464.276 280.734 463.772 279.114 463.772C277.674 463.772 276.558 464.312 276.558 465.464C276.558 466.76 278.646 466.94 280.986 467.372C284.226 467.912 288.042 468.74 288.042 473.456C288.042 477.488 284.478 479.576 279.654 479.576ZM300.321 479L294.417 460.388H297.549L300.825 471.872C301.257 473.42 301.833 475.868 301.833 475.868H301.905C301.905 475.868 302.445 473.42 302.841 471.944L305.973 460.388H309.033L312.057 471.944C312.453 473.456 312.957 475.868 312.957 475.868H313.029C313.029 475.868 313.605 473.42 314.073 471.872L317.529 460.388H320.553L314.469 479H311.481L308.385 467.732C307.953 466.184 307.485 463.844 307.485 463.844H307.413C307.413 463.844 306.909 466.184 306.477 467.732L303.345 479H300.321ZM322.691 479V460.388H325.607V479H322.691ZM322.691 456.86V453.26H325.607V456.86H322.691ZM329.69 479V453.26H332.606V479H329.69ZM336.791 479V453.26H339.707V479H336.791ZM349.623 479V453.26H352.539V479H349.623ZM364.573 479.504C359.029 479.504 355.573 475.112 355.573 469.712C355.573 464.312 359.029 459.92 364.573 459.92C370.153 459.92 373.537 464.312 373.537 469.712C373.537 475.112 370.153 479.504 364.573 479.504ZM364.573 477.056C368.533 477.056 370.549 473.816 370.549 469.712C370.549 465.608 368.533 462.332 364.573 462.332C360.613 462.332 358.561 465.608 358.561 469.712C358.561 473.816 360.613 477.056 364.573 477.056ZM383.861 485.192C379.037 485.192 376.301 483.248 375.977 480.044H378.677C378.965 482.096 380.909 482.888 383.789 482.888C387.209 482.888 389.117 481.34 389.117 478.1V475.472H389.045C387.677 477.236 386.201 478.352 383.537 478.352C378.713 478.352 375.401 474.5 375.401 469.136C375.401 463.34 379.037 459.956 383.357 459.956C386.057 459.956 387.785 461 389.045 462.764H389.117V460.388H392.033V477.992C392.033 482.888 388.793 485.192 383.861 485.192ZM383.681 475.904C387.965 475.904 389.333 472.916 389.333 468.992C389.333 464.924 387.605 462.404 383.645 462.404C380.153 462.404 378.389 465.14 378.389 469.172C378.389 473.24 380.225 475.904 383.681 475.904ZM401.722 479V460.388H404.638V479H401.722ZM401.722 456.86V453.26H404.638V456.86H401.722ZM411.529 460.388V462.836H411.601C412.933 461.072 414.805 459.956 417.505 459.956C421.393 459.956 423.769 462.08 423.769 465.932V479H420.853V466.184C420.853 463.772 419.269 462.404 416.641 462.404C413.689 462.404 411.529 464.492 411.529 467.552V479H408.613V460.388H411.529ZM447.979 479.18C446.071 479.18 445.063 478.316 444.775 476.408H444.739C443.623 477.848 441.715 479.36 438.547 479.36C435.019 479.36 432.247 477.704 432.247 474.176C432.247 469.784 435.703 468.884 440.347 468.164C442.975 467.768 444.811 467.516 444.811 465.5C444.811 463.412 443.299 462.224 440.635 462.224C437.611 462.224 436.099 463.52 435.991 466.328H433.183C433.291 462.728 435.667 460.028 440.599 460.028C444.559 460.028 447.475 461.504 447.475 465.932V474.788C447.475 476.3 447.835 477.128 449.455 476.768H449.563V478.892C449.203 479.036 448.735 479.18 447.979 479.18ZM439.195 477.128C443.083 477.128 444.847 474.284 444.847 472.124V468.956C443.875 469.568 442.183 470.036 440.599 470.324C437.683 470.864 435.343 471.368 435.343 474.104C435.343 476.588 437.287 477.128 439.195 477.128ZM454.63 460.388V462.836H454.702C456.034 461.072 457.906 459.956 460.606 459.956C464.494 459.956 466.87 462.08 466.87 465.932V479H463.954V466.184C463.954 463.772 462.37 462.404 459.742 462.404C456.79 462.404 454.63 464.492 454.63 467.552V479H451.714V460.388H454.63ZM477.934 479.54C472.858 479.54 469.69 475.724 469.69 469.748C469.69 463.556 473.254 459.956 477.862 459.956C480.49 459.956 482.506 461.252 483.694 463.016H483.766V453.26H486.682V479H483.766V476.732H483.694C482.29 478.532 480.562 479.54 477.934 479.54ZM478.042 477.092C482.182 477.092 483.946 473.996 483.946 469.784C483.946 465.464 481.858 462.44 478.006 462.44C474.478 462.44 472.678 465.608 472.678 469.784C472.678 473.996 474.478 477.092 478.042 477.092ZM511.123 479H508.207V476.444H508.135C506.803 478.244 505.219 479.432 502.519 479.432C498.703 479.432 496.255 477.128 496.255 473.276V460.388H499.171V473.204C499.171 475.616 500.719 477.02 503.347 477.02C506.299 477.02 508.207 474.788 508.207 471.836V460.388H511.123V479ZM522.122 479.54C517.01 479.54 514.166 477.128 513.878 472.952H516.866C517.262 476.192 519.422 477.092 522.194 477.092C525.254 477.092 526.514 475.76 526.514 474.032C526.514 471.944 525.074 471.404 521.654 470.684C517.982 469.928 514.706 469.172 514.706 465.104C514.706 462.008 517.082 459.992 521.402 459.992C526.01 459.992 528.278 462.188 528.71 465.824H525.722C525.434 463.376 524.102 462.296 521.33 462.296C518.666 462.296 517.586 463.484 517.586 464.96C517.586 466.976 519.386 467.372 522.59 468.02C526.334 468.776 529.466 469.604 529.466 473.888C529.466 477.632 526.406 479.54 522.122 479.54ZM540.565 479.504C534.877 479.504 531.565 475.112 531.565 469.712C531.565 464.312 535.093 459.92 540.385 459.92C545.965 459.92 548.953 464.24 548.953 470.396H534.553C534.769 474.176 536.821 477.056 540.565 477.056C543.265 477.056 545.065 475.76 545.713 473.24H548.557C547.693 477.236 544.777 479.504 540.565 479.504ZM540.385 462.224C536.929 462.224 535.057 464.816 534.625 468.2H545.821C545.641 464.492 543.733 462.224 540.385 462.224ZM557.535 479V460.388H560.451V463.052H560.523C561.675 461.252 563.655 459.956 565.995 459.956C568.263 459.956 570.063 461.108 570.855 463.268H570.927C572.115 461.144 574.347 459.956 576.615 459.956C579.927 459.956 582.267 462.08 582.267 465.932V479H579.351V466.076C579.351 463.772 577.803 462.404 575.931 462.404C573.519 462.404 571.359 464.492 571.359 467.408V479H568.443V466.076C568.443 463.772 567.147 462.404 565.239 462.404C562.971 462.404 560.451 464.492 560.451 467.408V479H557.535ZM594.073 479.504C588.385 479.504 585.073 475.112 585.073 469.712C585.073 464.312 588.601 459.92 593.893 459.92C599.473 459.92 602.461 464.24 602.461 470.396H588.061C588.277 474.176 590.329 477.056 594.073 477.056C596.773 477.056 598.573 475.76 599.221 473.24H602.065C601.201 477.236 598.285 479.504 594.073 479.504ZM593.893 462.224C590.437 462.224 588.565 464.816 588.133 468.2H599.329C599.149 464.492 597.241 462.224 593.893 462.224ZM608.228 460.388V463.484H608.3C609.416 461.684 611.36 460.172 613.844 460.172C614.384 460.172 614.672 460.244 615.032 460.388V463.196H614.924C614.492 463.052 614.204 463.016 613.628 463.016C610.748 463.016 608.228 465.176 608.228 468.668V479H605.312V460.388H608.228ZM624.365 485.192C619.541 485.192 616.805 483.248 616.481 480.044H619.181C619.469 482.096 621.413 482.888 624.293 482.888C627.713 482.888 629.621 481.34 629.621 478.1V475.472H629.549C628.181 477.236 626.705 478.352 624.041 478.352C619.217 478.352 615.905 474.5 615.905 469.136C615.905 463.34 619.541 459.956 623.861 459.956C626.561 459.956 628.289 461 629.549 462.764H629.621V460.388H632.537V477.992C632.537 482.888 629.297 485.192 624.365 485.192ZM624.185 475.904C628.469 475.904 629.837 472.916 629.837 468.992C629.837 464.924 628.109 462.404 624.149 462.404C620.657 462.404 618.893 465.14 618.893 469.172C618.893 473.24 620.729 475.904 624.185 475.904ZM644.452 479.504C638.764 479.504 635.452 475.112 635.452 469.712C635.452 464.312 638.98 459.92 644.272 459.92C649.852 459.92 652.84 464.24 652.84 470.396H638.44C638.656 474.176 640.708 477.056 644.452 477.056C647.152 477.056 648.952 475.76 649.6 473.24H652.444C651.58 477.236 648.664 479.504 644.452 479.504ZM644.272 462.224C640.816 462.224 638.944 464.816 638.512 468.2H649.708C649.528 464.492 647.62 462.224 644.272 462.224ZM660.233 462.764V460.388H662.933V454.52H665.849V460.388H669.449V462.764H665.849V474.86C665.849 476.156 666.533 476.588 667.721 476.588C668.297 476.588 668.945 476.444 669.269 476.336H669.377V478.856C668.693 479 667.901 479.108 667.037 479.108C664.661 479.108 662.933 478.136 662.933 475.508V462.764H660.233ZM680.241 479.504C674.697 479.504 671.241 475.112 671.241 469.712C671.241 464.312 674.697 459.92 680.241 459.92C685.821 459.92 689.205 464.312 689.205 469.712C689.205 475.112 685.821 479.504 680.241 479.504ZM680.241 477.056C684.201 477.056 686.217 473.816 686.217 469.712C686.217 465.608 684.201 462.332 680.241 462.332C676.281 462.332 674.229 465.608 674.229 469.712C674.229 473.816 676.281 477.056 680.241 477.056ZM705.799 479.504C700.255 479.504 696.799 475.112 696.799 469.712C696.799 464.312 700.255 459.92 705.799 459.92C710.191 459.92 713.107 462.44 713.755 466.4H710.803C710.371 463.88 708.607 462.332 705.799 462.332C701.839 462.332 699.787 465.608 699.787 469.712C699.787 473.816 701.839 477.056 705.799 477.056C708.823 477.056 710.623 475.328 710.875 472.448H713.755C713.359 476.912 710.443 479.504 705.799 479.504ZM719.427 453.26V462.836H719.499C720.831 461.072 722.703 459.956 725.403 459.956C729.291 459.956 731.667 462.08 731.667 465.932V479H728.751V466.184C728.751 463.772 727.167 462.404 724.539 462.404C721.587 462.404 719.427 464.492 719.427 467.552V479H716.511V453.26H719.427ZM743.487 479.504C737.799 479.504 734.487 475.112 734.487 469.712C734.487 464.312 738.015 459.92 743.307 459.92C748.887 459.92 751.875 464.24 751.875 470.396H737.475C737.691 474.176 739.743 477.056 743.487 477.056C746.187 477.056 747.987 475.76 748.635 473.24H751.479C750.615 477.236 747.699 479.504 743.487 479.504ZM743.307 462.224C739.851 462.224 737.979 464.816 737.547 468.2H748.743C748.563 464.492 746.655 462.224 743.307 462.224ZM762.682 479.504C757.138 479.504 753.682 475.112 753.682 469.712C753.682 464.312 757.138 459.92 762.682 459.92C767.074 459.92 769.99 462.44 770.638 466.4H767.686C767.254 463.88 765.49 462.332 762.682 462.332C758.722 462.332 756.67 465.608 756.67 469.712C756.67 473.816 758.722 477.056 762.682 477.056C765.706 477.056 767.506 475.328 767.758 472.448H770.638C770.242 476.912 767.326 479.504 762.682 479.504ZM785.634 479L779.046 468.956L776.31 471.548V479H773.394V453.26H776.31V468.344L784.482 460.388H788.19L781.062 467.084L789.054 479H785.634ZM796.738 479V460.388H799.654V479H796.738ZM796.738 456.86V453.26H799.654V456.86H796.738ZM806.544 460.388V462.836H806.616C807.948 461.072 809.82 459.956 812.52 459.956C816.408 459.956 818.784 462.08 818.784 465.932V479H815.868V466.184C815.868 463.772 814.284 462.404 811.656 462.404C808.704 462.404 806.544 464.492 806.544 467.552V479H803.628V460.388H806.544ZM836.334 479.504C830.79 479.504 827.334 475.112 827.334 469.712C827.334 464.312 830.79 459.92 836.334 459.92C841.914 459.92 845.298 464.312 845.298 469.712C845.298 475.112 841.914 479.504 836.334 479.504ZM836.334 477.056C840.294 477.056 842.31 473.816 842.31 469.712C842.31 465.608 840.294 462.332 836.334 462.332C832.374 462.332 830.322 465.608 830.322 469.712C830.322 473.816 832.374 477.056 836.334 477.056ZM851.123 460.388V462.836H851.195C852.527 461.072 854.399 459.956 857.099 459.956C860.987 459.956 863.363 462.08 863.363 465.932V479H860.447V466.184C860.447 463.772 858.863 462.404 856.235 462.404C853.283 462.404 851.123 464.492 851.123 467.552V479H848.207V460.388H851.123ZM871.769 462.764V460.388H874.469V454.52H877.385V460.388H880.985V462.764H877.385V474.86C877.385 476.156 878.069 476.588 879.257 476.588C879.833 476.588 880.481 476.444 880.805 476.336H880.913V478.856C880.229 479 879.437 479.108 878.573 479.108C876.197 479.108 874.469 478.136 874.469 475.508V462.764H871.769ZM886.912 453.26V462.836H886.984C888.316 461.072 890.188 459.956 892.888 459.956C896.776 459.956 899.152 462.08 899.152 465.932V479H896.236V466.184C896.236 463.772 894.652 462.404 892.024 462.404C889.072 462.404 886.912 464.492 886.912 467.552V479H883.996V453.26H886.912ZM910.971 479.504C905.283 479.504 901.971 475.112 901.971 469.712C901.971 464.312 905.499 459.92 910.791 459.92C916.371 459.92 919.359 464.24 919.359 470.396H904.959C905.175 474.176 907.227 477.056 910.971 477.056C913.671 477.056 915.471 475.76 916.119 473.24H918.963C918.099 477.236 915.183 479.504 910.971 479.504ZM910.791 462.224C907.335 462.224 905.463 464.816 905.031 468.2H916.227C916.047 464.492 914.139 462.224 910.791 462.224ZM922.21 479V460.388H925.126V479H922.21ZM922.21 456.86V453.26H925.126V456.86H922.21ZM932.017 460.388V463.484H932.089C933.205 461.684 935.149 460.172 937.633 460.172C938.173 460.172 938.461 460.244 938.821 460.388V463.196H938.713C938.281 463.052 937.993 463.016 937.417 463.016C934.537 463.016 932.017 465.176 932.017 468.668V479H929.101V460.388H932.017ZM947.603 479V453.26H958.331C961.031 453.26 963.119 454.16 964.451 455.744C965.531 457.004 966.179 458.696 966.179 460.64C966.179 465.356 963.479 468.2 957.863 468.2H950.843V479H947.603ZM950.843 456.068V465.572H957.611C961.247 465.572 962.975 463.736 962.975 460.784C962.975 457.688 961.067 456.068 957.791 456.068H950.843ZM969.295 479V453.26H981.319C985.855 453.26 988.915 456.104 988.915 460.316C988.915 463.448 987.547 465.68 984.451 466.688V466.796C987.079 467.732 987.907 469.532 988.159 473.348C988.447 477.488 988.879 478.532 989.347 478.856V479H985.855C985.315 478.532 985.207 477.56 984.919 473.24C984.667 469.46 983.155 468.128 979.699 468.128H972.535V479H969.295ZM972.535 456.068V465.5H980.167C983.767 465.5 985.567 463.7 985.567 460.784C985.567 457.652 984.127 456.068 980.347 456.068H972.535ZM999.474 479.54C994.362 479.54 991.518 477.128 991.23 472.952H994.218C994.614 476.192 996.774 477.092 999.546 477.092C1002.61 477.092 1003.87 475.76 1003.87 474.032C1003.87 471.944 1002.43 471.404 999.006 470.684C995.334 469.928 992.058 469.172 992.058 465.104C992.058 462.008 994.434 459.992 998.754 459.992C1003.36 459.992 1005.63 462.188 1006.06 465.824H1003.07C1002.79 463.376 1001.45 462.296 998.682 462.296C996.018 462.296 994.938 463.484 994.938 464.96C994.938 466.976 996.738 467.372 999.941 468.02C1003.69 468.776 1006.82 469.604 1006.82 473.888C1006.82 477.632 1003.76 479.54 999.474 479.54ZM1009.21 479V475.436H1012.7V479H1009.21ZM1020.8 456.104V453.26H1041.17V456.104H1032.6V479H1029.36V456.104H1020.8ZM1046.87 453.26V462.836H1046.94C1048.28 461.072 1050.15 459.956 1052.85 459.956C1056.74 459.956 1059.11 462.08 1059.11 465.932V479H1056.2V466.184C1056.2 463.772 1054.61 462.404 1051.98 462.404C1049.03 462.404 1046.87 464.492 1046.87 467.552V479H1043.96V453.26H1046.87ZM1070.93 479.504C1065.24 479.504 1061.93 475.112 1061.93 469.712C1061.93 464.312 1065.46 459.92 1070.75 459.92C1076.33 459.92 1079.32 464.24 1079.32 470.396H1064.92C1065.14 474.176 1067.19 477.056 1070.93 477.056C1073.63 477.056 1075.43 475.76 1076.08 473.24H1078.92C1078.06 477.236 1075.14 479.504 1070.93 479.504ZM1070.75 462.224C1067.3 462.224 1065.42 464.816 1064.99 468.2H1076.19C1076.01 464.492 1074.1 462.224 1070.75 462.224ZM1084.2 485.156C1083.08 485.156 1082.36 485.084 1081.57 484.76V482.168H1081.71C1082.11 482.384 1082.72 482.564 1083.69 482.564C1084.92 482.564 1085.74 482.096 1086.46 480.296L1087.18 478.46L1079.91 460.388H1083.08L1087.47 471.98C1088.05 473.528 1088.73 475.616 1088.73 475.616H1088.8C1088.8 475.616 1089.45 473.528 1090.03 471.98L1094.28 460.388H1097.37L1089.42 480.512C1087.9 484.364 1086.46 485.156 1084.2 485.156ZM241.048 529L235.144 510.388H238.276L241.552 521.872C241.984 523.42 242.56 525.868 242.56 525.868H242.632C242.632 525.868 243.172 523.42 243.568 521.944L246.7 510.388H249.76L252.784 521.944C253.18 523.456 253.684 525.868 253.684 525.868H253.756C253.756 525.868 254.332 523.42 254.8 521.872L258.256 510.388H261.28L255.196 529H252.208L249.112 517.732C248.68 516.184 248.212 513.844 248.212 513.844H248.14C248.14 513.844 247.636 516.184 247.204 517.732L244.072 529H241.048ZM263.418 529V510.388H266.334V529H263.418ZM263.418 506.86V503.26H266.334V506.86H263.418ZM270.416 529V503.26H273.332V529H270.416ZM277.518 529V503.26H280.434V529H277.518ZM294.31 529L288.406 510.388H291.538L294.814 521.872C295.246 523.42 295.822 525.868 295.822 525.868H295.894C295.894 525.868 296.434 523.42 296.83 521.944L299.962 510.388H303.022L306.046 521.944C306.442 523.456 306.946 525.868 306.946 525.868H307.018C307.018 525.868 307.594 523.42 308.062 521.872L311.518 510.388H314.542L308.458 529H305.47L302.374 517.732C301.942 516.184 301.474 513.844 301.474 513.844H301.402C301.402 513.844 300.898 516.184 300.466 517.732L297.334 529H294.31ZM330.768 529.18C328.86 529.18 327.852 528.316 327.564 526.408H327.528C326.412 527.848 324.504 529.36 321.336 529.36C317.808 529.36 315.036 527.704 315.036 524.176C315.036 519.784 318.492 518.884 323.136 518.164C325.764 517.768 327.6 517.516 327.6 515.5C327.6 513.412 326.088 512.224 323.424 512.224C320.4 512.224 318.888 513.52 318.78 516.328H315.972C316.08 512.728 318.456 510.028 323.388 510.028C327.348 510.028 330.264 511.504 330.264 515.932V524.788C330.264 526.3 330.624 527.128 332.244 526.768H332.352V528.892C331.992 529.036 331.524 529.18 330.768 529.18ZM321.984 527.128C325.872 527.128 327.636 524.284 327.636 522.124V518.956C326.664 519.568 324.972 520.036 323.388 520.324C320.472 520.864 318.132 521.368 318.132 524.104C318.132 526.588 320.076 527.128 321.984 527.128ZM337.419 510.388V512.836H337.491C338.823 511.072 340.695 509.956 343.395 509.956C347.283 509.956 349.659 512.08 349.659 515.932V529H346.743V516.184C346.743 513.772 345.159 512.404 342.531 512.404C339.579 512.404 337.419 514.492 337.419 517.552V529H334.503V510.388H337.419ZM351.983 512.764V510.388H354.683V504.52H357.599V510.388H361.199V512.764H357.599V524.86C357.599 526.156 358.283 526.588 359.471 526.588C360.047 526.588 360.695 526.444 361.019 526.336H361.127V528.856C360.443 529 359.651 529.108 358.787 529.108C356.411 529.108 354.683 528.136 354.683 525.508V512.764H351.983ZM368.753 512.764V510.388H371.453V504.52H374.369V510.388H377.969V512.764H374.369V524.86C374.369 526.156 375.053 526.588 376.241 526.588C376.817 526.588 377.465 526.444 377.789 526.336H377.897V528.856C377.213 529 376.421 529.108 375.557 529.108C373.181 529.108 371.453 528.136 371.453 525.508V512.764H368.753ZM388.76 529.504C383.216 529.504 379.76 525.112 379.76 519.712C379.76 514.312 383.216 509.92 388.76 509.92C394.34 509.92 397.724 514.312 397.724 519.712C397.724 525.112 394.34 529.504 388.76 529.504ZM388.76 527.056C392.72 527.056 394.736 523.816 394.736 519.712C394.736 515.608 392.72 512.332 388.76 512.332C384.8 512.332 382.748 515.608 382.748 519.712C382.748 523.816 384.8 527.056 388.76 527.056ZM406.471 529V503.26H409.387V529H406.471ZM421.42 529.504C415.732 529.504 412.42 525.112 412.42 519.712C412.42 514.312 415.948 509.92 421.24 509.92C426.82 509.92 429.808 514.24 429.808 520.396H415.408C415.624 524.176 417.676 527.056 421.42 527.056C424.12 527.056 425.92 525.76 426.568 523.24H429.412C428.548 527.236 425.632 529.504 421.42 529.504ZM421.24 512.224C417.784 512.224 415.912 514.816 415.48 518.2H426.676C426.496 514.492 424.588 512.224 421.24 512.224ZM447.276 529.18C445.368 529.18 444.36 528.316 444.072 526.408H444.036C442.92 527.848 441.012 529.36 437.844 529.36C434.316 529.36 431.544 527.704 431.544 524.176C431.544 519.784 435 518.884 439.644 518.164C442.272 517.768 444.108 517.516 444.108 515.5C444.108 513.412 442.596 512.224 439.932 512.224C436.908 512.224 435.396 513.52 435.288 516.328H432.48C432.588 512.728 434.964 510.028 439.896 510.028C443.856 510.028 446.772 511.504 446.772 515.932V524.788C446.772 526.3 447.132 527.128 448.752 526.768H448.86V528.892C448.5 529.036 448.032 529.18 447.276 529.18ZM438.492 527.128C442.38 527.128 444.144 524.284 444.144 522.124V518.956C443.172 519.568 441.48 520.036 439.896 520.324C436.98 520.864 434.64 521.368 434.64 524.104C434.64 526.588 436.584 527.128 438.492 527.128ZM453.927 510.388V513.484H453.999C455.115 511.684 457.059 510.172 459.543 510.172C460.083 510.172 460.371 510.244 460.731 510.388V513.196H460.623C460.191 513.052 459.903 513.016 459.327 513.016C456.447 513.016 453.927 515.176 453.927 518.668V529H451.011V510.388H453.927ZM466.267 510.388V512.836H466.339C467.671 511.072 469.543 509.956 472.243 509.956C476.131 509.956 478.507 512.08 478.507 515.932V529H475.591V516.184C475.591 513.772 474.007 512.404 471.379 512.404C468.427 512.404 466.267 514.492 466.267 517.552V529H463.351V510.388H466.267ZM502.717 529.18C500.809 529.18 499.801 528.316 499.513 526.408H499.477C498.361 527.848 496.453 529.36 493.285 529.36C489.757 529.36 486.985 527.704 486.985 524.176C486.985 519.784 490.441 518.884 495.085 518.164C497.713 517.768 499.549 517.516 499.549 515.5C499.549 513.412 498.037 512.224 495.373 512.224C492.349 512.224 490.837 513.52 490.729 516.328H487.921C488.029 512.728 490.405 510.028 495.337 510.028C499.297 510.028 502.213 511.504 502.213 515.932V524.788C502.213 526.3 502.573 527.128 504.193 526.768H504.301V528.892C503.941 529.036 503.473 529.18 502.717 529.18ZM493.933 527.128C497.821 527.128 499.585 524.284 499.585 522.124V518.956C498.613 519.568 496.921 520.036 495.337 520.324C492.421 520.864 490.081 521.368 490.081 524.104C490.081 526.588 492.025 527.128 493.933 527.128ZM509.369 510.388V512.836H509.441C510.773 511.072 512.645 509.956 515.345 509.956C519.233 509.956 521.609 512.08 521.609 515.932V529H518.693V516.184C518.693 513.772 517.109 512.404 514.481 512.404C511.529 512.404 509.369 514.492 509.369 517.552V529H506.453V510.388H509.369ZM532.672 529.54C527.596 529.54 524.428 525.724 524.428 519.748C524.428 513.556 527.992 509.956 532.6 509.956C535.228 509.956 537.244 511.252 538.432 513.016H538.504V503.26H541.42V529H538.504V526.732H538.432C537.028 528.532 535.3 529.54 532.672 529.54ZM532.78 527.092C536.92 527.092 538.684 523.996 538.684 519.784C538.684 515.464 536.596 512.44 532.744 512.44C529.216 512.44 527.416 515.608 527.416 519.784C527.416 523.996 529.216 527.092 532.78 527.092ZM549.913 512.764V510.388H552.613V504.52H555.529V510.388H559.129V512.764H555.529V524.86C555.529 526.156 556.213 526.588 557.401 526.588C557.977 526.588 558.625 526.444 558.949 526.336H559.057V528.856C558.373 529 557.581 529.108 556.717 529.108C554.341 529.108 552.613 528.136 552.613 525.508V512.764H549.913ZM576.756 529.18C574.848 529.18 573.84 528.316 573.552 526.408H573.516C572.4 527.848 570.492 529.36 567.324 529.36C563.796 529.36 561.024 527.704 561.024 524.176C561.024 519.784 564.48 518.884 569.124 518.164C571.752 517.768 573.588 517.516 573.588 515.5C573.588 513.412 572.076 512.224 569.412 512.224C566.388 512.224 564.876 513.52 564.768 516.328H561.96C562.068 512.728 564.444 510.028 569.376 510.028C573.336 510.028 576.252 511.504 576.252 515.932V524.788C576.252 526.3 576.612 527.128 578.232 526.768H578.34V528.892C577.98 529.036 577.512 529.18 576.756 529.18ZM567.972 527.128C571.86 527.128 573.624 524.284 573.624 522.124V518.956C572.652 519.568 570.96 520.036 569.376 520.324C566.46 520.864 564.12 521.368 564.12 524.104C564.12 526.588 566.064 527.128 567.972 527.128ZM592.732 529L586.144 518.956L583.408 521.548V529H580.492V503.26H583.408V518.344L591.58 510.388H595.288L588.16 517.084L596.152 529H592.732ZM604.971 529.504C599.283 529.504 595.971 525.112 595.971 519.712C595.971 514.312 599.499 509.92 604.791 509.92C610.371 509.92 613.359 514.24 613.359 520.396H598.959C599.175 524.176 601.227 527.056 604.971 527.056C607.671 527.056 609.471 525.76 610.119 523.24H612.963C612.099 527.236 609.183 529.504 604.971 529.504ZM604.791 512.224C601.335 512.224 599.463 514.816 599.031 518.2H610.227C610.047 514.492 608.139 512.224 604.791 512.224ZM636.557 529.18C634.649 529.18 633.641 528.316 633.353 526.408H633.317C632.201 527.848 630.293 529.36 627.125 529.36C623.597 529.36 620.825 527.704 620.825 524.176C620.825 519.784 624.281 518.884 628.925 518.164C631.553 517.768 633.389 517.516 633.389 515.5C633.389 513.412 631.877 512.224 629.213 512.224C626.189 512.224 624.677 513.52 624.569 516.328H621.761C621.869 512.728 624.245 510.028 629.177 510.028C633.137 510.028 636.053 511.504 636.053 515.932V524.788C636.053 526.3 636.413 527.128 638.033 526.768H638.141V528.892C637.781 529.036 637.313 529.18 636.557 529.18ZM627.773 527.128C631.661 527.128 633.425 524.284 633.425 522.124V518.956C632.453 519.568 630.761 520.036 629.177 520.324C626.261 520.864 623.921 521.368 623.921 524.104C623.921 526.588 625.865 527.128 627.773 527.128ZM648.249 529.504C642.705 529.504 639.249 525.112 639.249 519.712C639.249 514.312 642.705 509.92 648.249 509.92C652.641 509.92 655.557 512.44 656.205 516.4H653.253C652.821 513.88 651.057 512.332 648.249 512.332C644.289 512.332 642.237 515.608 642.237 519.712C642.237 523.816 644.289 527.056 648.249 527.056C651.273 527.056 653.073 525.328 653.325 522.448H656.205C655.809 526.912 652.893 529.504 648.249 529.504ZM657.772 512.764V510.388H660.472V504.52H663.388V510.388H666.988V512.764H663.388V524.86C663.388 526.156 664.072 526.588 665.26 526.588C665.836 526.588 666.484 526.444 666.808 526.336H666.916V528.856C666.232 529 665.44 529.108 664.576 529.108C662.2 529.108 660.472 528.136 660.472 525.508V512.764H657.772ZM670 529V510.388H672.916V529H670ZM670 506.86V503.26H672.916V506.86H670ZM684.846 529.504C679.302 529.504 675.846 525.112 675.846 519.712C675.846 514.312 679.302 509.92 684.846 509.92C690.426 509.92 693.81 514.312 693.81 519.712C693.81 525.112 690.426 529.504 684.846 529.504ZM684.846 527.056C688.806 527.056 690.822 523.816 690.822 519.712C690.822 515.608 688.806 512.332 684.846 512.332C680.886 512.332 678.834 515.608 678.834 519.712C678.834 523.816 680.886 527.056 684.846 527.056ZM699.634 510.388V512.836H699.706C701.038 511.072 702.91 509.956 705.61 509.956C709.498 509.956 711.874 512.08 711.874 515.932V529H708.958V516.184C708.958 513.772 707.374 512.404 704.746 512.404C701.794 512.404 699.634 514.492 699.634 517.552V529H696.718V510.388H699.634ZM721.468 529V510.388H724.384V529H721.468ZM721.468 506.86V503.26H724.384V506.86H721.468ZM727.171 512.764V510.388H729.727V507.4C729.727 504.196 731.563 503.044 734.659 503.044C735.271 503.044 735.739 503.08 736.135 503.116V505.6C735.631 505.564 735.487 505.564 735.199 505.564C733.327 505.564 732.643 506.032 732.643 507.544V510.388H736.099V512.764H732.643V529H729.727V512.764H727.171ZM743.483 512.764V510.388H746.183V504.52H749.099V510.388H752.699V512.764H749.099V524.86C749.099 526.156 749.783 526.588 750.971 526.588C751.547 526.588 752.195 526.444 752.519 526.336H752.627V528.856C751.943 529 751.151 529.108 750.287 529.108C747.911 529.108 746.183 528.136 746.183 525.508V512.764H743.483ZM758.626 503.26V512.836H758.698C760.03 511.072 761.902 509.956 764.602 509.956C768.49 509.956 770.866 512.08 770.866 515.932V529H767.95V516.184C767.95 513.772 766.366 512.404 763.738 512.404C760.786 512.404 758.626 514.492 758.626 517.552V529H755.71V503.26H758.626ZM782.686 529.504C776.998 529.504 773.686 525.112 773.686 519.712C773.686 514.312 777.214 509.92 782.506 509.92C788.086 509.92 791.074 514.24 791.074 520.396H776.674C776.89 524.176 778.942 527.056 782.686 527.056C785.386 527.056 787.186 525.76 787.834 523.24H790.678C789.814 527.236 786.898 529.504 782.686 529.504ZM782.506 512.224C779.05 512.224 777.178 514.816 776.746 518.2H787.942C787.762 514.492 785.854 512.224 782.506 512.224ZM793.925 529V510.388H796.841V529H793.925ZM793.925 506.86V503.26H796.841V506.86H793.925ZM803.732 510.388V513.484H803.804C804.92 511.684 806.864 510.172 809.348 510.172C809.888 510.172 810.176 510.244 810.536 510.388V513.196H810.428C809.996 513.052 809.708 513.016 809.132 513.016C806.252 513.016 803.732 515.176 803.732 518.668V529H800.816V510.388H803.732ZM819.318 529V503.26H830.046C832.746 503.26 834.834 504.16 836.166 505.744C837.246 507.004 837.894 508.696 837.894 510.64C837.894 515.356 835.194 518.2 829.578 518.2H822.558V529H819.318ZM822.558 506.068V515.572H829.326C832.962 515.572 834.69 513.736 834.69 510.784C834.69 507.688 832.782 506.068 829.506 506.068H822.558ZM841.01 529V503.26H853.034C857.57 503.26 860.63 506.104 860.63 510.316C860.63 513.448 859.262 515.68 856.166 516.688V516.796C858.794 517.732 859.622 519.532 859.874 523.348C860.162 527.488 860.594 528.532 861.062 528.856V529H857.57C857.03 528.532 856.922 527.56 856.634 523.24C856.382 519.46 854.87 518.128 851.414 518.128H844.25V529H841.01ZM844.25 506.068V515.5H851.882C855.482 515.5 857.282 513.7 857.282 510.784C857.282 507.652 855.842 506.068 852.062 506.068H844.25ZM869.863 529V510.388H872.779V529H869.863ZM869.863 506.86V503.26H872.779V506.86H869.863ZM883.809 529.54C878.697 529.54 875.853 527.128 875.565 522.952H878.553C878.949 526.192 881.109 527.092 883.881 527.092C886.941 527.092 888.201 525.76 888.201 524.032C888.201 521.944 886.761 521.404 883.341 520.684C879.669 519.928 876.393 519.172 876.393 515.104C876.393 512.008 878.769 509.992 883.089 509.992C887.697 509.992 889.965 512.188 890.397 515.824H887.409C887.121 513.376 885.789 512.296 883.017 512.296C880.353 512.296 879.273 513.484 879.273 514.96C879.273 516.976 881.073 517.372 884.277 518.02C888.021 518.776 891.153 519.604 891.153 523.888C891.153 527.632 888.093 529.54 883.809 529.54ZM906.731 529.54C901.619 529.54 898.775 527.128 898.487 522.952H901.475C901.871 526.192 904.031 527.092 906.803 527.092C909.863 527.092 911.123 525.76 911.123 524.032C911.123 521.944 909.683 521.404 906.263 520.684C902.591 519.928 899.315 519.172 899.315 515.104C899.315 512.008 901.691 509.992 906.011 509.992C910.619 509.992 912.887 512.188 913.319 515.824H910.331C910.043 513.376 908.711 512.296 905.939 512.296C903.275 512.296 902.195 513.484 902.195 514.96C902.195 516.976 903.995 517.372 907.199 518.02C910.943 518.776 914.075 519.604 914.075 523.888C914.075 527.632 911.015 529.54 906.731 529.54ZM915.327 512.764V510.388H918.027V504.52H920.943V510.388H924.543V512.764H920.943V524.86C920.943 526.156 921.627 526.588 922.815 526.588C923.391 526.588 924.039 526.444 924.363 526.336H924.471V528.856C923.787 529 922.995 529.108 922.131 529.108C919.755 529.108 918.027 528.136 918.027 525.508V512.764H915.327ZM942.314 529H939.398V526.444H939.326C937.994 528.244 936.41 529.432 933.71 529.432C929.894 529.432 927.446 527.128 927.446 523.276V510.388H930.362V523.204C930.362 525.616 931.91 527.02 934.538 527.02C937.49 527.02 939.398 524.788 939.398 521.836V510.388H942.314V529ZM954.213 529.504C948.669 529.504 945.213 525.112 945.213 519.712C945.213 514.312 948.669 509.92 954.213 509.92C958.605 509.92 961.521 512.44 962.169 516.4H959.217C958.785 513.88 957.021 512.332 954.213 512.332C950.253 512.332 948.201 515.608 948.201 519.712C948.201 523.816 950.253 527.056 954.213 527.056C957.237 527.056 959.037 525.328 959.289 522.448H962.169C961.773 526.912 958.857 529.504 954.213 529.504ZM977.165 529L970.577 518.956L967.841 521.548V529H964.925V503.26H967.841V518.344L976.013 510.388H979.721L972.593 517.084L980.585 529H977.165ZM982.494 529V525.436H985.986V529H982.494Z" fill="black"/>
</svg>
