<svg width="1440" height="1024" viewBox="0 0 1440 1024" fill="none" xmlns="http://www.w3.org/2000/svg">
<rect width="1440" height="1024" fill="#F7F7F7"/>
<path d="M249.625 286V249.275H236.105V239.525H274.78V249.275H261.13V286H249.625ZM274.161 286V252.72H284.301V257.92H284.496C286.836 253.955 289.566 252.2 293.596 252.2C294.571 252.2 295.221 252.265 295.676 252.46V261.56H295.416C288.916 260.65 284.756 263.835 284.756 271.05V286H274.161ZM310.484 286.975C302.814 286.975 298.784 281.97 298.784 274.56V252.72H309.314V272.35C309.314 275.99 310.939 278.005 314.319 278.005C317.959 278.005 320.169 275.275 320.169 271.31V252.72H330.764V286H320.624V281.905H320.429C318.024 285.155 315.099 286.975 310.484 286.975ZM335.86 286V252.72H346.065V257.27H346.26C348.73 253.695 351.915 251.745 356.53 251.745C363.81 251.745 368.1 256.945 368.1 264.355V286H357.505V266.5C357.505 262.99 355.75 260.585 352.305 260.585C348.795 260.585 346.455 263.51 346.455 267.605V286H335.86ZM372.931 286V239.525H383.396V263.965L393.276 252.72H405.496L393.796 265.2L406.861 286H394.576L386.581 272.415L383.396 275.795V286H372.931ZM409.043 286V275.08H420.158V286H409.043ZM409.043 265.85V254.93H420.158V265.85H409.043ZM435.724 286V239.525H451.194L456.849 259.87C457.694 262.795 459.514 270.465 459.514 270.465H459.644C459.644 270.465 461.464 262.795 462.244 259.87L467.964 239.525H483.564V286H473.034V262.6C473.034 260.715 473.229 253.305 473.229 253.305H473.099C473.099 253.305 471.474 260.26 470.954 261.95L464.259 286H454.769L448.139 262.015C447.619 260.325 445.994 253.305 445.994 253.305H445.864C445.864 253.305 446.059 260.78 446.059 262.665V286H435.724ZM505.533 286.975C494.548 286.975 487.788 279.37 487.788 269.295C487.788 259.35 494.743 251.745 504.883 251.745C509.628 251.745 513.398 253.305 516.258 255.905C520.223 259.545 522.173 265.33 522.108 272.09H498.188C498.838 276.575 501.308 279.37 505.663 279.37C508.458 279.37 510.278 278.135 511.188 276.055H521.523C520.808 279.045 518.858 281.905 515.933 283.92C513.138 285.87 509.758 286.975 505.533 286.975ZM498.253 265.785H511.383C510.993 261.82 508.523 259.285 505.078 259.285C501.048 259.285 498.968 261.82 498.253 265.785ZM525.655 286V252.72H535.795V257.92H535.99C538.33 253.955 541.06 252.2 545.09 252.2C546.065 252.2 546.715 252.265 547.17 252.46V261.56H546.91C540.41 260.65 536.25 263.835 536.25 271.05V286H525.655ZM565.373 297.505C556.208 297.505 550.163 293.735 549.123 286.78H559.393C559.978 288.535 561.733 290.03 565.243 290.03C569.728 290.03 571.613 287.69 571.613 283.66V280.345H571.353C569.403 282.555 566.868 284.18 562.838 284.18C555.363 284.18 548.408 278.59 548.408 268.385C548.408 258.635 554.128 251.745 562.383 251.745C566.803 251.745 569.793 253.5 571.743 256.295H571.873V252.72H582.013V282.75C582.013 287.755 580.258 291.395 577.593 293.8C574.668 296.4 570.313 297.505 565.373 297.505ZM565.308 276.315C569.923 276.315 572.068 272.675 572.068 267.995C572.068 263.51 569.728 259.74 565.308 259.74C561.343 259.74 558.743 262.99 558.743 268.06C558.743 273.065 561.343 276.315 565.308 276.315ZM603.35 286.975C592.365 286.975 585.605 279.37 585.605 269.295C585.605 259.35 592.56 251.745 602.7 251.745C607.445 251.745 611.215 253.305 614.075 255.905C618.04 259.545 619.99 265.33 619.925 272.09H596.005C596.655 276.575 599.125 279.37 603.48 279.37C606.275 279.37 608.095 278.135 609.005 276.055H619.34C618.625 279.045 616.675 281.905 613.75 283.92C610.955 285.87 607.575 286.975 603.35 286.975ZM596.07 265.785H609.2C608.81 261.82 606.34 259.285 602.895 259.285C598.865 259.285 596.785 261.82 596.07 265.785ZM655.275 277.745C656.835 277.745 658.2 277.485 659.435 276.965L655.21 272.87L660.54 267.345L664.83 271.44C665.935 269.035 666.455 266.11 666.455 262.86C666.455 254.41 662.815 247.91 655.275 247.91C647.8 247.91 644.03 254.41 644.03 262.86C644.03 271.31 647.8 277.745 655.275 277.745ZM672.76 289.77L666.91 284.18C663.595 286.065 659.695 287.105 655.21 287.105C641.17 287.105 632.33 276.77 632.33 262.86C632.33 248.95 641.17 238.615 655.21 238.615C669.315 238.615 678.155 248.95 678.155 262.86C678.155 269.295 676.27 274.95 672.825 279.175L678.09 284.115L672.76 289.77ZM693.438 286.975C685.768 286.975 681.738 281.97 681.738 274.56V252.72H692.268V272.35C692.268 275.99 693.893 278.005 697.273 278.005C700.913 278.005 703.123 275.275 703.123 271.31V252.72H713.718V286H703.578V281.905H703.383C700.978 285.155 698.053 286.975 693.438 286.975ZM735.064 286.975C724.079 286.975 717.319 279.37 717.319 269.295C717.319 259.35 724.274 251.745 734.414 251.745C739.159 251.745 742.929 253.305 745.789 255.905C749.754 259.545 751.704 265.33 751.639 272.09H727.719C728.369 276.575 730.839 279.37 735.194 279.37C737.989 279.37 739.809 278.135 740.719 276.055H751.054C750.339 279.045 748.389 281.905 745.464 283.92C742.669 285.87 739.289 286.975 735.064 286.975ZM727.784 265.785H740.914C740.524 261.82 738.054 259.285 734.609 259.285C730.579 259.285 728.499 261.82 727.784 265.785ZM766.626 286.975C758.956 286.975 754.926 281.97 754.926 274.56V252.72H765.456V272.35C765.456 275.99 767.081 278.005 770.461 278.005C774.101 278.005 776.311 275.275 776.311 271.31V252.72H786.906V286H776.766V281.905H776.571C774.166 285.155 771.241 286.975 766.626 286.975ZM808.253 286.975C797.268 286.975 790.508 279.37 790.508 269.295C790.508 259.35 797.463 251.745 807.603 251.745C812.348 251.745 816.118 253.305 818.978 255.905C822.943 259.545 824.893 265.33 824.828 272.09H800.908C801.558 276.575 804.028 279.37 808.383 279.37C811.178 279.37 812.998 278.135 813.908 276.055H824.243C823.528 279.045 821.578 281.905 818.653 283.92C815.858 285.87 812.478 286.975 808.253 286.975ZM800.973 265.785H814.103C813.713 261.82 811.243 259.285 807.798 259.285C803.768 259.285 801.688 261.82 800.973 265.785Z" fill="black"/>
<path d="M236.764 363V337.26H248.356C251.488 337.26 253.792 338.124 255.376 339.636C257.032 341.184 257.968 343.38 257.968 345.972C257.968 350.904 254.548 354.396 249.256 354.396H243.244V363H236.764ZM243.244 349.356H247.96C250.264 349.356 251.56 347.988 251.56 345.936C251.56 343.884 250.228 342.624 247.96 342.624H243.244V349.356ZM259.888 363V344.568H265.504V347.448H265.612C266.908 345.252 268.42 344.28 270.652 344.28C271.192 344.28 271.552 344.316 271.804 344.424V349.464H271.66C268.06 348.96 265.756 350.724 265.756 354.72V363H259.888ZM282.318 359.4C284.874 359.4 286.242 357.168 286.242 353.82C286.242 350.472 284.874 348.204 282.318 348.204C279.762 348.204 278.43 350.472 278.43 353.82C278.43 357.168 279.762 359.4 282.318 359.4ZM282.354 363.576C276.45 363.576 272.49 359.364 272.49 353.82C272.49 348.276 276.45 344.064 282.354 344.064C288.294 344.064 292.182 348.276 292.182 353.82C292.182 359.364 288.294 363.576 282.354 363.576ZM294.382 369.192C293.374 369.192 291.97 369.084 291.07 368.904V364.836C293.122 364.836 294.166 364.836 294.166 362.856V344.568H300.034V363.144C300.034 365.592 299.494 366.852 298.63 367.752C297.586 368.796 296.146 369.192 294.382 369.192ZM294.166 342.012V337.26H300.034V342.012H294.166ZM311.849 363.54C305.765 363.54 302.021 359.328 302.021 353.748C302.021 348.24 305.873 344.028 311.489 344.028C314.117 344.028 316.205 344.892 317.789 346.332C319.985 348.348 321.065 351.552 321.029 355.296H307.781C308.141 357.78 309.509 359.328 311.921 359.328C313.469 359.328 314.477 358.644 314.981 357.492H320.705C320.309 359.148 319.229 360.732 317.609 361.848C316.061 362.928 314.189 363.54 311.849 363.54ZM307.817 351.804H315.089C314.873 349.608 313.505 348.204 311.597 348.204C309.365 348.204 308.213 349.608 307.817 351.804ZM331.958 363.576C326.018 363.576 322.166 359.364 322.166 353.82C322.166 348.276 325.982 344.064 331.814 344.064C336.818 344.064 340.022 346.98 340.562 351.12H334.91C334.55 349.464 333.542 348.384 331.886 348.384C329.366 348.384 328.106 350.472 328.106 353.82C328.106 357.096 329.366 359.184 331.886 359.184C333.722 359.184 334.838 358.104 335.09 356.016H340.706C340.562 360.264 337.178 363.576 331.958 363.576ZM349.884 363.216C346.464 363.216 344.016 362.1 344.016 358.14V348.24H341.568V344.568H344.016V338.736H349.74V344.568H353.088V348.24H349.74V356.88C349.74 358.32 350.532 358.68 351.792 358.68C352.296 358.68 352.872 358.644 353.088 358.644V362.928C352.584 363.072 351.468 363.216 349.884 363.216ZM361.147 363V337.26H367.519V357.6H379.075V363H361.147ZM389.967 363.54C383.883 363.54 380.139 359.328 380.139 353.748C380.139 348.24 383.991 344.028 389.607 344.028C392.235 344.028 394.323 344.892 395.907 346.332C398.103 348.348 399.183 351.552 399.147 355.296H385.899C386.259 357.78 387.627 359.328 390.039 359.328C391.587 359.328 392.595 358.644 393.099 357.492H398.823C398.427 359.148 397.347 360.732 395.727 361.848C394.179 362.928 392.307 363.54 389.967 363.54ZM385.935 351.804H393.207C392.991 349.608 391.623 348.204 389.715 348.204C387.483 348.204 386.331 349.608 385.935 351.804ZM401.111 363V344.568H406.763V347.088H406.871C408.239 345.108 410.003 344.028 412.559 344.028C416.591 344.028 418.967 346.908 418.967 351.012V363H413.099V352.2C413.099 350.256 412.127 348.924 410.219 348.924C408.275 348.924 406.979 350.544 406.979 352.812V363H401.111ZM430.21 369.372C425.134 369.372 421.786 367.284 421.21 363.432H426.898C427.222 364.404 428.194 365.232 430.138 365.232C432.622 365.232 433.666 363.936 433.666 361.704V359.868H433.522C432.442 361.092 431.038 361.992 428.806 361.992C424.666 361.992 420.814 358.896 420.814 353.244C420.814 347.844 423.982 344.028 428.554 344.028C431.002 344.028 432.658 345 433.738 346.548H433.81V344.568H439.426V361.2C439.426 363.972 438.454 365.988 436.978 367.32C435.358 368.76 432.946 369.372 430.21 369.372ZM430.174 357.636C432.73 357.636 433.918 355.62 433.918 353.028C433.918 350.544 432.622 348.456 430.174 348.456C427.978 348.456 426.538 350.256 426.538 353.064C426.538 355.836 427.978 357.636 430.174 357.636ZM449.552 363.216C446.132 363.216 443.684 362.1 443.684 358.14V348.24H441.236V344.568H443.684V338.736H449.408V344.568H452.756V348.24H449.408V356.88C449.408 358.32 450.2 358.68 451.46 358.68C451.964 358.68 452.54 358.644 452.756 358.644V362.928C452.252 363.072 451.136 363.216 449.552 363.216ZM454.865 363V337.26H460.733V346.836H460.841C462.173 345.072 463.757 344.028 466.313 344.028C470.345 344.028 472.721 346.908 472.721 351.012V363H466.853V352.2C466.853 350.256 465.881 348.924 463.973 348.924C462.029 348.924 460.733 350.544 460.733 352.812V363H454.865ZM475.252 363V356.952H481.408V363H475.252ZM475.252 351.84V345.792H481.408V351.84H475.252ZM489.522 363C489.81 356.412 494.454 354 498.774 351.516C502.014 349.644 503.994 348.384 503.994 345.396C503.994 342.372 501.906 340.32 498.63 340.32C496.902 340.32 495.606 340.896 494.706 341.868C493.734 342.912 493.302 344.28 493.302 346.8H490.134C490.134 343.632 490.962 341.616 492.474 340.104C494.058 338.556 496.362 337.8 498.882 337.8C503.886 337.8 507.126 340.968 507.126 345.36C507.126 350.112 503.886 351.696 499.926 353.892C497.262 355.368 493.842 357.384 493.158 360.12H506.622V363H489.522ZM523.825 363V352.092L514.501 337.26H518.101L525.481 349.5H525.553L533.041 337.26H536.497L527.065 352.164V363H523.825ZM542.639 363.504C536.951 363.504 533.639 359.112 533.639 353.712C533.639 348.312 537.167 343.92 542.459 343.92C548.039 343.92 551.027 348.24 551.027 354.396H536.627C536.843 358.176 538.895 361.056 542.639 361.056C545.339 361.056 547.139 359.76 547.787 357.24H550.631C549.767 361.236 546.851 363.504 542.639 363.504ZM542.459 346.224C539.003 346.224 537.131 348.816 536.699 352.2H547.895C547.715 348.492 545.807 346.224 542.459 346.224ZM568.494 363.18C566.586 363.18 565.578 362.316 565.29 360.408H565.254C564.138 361.848 562.23 363.36 559.062 363.36C555.534 363.36 552.762 361.704 552.762 358.176C552.762 353.784 556.218 352.884 560.862 352.164C563.49 351.768 565.326 351.516 565.326 349.5C565.326 347.412 563.814 346.224 561.15 346.224C558.126 346.224 556.614 347.52 556.506 350.328H553.698C553.806 346.728 556.182 344.028 561.114 344.028C565.074 344.028 567.99 345.504 567.99 349.932V358.788C567.99 360.3 568.35 361.128 569.97 360.768H570.078V362.892C569.718 363.036 569.25 363.18 568.494 363.18ZM559.71 361.128C563.598 361.128 565.362 358.284 565.362 356.124V352.956C564.39 353.568 562.698 354.036 561.114 354.324C558.198 354.864 555.858 355.368 555.858 358.104C555.858 360.588 557.802 361.128 559.71 361.128ZM575.146 344.388V347.484H575.218C576.334 345.684 578.278 344.172 580.762 344.172C581.302 344.172 581.59 344.244 581.95 344.388V347.196H581.842C581.41 347.052 581.122 347.016 580.546 347.016C577.666 347.016 575.146 349.176 575.146 352.668V363H572.23V344.388H575.146ZM591.626 363.54C586.514 363.54 583.67 361.128 583.382 356.952H586.37C586.766 360.192 588.926 361.092 591.698 361.092C594.758 361.092 596.018 359.76 596.018 358.032C596.018 355.944 594.578 355.404 591.158 354.684C587.486 353.928 584.21 353.172 584.21 349.104C584.21 346.008 586.586 343.992 590.906 343.992C595.514 343.992 597.782 346.188 598.214 349.824H595.226C594.938 347.376 593.606 346.296 590.834 346.296C588.17 346.296 587.09 347.484 587.09 348.96C587.09 350.976 588.89 351.372 592.094 352.02C595.838 352.776 598.97 353.604 598.97 357.888C598.97 361.632 595.91 363.54 591.626 363.54ZM601.401 367.608V365.988C602.193 365.7 603.021 365.016 603.021 363H601.365V359.436H604.857V363.108C604.857 365.736 603.453 367.212 601.401 367.608ZM626.196 363.54C618.42 363.54 613.596 357.816 613.596 350.112C613.596 342.408 618.42 336.684 626.196 336.684C633.972 336.684 638.796 342.408 638.796 350.112C638.796 357.816 633.972 363.54 626.196 363.54ZM626.196 360.696C632.244 360.696 635.484 356.16 635.484 350.112C635.484 344.064 632.244 339.492 626.196 339.492C620.148 339.492 616.908 344.064 616.908 350.112C616.908 356.16 620.148 360.696 626.196 360.696ZM641.038 346.764V344.388H643.594V341.4C643.594 338.196 645.43 337.044 648.526 337.044C649.138 337.044 649.606 337.08 650.002 337.116V339.6C649.498 339.564 649.354 339.564 649.066 339.564C647.194 339.564 646.51 340.032 646.51 341.544V344.388H649.966V346.764H646.51V363H643.594V346.764H641.038ZM651.269 346.764V344.388H653.825V341.4C653.825 338.196 655.661 337.044 658.757 337.044C659.369 337.044 659.837 337.08 660.233 337.116V339.6C659.729 339.564 659.585 339.564 659.297 339.564C657.425 339.564 656.741 340.032 656.741 341.544V344.388H660.197V346.764H656.741V363H653.825V346.764H651.269ZM661.723 354.396V351.732H671.371V354.396H661.723ZM672.387 363L681.855 337.26H685.491L694.995 363H691.467L688.731 355.152H678.471L675.699 363H672.387ZM682.467 343.884L679.407 352.524H687.831L684.879 343.884C684.375 342.444 683.727 340.248 683.727 340.248H683.655C683.655 340.248 682.971 342.408 682.467 343.884ZM700.267 344.388V346.836H700.339C701.671 345.072 703.543 343.956 706.243 343.956C710.131 343.956 712.507 346.08 712.507 349.932V363H709.591V350.184C709.591 347.772 708.007 346.404 705.379 346.404C702.427 346.404 700.267 348.492 700.267 351.552V363H697.351V344.388H700.267ZM723.571 363.54C718.495 363.54 715.327 359.724 715.327 353.748C715.327 347.556 718.891 343.956 723.499 343.956C726.127 343.956 728.143 345.252 729.331 347.016H729.403V337.26H732.319V363H729.403V360.732H729.331C727.927 362.532 726.199 363.54 723.571 363.54ZM723.679 361.092C727.819 361.092 729.583 357.996 729.583 353.784C729.583 349.464 727.495 346.44 723.643 346.44C720.115 346.44 718.315 349.608 718.315 353.784C718.315 357.996 720.115 361.092 723.679 361.092ZM735.657 354.396V351.732H745.305V354.396H735.657ZM760.704 363.54C752.928 363.54 748.104 357.816 748.104 350.112C748.104 342.408 752.928 336.684 760.704 336.684C768.48 336.684 773.304 342.408 773.304 350.112C773.304 357.816 768.48 363.54 760.704 363.54ZM760.704 360.696C766.752 360.696 769.992 356.16 769.992 350.112C769.992 344.064 766.752 339.492 760.704 339.492C754.656 339.492 751.416 344.064 751.416 350.112C751.416 356.16 754.656 360.696 760.704 360.696ZM779.65 344.388V346.836H779.722C781.054 345.072 782.926 343.956 785.626 343.956C789.514 343.956 791.89 346.08 791.89 349.932V363H788.974V350.184C788.974 347.772 787.39 346.404 784.762 346.404C781.81 346.404 779.65 348.492 779.65 351.552V363H776.734V344.388H779.65Z" fill="black"/>
<path d="M236.764 417V391.26H249.076C254.188 391.26 258.076 393.888 258.076 398.676C258.076 401.664 256.6 403.86 253.612 404.904V405.012C255.844 405.768 256.996 407.172 257.356 409.728C257.896 413.112 257.536 416.352 258.436 416.676V417H252.244C251.56 416.604 251.668 413.58 251.272 411.024C250.948 408.648 249.724 407.352 246.988 407.352H243.136V417H236.764ZM243.136 402.636H247.924C250.444 402.636 251.74 401.448 251.74 399.504C251.74 397.632 250.516 396.3 248.068 396.3H243.136V402.636ZM269.381 413.4C271.937 413.4 273.305 411.168 273.305 407.82C273.305 404.472 271.937 402.204 269.381 402.204C266.825 402.204 265.493 404.472 265.493 407.82C265.493 411.168 266.825 413.4 269.381 413.4ZM269.417 417.576C263.513 417.576 259.553 413.364 259.553 407.82C259.553 402.276 263.513 398.064 269.417 398.064C275.357 398.064 279.245 402.276 279.245 407.82C279.245 413.364 275.357 417.576 269.417 417.576ZM281.264 417V391.26H287.204V417H281.264ZM299.052 417.54C292.968 417.54 289.224 413.328 289.224 407.748C289.224 402.24 293.076 398.028 298.692 398.028C301.32 398.028 303.408 398.892 304.992 400.332C307.188 402.348 308.268 405.552 308.232 409.296H294.984C295.344 411.78 296.712 413.328 299.124 413.328C300.672 413.328 301.68 412.644 302.184 411.492H307.908C307.512 413.148 306.432 414.732 304.812 415.848C303.264 416.928 301.392 417.54 299.052 417.54ZM295.02 405.804H302.292C302.076 403.608 300.708 402.204 298.8 402.204C296.568 402.204 295.416 403.608 295.02 405.804ZM310.053 417V410.952H316.209V417H310.053ZM310.053 405.84V399.792H316.209V405.84H310.053ZM325.619 417V391.26H334.979C342.719 391.26 346.391 396.516 346.391 404.22C346.391 411.924 342.467 417 334.727 417H325.619ZM328.859 414.156H334.619C340.667 414.156 343.079 410.268 343.079 404.22C343.079 398.172 340.919 394.068 334.871 394.068H328.859V414.156ZM357.752 417.504C352.064 417.504 348.752 413.112 348.752 407.712C348.752 402.312 352.28 397.92 357.572 397.92C363.152 397.92 366.14 402.24 366.14 408.396H351.74C351.956 412.176 354.008 415.056 357.752 415.056C360.452 415.056 362.252 413.76 362.9 411.24H365.744C364.88 415.236 361.964 417.504 357.752 417.504ZM357.572 400.224C354.116 400.224 352.244 402.816 351.812 406.2H363.008C362.828 402.492 360.92 400.224 357.572 400.224ZM376.048 417.54C370.936 417.54 368.092 415.128 367.804 410.952H370.792C371.188 414.192 373.348 415.092 376.12 415.092C379.18 415.092 380.44 413.76 380.44 412.032C380.44 409.944 379 409.404 375.58 408.684C371.908 407.928 368.632 407.172 368.632 403.104C368.632 400.008 371.008 397.992 375.328 397.992C379.936 397.992 382.204 400.188 382.636 403.824H379.648C379.36 401.376 378.028 400.296 375.256 400.296C372.592 400.296 371.512 401.484 371.512 402.96C371.512 404.976 373.312 405.372 376.516 406.02C380.26 406.776 383.392 407.604 383.392 411.888C383.392 415.632 380.332 417.54 376.048 417.54ZM386.183 417V398.388H389.099V417H386.183ZM386.183 394.86V391.26H389.099V394.86H386.183ZM400.49 423.192C395.666 423.192 392.93 421.248 392.606 418.044H395.306C395.594 420.096 397.538 420.888 400.418 420.888C403.838 420.888 405.746 419.34 405.746 416.1V413.472H405.674C404.306 415.236 402.83 416.352 400.166 416.352C395.342 416.352 392.03 412.5 392.03 407.136C392.03 401.34 395.666 397.956 399.986 397.956C402.686 397.956 404.414 399 405.674 400.764H405.746V398.388H408.662V415.992C408.662 420.888 405.422 423.192 400.49 423.192ZM400.31 413.904C404.594 413.904 405.962 410.916 405.962 406.992C405.962 402.924 404.234 400.404 400.274 400.404C396.782 400.404 395.018 403.14 395.018 407.172C395.018 411.24 396.854 413.904 400.31 413.904ZM415.537 398.388V400.836H415.609C416.941 399.072 418.813 397.956 421.513 397.956C425.401 397.956 427.777 400.08 427.777 403.932V417H424.861V404.184C424.861 401.772 423.277 400.404 420.649 400.404C417.697 400.404 415.537 402.492 415.537 405.552V417H412.621V398.388H415.537ZM439.596 417.504C433.908 417.504 430.596 413.112 430.596 407.712C430.596 402.312 434.124 397.92 439.416 397.92C444.996 397.92 447.984 402.24 447.984 408.396H433.584C433.8 412.176 435.852 415.056 439.596 415.056C442.296 415.056 444.096 413.76 444.744 411.24H447.588C446.724 415.236 443.808 417.504 439.596 417.504ZM439.416 400.224C435.96 400.224 434.088 402.816 433.656 406.2H444.852C444.672 402.492 442.764 400.224 439.416 400.224ZM453.751 398.388V401.484H453.823C454.939 399.684 456.883 398.172 459.367 398.172C459.907 398.172 460.195 398.244 460.555 398.388V401.196H460.447C460.015 401.052 459.727 401.016 459.151 401.016C456.271 401.016 453.751 403.176 453.751 406.668V417H450.835V398.388H453.751Z" fill="black"/>
</svg>
